<svg width="84" height="25" viewBox="0 0 84 25" fill="none" xmlns="http://www.w3.org/2000/svg">
<path d="M17.2383 5.248H20.7983L20.8013 5.246C21.1863 5.246 21.5013 5.56 21.5013 5.946C21.5013 6.331 21.1863 6.646 20.8013 6.646H16.9333C18.1403 8.178 18.8543 9.859 19.0083 11.577C19.2153 13.86 18.4383 15.949 16.7693 17.619C15.1023 19.285 12.3383 20.506 9.37031 20.881C8.74631 20.961 8.14031 21 7.56331 21C5.29331 21 3.35431 20.364 2.24331 19.254C0.837314 17.85 0.228314 15.186 0.613313 12.131C0.988313 9.162 2.20931 6.398 3.87531 4.731C5.36731 3.241 7.20731 2.449 9.19931 2.449C9.37131 2.449 9.54231 2.456 9.71031 2.467C11.4723 2.583 13.2563 3.319 14.8483 4.571V0.7C14.8483 0.315 15.1633 0 15.5483 0C15.9343 0 16.2483 0.315 16.2483 0.7V4.261L19.2553 1.254C19.5023 1.006 19.9963 1.006 20.2453 1.254C20.3763 1.385 20.4513 1.563 20.4513 1.748C20.4513 1.933 20.3763 2.111 20.2453 2.241L17.2383 5.248ZM15.7753 16.632C17.1433 15.265 17.7803 13.56 17.6123 11.705L17.6083 11.707C17.4493 9.898 16.5313 8.108 14.9563 6.537C13.3503 4.931 11.4523 3.982 9.61431 3.863C9.47531 3.853 9.33431 3.849 9.19431 3.849C7.58631 3.849 6.09131 4.49 4.86231 5.722C3.43031 7.158 2.33131 9.68 1.99931 12.309C1.61131 15.403 2.38031 17.416 3.23131 18.266C4.06731 19.103 5.68831 19.603 7.56131 19.603C8.07931 19.603 8.62931 19.565 9.19231 19.495C11.8193 19.163 14.3443 18.064 15.7753 16.632ZM8.54831 9.098C8.54831 10.032 7.14831 10.032 7.14831 9.098C7.14831 8.164 8.54831 8.164 8.54831 9.098ZM11.6983 12.948C11.6983 12.562 12.0123 12.248 12.3983 12.248C12.7843 12.248 13.0983 12.562 13.0983 12.948C13.0983 13.334 12.7843 13.648 12.3983 13.648C12.0123 13.648 11.6983 13.334 11.6983 12.948ZM7.84831 14.348C7.84831 15.282 6.44831 15.282 6.44831 14.348C6.44831 13.414 7.84831 13.414 7.84831 14.348Z" fill="#666666"/>
<path d="M33.4846 7.81C34.5272 7.81 35.4626 8.07833 36.2906 8.615C37.1186 9.13633 37.7702 9.857 38.2456 10.777C38.7362 11.697 38.9816 12.7627 38.9816 13.974C38.9816 15.1853 38.7362 16.2587 38.2456 17.194C37.7702 18.1293 37.1186 18.873 36.2906 19.425C35.4779 19.9617 34.5579 20.23 33.5306 20.23C32.9632 20.23 32.4266 20.1457 31.9206 19.977C31.4299 19.793 30.9776 19.5553 30.5636 19.264C30.1649 18.9573 29.8276 18.6277 29.5516 18.275C29.2756 17.907 29.0762 17.5467 28.9536 17.194L29.4596 16.872V19.172C29.4596 19.4327 29.3752 19.655 29.2066 19.839C29.0379 20.023 28.8156 20.115 28.5396 20.115C28.2789 20.115 28.0566 20.0307 27.8726 19.862C27.7039 19.678 27.6196 19.448 27.6196 19.172V3.923C27.6196 3.66233 27.7039 3.44 27.8726 3.256C28.0566 3.072 28.2789 2.98 28.5396 2.98C28.8156 2.98 29.0379 3.072 29.2066 3.256C29.3752 3.44 29.4596 3.66233 29.4596 3.923V11.007L29.1146 10.823C29.2219 10.4397 29.4059 10.0717 29.6666 9.719C29.9426 9.351 30.2722 9.029 30.6556 8.753C31.0542 8.46167 31.4912 8.23167 31.9666 8.063C32.4572 7.89433 32.9632 7.81 33.4846 7.81ZM33.2776 9.512C32.5109 9.512 31.8286 9.70367 31.2306 10.087C30.6479 10.4703 30.1879 10.9993 29.8506 11.674C29.5286 12.3487 29.3676 13.1153 29.3676 13.974C29.3676 14.8327 29.5286 15.607 29.8506 16.297C30.1879 16.987 30.6479 17.5313 31.2306 17.93C31.8286 18.3287 32.5109 18.528 33.2776 18.528C34.0442 18.528 34.7189 18.3287 35.3016 17.93C35.8842 17.5313 36.3442 16.987 36.6816 16.297C37.0189 15.607 37.1876 14.8327 37.1876 13.974C37.1876 13.1153 37.0189 12.3487 36.6816 11.674C36.3442 10.9993 35.8842 10.4703 35.3016 10.087C34.7189 9.70367 34.0442 9.512 33.2776 9.512ZM46.7845 20.23C45.5578 20.23 44.4845 19.9693 43.5645 19.448C42.6445 18.9267 41.9238 18.2137 41.4025 17.309C40.8965 16.389 40.6435 15.331 40.6435 14.135C40.6435 12.801 40.9042 11.6663 41.4255 10.731C41.9622 9.78033 42.6522 9.05967 43.4955 8.569C44.3542 8.063 45.2588 7.81 46.2095 7.81C46.9148 7.81 47.5972 7.94033 48.2565 8.201C48.9158 8.46167 49.4985 8.845 50.0045 9.351C50.5105 9.84167 50.9168 10.4397 51.2235 11.145C51.5302 11.835 51.6912 12.6093 51.7065 13.468C51.7065 13.7133 51.6145 13.9203 51.4305 14.089C51.2465 14.2577 51.0318 14.342 50.7865 14.342H41.7015L41.2875 12.755H50.1425L49.7745 13.077V12.571C49.7132 11.9423 49.4985 11.4057 49.1305 10.961C48.7778 10.501 48.3408 10.1483 47.8195 9.903C47.3135 9.65767 46.7768 9.535 46.2095 9.535C45.7495 9.535 45.2895 9.61933 44.8295 9.788C44.3848 9.94133 43.9785 10.202 43.6105 10.57C43.2578 10.9227 42.9665 11.3827 42.7365 11.95C42.5218 12.5173 42.4145 13.1997 42.4145 13.997C42.4145 14.8863 42.5908 15.6683 42.9435 16.343C43.3115 17.0177 43.8175 17.5543 44.4615 17.953C45.1055 18.3363 45.8568 18.528 46.7155 18.528C47.2522 18.528 47.7198 18.459 48.1185 18.321C48.5172 18.183 48.8622 18.0143 49.1535 17.815C49.4448 17.6003 49.6902 17.3857 49.8895 17.171C50.0888 17.033 50.2805 16.964 50.4645 16.964C50.6945 16.964 50.8785 17.0407 51.0165 17.194C51.1698 17.3473 51.2465 17.5313 51.2465 17.746C51.2465 18.0067 51.1238 18.2367 50.8785 18.436C50.4492 18.9113 49.8665 19.333 49.1305 19.701C48.3945 20.0537 47.6125 20.23 46.7845 20.23ZM54.9321 20C54.6714 20 54.4491 19.908 54.2651 19.724C54.0964 19.54 54.0121 19.3177 54.0121 19.057V9.029C54.0121 8.76833 54.0964 8.55367 54.2651 8.385C54.4491 8.201 54.6714 8.109 54.9321 8.109C55.2081 8.109 55.4304 8.201 55.5991 8.385C55.7677 8.55367 55.8521 8.76833 55.8521 9.029V12.065L55.5761 11.582C55.6681 11.1067 55.8291 10.6467 56.0591 10.202C56.3044 9.742 56.6111 9.33567 56.9791 8.983C57.3471 8.615 57.7687 8.33133 58.2441 8.132C58.7194 7.91733 59.2407 7.81 59.8081 7.81C60.1454 7.81 60.4521 7.89433 60.7281 8.063C61.0194 8.21633 61.1651 8.43867 61.1651 8.73C61.1651 9.052 61.0807 9.28967 60.9121 9.443C60.7434 9.59633 60.5517 9.673 60.3371 9.673C60.1377 9.673 59.9461 9.63467 59.7621 9.558C59.5781 9.466 59.3481 9.42 59.0721 9.42C58.6887 9.42 58.3054 9.52733 57.9221 9.742C57.5541 9.94133 57.2091 10.2327 56.8871 10.616C56.5804 10.9993 56.3274 11.4363 56.1281 11.927C55.9441 12.4023 55.8521 12.916 55.8521 13.468V19.057C55.8521 19.3177 55.7601 19.54 55.5761 19.724C55.4074 19.908 55.1927 20 54.9321 20ZM63.7035 20C63.4428 20 63.2205 19.908 63.0365 19.724C62.8678 19.54 62.7835 19.3177 62.7835 19.057V9.029C62.7835 8.76833 62.8678 8.55367 63.0365 8.385C63.2205 8.201 63.4428 8.109 63.7035 8.109C63.9795 8.109 64.2018 8.201 64.3705 8.385C64.5392 8.55367 64.6235 8.76833 64.6235 9.029V12.065L64.3475 11.582C64.4395 11.1067 64.6005 10.6467 64.8305 10.202C65.0758 9.742 65.3825 9.33567 65.7505 8.983C66.1185 8.615 66.5402 8.33133 67.0155 8.132C67.4908 7.91733 68.0122 7.81 68.5795 7.81C68.9168 7.81 69.2235 7.89433 69.4995 8.063C69.7908 8.21633 69.9365 8.43867 69.9365 8.73C69.9365 9.052 69.8522 9.28967 69.6835 9.443C69.5148 9.59633 69.3232 9.673 69.1085 9.673C68.9092 9.673 68.7175 9.63467 68.5335 9.558C68.3495 9.466 68.1195 9.42 67.8435 9.42C67.4602 9.42 67.0768 9.52733 66.6935 9.742C66.3255 9.94133 65.9805 10.2327 65.6585 10.616C65.3518 10.9993 65.0988 11.4363 64.8995 11.927C64.7155 12.4023 64.6235 12.916 64.6235 13.468V19.057C64.6235 19.3177 64.5315 19.54 64.3475 19.724C64.1788 19.908 63.9642 20 63.7035 20ZM80.456 7.925C80.7166 7.925 80.9313 8.017 81.1 8.201C81.284 8.36967 81.376 8.58433 81.376 8.845V18.873C81.376 20.161 81.123 21.2267 80.617 22.07C80.111 22.9287 79.4286 23.565 78.57 23.979C77.7266 24.393 76.7683 24.6 75.695 24.6C75.097 24.6 74.522 24.5387 73.97 24.416C73.418 24.2933 72.9656 24.1323 72.613 23.933C72.3216 23.795 72.1146 23.6187 71.992 23.404C71.8846 23.2047 71.8693 22.99 71.946 22.76C72.0533 22.484 72.2066 22.2923 72.406 22.185C72.6206 22.0777 72.843 22.0777 73.073 22.185C73.3183 22.2923 73.671 22.438 74.131 22.622C74.6063 22.8213 75.1353 22.921 75.718 22.921C76.5153 22.921 77.1976 22.7677 77.765 22.461C78.3323 22.1543 78.7693 21.702 79.076 21.104C79.3826 20.5213 79.536 19.793 79.536 18.919V17.286L79.812 17.861C79.5666 18.3363 79.237 18.7503 78.823 19.103C78.409 19.4557 77.9336 19.7317 77.397 19.931C76.8603 20.1303 76.27 20.23 75.626 20.23C74.752 20.23 74.0083 20.046 73.395 19.678C72.797 19.2947 72.337 18.7733 72.015 18.114C71.7083 17.4393 71.555 16.665 71.555 15.791V8.845C71.555 8.58433 71.6393 8.36967 71.808 8.201C71.992 8.017 72.2143 7.925 72.475 7.925C72.751 7.925 72.9733 8.017 73.142 8.201C73.3106 8.36967 73.395 8.58433 73.395 8.845V15.377C73.395 16.4197 73.625 17.2093 74.085 17.746C74.545 18.2673 75.258 18.528 76.224 18.528C76.8373 18.528 77.3893 18.39 77.88 18.114C78.386 17.838 78.7846 17.4623 79.076 16.987C79.3826 16.4963 79.536 15.9597 79.536 15.377V8.845C79.536 8.58433 79.6203 8.36967 79.789 8.201C79.9576 8.017 80.18 7.925 80.456 7.925Z" fill="#666666"/>
</svg>
