<svg width="92" height="18" viewBox="0 0 92 18" fill="none" xmlns="http://www.w3.org/2000/svg">
<path d="M0.362374 0.72H2.76037V7.584H2.89237C3.22971 6.89467 3.67704 6.35933 4.23437 5.978C4.79171 5.582 5.48837 5.384 6.32437 5.384C7.65904 5.384 8.72237 5.88267 9.51438 6.88C10.3064 7.87733 10.7024 9.35867 10.7024 11.324C10.7024 13.2893 10.3064 14.7707 9.51438 15.768C8.72237 16.7653 7.65904 17.264 6.32437 17.264C5.48837 17.264 4.79171 17.0733 4.23437 16.692C3.67704 16.296 3.22971 15.7533 2.89237 15.064H2.76037V17H0.362374V0.72ZM5.33437 15.306C6.24371 15.306 6.94037 15.0273 7.42437 14.47C7.92304 13.9127 8.17237 13.172 8.17237 12.248V10.4C8.17237 9.476 7.92304 8.73533 7.42437 8.178C6.94037 7.62067 6.24371 7.342 5.33437 7.342C4.98237 7.342 4.65237 7.386 4.34437 7.474C4.03637 7.562 3.76504 7.694 3.53037 7.87C3.29571 8.046 3.10504 8.266 2.95837 8.53C2.82637 8.77933 2.76037 9.08 2.76037 9.432V13.216C2.76037 13.568 2.82637 13.876 2.95837 14.14C3.10504 14.3893 3.29571 14.602 3.53037 14.778C3.76504 14.954 4.03637 15.086 4.34437 15.174C4.65237 15.262 4.98237 15.306 5.33437 15.306ZM11.9258 15.064H15.6878V2.656H11.9258V0.72H18.0858V15.064H21.8478V17H11.9258V15.064ZM30.8812 15.064H30.7712C30.6539 15.3573 30.4999 15.6433 30.3092 15.922C30.1332 16.186 29.9132 16.4207 29.6492 16.626C29.3852 16.8167 29.0772 16.9707 28.7252 17.088C28.3732 17.2053 27.9625 17.264 27.4932 17.264C26.3492 17.264 25.4252 16.89 24.7212 16.142C24.0172 15.394 23.6652 14.3307 23.6652 12.952V5.648H26.0632V12.6C26.0632 14.404 26.8479 15.306 28.4172 15.306C28.7252 15.306 29.0259 15.2693 29.3192 15.196C29.6125 15.108 29.8765 14.9833 30.1112 14.822C30.3459 14.6607 30.5292 14.4627 30.6612 14.228C30.8079 13.9787 30.8812 13.6853 30.8812 13.348V5.648H33.2792V17H30.8812V15.064ZM40.4206 17.264C39.5553 17.264 38.7779 17.1247 38.0886 16.846C37.3993 16.5673 36.8199 16.1713 36.3506 15.658C35.8813 15.1447 35.5219 14.5287 35.2726 13.81C35.0233 13.0767 34.8986 12.2553 34.8986 11.346C34.8986 10.4367 35.0233 9.61533 35.2726 8.882C35.5366 8.14867 35.8959 7.52533 36.3506 7.012C36.8199 6.484 37.3846 6.08067 38.0446 5.802C38.7046 5.52333 39.4379 5.384 40.2446 5.384C41.0366 5.384 41.7553 5.52333 42.4006 5.802C43.0459 6.066 43.5959 6.44733 44.0506 6.946C44.5053 7.44467 44.8499 8.03867 45.0846 8.728C45.3339 9.41733 45.4586 10.18 45.4586 11.016V11.918H37.3186V12.292C37.3186 13.1867 37.5973 13.92 38.1546 14.492C38.7119 15.0493 39.4819 15.328 40.4646 15.328C41.1979 15.328 41.8213 15.174 42.3346 14.866C42.8626 14.5433 43.2879 14.118 43.6106 13.59L45.1066 14.91C44.7253 15.57 44.1386 16.1273 43.3466 16.582C42.5693 17.0367 41.5939 17.264 40.4206 17.264ZM40.2446 7.21C39.8193 7.21 39.4233 7.28333 39.0566 7.43C38.7046 7.57667 38.3966 7.78933 38.1326 8.068C37.8833 8.332 37.6853 8.64733 37.5386 9.014C37.3919 9.38067 37.3186 9.784 37.3186 10.224V10.378H43.0166V10.158C43.0166 9.26333 42.7599 8.552 42.2466 8.024C41.7479 7.48133 41.0806 7.21 40.2446 7.21ZM46.968 0.72H49.366V7.584H49.498C49.8353 6.89467 50.2827 6.35933 50.84 5.978C51.3973 5.582 52.094 5.384 52.93 5.384C54.2647 5.384 55.328 5.88267 56.12 6.88C56.912 7.87733 57.308 9.35867 57.308 11.324C57.308 13.2893 56.912 14.7707 56.12 15.768C55.328 16.7653 54.2647 17.264 52.93 17.264C52.094 17.264 51.3973 17.0733 50.84 16.692C50.2827 16.296 49.8353 15.7533 49.498 15.064H49.366V17H46.968V0.72ZM51.94 15.306C52.8493 15.306 53.546 15.0273 54.03 14.47C54.5287 13.9127 54.778 13.172 54.778 12.248V10.4C54.778 9.476 54.5287 8.73533 54.03 8.178C53.546 7.62067 52.8493 7.342 51.94 7.342C51.588 7.342 51.258 7.386 50.95 7.474C50.642 7.562 50.3707 7.694 50.136 7.87C49.9013 8.046 49.7107 8.266 49.564 8.53C49.432 8.77933 49.366 9.08 49.366 9.432V13.216C49.366 13.568 49.432 13.876 49.564 14.14C49.7107 14.3893 49.9013 14.602 50.136 14.778C50.3707 14.954 50.642 15.086 50.95 15.174C51.258 15.262 51.588 15.306 51.94 15.306ZM64.1854 3.58C63.5694 3.58 63.1367 3.45533 62.8874 3.206C62.6527 2.95667 62.5354 2.64867 62.5354 2.282V1.82C62.5354 1.45333 62.6527 1.14533 62.8874 0.895999C63.1367 0.646666 63.5621 0.522 64.1634 0.522C64.7794 0.522 65.2047 0.646666 65.4394 0.895999C65.6887 1.14533 65.8134 1.45333 65.8134 1.82V2.282C65.8134 2.64867 65.6887 2.95667 65.4394 3.206C65.2047 3.45533 64.7867 3.58 64.1854 3.58ZM59.1034 15.064H62.9754V7.584H59.1034V5.648H65.3734V15.064H69.0034V17H59.1034V15.064ZM70.2048 15.064H73.2188V7.584H70.2048V5.648H75.6168V8.662H75.7488C75.8515 8.266 75.9981 7.88467 76.1888 7.518C76.3795 7.15133 76.6215 6.836 76.9148 6.572C77.2081 6.29333 77.5675 6.07333 77.9928 5.912C78.4181 5.736 78.9168 5.648 79.4888 5.648H80.8528V7.936H78.6088C77.7288 7.936 77.0101 8.2 76.4528 8.728C75.8955 9.24133 75.6168 9.938 75.6168 10.818V15.064H79.7308V17H70.2048V15.064ZM89.2482 15.064H89.1162C88.7789 15.7533 88.3316 16.296 87.7742 16.692C87.2169 17.0733 86.5202 17.264 85.6842 17.264C84.3496 17.264 83.2862 16.7653 82.4942 15.768C81.7022 14.7707 81.3062 13.2893 81.3062 11.324C81.3062 9.35867 81.7022 7.87733 82.4942 6.88C83.2862 5.88267 84.3496 5.384 85.6842 5.384C86.5202 5.384 87.2169 5.582 87.7742 5.978C88.3316 6.35933 88.7789 6.89467 89.1162 7.584H89.2482V0.72H91.6462V17H89.2482V15.064ZM86.6742 15.306C87.0262 15.306 87.3562 15.262 87.6642 15.174C87.9722 15.086 88.2436 14.954 88.4782 14.778C88.7129 14.602 88.8962 14.3893 89.0282 14.14C89.1749 13.876 89.2482 13.568 89.2482 13.216V9.432C89.2482 9.08 89.1749 8.77933 89.0282 8.53C88.8962 8.266 88.7129 8.046 88.4782 7.87C88.2436 7.694 87.9722 7.562 87.6642 7.474C87.3562 7.386 87.0262 7.342 86.6742 7.342C85.7649 7.342 85.0609 7.62067 84.5622 8.178C84.0782 8.73533 83.8362 9.476 83.8362 10.4V12.248C83.8362 13.172 84.0782 13.9127 84.5622 14.47C85.0609 15.0273 85.7649 15.306 86.6742 15.306Z" fill="#666666"/>
</svg>
