<svg width="106" height="17" viewBox="0 0 106 17" fill="none" xmlns="http://www.w3.org/2000/svg">
<path d="M9.13715 3.702C8.97582 3.42333 8.37449 3.284 7.33315 3.284C5.96915 3.284 4.93515 3.746 4.23115 4.67C3.52715 5.594 3.17515 6.92867 3.17515 8.674C3.17515 12.2967 4.53182 14.108 7.24516 14.108C7.28915 14.108 7.47982 14.108 7.81715 14.108C8.16915 14.108 8.49915 14.064 8.80716 13.976C9.11516 13.8733 9.29849 13.7707 9.35715 13.668C9.41582 13.5653 9.44515 13.404 9.44515 13.184V11.424L11.6892 11.578V15.384C10.5452 15.9853 9.09316 16.286 7.33315 16.286C5.08915 16.286 3.37315 15.6553 2.18515 14.394C1.01182 13.1327 0.425155 11.2553 0.425155 8.762C0.425155 7.38333 0.623155 6.18067 1.01915 5.154C1.41515 4.12733 1.95049 3.328 2.62515 2.756C3.94515 1.656 5.51449 1.106 7.33315 1.106C8.79982 1.106 10.1785 1.40667 11.4692 2.008V5.748L9.22516 5.902V4.186C9.22516 3.966 9.19582 3.80467 9.13715 3.702ZM14.4075 13.536V2.822C14.4075 2.58733 14.3635 2.426 14.2755 2.338C14.2022 2.25 14.0629 2.19867 13.8575 2.184L13.0875 2.14V0.313999H17.0035V6.232C17.7662 5.14667 18.8369 4.604 20.2155 4.604C21.3302 4.604 22.1882 4.92667 22.7895 5.572C23.4055 6.20267 23.7135 7.156 23.7135 8.432V14.174L24.9675 14.24V16H19.7315V14.328L20.4575 14.262C20.6775 14.2327 20.8389 14.174 20.9415 14.086C21.0442 13.9833 21.0955 13.8 21.0955 13.536V9.004C21.0955 8.24133 20.9709 7.65467 20.7215 7.244C20.4869 6.83333 20.0175 6.628 19.3135 6.628C18.6242 6.628 18.0669 6.848 17.6415 7.288C17.2309 7.71333 17.0255 8.234 17.0255 8.85V14.174L18.2795 14.24V16H13.0435V14.328L13.7695 14.262C13.9895 14.2327 14.1509 14.174 14.2535 14.086C14.3562 13.9833 14.4075 13.8 14.4075 13.536ZM35.6949 5.374V13.558C35.6949 13.7927 35.7316 13.954 35.8049 14.042C35.8929 14.13 36.0396 14.1813 36.2449 14.196L36.9489 14.24V16H33.4509V14.724L33.3849 14.702C32.6516 15.758 31.6469 16.286 30.3709 16.286C28.8749 16.286 27.7676 15.8093 27.0489 14.856C26.3303 13.9027 25.9709 12.5973 25.9709 10.94C25.9709 8.94533 26.4549 7.39067 27.4229 6.276C28.3909 5.16133 29.8429 4.604 31.7789 4.604C33.0256 4.604 34.3309 4.86067 35.6949 5.374ZM33.1429 12.502V6.804C32.7323 6.61333 32.1676 6.518 31.4489 6.518C30.4663 6.518 29.7549 6.914 29.3149 7.706C28.8749 8.498 28.6549 9.54667 28.6549 10.852C28.6549 13.228 29.4176 14.416 30.9429 14.416C31.5883 14.416 32.1163 14.2253 32.5269 13.844C32.9376 13.448 33.1429 13.0007 33.1429 12.502ZM37.7274 6.716V4.934H41.4454V6.364C42.2667 5.19067 43.3887 4.604 44.8114 4.604C46.2487 4.604 47.2167 5.19067 47.7154 6.364C48.5367 5.19067 49.6514 4.604 51.0594 4.604C52.1154 4.604 52.9294 4.92667 53.5014 5.572C54.0734 6.20267 54.3594 7.156 54.3594 8.432V14.174L55.6134 14.24V16H50.3774V14.328L51.1034 14.262C51.3234 14.2327 51.4774 14.174 51.5654 14.086C51.668 13.9833 51.7267 13.8073 51.7414 13.558V9.004C51.7414 8.19733 51.646 7.60333 51.4554 7.222C51.2794 6.826 50.854 6.628 50.1794 6.628C49.5047 6.628 48.984 6.83333 48.6174 7.244C48.2654 7.65467 48.0894 8.20467 48.0894 8.894V14.174L49.2994 14.24V16H44.1074V14.328L44.8334 14.262C45.0534 14.2327 45.2147 14.174 45.3174 14.086C45.42 13.9833 45.4714 13.8 45.4714 13.536V9.004C45.4714 8.19733 45.376 7.60333 45.1854 7.222C45.0094 6.826 44.5767 6.628 43.8874 6.628C43.2127 6.628 42.6994 6.84067 42.3474 7.266C41.9954 7.69133 41.8194 8.21933 41.8194 8.85V14.174L43.0074 14.24V16H37.8154V14.328L38.5414 14.262C38.7614 14.2327 38.9227 14.174 39.0254 14.086C39.128 13.9833 39.1794 13.8 39.1794 13.536H39.2014V7.464C39.2014 7.21467 39.1574 7.046 39.0694 6.958C38.996 6.85533 38.8567 6.79667 38.6514 6.782L37.7274 6.716ZM61.998 4.604C63.098 4.604 63.9707 4.87533 64.616 5.418C65.2613 5.946 65.584 6.694 65.584 7.662C65.584 8.30733 65.4447 8.87933 65.166 9.378C64.8873 9.862 64.5427 10.2433 64.132 10.522C63.7213 10.8007 63.2227 11.028 62.636 11.204C61.6533 11.4973 60.546 11.644 59.314 11.644C59.358 12.4213 59.6 13.052 60.04 13.536C60.48 14.0053 61.1547 14.24 62.064 14.24C62.9733 14.24 63.8827 13.9173 64.792 13.272L65.628 15.054C65.3347 15.318 64.836 15.5893 64.132 15.868C63.4427 16.1467 62.6507 16.286 61.756 16.286C59.9667 16.286 58.654 15.7947 57.818 14.812C56.982 13.8147 56.564 12.4507 56.564 10.72C56.564 8.98933 57.0407 7.53733 57.994 6.364C58.9473 5.19067 60.282 4.604 61.998 4.604ZM60.986 9.642C61.5287 9.53933 62.0273 9.32667 62.482 9.004C62.9367 8.66667 63.164 8.27067 63.164 7.816C63.164 6.92133 62.724 6.474 61.844 6.474C61.0227 6.474 60.392 6.804 59.952 7.464C59.512 8.10933 59.27 8.88667 59.226 9.796C59.8713 9.78133 60.458 9.73 60.986 9.642ZM70.6302 0.313999V14.174L71.8842 14.24V16H66.6482V14.328L67.3742 14.262C67.7996 14.218 68.0122 13.9833 68.0122 13.558V2.712C68.0122 2.38933 67.8289 2.21333 67.4622 2.184L66.6922 2.14V0.313999H70.6302ZM78.327 4.604C79.427 4.604 80.2996 4.87533 80.945 5.418C81.5903 5.946 81.913 6.694 81.913 7.662C81.913 8.30733 81.7736 8.87933 81.495 9.378C81.2163 9.862 80.8716 10.2433 80.461 10.522C80.0503 10.8007 79.5516 11.028 78.965 11.204C77.9823 11.4973 76.875 11.644 75.643 11.644C75.687 12.4213 75.929 13.052 76.369 13.536C76.809 14.0053 77.4836 14.24 78.393 14.24C79.3023 14.24 80.2116 13.9173 81.121 13.272L81.957 15.054C81.6636 15.318 81.165 15.5893 80.461 15.868C79.7716 16.1467 78.9796 16.286 78.085 16.286C76.2956 16.286 74.983 15.7947 74.147 14.812C73.311 13.8147 72.893 12.4507 72.893 10.72C72.893 8.98933 73.3696 7.53733 74.323 6.364C75.2763 5.19067 76.611 4.604 78.327 4.604ZM77.315 9.642C77.8576 9.53933 78.3563 9.32667 78.811 9.004C79.2656 8.66667 79.493 8.27067 79.493 7.816C79.493 6.92133 79.053 6.474 78.173 6.474C77.3516 6.474 76.721 6.804 76.281 7.464C75.841 8.10933 75.599 8.88667 75.555 9.796C76.2003 9.78133 76.787 9.73 77.315 9.642ZM87.8664 14.394C89.4651 14.394 90.2644 13.1033 90.2644 10.522C90.2644 9.21667 90.0811 8.22667 89.7144 7.552C89.3624 6.87733 88.7611 6.54 87.9104 6.54C87.0744 6.54 86.4584 6.86267 86.0624 7.508C85.6664 8.15333 85.4684 9.03333 85.4684 10.148C85.4684 12.216 85.8497 13.514 86.6124 14.042C86.9497 14.2767 87.3677 14.394 87.8664 14.394ZM82.8064 10.456C82.8064 9.37067 82.9677 8.432 83.2904 7.64C83.6131 6.83333 84.0457 6.21733 84.5884 5.792C85.6297 5 86.7811 4.604 88.0424 4.604C88.9224 4.604 89.6631 4.75067 90.2644 5.044C90.8804 5.32267 91.3571 5.65267 91.6944 6.034C92.0464 6.40067 92.3397 6.94333 92.5744 7.662C92.8237 8.366 92.9484 9.202 92.9484 10.17C92.9484 12.194 92.4571 13.7267 91.4744 14.768C90.4917 15.8093 89.2304 16.33 87.6904 16.33C86.1651 16.33 84.9697 15.8387 84.1044 14.856C83.2391 13.8587 82.8064 12.392 82.8064 10.456ZM93.8574 6.694V4.934H97.5754V6.364C97.9568 5.82133 98.4628 5.396 99.0934 5.088C99.7241 4.76533 100.406 4.604 101.139 4.604C102.254 4.604 103.112 4.92667 103.713 5.572C104.329 6.20267 104.637 7.156 104.637 8.432V14.174L105.891 14.24V16H100.655V14.328L101.381 14.262C101.601 14.2327 101.763 14.174 101.865 14.086C101.968 13.9833 102.019 13.8 102.019 13.536V9.004C102.019 8.19733 101.895 7.60333 101.645 7.222C101.396 6.826 100.919 6.628 100.215 6.628C99.5261 6.628 98.9761 6.848 98.5654 7.288C98.1548 7.728 97.9494 8.24867 97.9494 8.85V14.174L99.2034 14.24V16H93.9674V14.328L94.6934 14.262C94.9134 14.2327 95.0748 14.174 95.1774 14.086C95.2801 13.9833 95.3314 13.8 95.3314 13.536V7.442C95.3314 7.002 95.1481 6.77467 94.7814 6.76L93.8574 6.694Z" fill="#666666"/>
</svg>
