<svg width="70" height="33" viewBox="0 0 70 33" fill="none" xmlns="http://www.w3.org/2000/svg">
<path d="M10.4999 17.275H16.2249C16.2249 17.275 16.2249 17.3333 16.2249 17.45C16.2249 18.1333 15.9332 18.5083 15.3499 18.575L14.6749 18.65H14.6249V23.075C14.1082 23.7583 13.2832 24.3167 12.1499 24.75C11.0166 25.1667 9.8249 25.375 8.5749 25.375C6.3249 25.375 4.58324 24.6417 3.3499 23.175C2.13324 21.7083 1.4999 19.6083 1.4499 16.875C1.41657 14.125 2.09157 11.8917 3.4749 10.175C4.85824 8.45833 6.84157 7.6 9.4249 7.6C11.1749 7.6 12.4916 7.91667 13.3749 8.55C14.2749 9.18333 14.7249 9.94167 14.7249 10.825C14.7249 11.3083 14.5666 11.7083 14.2499 12.025C13.9499 12.3417 13.4916 12.5 12.8749 12.5C12.8749 11.3167 12.5666 10.45 11.9499 9.9C11.3332 9.33333 10.3832 9.05 9.0999 9.05C7.31657 9.05 5.98324 9.725 5.0999 11.075C4.21657 12.425 3.7749 14.2583 3.7749 16.575C3.7749 21.3583 5.56657 23.75 9.1499 23.75C10.6999 23.75 11.8916 23.375 12.7249 22.625V18.7L9.6999 18.55C9.61657 17.7 9.88324 17.275 10.4999 17.275ZM27.9138 24.125C27.9138 24.975 27.3554 25.4 26.2388 25.4C25.1388 25.4 24.4721 24.9083 24.2388 23.925C23.1554 24.8917 21.9554 25.375 20.6388 25.375C19.3388 25.375 18.3471 25.075 17.6638 24.475C16.9804 23.875 16.6388 23.0583 16.6388 22.025C16.6388 20.9917 17.0221 20.125 17.7888 19.425C18.5721 18.725 19.8554 18.375 21.6388 18.375C22.5388 18.375 23.3721 18.4667 24.1388 18.65V16.925C24.1388 14.825 23.2554 13.775 21.4888 13.775C20.6888 13.775 20.0888 14.0167 19.6888 14.5C19.3054 14.9667 19.0971 15.525 19.0638 16.175C18.5804 16.225 18.1804 16.1417 17.8638 15.925C17.5471 15.7083 17.3888 15.35 17.3888 14.85C17.3888 14.1167 17.7638 13.5083 18.5138 13.025C19.2804 12.525 20.2721 12.275 21.4888 12.275C22.4388 12.275 23.2138 12.4167 23.8138 12.7C24.4138 12.9833 24.8721 13.2833 25.1888 13.6C25.9054 14.35 26.2638 15.4167 26.2638 16.8V23.925L27.9138 24.125ZM24.1388 20.25C23.4054 19.9 22.5888 19.725 21.6888 19.725C20.7888 19.725 20.1054 19.9083 19.6388 20.275C19.1721 20.625 18.9388 21.125 18.9388 21.775C18.9388 22.4083 19.1304 22.9083 19.5138 23.275C19.8971 23.625 20.4388 23.8 21.1388 23.8C22.2388 23.8 23.2388 23.4167 24.1388 22.65V20.25ZM33.3091 25H28.3591V24.8C28.3591 24.6333 28.3924 24.45 28.4591 24.25C28.5924 23.95 28.8507 23.7833 29.2341 23.75L30.2341 23.7V9.25L29.0341 9.125C28.5674 9.075 28.3341 8.675 28.3341 7.925L32.3591 7.425V23.65L34.1341 23.8C34.2174 24.6 33.9424 25 33.3091 25ZM45.9821 24.125C45.9821 24.975 45.4238 25.4 44.3071 25.4C43.2071 25.4 42.5405 24.9083 42.3071 23.925C41.2238 24.8917 40.0238 25.375 38.7071 25.375C37.4071 25.375 36.4155 25.075 35.7321 24.475C35.0488 23.875 34.7071 23.0583 34.7071 22.025C34.7071 20.9917 35.0905 20.125 35.8571 19.425C36.6405 18.725 37.9238 18.375 39.7071 18.375C40.6071 18.375 41.4405 18.4667 42.2071 18.65V16.925C42.2071 14.825 41.3238 13.775 39.5571 13.775C38.7571 13.775 38.1571 14.0167 37.7571 14.5C37.3738 14.9667 37.1655 15.525 37.1321 16.175C36.6488 16.225 36.2488 16.1417 35.9321 15.925C35.6155 15.7083 35.4571 15.35 35.4571 14.85C35.4571 14.1167 35.8321 13.5083 36.5821 13.025C37.3488 12.525 38.3405 12.275 39.5571 12.275C40.5071 12.275 41.2821 12.4167 41.8821 12.7C42.4821 12.9833 42.9405 13.2833 43.2571 13.6C43.9738 14.35 44.3321 15.4167 44.3321 16.8V23.925L45.9821 24.125ZM42.2071 20.25C41.4738 19.9 40.6571 19.725 39.7571 19.725C38.8571 19.725 38.1738 19.9083 37.7071 20.275C37.2405 20.625 37.0071 21.125 37.0071 21.775C37.0071 22.4083 37.1988 22.9083 37.5821 23.275C37.9655 23.625 38.5071 23.8 39.2071 23.8C40.3071 23.8 41.3071 23.4167 42.2071 22.65V20.25ZM56.8274 25H52.4524V24.8C52.4524 24.2 52.7441 23.85 53.3274 23.75L53.9524 23.7H53.9774L51.3024 19.975L48.9524 23.65L50.3524 23.8C50.4358 24.6 50.1691 25 49.5524 25H45.6024V24.8C45.6024 24.15 45.8941 23.8 46.4774 23.75L47.2524 23.7L50.5274 18.95L46.9524 14L45.7024 13.85C45.6191 13.05 45.8858 12.65 46.5024 12.65H50.8774V12.85C50.8774 13.45 50.5858 13.8 50.0024 13.9L49.4274 13.95L52.0774 17.625L54.3774 14H54.3524L53.1024 13.85C53.0191 13.05 53.2941 12.65 53.9274 12.65H57.5024V12.85C57.5024 13.5 57.2108 13.85 56.6274 13.9L56.0524 13.925L52.8274 18.65L56.4524 23.65L57.6524 23.8C57.7358 24.6 57.4608 25 56.8274 25ZM66.0292 12.65H69.4292V12.85C69.4292 13.4833 69.0625 13.8417 68.3292 13.925L63.9542 24.7H63.9292C62.9959 27.0333 62.2209 28.5667 61.6042 29.3C61.3375 29.6167 61.0042 29.9083 60.6042 30.175C60.2042 30.4417 59.7459 30.575 59.2292 30.575C58.7292 30.575 58.3125 30.425 57.9792 30.125C57.6459 29.8417 57.4792 29.5 57.4792 29.1C57.4792 28.7 57.5875 28.375 57.8042 28.125C58.0209 27.8917 58.2625 27.775 58.5292 27.775C58.8125 27.775 58.9959 27.7917 59.0792 27.825C58.9125 28.5417 59.1125 28.9 59.6792 28.9C60.1125 28.9 60.6042 28.4 61.1542 27.4C61.7042 26.4167 62.1875 25.375 62.6042 24.275L58.2042 14H58.1792L56.9042 13.85C56.8209 13.05 57.0875 12.65 57.7042 12.65H62.2042V12.85C62.2042 13.5 61.9125 13.85 61.3292 13.9L60.5792 13.95L63.6292 21.675L66.5792 14L65.2292 13.85C65.1459 13.05 65.4125 12.65 66.0292 12.65Z" fill="#666666"/>
</svg>
