<svg width="99" height="16" viewBox="0 0 99 16" fill="none" xmlns="http://www.w3.org/2000/svg">
<path d="M6.55944 15.286C5.60611 15.286 4.75544 15.1907 4.00744 15C3.27411 14.7947 2.65077 14.494 2.13744 14.098C1.63877 13.702 1.25744 13.218 0.993439 12.646C0.744105 12.0593 0.626772 11.3773 0.641438 10.6L2.79744 10.05C2.76811 10.798 2.90744 11.414 3.21544 11.898C3.52344 12.382 3.97811 12.7413 4.57944 12.976C5.18077 13.2107 5.87011 13.328 6.64744 13.328C7.41011 13.328 8.05544 13.24 8.58344 13.064C9.11144 12.8733 9.50744 12.6167 9.77144 12.294C10.0354 11.9567 10.1674 11.5753 10.1674 11.15C10.1674 10.666 10.0061 10.2847 9.68344 10.006C9.36077 9.71267 8.92811 9.48533 8.38544 9.324C7.84277 9.148 7.23411 8.98667 6.55944 8.84C5.87011 8.67867 5.18811 8.50267 4.51344 8.312C3.83877 8.12133 3.23011 7.872 2.68744 7.564C2.14477 7.256 1.70477 6.85267 1.36744 6.354C1.04477 5.85533 0.883438 5.22467 0.883438 4.462C0.883438 3.582 1.10344 2.82667 1.54344 2.196C1.98344 1.56533 2.60677 1.074 3.41344 0.721999C4.23477 0.369999 5.20277 0.193999 6.31744 0.193999C7.43211 0.193999 8.40744 0.369999 9.24344 0.721999C10.0941 1.05933 10.7541 1.558 11.2234 2.218C11.7074 2.86333 11.9641 3.66267 11.9934 4.616L9.77144 5.166C9.77144 4.66733 9.69077 4.22733 9.52944 3.846C9.36811 3.46467 9.13344 3.14933 8.82544 2.9C8.51744 2.636 8.15077 2.44533 7.72544 2.328C7.30011 2.196 6.82344 2.13 6.29544 2.13C5.66477 2.13 5.11477 2.22533 4.64544 2.416C4.19077 2.592 3.83144 2.84133 3.56744 3.164C3.31811 3.472 3.19344 3.83867 3.19344 4.264C3.19344 4.792 3.37677 5.21 3.74344 5.518C4.11011 5.81133 4.59411 6.046 5.19544 6.222C5.81144 6.398 6.47144 6.56667 7.17544 6.728C7.80611 6.87467 8.42944 7.04333 9.04544 7.234C9.67611 7.41 10.2481 7.652 10.7614 7.96C11.2894 8.268 11.7074 8.67133 12.0154 9.17C12.3381 9.66867 12.4994 10.3067 12.4994 11.084C12.4994 11.9347 12.2721 12.6753 11.8174 13.306C11.3774 13.9367 10.7174 14.428 9.83744 14.78C8.95744 15.1173 7.86477 15.286 6.55944 15.286ZM24.3528 15V0.479999H26.7508V15H24.3528ZM14.8048 15V0.479999H17.2028V15H14.8048ZM16.1028 8.62V6.596H25.3208V8.62H16.1028ZM29.7691 15V0.479999H32.1891V15H29.7691ZM36.6678 10.644V8.664H40.1438C41.4198 8.664 42.3731 8.422 43.0038 7.938C43.6491 7.43933 43.9718 6.62533 43.9718 5.496C43.9718 4.46933 43.6711 3.69933 43.0698 3.186C42.4831 2.67267 41.5738 2.416 40.3418 2.416H36.6678V0.479999H40.4078C41.3465 0.479999 42.1825 0.589999 42.9158 0.809999C43.6638 1.03 44.2945 1.35267 44.8078 1.778C45.3358 2.18867 45.7318 2.71667 45.9958 3.362C46.2745 3.99267 46.4138 4.726 46.4138 5.562C46.4138 6.662 46.1645 7.59333 45.6658 8.356C45.1671 9.104 44.4265 9.676 43.4438 10.072C42.4758 10.4533 41.2731 10.644 39.8358 10.644H36.6678ZM35.2158 15V0.479999H37.6138V15H35.2158ZM47.1445 11.942V9.412C47.8485 8.664 48.4938 7.916 49.0805 7.168C49.6818 6.42 50.2245 5.672 50.7085 4.924C51.2071 4.16133 51.6398 3.406 52.0065 2.658C52.3878 1.91 52.7105 1.17667 52.9745 0.458H57.1325V15H54.7345V2.218H54.5585C54.1331 3.23 53.6491 4.19067 53.1065 5.1C52.5785 5.99467 52.0065 6.83067 51.3905 7.608C50.7891 8.37067 50.1658 9.08933 49.5205 9.764V9.962H59.0025V11.942H47.1445ZM60.3685 11.942V9.412C61.0725 8.664 61.7178 7.916 62.3045 7.168C62.9058 6.42 63.4485 5.672 63.9325 4.924C64.4312 4.16133 64.8638 3.406 65.2305 2.658C65.6118 1.91 65.9345 1.17667 66.1985 0.458H70.3565V15H67.9585V2.218H67.7825C67.3572 3.23 66.8732 4.19067 66.3305 5.1C65.8025 5.99467 65.2305 6.83067 64.6145 7.608C64.0132 8.37067 63.3898 9.08933 62.7445 9.764V9.962H72.2265V11.942H60.3685ZM78.907 15.308C77.851 15.308 76.927 15.1467 76.135 14.824C75.3576 14.5013 74.7563 14.0467 74.331 13.46C73.9056 12.8733 73.6856 12.162 73.671 11.326L75.937 10.842C76.0103 11.634 76.289 12.2427 76.773 12.668C77.2716 13.0933 77.9756 13.306 78.885 13.306C79.8823 13.306 80.645 13.042 81.173 12.514C81.7156 11.986 81.987 11.1647 81.987 10.05C81.987 9.62467 81.9356 9.22133 81.833 8.84C81.745 8.45867 81.5983 8.12867 81.393 7.85C81.2023 7.55667 80.931 7.32933 80.579 7.168C80.2416 6.992 79.831 6.904 79.347 6.904C78.9363 6.904 78.577 6.95533 78.269 7.058C77.961 7.16067 77.697 7.30733 77.477 7.498C77.257 7.674 77.0736 7.87933 76.927 8.114C76.7803 8.334 76.6556 8.576 76.553 8.84H73.979L74.485 0.479999H83.791V2.526H76.531L76.179 7.41H76.421C76.729 6.58867 77.2203 5.98733 77.895 5.606C78.5696 5.22467 79.3103 5.034 80.117 5.034C81.0996 5.034 81.9063 5.24667 82.537 5.672C83.1823 6.08267 83.659 6.662 83.967 7.41C84.2896 8.158 84.451 9.03067 84.451 10.028C84.451 11.2747 84.209 12.2867 83.725 13.064C83.2556 13.8413 82.603 14.4133 81.767 14.78C80.9456 15.132 79.9923 15.308 78.907 15.308ZM92.256 15.308C91.3613 15.308 90.5473 15.132 89.814 14.78C89.0806 14.428 88.4573 13.9293 87.944 13.284C87.4306 12.624 87.0346 11.8393 86.756 10.93C86.492 10.006 86.36 8.972 86.36 7.828C86.36 6.2 86.6093 4.82133 87.108 3.692C87.6213 2.548 88.3253 1.68267 89.22 1.096C90.1146 0.494666 91.1486 0.193999 92.322 0.193999C93.5393 0.193999 94.5806 0.501999 95.446 1.118C96.326 1.734 97.0006 2.614 97.47 3.758C97.954 4.88733 98.196 6.22933 98.196 7.784C98.196 8.928 98.0566 9.962 97.778 10.886C97.514 11.81 97.118 12.602 96.59 13.262C96.062 13.922 95.4313 14.428 94.698 14.78C93.9793 15.132 93.1653 15.308 92.256 15.308ZM92.3 13.306C92.784 13.306 93.2386 13.196 93.664 12.976C94.0893 12.756 94.456 12.4187 94.764 11.964C95.0866 11.5093 95.336 10.9373 95.512 10.248C95.7026 9.55867 95.798 8.73733 95.798 7.784C95.798 6.61067 95.6513 5.606 95.358 4.77C95.0793 3.934 94.676 3.296 94.148 2.856C93.62 2.40133 93.004 2.174 92.3 2.174C91.684 2.174 91.1046 2.36467 90.562 2.746C90.0193 3.12733 89.5793 3.72867 89.242 4.55C88.9193 5.35667 88.758 6.42 88.758 7.74C88.758 8.67867 88.846 9.5 89.022 10.204C89.198 10.8933 89.44 11.4727 89.748 11.942C90.0706 12.3967 90.4446 12.7413 90.87 12.976C91.31 13.196 91.7866 13.306 92.3 13.306Z" fill="#666666"/>
</svg>
