<svg width="19" height="14" viewBox="0 0 19 14" fill="none" xmlns="http://www.w3.org/2000/svg">
<path d="M16.0449 1.82914C14.4051 1.00965 12.2283 0.576172 9.75 0.576172C7.27175 0.576172 5.09487 1.00965 3.4551 1.82914C1.81532 2.64863 0.890625 3.80193 0.890625 5.00586V8.80273C0.890625 10.0067 1.82561 11.1639 3.4551 11.9795C5.08459 12.795 7.27175 13.2324 9.75 13.2324C12.2283 13.2324 14.4051 12.7989 16.0449 11.9795C17.6847 11.16 18.6094 10.0067 18.6094 8.80273V5.00586C18.6094 3.80193 17.6744 2.64468 16.0449 1.82914ZM9.75 1.8418C14.7049 1.8418 17.3438 3.67933 17.3438 5.00586C17.3438 6.33239 14.7049 8.16992 9.75 8.16992C4.79508 8.16992 2.15625 6.33239 2.15625 5.00586C2.15625 3.67933 4.79508 1.8418 9.75 1.8418ZM9.11719 9.42447V11.9557C7.61426 11.9067 6.34863 11.6852 5.32031 11.3633V8.88579C6.55994 9.21606 7.83461 9.3969 9.11719 9.42447ZM10.3828 9.42447C11.6654 9.3969 12.9401 9.21606 14.1797 8.88579V11.3625C13.1514 11.6844 11.8857 11.9059 10.3828 11.9549V9.42447ZM2.15625 8.80273V7.34173C2.55449 7.6723 2.99048 7.95455 3.4551 8.18258C3.64731 8.27829 3.85061 8.36847 4.05469 8.4539V10.8594C2.80251 10.2392 2.15625 9.45849 2.15625 8.80273ZM15.4453 10.8594V8.4539C15.6518 8.36847 15.8527 8.27829 16.0449 8.18258C16.5095 7.95455 16.9455 7.6723 17.3438 7.34173V8.80273C17.3438 9.45849 16.6975 10.2392 15.4453 10.8594Z" fill="#2B2D2D"/>
</svg>
