<svg width="20" height="15" viewBox="0 0 20 15" fill="none" xmlns="http://www.w3.org/2000/svg">
<path d="M14.1797 4.11442V3.67383C14.1797 1.68996 11.1873 0.193359 7.21875 0.193359C3.25022 0.193359 0.257812 1.68996 0.257812 3.67383V6.83789C0.257812 8.49032 2.33423 9.80341 5.32031 10.1965V10.6348C5.32031 12.6186 8.31273 14.1152 12.2812 14.1152C16.2498 14.1152 19.2422 12.6186 19.2422 10.6348V7.4707C19.2422 5.8333 17.2314 4.51863 14.1797 4.11442ZM17.9766 7.4707C17.9766 8.51643 15.541 9.68555 12.2812 9.68555C11.9862 9.68555 11.6935 9.67526 11.4048 9.65628C13.111 9.03454 14.1797 8.02441 14.1797 6.83789V5.3935C16.5425 5.7455 17.9766 6.70105 17.9766 7.4707ZM5.32031 8.91431V7.03248C5.94979 7.1145 6.58396 7.15519 7.21875 7.1543C7.85354 7.15519 8.48771 7.1145 9.11719 7.03248V8.91431C8.48865 9.00716 7.85411 9.05343 7.21875 9.05273C6.58339 9.05343 5.94885 9.00716 5.32031 8.91431ZM12.9141 5.72493V6.83789C12.9141 7.50155 11.9324 8.21426 10.3828 8.64694V6.79834C11.404 6.55075 12.2686 6.18214 12.9141 5.72493ZM7.21875 1.45898C10.4785 1.45898 12.9141 2.62811 12.9141 3.67383C12.9141 4.71955 10.4785 5.88867 7.21875 5.88867C3.95897 5.88867 1.52344 4.71955 1.52344 3.67383C1.52344 2.62811 3.95897 1.45898 7.21875 1.45898ZM1.52344 6.83789V5.72493C2.16891 6.18214 3.03349 6.55075 4.05469 6.79834V8.64694C2.50509 8.21426 1.52344 7.50155 1.52344 6.83789ZM6.58594 10.6348V10.3049C6.79397 10.3128 7.00438 10.3184 7.21875 10.3184C7.52566 10.3184 7.82546 10.3081 8.11972 10.2907C8.44661 10.4077 8.77959 10.507 9.11719 10.5881V12.4438C7.56759 12.0111 6.58594 11.2984 6.58594 10.6348ZM10.3828 12.7112V10.8246C11.0121 10.9092 11.6463 10.9515 12.2812 10.9512C12.916 10.9521 13.5502 10.9114 14.1797 10.8294V12.7112C12.9208 12.8957 11.6417 12.8957 10.3828 12.7112ZM15.4453 12.4438V10.5952C16.4665 10.3476 17.3311 9.97901 17.9766 9.52181V10.6348C17.9766 11.2984 16.9949 12.0111 15.4453 12.4438Z" fill="#2B2D2D"/>
</svg>
