<svg width="41" height="41" viewBox="0 0 41 41" fill="none" xmlns="http://www.w3.org/2000/svg">
<rect x="0.125" y="0.279297" width="40.5006" height="40.5006" rx="6.75" fill="#F3F2F1"/>
<path d="M22.0633 10.4864C20.9338 10.6541 20.018 10.9342 19.046 11.4078C16.2413 12.7747 14.2534 15.3195 13.5998 18.3818C13.4861 18.9128 13.3691 19.8769 13.3691 20.2842V20.5013H16.8702L16.2694 21.1325C14.7968 22.6771 13.9148 24.4074 13.5311 26.4988C13.395 27.2379 13.3365 28.6712 13.395 29.8322L13.4355 30.6546H18.4092V29.1459C18.4092 27.9861 18.4295 27.5383 18.497 27.2075C18.8986 25.241 20.4331 23.6862 22.3681 23.2846C22.8058 23.1935 23.1422 23.1811 25.1233 23.18L27.3801 23.1789V18.1028H25.1987C23.0274 18.1028 22.2466 18.1444 21.4546 18.303C20.7447 18.4459 19.9595 18.7137 19.253 19.0523C18.8806 19.2312 18.5746 19.3696 18.5746 19.3606C18.5746 19.3504 18.6275 19.1693 18.6916 18.9589C19.1877 17.3423 20.4736 16.1059 22.1465 15.6379C22.5673 15.5197 22.7124 15.513 24.9849 15.4939L27.3801 15.4747V10.4043L24.9568 10.4099C23.3345 10.4144 22.3794 10.4392 22.0633 10.4864Z" fill="#2B2D2D"/>
</svg>
