<svg width="41" height="42" viewBox="0 0 41 42" fill="none" xmlns="http://www.w3.org/2000/svg">
<rect x="0.125" y="0.779297" width="40.5006" height="40.5006" rx="6.75" fill="#D8F9B8"/>
<path d="M24.4738 16.9313C24.24 15.672 23.6666 14.5004 22.8155 13.5431C21.9644 12.5858 20.868 11.8792 19.6447 11.4995C18.4213 11.1199 17.1175 11.0816 15.8739 11.3889C14.6304 11.6962 13.4945 12.3373 12.5887 13.243C11.683 14.1488 11.0419 15.2847 10.7346 16.5282C10.4273 17.7718 10.4656 19.0756 10.8452 20.2989C11.2249 21.5223 11.9315 22.6187 12.8888 23.4698C13.8461 24.3209 15.0177 24.8943 16.277 25.1281C16.5109 26.3875 17.0843 27.5591 17.9354 28.5164C18.7865 29.4737 19.8829 30.1803 21.1062 30.56C22.3296 30.9396 23.6334 30.9779 24.8769 30.6706C26.1205 30.3633 27.2564 29.7222 28.1622 28.8165C29.0679 27.9107 29.709 26.7748 30.0163 25.5312C30.3236 24.2877 30.2853 22.9839 29.9057 21.7605C29.526 20.5372 28.8194 19.4408 27.8621 18.5897C26.9048 17.7386 25.7332 17.1652 24.4738 16.9313ZM17.9751 21.7329L19.6723 23.4301C19.0025 23.7029 18.2861 23.8429 17.5629 23.8423C17.5623 23.1191 17.7023 22.4027 17.9751 21.7329ZM20.9415 22.7111L18.6941 20.4637C19.0122 20.0419 19.3876 19.6665 19.8094 19.3484L22.0568 21.5958C21.7387 22.0176 21.3633 22.393 20.9415 22.7111ZM22.7758 20.3266L21.0786 18.6294C21.7484 18.3566 22.4648 18.2166 23.188 18.2172C23.1886 18.9404 23.0486 19.6568 22.7758 20.3266ZM11.9378 18.2172C11.9351 16.8462 12.4333 15.5213 13.3386 14.4917C14.2439 13.4621 15.4942 12.7986 16.8543 12.6259C18.2144 12.4531 19.5908 12.7831 20.7247 13.5538C21.8587 14.3245 22.6721 15.4827 23.0122 16.8109C21.2093 16.8583 19.4935 17.5959 18.2186 18.8716C16.9438 20.1473 16.2073 21.8636 16.161 23.6665C14.9531 23.3539 13.8831 22.6493 13.1188 21.6631C12.3545 20.6769 11.9391 19.4649 11.9378 18.2172ZM23.188 29.4674C21.9409 29.4663 20.7293 29.0516 19.7432 28.2881C18.7571 27.5247 18.0521 26.4557 17.7387 25.2486C19.5423 25.2023 21.2593 24.4652 22.5351 23.1894C23.8109 21.9136 24.548 20.1966 24.5943 18.393C25.9225 18.733 27.0807 19.5465 27.8514 20.6804C28.6221 21.8144 28.952 23.1908 28.7793 24.5509C28.6066 25.911 27.9431 27.1612 26.9135 28.0666C25.8839 28.9719 24.559 29.4701 23.188 29.4674Z" fill="#2B2D2D"/>
</svg>
