<svg width="16" height="16" viewBox="0 0 16 16" fill="none" xmlns="http://www.w3.org/2000/svg">
<path d="M12.9986 9C12.9999 9.20386 12.938 9.40311 12.8213 9.57033C12.7047 9.73754 12.5391 9.86451 12.3474 9.93375L9.12363 11.125L7.93613 14.3512C7.86581 14.5423 7.73858 14.7072 7.57161 14.8236C7.40464 14.9401 7.20596 15.0025 7.00238 15.0025C6.79881 15.0025 6.60013 14.9401 6.43316 14.8236C6.26619 14.7072 6.13896 14.5423 6.06863 14.3512L4.87363 11.125L1.64738 9.9375C1.45634 9.86718 1.29146 9.73995 1.175 9.57298C1.05854 9.406 0.996094 9.20733 0.996094 9.00375C0.996094 8.80017 1.05854 8.6015 1.175 8.43452C1.29146 8.26755 1.45634 8.14032 1.64738 8.07L4.87363 6.875L6.06113 3.64875C6.13146 3.45771 6.25869 3.29283 6.42566 3.17637C6.59263 3.0599 6.79131 2.99746 6.99488 2.99746C7.19846 2.99746 7.39714 3.0599 7.56411 3.17637C7.73108 3.29283 7.85831 3.45771 7.92863 3.64875L9.12363 6.875L12.3499 8.0625C12.5418 8.13237 12.7072 8.26008 12.8234 8.42801C12.9397 8.59594 13.0009 8.7958 12.9986 9ZM9.49863 3H10.4986V4C10.4986 4.13261 10.5513 4.25979 10.6451 4.35355C10.7388 4.44732 10.866 4.5 10.9986 4.5C11.1312 4.5 11.2584 4.44732 11.3522 4.35355C11.446 4.25979 11.4986 4.13261 11.4986 4V3H12.4986C12.6312 3 12.7584 2.94732 12.8522 2.85355C12.946 2.75979 12.9986 2.63261 12.9986 2.5C12.9986 2.36739 12.946 2.24021 12.8522 2.14645C12.7584 2.05268 12.6312 2 12.4986 2H11.4986V1C11.4986 0.867392 11.446 0.740215 11.3522 0.646447C11.2584 0.552678 11.1312 0.5 10.9986 0.5C10.866 0.5 10.7388 0.552678 10.6451 0.646447C10.5513 0.740215 10.4986 0.867392 10.4986 1V2H9.49863C9.36603 2 9.23885 2.05268 9.14508 2.14645C9.05131 2.24021 8.99863 2.36739 8.99863 2.5C8.99863 2.63261 9.05131 2.75979 9.14508 2.85355C9.23885 2.94732 9.36603 3 9.49863 3ZM14.9986 5H14.4986V4.5C14.4986 4.36739 14.446 4.24021 14.3522 4.14645C14.2584 4.05268 14.1312 4 13.9986 4C13.866 4 13.7388 4.05268 13.6451 4.14645C13.5513 4.24021 13.4986 4.36739 13.4986 4.5V5H12.9986C12.866 5 12.7388 5.05268 12.6451 5.14645C12.5513 5.24021 12.4986 5.36739 12.4986 5.5C12.4986 5.63261 12.5513 5.75979 12.6451 5.85355C12.7388 5.94732 12.866 6 12.9986 6H13.4986V6.5C13.4986 6.63261 13.5513 6.75979 13.6451 6.85355C13.7388 6.94732 13.866 7 13.9986 7C14.1312 7 14.2584 6.94732 14.3522 6.85355C14.446 6.75979 14.4986 6.63261 14.4986 6.5V6H14.9986C15.1312 6 15.2584 5.94732 15.3522 5.85355C15.446 5.75979 15.4986 5.63261 15.4986 5.5C15.4986 5.36739 15.446 5.24021 15.3522 5.14645C15.2584 5.05268 15.1312 5 14.9986 5Z" fill="white"/>
</svg>
