<svg width="17" height="19" viewBox="0 0 17 19" fill="none" xmlns="http://www.w3.org/2000/svg">
<path d="M16.3864 12.8847C16.47 13.0297 16.4927 13.202 16.4496 13.3637C16.4064 13.5255 16.301 13.6636 16.1562 13.7477L8.5625 18.1774C8.46574 18.2338 8.35573 18.2635 8.24372 18.2635C8.13171 18.2635 8.0217 18.2338 7.92494 18.1774L0.331191 13.7477C0.188566 13.662 0.0854371 13.5236 0.0441319 13.3624C0.00282666 13.2012 0.0266696 13.0302 0.110498 12.8865C0.194327 12.7427 0.331396 12.6378 0.492027 12.5944C0.652659 12.551 0.823927 12.5726 0.96875 12.6545L8.24609 16.8983L15.5234 12.6545C15.6685 12.5709 15.8407 12.5482 16.0025 12.5914C16.1642 12.6345 16.3023 12.74 16.3864 12.8847ZM15.5234 8.85764L8.24609 13.1014L0.96875 8.85764C0.824662 8.7859 0.658651 8.77176 0.504507 8.81811C0.350363 8.86445 0.219671 8.96779 0.139032 9.10709C0.0583935 9.2464 0.0338688 9.41119 0.0704497 9.56794C0.10703 9.72469 0.201968 9.86161 0.335938 9.95083L7.92969 14.3805C8.02645 14.4369 8.13645 14.4667 8.24847 14.4667C8.36048 14.4667 8.47048 14.4369 8.56725 14.3805L16.161 9.95083C16.2339 9.90956 16.2979 9.85422 16.3493 9.78801C16.4007 9.72181 16.4384 9.64606 16.4603 9.56516C16.4821 9.48427 16.4877 9.39983 16.4767 9.31676C16.4657 9.23369 16.4382 9.15364 16.396 9.08125C16.3538 9.00886 16.2976 8.94558 16.2308 8.89507C16.1639 8.84457 16.0876 8.80785 16.0065 8.78705C15.9253 8.76625 15.8408 8.76178 15.7579 8.77389C15.675 8.78601 15.5953 8.81448 15.5234 8.85764ZM0.0195312 5.60736C0.0197836 5.49652 0.0491431 5.38769 0.104671 5.29177C0.1602 5.19584 0.239949 5.11619 0.335938 5.06077L7.92969 0.63108C8.02645 0.574653 8.13645 0.544922 8.24847 0.544922C8.36048 0.544922 8.47048 0.574653 8.56725 0.63108L16.161 5.06077C16.2565 5.1165 16.3358 5.19629 16.3909 5.2922C16.4459 5.3881 16.4749 5.49676 16.4749 5.60736C16.4749 5.71795 16.4459 5.82662 16.3909 5.92252C16.3358 6.01843 16.2565 6.09822 16.161 6.15395L8.56725 10.5836C8.47048 10.6401 8.36048 10.6698 8.24847 10.6698C8.13645 10.6698 8.02645 10.6401 7.92969 10.5836L0.335938 6.15395C0.239949 6.09853 0.1602 6.01887 0.104671 5.92295C0.0491431 5.82702 0.0197836 5.7182 0.0195312 5.60736ZM1.90848 5.60736L8.24609 9.30457L14.5837 5.60736L8.24609 1.91015L1.90848 5.60736Z" fill="#2B2D2D"/>
</svg>
