<svg width="14" height="16" viewBox="0 0 14 16" fill="none" xmlns="http://www.w3.org/2000/svg">
<path d="M13.4351 1.91092L8.58534 7.838H11.047C11.2148 7.838 11.3758 7.90467 11.4944 8.02334C11.6131 8.14202 11.6798 8.30298 11.6798 8.47081C11.6798 8.63864 11.6131 8.7996 11.4944 8.91827C11.3758 9.03695 11.2148 9.10362 11.047 9.10362H7.88292V10.3692H11.047C11.2148 10.3692 11.3758 10.4359 11.4944 10.5546C11.6131 10.6733 11.6798 10.8342 11.6798 11.0021C11.6798 11.1699 11.6131 11.3309 11.4944 11.4495C11.3758 11.5682 11.2148 11.6349 11.047 11.6349H7.88292V14.7989C7.88292 14.9668 7.81625 15.1277 7.69757 15.2464C7.5789 15.3651 7.41794 15.4317 7.25011 15.4317C7.08227 15.4317 6.92132 15.3651 6.80264 15.2464C6.68396 15.1277 6.61729 14.9668 6.61729 14.7989V11.6349H3.45323C3.2854 11.6349 3.12444 11.5682 3.00576 11.4495C2.88709 11.3309 2.82042 11.1699 2.82042 11.0021C2.82042 10.8342 2.88709 10.6733 3.00576 10.5546C3.12444 10.4359 3.2854 10.3692 3.45323 10.3692H6.61729V9.10362H3.45323C3.2854 9.10362 3.12444 9.03695 3.00576 8.91827C2.88709 8.7996 2.82042 8.63864 2.82042 8.47081C2.82042 8.30298 2.88709 8.14202 3.00576 8.02334C3.12444 7.90467 3.2854 7.838 3.45323 7.838H5.91487L1.06515 1.91092C0.958791 1.78106 0.90837 1.61426 0.924985 1.44723C0.941599 1.28019 1.02389 1.1266 1.15375 1.02023C1.28361 0.913869 1.4504 0.863448 1.61744 0.880063C1.78447 0.896678 1.93807 0.978966 2.04443 1.10883L7.25011 7.47176L12.4558 1.10883C12.5084 1.04453 12.5733 0.991229 12.6465 0.951977C12.7198 0.912726 12.8001 0.88829 12.8828 0.880063C12.9655 0.871836 13.049 0.879981 13.1286 0.904031C13.2081 0.928081 13.2822 0.967567 13.3465 1.02023C13.4108 1.0729 13.4641 1.13771 13.5033 1.21098C13.5426 1.28424 13.567 1.36452 13.5752 1.44723C13.5835 1.52993 13.5753 1.61345 13.5513 1.69301C13.5272 1.77257 13.4877 1.84662 13.4351 1.91092Z" fill="#2B2D2D"/>
</svg>
