<svg width="349" height="55" viewBox="0 0 349 55" fill="none" xmlns="http://www.w3.org/2000/svg">
<path d="M0.15952 40.3765C0.15952 43.0906 3.73742 44.9258 10.5269 46.5959C59.6478 55.8235 276.82 57.3444 316.173 51.6896C363.707 44.8595 345.984 25.1091 344.792 22.8474C343.6 20.5857 342.408 20.5857 342.408 17.7583C342.408 14.9308 345.437 8.15132 340.974 4.75257C330.962 -2.87439 309.719 -0.149115 254.026 4.75257C170.551 12.1034 35.9346 3.05657 16.8542 3.05657C-2.22486 3.05657 0.15952 16.628 1.35171 21.1514C2.54523 25.6748 1.35171 26.8051 0.158188 29.0668C-1.03267 31.3297 4.92962 33.0257 3.73742 35.8531C2.5439 38.6794 0.15952 36.9834 0.15952 40.3765Z" fill="#D8F9B8"/>
</svg>
