<svg width="306" height="63" viewBox="0 0 306 63" fill="none" xmlns="http://www.w3.org/2000/svg">
<g clip-path="url(#clip0_3529_5772)">
<rect x="-19.1914" y="0.347656" width="61.8414" height="62.3138" rx="30.9207" fill="white"/>
<path d="M21.7921 21.1191H15.624C15.2968 21.1191 14.983 21.2364 14.7517 21.4451C14.5203 21.6537 14.3903 21.9368 14.3903 22.2319C14.3903 22.527 14.5203 22.81 14.7517 23.0187C14.983 23.2274 15.2968 23.3446 15.624 23.3446H17.4744V30.0211H11.368C12.1842 29.0636 12.6289 27.8907 12.6337 26.6829C12.6336 25.4582 12.1855 24.2677 11.359 23.296C10.5324 22.3244 9.3735 21.626 8.062 21.309C6.75051 20.992 5.35971 21.0742 4.10529 21.5428C2.85087 22.0115 1.80293 22.8404 1.12399 23.901C1.03711 24.0277 0.979308 24.1688 0.954012 24.316C0.928717 24.4632 0.936441 24.6135 0.976728 24.7579C1.01702 24.9024 1.08904 25.0381 1.18855 25.1569C1.28805 25.2758 1.41299 25.3755 1.55598 25.45C1.69897 25.5245 1.85709 25.5723 2.02096 25.5907C2.18483 25.6091 2.35113 25.5976 2.50998 25.5569C2.66884 25.5162 2.81702 25.4472 2.94575 25.3539C3.07448 25.2606 3.18113 25.1449 3.25938 25.0138C3.58418 24.5063 4.05132 24.0849 4.61387 23.7919C5.17642 23.4989 5.81455 23.3447 6.46414 23.3446C7.11372 23.3446 7.75188 23.4988 8.31448 23.7917C8.87708 24.0846 9.34429 24.5059 9.66917 25.0133C9.99406 25.5207 10.1652 26.0963 10.1653 26.6822C10.1654 27.2682 9.99455 27.8438 9.66989 28.3513C9.34522 28.8588 8.87819 29.2803 8.31572 29.5734C7.75324 29.8665 7.11515 30.0209 6.46556 30.0211C6.13838 30.0211 5.82461 30.1383 5.59326 30.347C5.36191 30.5557 5.23194 30.8387 5.23194 31.1339C5.23194 31.429 5.36191 31.712 5.59326 31.9207C5.82461 32.1294 6.13838 32.2466 6.46556 32.2466C7.11515 32.2468 7.75324 32.4012 8.31572 32.6943C8.87819 32.9874 9.34522 33.4089 9.66989 33.9164C9.99455 34.4239 10.1654 34.9995 10.1653 35.5855C10.1652 36.1714 9.99406 36.747 9.66917 37.2544C9.34429 37.7618 8.87708 38.1831 8.31448 38.476C7.75188 38.769 7.11372 38.9231 6.46414 38.9231C5.81455 38.923 5.17642 38.7688 4.61387 38.4758C4.05132 38.1828 3.58418 37.7614 3.25938 37.254C3.09064 37.0079 2.8223 36.8309 2.51126 36.7603C2.20022 36.6897 1.87093 36.7312 1.59321 36.8759C1.31549 37.0206 1.11117 37.2572 1.02358 37.5355C0.935982 37.8138 0.971998 38.112 1.12399 38.3667C1.80293 39.4273 2.85087 40.2562 4.10529 40.7249C5.35971 41.1935 6.75051 41.2757 8.062 40.9588C9.3735 40.6418 10.5324 39.9433 11.359 38.9717C12.1855 38.0001 12.6336 36.8096 12.6337 35.5848C12.6289 34.377 12.1842 33.2041 11.368 32.2466H17.4744V40.0358C17.4744 40.331 17.6044 40.614 17.8357 40.8227C18.0671 41.0313 18.3808 41.1486 18.708 41.1486C19.0352 41.1486 19.349 41.0313 19.5803 40.8227C19.8117 40.614 19.9416 40.331 19.9416 40.0358V23.3446H21.7921C22.1192 23.3446 22.433 23.2274 22.6644 23.0187C22.8957 22.81 23.0257 22.527 23.0257 22.2319C23.0257 21.9368 22.8957 21.6537 22.6644 21.4451C22.433 21.2364 22.1192 21.1191 21.7921 21.1191Z" fill="black"/>
<rect x="51.4902" y="0.347656" width="61.8414" height="62.3138" rx="30.9207" fill="white"/>
<path d="M79.4104 21.1191V27.7956M83.3079 34.4721H93.7015C91.5205 31.1339 89.7883 29.4647 88.5047 29.4647M83.3079 21.1191V37.7402C83.3079 39.3476 83.3079 40.1504 82.9273 40.6495C82.5466 41.1486 81.9347 41.1486 80.7096 41.1486H79.4104M75.5128 21.1191V37.7402C75.5128 39.3476 75.5128 40.1504 75.1321 40.6495C74.7515 41.1486 74.1396 41.1486 72.9144 41.1486H71.6152" stroke="#2B2D2D" stroke-width="1.47801" stroke-linecap="round" stroke-linejoin="round"/>
<rect x="122.164" y="0.347656" width="61.8414" height="62.3138" rx="30.9207" fill="white"/>
<path d="M144.893 39.9114C144.15 39.9114 143.53 39.6406 143.034 39.0991C142.537 38.5575 142.288 37.8817 142.287 37.0716V24.9651C142.287 24.7155 142.364 24.5062 142.518 24.3374C142.671 24.1686 142.863 24.0848 143.093 24.0859C143.323 24.0871 143.515 24.1709 143.669 24.3374C143.823 24.5039 143.9 24.7131 143.9 24.9651V37.0716C143.9 37.387 143.993 37.646 144.179 37.8488C144.365 38.0516 144.603 38.153 144.893 38.153H149.358C149.648 38.153 149.885 38.0516 150.071 37.8488C150.257 37.646 150.35 37.387 150.35 37.0716V24.9651C150.35 24.7155 150.427 24.5062 150.581 24.3374C150.735 24.1686 150.926 24.0848 151.157 24.0859C151.387 24.0871 151.578 24.1709 151.732 24.3374C151.886 24.5039 151.963 24.7131 151.963 24.9651V37.0716C151.963 37.8805 151.714 38.5557 151.218 39.0973C150.721 39.6389 150.101 39.9103 149.358 39.9114H144.893ZM157.794 39.9114C157.051 39.9114 156.431 39.6406 155.935 39.0991C155.438 38.5575 155.189 37.8817 155.188 37.0716V36.8008C155.188 36.55 155.265 36.3407 155.419 36.1731C155.572 36.0055 155.764 35.9217 155.994 35.9217L156.43 36.3947C156.534 36.4181 156.622 36.5019 156.694 36.6461C156.765 36.7915 156.801 36.9327 156.801 37.0699C156.801 37.3864 156.894 37.646 157.08 37.8488C157.266 38.0516 157.504 38.153 157.794 38.153H162.259C162.549 38.153 162.786 38.0516 162.972 37.8488C163.158 37.646 163.251 37.387 163.251 37.0716V33.9593C163.251 33.644 163.158 33.3849 162.972 33.1821C162.786 32.9793 162.549 32.8779 162.259 32.8779H157.792C157.051 32.8779 156.431 32.6071 155.935 32.0655C155.438 31.5239 155.189 30.8481 155.188 30.0381V26.9257C155.188 26.1169 155.437 25.4417 155.935 24.9001C156.432 24.3585 157.052 24.0871 157.794 24.0859H162.259C163.001 24.0859 163.621 24.3573 164.119 24.9001C164.617 25.4428 164.865 26.1186 164.864 26.9275V27.1965C164.864 27.4474 164.787 27.6566 164.633 27.8243C164.479 27.9919 164.288 28.0757 164.057 28.0757C163.934 28.0757 163.831 28.0306 163.748 27.9403C163.665 27.8501 163.623 27.7375 163.622 27.6027C163.517 27.5793 163.428 27.4955 163.356 27.3513C163.286 27.2059 163.251 27.0647 163.251 26.9275C163.251 26.611 163.158 26.3513 162.972 26.1485C162.786 25.9457 162.548 25.8443 162.258 25.8443H157.794C157.504 25.8443 157.266 25.9457 157.08 26.1485C156.894 26.3513 156.801 26.611 156.801 26.9275V30.0381C156.801 30.3534 156.894 30.6125 157.08 30.8153C157.266 31.0181 157.504 31.1195 157.794 31.1195H162.259C163.001 31.1195 163.621 31.3909 164.119 31.9336C164.617 32.4764 164.865 33.1522 164.864 33.9611V37.0716C164.864 37.8805 164.615 38.5563 164.119 39.0991C163.622 39.6418 163.002 39.9126 162.258 39.9114H157.794Z" fill="#2B2D2D"/>
<rect x="263.508" y="0.347656" width="61.8414" height="62.3138" rx="30.9207" fill="white"/>
<path d="M278.606 37.9334C278.362 37.9334 278.158 37.8452 277.994 37.6689C277.829 37.4926 277.748 37.2746 277.75 37.015V25.9937C277.75 25.7328 277.832 25.5148 277.997 25.3397C278.162 25.1634 278.366 25.0752 278.609 25.0752C278.853 25.0752 279.056 25.1634 279.22 25.3397C279.383 25.5161 279.465 25.734 279.465 25.9937V37.015C279.465 37.2758 279.383 37.4938 279.218 37.6689C279.053 37.844 278.849 37.9322 278.606 37.9334ZM283.092 37.9334C282.849 37.9334 282.645 37.8452 282.482 37.6689C282.318 37.4926 282.236 37.2746 282.235 37.015V26.0928C282.235 25.81 282.326 25.5693 282.509 25.3709C282.692 25.1738 282.914 25.0752 283.176 25.0752H283.751C283.943 25.0752 284.114 25.1242 284.265 25.2222C284.416 25.3201 284.53 25.4597 284.608 25.641L289.094 34.9301V25.9937C289.094 25.7328 289.177 25.5148 289.341 25.3397C289.506 25.1646 289.709 25.0764 289.952 25.0752C290.194 25.074 290.398 25.1622 290.562 25.3397C290.727 25.5173 290.809 25.7353 290.809 25.9937V36.9158C290.809 37.1987 290.718 37.4387 290.535 37.6358C290.352 37.833 290.129 37.9322 289.866 37.9334H289.293C289.101 37.9334 288.929 37.8844 288.777 37.7865C288.625 37.6885 288.511 37.5489 288.434 37.3677L283.95 28.0785V37.015C283.95 37.2758 283.867 37.4938 283.703 37.6689C283.538 37.8452 283.334 37.9334 283.09 37.9334M297.535 37.9334C297.292 37.9334 297.088 37.8452 296.925 37.6689C296.761 37.4926 296.679 37.2746 296.679 37.015V26.9121H294.107C293.863 26.9121 293.659 26.8239 293.495 26.6476C293.33 26.4712 293.248 26.2527 293.25 25.9918C293.251 25.731 293.332 25.513 293.495 25.3379C293.657 25.1628 293.861 25.0752 294.107 25.0752H300.967C301.209 25.0752 301.413 25.1634 301.577 25.3397C301.742 25.5161 301.824 25.7347 301.824 25.9955C301.824 26.2563 301.742 26.4743 301.577 26.6494C301.413 26.8245 301.209 26.9121 300.967 26.9121H298.394V37.015C298.394 37.2758 298.312 37.4938 298.147 37.6689C297.983 37.844 297.779 37.9322 297.535 37.9334ZM305.65 37.9334C305.257 37.9334 304.928 37.7914 304.662 37.5073C304.397 37.2231 304.265 36.8705 304.265 36.4492V25.9937C304.265 25.7328 304.347 25.5148 304.511 25.3397C304.676 25.1646 304.88 25.0764 305.122 25.0752C305.364 25.074 305.568 25.1622 305.733 25.3397C305.897 25.5173 305.979 25.7353 305.979 25.9937V36.0965H310.267C310.509 36.0965 310.713 36.1847 310.877 36.361C311.042 36.5374 311.124 36.756 311.124 37.0168C311.124 37.2776 311.042 37.4956 310.877 37.6707C310.713 37.8459 310.509 37.9334 310.267 37.9334H305.65Z" fill="#2B2D2D"/>
<rect x="192.846" y="0.347656" width="61.8414" height="62.3138" rx="30.9207" fill="white"/>
<path d="M214.507 38.043H221.449C221.669 38.043 221.852 38.132 221.999 38.3101C222.146 38.4883 222.22 38.7106 222.22 38.9771C222.22 39.2437 222.146 39.466 221.999 39.6441C221.852 39.8222 221.669 39.9113 221.449 39.9113H214.211C213.853 39.9113 213.556 39.768 213.32 39.4816C213.083 39.1951 212.965 38.8351 212.965 38.4017V24.6063C212.965 24.1728 213.083 23.8129 213.32 23.5264C213.556 23.2399 213.853 23.0967 214.211 23.0967H221.449C221.669 23.0967 221.852 23.1857 221.999 23.3638C222.146 23.542 222.22 23.7643 222.22 24.0308C222.22 24.2974 222.146 24.5197 221.999 24.6978C221.852 24.8759 221.669 24.965 221.449 24.965H214.507V30.5698H219.906C220.126 30.5698 220.31 30.6589 220.457 30.837C220.604 31.0151 220.677 31.2374 220.677 31.504C220.677 31.7705 220.604 31.9928 220.457 32.171C220.31 32.3491 220.126 32.4381 219.906 32.4381H214.507V38.043ZM227.798 39.9113C227.087 39.9113 226.494 39.6236 226.019 39.0481C225.544 38.4727 225.306 37.7546 225.305 36.894V36.6063C225.305 36.3397 225.378 36.1174 225.525 35.9393C225.673 35.7612 225.856 35.6721 226.076 35.6721C226.195 35.6721 226.294 35.7201 226.372 35.816C226.451 35.9119 226.491 36.0315 226.491 36.1747C226.592 36.1996 226.677 36.2887 226.746 36.4419C226.813 36.5963 226.847 36.7464 226.847 36.8921C226.847 37.2284 226.936 37.5043 227.114 37.7198C227.292 37.9352 227.52 38.043 227.798 38.043H232.069C232.345 38.043 232.573 37.9352 232.751 37.7198C232.928 37.5043 233.017 37.229 233.017 36.894V33.5871C233.017 33.2521 232.928 32.9768 232.751 32.7613C232.573 32.5459 232.345 32.4381 232.069 32.4381H227.796C227.086 32.4381 226.494 32.1504 226.019 31.575C225.544 30.9995 225.306 30.2815 225.305 29.4208V26.114C225.305 25.2546 225.543 24.5371 226.019 23.9617C226.495 23.3863 227.088 23.0979 227.798 23.0967H232.069C232.778 23.0967 233.371 23.385 233.847 23.9617C234.323 24.5384 234.561 25.2564 234.56 26.1158V26.4017C234.56 26.6682 234.486 26.8905 234.339 27.0687C234.192 27.2468 234.009 27.3358 233.789 27.3358C233.67 27.3358 233.572 27.2879 233.493 27.192C233.413 27.0961 233.373 26.9765 233.372 26.8333C233.271 26.8083 233.187 26.7193 233.118 26.5661C233.051 26.4116 233.017 26.2616 233.017 26.1158C233.017 25.7795 232.928 25.5037 232.751 25.2882C232.573 25.0727 232.345 24.965 232.067 24.965H227.798C227.52 24.965 227.292 25.0727 227.114 25.2882C226.936 25.5037 226.847 25.7795 226.847 26.1158V29.4208C226.847 29.7559 226.936 30.0311 227.114 30.2466C227.292 30.4621 227.52 30.5698 227.798 30.5698H232.069C232.778 30.5698 233.371 30.8582 233.847 31.4348C234.323 32.0115 234.561 32.7296 234.56 33.589V36.894C234.56 37.7534 234.322 38.4714 233.847 39.0481C233.372 39.6248 232.779 39.9125 232.067 39.9113H227.798Z" fill="#2B2D2D"/>
<rect x="0.939453" y="0.347656" width="79.5092" height="62.3129" fill="url(#paint0_linear_3529_5772)"/>
<rect x="226.725" y="0.347656" width="79.5092" height="62.3129" fill="url(#paint1_linear_3529_5772)"/>
</g>
<defs>
<linearGradient id="paint0_linear_3529_5772" x1="0.939453" y1="31.5041" x2="80.4487" y2="31.5041" gradientUnits="userSpaceOnUse">
<stop stop-color="#EDECEA"/>
<stop offset="1" stop-color="#EDECEA" stop-opacity="0"/>
</linearGradient>
<linearGradient id="paint1_linear_3529_5772" x1="226.725" y1="31.5041" x2="306.234" y2="31.5041" gradientUnits="userSpaceOnUse">
<stop stop-color="#EDECEA" stop-opacity="0"/>
<stop offset="1" stop-color="#EDECEA"/>
</linearGradient>
<clipPath id="clip0_3529_5772">
<rect width="304.415" height="62.3129" fill="white" transform="translate(0.939453 0.347656)"/>
</clipPath>
</defs>
</svg>
