<svg width="396" height="223" viewBox="0 0 396 223" fill="none" xmlns="http://www.w3.org/2000/svg">
<rect x="0.359375" y="0.0273438" width="395.337" height="222.369" rx="26.6041" fill="#E7E6E4" fill-opacity="0.5"/>
<path d="M32.5059 34.3904C32.5059 24.595 40.4466 16.6543 50.2419 16.6543H345.814C355.609 16.6543 363.55 24.595 363.55 34.3904V81.2603C363.55 91.0556 355.609 98.9963 345.814 98.9963H50.242C40.4466 98.9963 32.5059 91.0556 32.5059 81.2602V34.3904Z" fill="white"/>
<rect x="54.0137" y="35.5703" width="44.1724" height="44.5099" rx="22.0862" fill="#F2F2F2"/>
<g clip-path="url(#clip0_3528_5078)">
<path d="M81.1282 60.7731L85.3153 53.4754V66.17H66.9102V49.4788H68.7507V61.107L73.8121 52.2606L79.7938 55.7658L83.6957 48.9688L85.2877 49.896L80.4748 58.288L74.4839 54.8107L69.036 64.3154H71.1157L75.1557 57.3051L81.1282 60.7731Z" fill="#2B2D2D"/>
</g>
<path d="M112.804 50.3457V39.0591H119.616V40.2715H114.171V44.0852H119.263V45.2976H114.171V49.1333H119.704V50.3457H112.804ZM122.873 41.8808L124.901 45.3417L126.929 41.8808H128.428L125.695 46.1132L128.428 50.3457H126.929L124.901 47.0611L122.873 50.3457H121.374L124.063 46.1132L121.374 41.8808H122.873ZM130.284 53.5201V41.8808H131.54V43.2255H131.695C131.79 43.0785 131.922 42.8911 132.091 42.6633C132.264 42.4319 132.51 42.2261 132.83 42.0461C133.153 41.8624 133.59 41.7705 134.142 41.7705C134.854 41.7705 135.483 41.9487 136.026 42.3051C136.57 42.6615 136.994 43.1667 137.299 43.8206C137.604 44.4746 137.757 45.2462 137.757 46.1353C137.757 47.0317 137.604 47.8088 137.299 48.4664C136.994 49.1204 136.572 49.6274 136.032 49.9875C135.492 50.3439 134.869 50.5221 134.164 50.5221C133.62 50.5221 133.184 50.432 132.858 50.252C132.531 50.0683 132.279 49.8607 132.102 49.6293C131.926 49.3941 131.79 49.1994 131.695 49.0451H131.584V53.5201H130.284ZM131.562 46.1132C131.562 46.7525 131.656 47.3165 131.843 47.8051C132.031 48.2901 132.305 48.6703 132.665 48.9459C133.025 49.2178 133.466 49.3537 133.987 49.3537C134.531 49.3537 134.985 49.2104 135.348 48.9239C135.716 48.6336 135.991 48.2442 136.175 47.7555C136.363 47.2632 136.456 46.7158 136.456 46.1132C136.456 45.518 136.364 44.9816 136.181 44.504C136.001 44.0227 135.727 43.6425 135.36 43.3632C134.996 43.0803 134.538 42.9389 133.987 42.9389C133.458 42.9389 133.014 43.073 132.654 43.3412C132.294 43.6057 132.022 43.9768 131.838 44.4544C131.654 44.9284 131.562 45.4813 131.562 46.1132ZM143.18 50.5221C142.415 50.5221 141.745 50.3402 141.168 49.9765C140.595 49.6127 140.147 49.1039 139.823 48.4499C139.504 47.7959 139.344 47.0317 139.344 46.1573C139.344 45.2756 139.504 44.5058 139.823 43.8482C140.147 43.1905 140.595 42.6799 141.168 42.3161C141.745 41.9524 142.415 41.7705 143.18 41.7705C143.944 41.7705 144.613 41.9524 145.186 42.3161C145.762 42.6799 146.211 43.1905 146.53 43.8482C146.854 44.5058 147.015 45.2756 147.015 46.1573C147.015 47.0317 146.854 47.7959 146.53 48.4499C146.211 49.1039 145.762 49.6127 145.186 49.9765C144.613 50.3402 143.944 50.5221 143.18 50.5221ZM143.18 49.3537C143.76 49.3537 144.238 49.2049 144.613 48.9073C144.987 48.6097 145.265 48.2184 145.445 47.7335C145.625 47.2485 145.715 46.7231 145.715 46.1573C145.715 45.5915 145.625 45.0643 145.445 44.5757C145.265 44.087 144.987 43.6921 144.613 43.3908C144.238 43.0895 143.76 42.9389 143.18 42.9389C142.599 42.9389 142.122 43.0895 141.747 43.3908C141.372 43.6921 141.095 44.087 140.915 44.5757C140.735 45.0643 140.645 45.5915 140.645 46.1573C140.645 46.7231 140.735 47.2485 140.915 47.7335C141.095 48.2184 141.372 48.6097 141.747 48.9073C142.122 49.2049 142.599 49.3537 143.18 49.3537ZM149.001 50.3457V41.8808H150.257V43.1593H150.345C150.5 42.7405 150.779 42.4006 151.183 42.1398C151.587 41.8789 152.043 41.7485 152.55 41.7485C152.645 41.7485 152.765 41.7503 152.908 41.754C153.051 41.7577 153.16 41.7632 153.233 41.7705V43.0932C153.189 43.0822 153.088 43.0656 152.93 43.0436C152.776 43.0179 152.612 43.005 152.44 43.005C152.028 43.005 151.661 43.0913 151.337 43.264C151.018 43.433 150.764 43.6682 150.577 43.9694C150.393 44.267 150.301 44.6069 150.301 44.989V50.3457H149.001ZM158.987 41.8808V42.983H154.6V41.8808H158.987ZM155.878 39.8527H157.179V47.9208C157.179 48.2883 157.232 48.5638 157.339 48.7475C157.449 48.9275 157.589 49.0488 157.758 49.1112C157.93 49.17 158.112 49.1994 158.303 49.1994C158.447 49.1994 158.564 49.1921 158.656 49.1774C158.748 49.159 158.821 49.1443 158.876 49.1333L159.141 50.3016C159.053 50.3347 158.93 50.3677 158.772 50.4008C158.614 50.4376 158.414 50.4559 158.171 50.4559C157.804 50.4559 157.444 50.3769 157.091 50.2189C156.742 50.061 156.452 49.8203 156.22 49.497C155.992 49.1737 155.878 48.7659 155.878 48.2736V39.8527ZM163.434 50.5441C162.898 50.5441 162.411 50.4431 161.974 50.241C161.536 50.0352 161.189 49.7395 160.932 49.3537C160.675 48.9643 160.546 48.494 160.546 47.9429C160.546 47.4579 160.642 47.0648 160.833 46.7635C161.024 46.4586 161.279 46.2198 161.599 46.0471C161.919 45.8744 162.271 45.7458 162.657 45.6613C163.046 45.5732 163.438 45.5033 163.831 45.4519C164.345 45.3858 164.762 45.3362 165.082 45.3031C165.405 45.2664 165.64 45.2057 165.787 45.1212C165.938 45.0367 166.013 44.8898 166.013 44.6804V44.6363C166.013 44.0925 165.864 43.67 165.567 43.3687C165.273 43.0675 164.827 42.9168 164.228 42.9168C163.607 42.9168 163.12 43.0528 162.767 43.3246C162.415 43.5965 162.167 43.8868 162.023 44.1954L160.789 43.7545C161.009 43.2401 161.303 42.8397 161.671 42.5531C162.042 42.2629 162.446 42.0608 162.883 41.9469C163.324 41.8293 163.757 41.7705 164.184 41.7705C164.455 41.7705 164.768 41.8036 165.12 41.8697C165.477 41.9322 165.82 42.0626 166.151 42.261C166.485 42.4594 166.763 42.7589 166.983 43.1593C167.204 43.5598 167.314 44.0962 167.314 44.7685V50.3457H166.013V49.1994H165.947C165.859 49.3831 165.712 49.5797 165.506 49.7891C165.3 49.9985 165.027 50.1767 164.685 50.3237C164.343 50.4706 163.926 50.5441 163.434 50.5441ZM163.632 49.3758C164.147 49.3758 164.58 49.2747 164.933 49.0727C165.289 48.8706 165.558 48.6097 165.738 48.2901C165.921 47.9704 166.013 47.6343 166.013 47.2816V46.0912C165.958 46.1573 165.837 46.2179 165.65 46.2731C165.466 46.3245 165.253 46.3704 165.01 46.4108C164.771 46.4476 164.538 46.4806 164.31 46.51C164.086 46.5357 163.904 46.5578 163.765 46.5762C163.427 46.6202 163.111 46.6919 162.817 46.7911C162.527 46.8866 162.291 47.0317 162.111 47.2265C161.935 47.4175 161.847 47.6784 161.847 48.009C161.847 48.4609 162.014 48.8026 162.348 49.0341C162.686 49.2619 163.114 49.3758 163.632 49.3758ZM169.864 50.3457V39.0591H171.165V43.2255H171.275C171.37 43.0785 171.503 42.8911 171.672 42.6633C171.844 42.4319 172.091 42.2261 172.41 42.0461C172.733 41.8624 173.171 41.7705 173.722 41.7705C174.435 41.7705 175.063 41.9487 175.607 42.3051C176.15 42.6615 176.575 43.1667 176.88 43.8206C177.185 44.4746 177.337 45.2462 177.337 46.1353C177.337 47.0317 177.185 47.8088 176.88 48.4664C176.575 49.1204 176.152 49.6274 175.612 49.9875C175.072 50.3439 174.449 50.5221 173.744 50.5221C173.2 50.5221 172.765 50.432 172.438 50.252C172.111 50.0683 171.859 49.8607 171.683 49.6293C171.506 49.3941 171.37 49.1994 171.275 49.0451H171.121V50.3457H169.864ZM171.143 46.1132C171.143 46.7525 171.236 47.3165 171.424 47.8051C171.611 48.2901 171.885 48.6703 172.245 48.9459C172.605 49.2178 173.046 49.3537 173.567 49.3537C174.111 49.3537 174.565 49.2104 174.929 48.9239C175.296 48.6336 175.572 48.2442 175.755 47.7555C175.943 47.2632 176.036 46.7158 176.036 46.1132C176.036 45.518 175.945 44.9816 175.761 44.504C175.581 44.0227 175.307 43.6425 174.94 43.3632C174.576 43.0803 174.119 42.9389 173.567 42.9389C173.038 42.9389 172.594 43.073 172.234 43.3412C171.874 43.6057 171.602 43.9768 171.418 44.4544C171.234 44.9284 171.143 45.4813 171.143 46.1132ZM180.627 39.0591V50.3457H179.327V39.0591H180.627ZM186.558 50.5221C185.743 50.5221 185.039 50.342 184.448 49.982C183.86 49.6182 183.406 49.1112 183.086 48.4609C182.77 47.807 182.612 47.0464 182.612 46.1794C182.612 45.3123 182.77 44.5481 183.086 43.8868C183.406 43.2218 183.851 42.7037 184.42 42.3327C184.993 41.9579 185.662 41.7705 186.426 41.7705C186.867 41.7705 187.302 41.844 187.732 41.991C188.162 42.1379 188.553 42.3768 188.906 42.7074C189.259 43.0344 189.54 43.4679 189.749 44.008C189.959 44.5481 190.063 45.2131 190.063 46.003V46.5541H183.538V45.4299H188.741C188.741 44.9522 188.645 44.5261 188.454 44.1513C188.267 43.7766 187.999 43.4808 187.65 43.264C187.304 43.0473 186.896 42.9389 186.426 42.9389C185.908 42.9389 185.46 43.0675 185.081 43.3246C184.707 43.5782 184.418 43.9088 184.216 44.3166C184.014 44.7245 183.913 45.1617 183.913 45.6283V46.3778C183.913 47.017 184.023 47.559 184.244 48.0035C184.468 48.4444 184.778 48.7806 185.175 49.012C185.572 49.2398 186.033 49.3537 186.558 49.3537C186.9 49.3537 187.209 49.306 187.484 49.2104C187.763 49.1112 188.004 48.9643 188.206 48.7695C188.408 48.5712 188.564 48.325 188.675 48.0311L189.931 48.3838C189.799 48.81 189.577 49.1847 189.264 49.508C188.952 49.8277 188.566 50.0775 188.107 50.2575C187.648 50.4339 187.132 50.5221 186.558 50.5221Z" fill="#666666"/>
<path d="M123.379 67.4777H121.817C121.725 67.0284 121.563 66.6337 121.332 66.2936C121.105 65.9535 120.828 65.668 120.501 65.437C120.177 65.2019 119.818 65.0255 119.424 64.908C119.029 64.7904 118.618 64.7316 118.189 64.7316C117.408 64.7316 116.701 64.9289 116.067 65.3236C115.437 65.7183 114.935 66.2999 114.561 67.0683C114.192 67.8367 114.007 68.7793 114.007 69.8962C114.007 71.0131 114.192 71.9558 114.561 72.7242C114.935 73.4926 115.437 74.0741 116.067 74.4688C116.701 74.8635 117.408 75.0608 118.189 75.0608C118.618 75.0608 119.029 75.0021 119.424 74.8845C119.818 74.7669 120.177 74.5927 120.501 74.3617C120.828 74.1266 121.105 73.839 121.332 73.4989C121.563 73.1546 121.725 72.7599 121.817 72.3148H123.379C123.262 72.974 123.047 73.5639 122.737 74.0846C122.426 74.6053 122.04 75.0482 121.578 75.4136C121.116 75.7747 120.597 76.0497 120.022 76.2386C119.451 76.4276 118.84 76.5221 118.189 76.5221C117.089 76.5221 116.111 76.2533 115.254 75.7159C114.398 75.1784 113.724 74.4142 113.233 73.4233C112.741 72.4323 112.496 71.2567 112.496 69.8962C112.496 68.5358 112.741 67.3601 113.233 66.3692C113.724 65.3782 114.398 64.614 115.254 64.0766C116.111 63.5391 117.089 63.2704 118.189 63.2704C118.84 63.2704 119.451 63.3649 120.022 63.5538C120.597 63.7428 121.116 64.0199 121.578 64.3852C122.04 64.7463 122.426 65.1872 122.737 65.7078C123.047 66.2243 123.262 66.8142 123.379 67.4777ZM128.548 76.5724C127.935 76.5724 127.379 76.457 126.879 76.226C126.38 75.9909 125.983 75.6529 125.689 75.212C125.395 74.7669 125.248 74.2295 125.248 73.5996C125.248 73.0454 125.357 72.5961 125.576 72.2518C125.794 71.9033 126.086 71.6304 126.451 71.433C126.816 71.2357 127.22 71.0887 127.66 70.9921C128.105 70.8914 128.553 70.8116 129.002 70.7528C129.59 70.6772 130.066 70.6205 130.432 70.5827C130.801 70.5408 131.07 70.4715 131.238 70.3749C131.41 70.2783 131.496 70.1104 131.496 69.871V69.8206C131.496 69.1992 131.326 68.7163 130.986 68.372C130.65 68.0277 130.14 67.8556 129.455 67.8556C128.746 67.8556 128.189 68.0109 127.786 68.3216C127.383 68.6324 127.1 68.9641 126.936 69.3168L125.525 68.8129C125.777 68.2251 126.113 67.7674 126.533 67.4399C126.957 67.1082 127.419 66.8772 127.919 66.7471C128.422 66.6127 128.918 66.5455 129.405 66.5455C129.716 66.5455 130.073 66.5833 130.476 66.6589C130.883 66.7303 131.276 66.8793 131.654 67.1061C132.036 67.3328 132.353 67.675 132.605 68.1327C132.857 68.5904 132.982 69.2034 132.982 69.9718V76.3457H131.496V75.0357H131.42C131.32 75.2456 131.152 75.4702 130.917 75.7096C130.681 75.9489 130.369 76.1526 129.978 76.3205C129.588 76.4885 129.111 76.5724 128.548 76.5724ZM128.775 75.2372C129.363 75.2372 129.859 75.1217 130.262 74.8908C130.669 74.6599 130.975 74.3617 131.181 73.9964C131.391 73.6311 131.496 73.2469 131.496 72.8438V71.4834C131.433 71.559 131.295 71.6283 131.08 71.6912C130.87 71.75 130.627 71.8025 130.35 71.8487C130.077 71.8907 129.81 71.9285 129.55 71.9621C129.294 71.9915 129.086 72.0167 128.926 72.0377C128.54 72.088 128.179 72.1699 127.843 72.2833C127.511 72.3925 127.243 72.5583 127.037 72.7809C126.835 72.9992 126.735 73.2973 126.735 73.6752C126.735 74.1917 126.926 74.5822 127.308 74.8467C127.694 75.107 128.183 75.2372 128.775 75.2372ZM142.548 68.8381L141.213 69.216C141.129 68.9935 141.005 68.7772 140.841 68.5673C140.682 68.3531 140.463 68.1768 140.186 68.0382C139.909 67.8997 139.554 67.8304 139.122 67.8304C138.53 67.8304 138.036 67.9668 137.642 68.2398C137.251 68.5085 137.056 68.8507 137.056 69.2664C137.056 69.6359 137.19 69.9277 137.459 70.1419C137.728 70.356 138.148 70.5345 138.719 70.6772L140.155 71.0299C141.02 71.2399 141.664 71.5611 142.088 71.9936C142.512 72.4218 142.724 72.974 142.724 73.65C142.724 74.2043 142.565 74.6997 142.246 75.1364C141.931 75.5731 141.49 75.9174 140.923 76.1694C140.356 76.4213 139.697 76.5472 138.945 76.5472C137.959 76.5472 137.142 76.3331 136.495 75.9048C135.849 75.4765 135.439 74.8509 135.267 74.0279L136.678 73.6752C136.812 74.1959 137.066 74.5864 137.44 74.8467C137.818 75.107 138.311 75.2372 138.92 75.2372C139.613 75.2372 140.163 75.0902 140.57 74.7963C140.982 74.4982 141.188 74.1413 141.188 73.7256C141.188 73.3897 141.07 73.1084 140.835 72.8816C140.6 72.6507 140.239 72.4785 139.752 72.3652L138.139 71.9873C137.253 71.7773 136.602 71.4519 136.187 71.011C135.775 70.5659 135.57 70.0096 135.57 69.342C135.57 68.7961 135.723 68.3132 136.029 67.8934C136.34 67.4735 136.762 67.1439 137.295 66.9045C137.833 66.6652 138.442 66.5455 139.122 66.5455C140.079 66.5455 140.831 66.7555 141.377 67.1753C141.927 67.5952 142.317 68.1495 142.548 68.8381ZM149.018 76.5472C148.086 76.5472 147.282 76.3415 146.606 75.93C145.934 75.5143 145.415 74.9349 145.05 74.1917C144.689 73.4443 144.508 72.5751 144.508 71.5842C144.508 70.5932 144.689 69.7199 145.05 68.9641C145.415 68.2041 145.923 67.612 146.574 67.1879C147.229 66.7597 147.993 66.5455 148.867 66.5455C149.371 66.5455 149.868 66.6295 150.36 66.7974C150.851 66.9654 151.298 67.2383 151.701 67.6162C152.104 67.9899 152.425 68.4854 152.665 69.1026C152.904 69.7199 153.024 70.4799 153.024 71.3826V72.0125H145.567V70.7276H151.512C151.512 70.1817 151.403 69.6947 151.185 69.2664C150.97 68.8381 150.664 68.5001 150.265 68.2524C149.87 68.0046 149.404 67.8808 148.867 67.8808C148.275 67.8808 147.763 68.0277 147.33 68.3216C146.902 68.6114 146.572 68.9893 146.341 69.4553C146.11 69.9214 145.995 70.4211 145.995 70.9543V71.8109C145.995 72.5415 146.121 73.1609 146.373 73.6689C146.629 74.1728 146.984 74.557 147.437 74.8215C147.891 75.0818 148.418 75.212 149.018 75.212C149.408 75.212 149.761 75.1574 150.076 75.0482C150.395 74.9349 150.67 74.7669 150.901 74.5444C151.132 74.3176 151.311 74.0363 151.437 73.7004L152.873 74.1035C152.721 74.5906 152.467 75.0189 152.11 75.3884C151.754 75.7537 151.313 76.0392 150.788 76.2449C150.263 76.4465 149.673 76.5472 149.018 76.5472ZM164.455 76.3457H160.475V63.4467H164.632C165.883 63.4467 166.954 63.705 167.844 64.2214C168.734 64.7337 169.416 65.4706 169.891 66.4321C170.365 67.3895 170.602 68.5358 170.602 69.871C170.602 71.2147 170.363 72.3715 169.884 73.3414C169.406 74.3071 168.709 75.0503 167.793 75.571C166.878 76.0875 165.765 76.3457 164.455 76.3457ZM162.037 74.9601H164.354C165.421 74.9601 166.305 74.7543 167.006 74.3428C167.707 73.9313 168.23 73.3456 168.574 72.5856C168.919 71.8256 169.091 70.9207 169.091 69.871C169.091 68.8297 168.921 67.9332 168.581 67.1816C168.24 66.4258 167.732 65.8464 167.056 65.4433C166.38 65.036 165.538 64.8324 164.531 64.8324H162.037V74.9601ZM175.868 76.5724C175.255 76.5724 174.698 76.457 174.199 76.226C173.699 75.9909 173.302 75.6529 173.008 75.212C172.714 74.7669 172.567 74.2295 172.567 73.5996C172.567 73.0454 172.677 72.5961 172.895 72.2518C173.113 71.9033 173.405 71.6304 173.77 71.433C174.136 71.2357 174.539 71.0887 174.98 70.9921C175.425 70.8914 175.872 70.8116 176.321 70.7528C176.909 70.6772 177.386 70.6205 177.751 70.5827C178.12 70.5408 178.389 70.4715 178.557 70.3749C178.729 70.2783 178.815 70.1104 178.815 69.871V69.8206C178.815 69.1992 178.645 68.7163 178.305 68.372C177.969 68.0277 177.459 67.8556 176.775 67.8556C176.065 67.8556 175.509 68.0109 175.106 68.3216C174.703 68.6324 174.419 68.9641 174.255 69.3168L172.845 68.8129C173.096 68.2251 173.432 67.7674 173.852 67.4399C174.276 67.1082 174.738 66.8772 175.238 66.7471C175.742 66.6127 176.237 66.5455 176.724 66.5455C177.035 66.5455 177.392 66.5833 177.795 66.6589C178.202 66.7303 178.595 66.8793 178.973 67.1061C179.355 67.3328 179.672 67.675 179.924 68.1327C180.176 68.5904 180.302 69.2034 180.302 69.9718V76.3457H178.815V75.0357H178.74C178.639 75.2456 178.471 75.4702 178.236 75.7096C178.001 75.9489 177.688 76.1526 177.297 76.3205C176.907 76.4885 176.43 76.5724 175.868 76.5724ZM176.094 75.2372C176.682 75.2372 177.178 75.1217 177.581 74.8908C177.988 74.6599 178.295 74.3617 178.5 73.9964C178.71 73.6311 178.815 73.2469 178.815 72.8438V71.4834C178.752 71.559 178.614 71.6283 178.4 71.6912C178.19 71.75 177.946 71.8025 177.669 71.8487C177.396 71.8907 177.13 71.9285 176.869 71.9621C176.613 71.9915 176.405 72.0167 176.246 72.0377C175.859 72.088 175.498 72.1699 175.162 72.2833C174.831 72.3925 174.562 72.5583 174.356 72.7809C174.155 72.9992 174.054 73.2973 174.054 73.6752C174.054 74.1917 174.245 74.5822 174.627 74.8467C175.013 75.107 175.502 75.2372 176.094 75.2372ZM187.222 66.6715V67.9311H182.209V66.6715H187.222ZM183.67 64.3537H185.156V73.5744C185.156 73.9943 185.217 74.3092 185.339 74.5192C185.465 74.7249 185.624 74.8635 185.818 74.9349C186.015 75.0021 186.223 75.0357 186.441 75.0357C186.605 75.0357 186.739 75.0273 186.844 75.0105C186.949 74.9895 187.033 74.9727 187.096 74.9601L187.398 76.2953C187.298 76.3331 187.157 76.3709 186.976 76.4087C186.796 76.4507 186.567 76.4717 186.29 76.4717C185.87 76.4717 185.459 76.3814 185.055 76.2008C184.657 76.0203 184.325 75.7453 184.06 75.3758C183.8 75.0063 183.67 74.5402 183.67 73.9775V64.3537ZM192.305 76.5724C191.692 76.5724 191.135 76.457 190.636 76.226C190.136 75.9909 189.739 75.6529 189.445 75.212C189.151 74.7669 189.004 74.2295 189.004 73.5996C189.004 73.0454 189.114 72.5961 189.332 72.2518C189.55 71.9033 189.842 71.6304 190.207 71.433C190.573 71.2357 190.976 71.0887 191.417 70.9921C191.862 70.8914 192.309 70.8116 192.758 70.7528C193.346 70.6772 193.823 70.6205 194.188 70.5827C194.557 70.5408 194.826 70.4715 194.994 70.3749C195.166 70.2783 195.252 70.1104 195.252 69.871V69.8206C195.252 69.1992 195.082 68.7163 194.742 68.372C194.406 68.0277 193.896 67.8556 193.212 67.8556C192.502 67.8556 191.946 68.0109 191.543 68.3216C191.14 68.6324 190.856 68.9641 190.692 69.3168L189.282 68.8129C189.534 68.2251 189.869 67.7674 190.289 67.4399C190.713 67.1082 191.175 66.8772 191.675 66.7471C192.179 66.6127 192.674 66.5455 193.161 66.5455C193.472 66.5455 193.829 66.5833 194.232 66.6589C194.639 66.7303 195.032 66.8793 195.41 67.1061C195.792 67.3328 196.109 67.675 196.361 68.1327C196.613 68.5904 196.739 69.2034 196.739 69.9718V76.3457H195.252V75.0357H195.177C195.076 75.2456 194.908 75.4702 194.673 75.7096C194.438 75.9489 194.125 76.1526 193.735 76.3205C193.344 76.4885 192.867 76.5724 192.305 76.5724ZM192.532 75.2372C193.119 75.2372 193.615 75.1217 194.018 74.8908C194.425 74.6599 194.732 74.3617 194.937 73.9964C195.147 73.6311 195.252 73.2469 195.252 72.8438V71.4834C195.189 71.559 195.051 71.6283 194.837 71.6912C194.627 71.75 194.383 71.8025 194.106 71.8487C193.833 71.8907 193.567 71.9285 193.306 71.9621C193.05 71.9915 192.842 72.0167 192.683 72.0377C192.296 72.088 191.935 72.1699 191.599 72.2833C191.268 72.3925 190.999 72.5583 190.793 72.7809C190.592 72.9992 190.491 73.2973 190.491 73.6752C190.491 74.1917 190.682 74.5822 191.064 74.8467C191.45 75.107 191.939 75.2372 192.532 75.2372Z" fill="#2B2D2D"/>
<rect x="257.994" y="44.1617" width="83.4956" height="27.3255" rx="13.6628" stroke="#E6E6E6" stroke-width="1.1085"/>
<path d="M272.109 62.8242V51.5376H275.923C276.804 51.5376 277.528 51.6883 278.094 51.9895C278.66 52.2871 279.079 52.6968 279.35 53.2185C279.622 53.7402 279.758 54.3336 279.758 54.9986C279.758 55.6636 279.622 56.2532 279.35 56.7676C279.079 57.282 278.662 57.6861 278.099 57.98C277.537 58.2703 276.819 58.4154 275.945 58.4154H272.858V57.1809H275.901C276.503 57.1809 276.988 57.0927 277.355 56.9164C277.727 56.74 277.995 56.4902 278.16 56.1669C278.329 55.8399 278.414 55.4505 278.414 54.9986C278.414 54.5466 278.329 54.1517 278.16 53.8137C277.991 53.4757 277.721 53.2148 277.35 53.0311C276.979 52.8437 276.488 52.7501 275.878 52.7501H273.476V62.8242H272.109ZM277.422 57.7541L280.199 62.8242H278.612L275.878 57.7541H277.422ZM285.317 63.0006C284.502 63.0006 283.798 62.8205 283.207 62.4605C282.619 62.0968 282.165 61.5897 281.846 60.9394C281.53 60.2855 281.372 59.5249 281.372 58.6579C281.372 57.7908 281.53 57.0266 281.846 56.3653C282.165 55.7003 282.61 55.1823 283.179 54.8112C283.752 54.4364 284.421 54.2491 285.185 54.2491C285.626 54.2491 286.061 54.3225 286.491 54.4695C286.921 54.6165 287.312 54.8553 287.665 55.1859C288.018 55.5129 288.299 55.9465 288.508 56.4865C288.718 57.0266 288.823 57.6916 288.823 58.4815V59.0326H282.297V57.9084H287.5C287.5 57.4308 287.404 57.0046 287.213 56.6298C287.026 56.2551 286.758 55.9593 286.409 55.7425C286.063 55.5258 285.655 55.4174 285.185 55.4174C284.667 55.4174 284.219 55.546 283.841 55.8032C283.466 56.0567 283.177 56.3873 282.975 56.7952C282.773 57.203 282.672 57.6402 282.672 58.1068V58.8563C282.672 59.4956 282.782 60.0375 283.003 60.482C283.227 60.9229 283.537 61.2591 283.934 61.4905C284.331 61.7183 284.792 61.8322 285.317 61.8322C285.659 61.8322 285.968 61.7845 286.243 61.6889C286.523 61.5897 286.763 61.4428 286.965 61.2481C287.167 61.0497 287.324 60.8035 287.434 60.5096L288.69 60.8623C288.558 61.2885 288.336 61.6632 288.023 61.9865C287.711 62.3062 287.325 62.556 286.866 62.736C286.407 62.9124 285.891 63.0006 285.317 63.0006ZM290.801 65.9986V54.3593H292.057V55.704H292.212C292.307 55.557 292.44 55.3696 292.609 55.1418C292.781 54.9104 293.027 54.7046 293.347 54.5246C293.67 54.3409 294.108 54.2491 294.659 54.2491C295.371 54.2491 296 54.4272 296.543 54.7836C297.087 55.14 297.512 55.6452 297.817 56.2992C298.121 56.9531 298.274 57.7247 298.274 58.6138C298.274 59.5103 298.121 60.2873 297.817 60.945C297.512 61.5989 297.089 62.1059 296.549 62.466C296.009 62.8224 295.386 63.0006 294.681 63.0006C294.137 63.0006 293.702 62.9106 293.375 62.7305C293.048 62.5468 292.796 62.3392 292.62 62.1078C292.443 61.8726 292.307 61.6779 292.212 61.5236H292.102V65.9986H290.801ZM292.08 58.5917C292.08 59.231 292.173 59.795 292.361 60.2836C292.548 60.7686 292.822 61.1489 293.182 61.4244C293.542 61.6963 293.983 61.8322 294.504 61.8322C295.048 61.8322 295.502 61.6889 295.866 61.4024C296.233 61.1121 296.509 60.7227 296.692 60.234C296.88 59.7417 296.973 59.1943 296.973 58.5917C296.973 57.9966 296.881 57.4601 296.698 56.9825C296.518 56.5012 296.244 56.121 295.877 55.8417C295.513 55.5588 295.055 55.4174 294.504 55.4174C293.975 55.4174 293.531 55.5515 293.171 55.8197C292.811 56.0842 292.539 56.4553 292.355 56.9329C292.171 57.4069 292.08 57.9598 292.08 58.5917ZM303.697 63.0006C302.933 63.0006 302.262 62.8187 301.685 62.455C301.112 62.0913 300.664 61.5824 300.341 60.9284C300.021 60.2744 299.861 59.5103 299.861 58.6358C299.861 57.7541 300.021 56.9844 300.341 56.3267C300.664 55.6691 301.112 55.1584 301.685 54.7946C302.262 54.4309 302.933 54.2491 303.697 54.2491C304.461 54.2491 305.13 54.4309 305.703 54.7946C306.28 55.1584 306.728 55.6691 307.047 56.3267C307.371 56.9844 307.532 57.7541 307.532 58.6358C307.532 59.5103 307.371 60.2744 307.047 60.9284C306.728 61.5824 306.28 62.0913 305.703 62.455C305.13 62.8187 304.461 63.0006 303.697 63.0006ZM303.697 61.8322C304.277 61.8322 304.755 61.6834 305.13 61.3858C305.504 61.0882 305.782 60.697 305.962 60.212C306.142 59.727 306.232 59.2016 306.232 58.6358C306.232 58.07 306.142 57.5428 305.962 57.0542C305.782 56.5655 305.504 56.1706 305.13 55.8693C304.755 55.568 304.277 55.4174 303.697 55.4174C303.116 55.4174 302.639 55.568 302.264 55.8693C301.889 56.1706 301.612 56.5655 301.432 57.0542C301.252 57.5428 301.162 58.07 301.162 58.6358C301.162 59.2016 301.252 59.727 301.432 60.212C301.612 60.697 301.889 61.0882 302.264 61.3858C302.639 61.6834 303.116 61.8322 303.697 61.8322ZM309.518 62.8242V54.3593H310.774V55.6378H310.862C311.017 55.219 311.296 54.8791 311.7 54.6183C312.104 54.3574 312.56 54.227 313.067 54.227C313.162 54.227 313.282 54.2288 313.425 54.2325C313.568 54.2362 313.677 54.2417 313.75 54.2491V55.5717C313.706 55.5607 313.605 55.5441 313.447 55.5221C313.293 55.4964 313.129 55.4835 312.957 55.4835C312.545 55.4835 312.178 55.5699 311.854 55.7425C311.535 55.9115 311.281 56.1467 311.094 56.448C310.91 56.7456 310.818 57.0854 310.818 57.4675V62.8242H309.518ZM319.504 54.3593V55.4615H315.117V54.3593H319.504ZM316.396 52.3312H317.696V60.3994C317.696 60.7668 317.749 61.0423 317.856 61.226C317.966 61.406 318.106 61.5273 318.275 61.5897C318.448 61.6485 318.629 61.6779 318.82 61.6779C318.964 61.6779 319.081 61.6706 319.173 61.6559C319.265 61.6375 319.338 61.6228 319.394 61.6118L319.658 62.7801C319.57 62.8132 319.447 62.8463 319.289 62.8793C319.131 62.9161 318.931 62.9344 318.688 62.9344C318.321 62.9344 317.961 62.8554 317.608 62.6975C317.259 62.5395 316.969 62.2988 316.737 61.9755C316.509 61.6522 316.396 61.2444 316.396 60.7521V52.3312ZM327.305 56.2551L326.136 56.5857C326.063 56.391 325.954 56.2018 325.811 56.0181C325.672 55.8307 325.481 55.6764 325.238 55.5552C324.996 55.4339 324.685 55.3733 324.307 55.3733C323.789 55.3733 323.357 55.4927 323.012 55.7315C322.67 55.9667 322.499 56.2661 322.499 56.6298C322.499 56.9531 322.617 57.2085 322.852 57.3959C323.087 57.5832 323.454 57.7394 323.954 57.8643L325.21 58.1729C325.967 58.3566 326.531 58.6377 326.902 59.0161C327.273 59.3908 327.459 59.874 327.459 60.4655C327.459 60.9505 327.319 61.384 327.04 61.7661C326.765 62.1482 326.379 62.4495 325.883 62.6699C325.387 62.8904 324.81 63.0006 324.152 63.0006C323.289 63.0006 322.574 62.8132 322.009 62.4384C321.443 62.0637 321.085 61.5163 320.934 60.7962L322.168 60.4875C322.286 60.9431 322.508 61.2848 322.835 61.5126C323.166 61.7404 323.598 61.8543 324.13 61.8543C324.737 61.8543 325.218 61.7257 325.574 61.4685C325.934 61.2076 326.114 60.8954 326.114 60.5316C326.114 60.2377 326.011 59.9915 325.806 59.7932C325.6 59.5911 325.284 59.4404 324.858 59.3412L323.447 59.0106C322.672 58.8269 322.102 58.5421 321.739 58.1564C321.378 57.7669 321.198 57.2801 321.198 56.696C321.198 56.2183 321.333 55.7958 321.601 55.4284C321.873 55.061 322.242 54.7726 322.708 54.5632C323.179 54.3538 323.711 54.2491 324.307 54.2491C325.144 54.2491 325.802 54.4328 326.28 54.8002C326.761 55.1676 327.103 55.6525 327.305 56.2551Z" fill="#2B2D2D"/>
<rect x="32.5059" y="105.648" width="331.044" height="46.7347" rx="23.3673" fill="white"/>
<path d="M53.2811 124.283C53.2811 124.503 53.2163 124.718 53.0949 124.901C52.9736 125.084 52.8011 125.227 52.5993 125.311C52.3975 125.395 52.1754 125.417 51.9612 125.374C51.747 125.331 51.5502 125.225 51.3957 125.07C51.2413 124.914 51.1361 124.716 51.0935 124.5C51.0509 124.284 51.0727 124.06 51.1563 123.857C51.2399 123.654 51.3815 123.48 51.5631 123.357C51.7447 123.235 51.9582 123.17 52.1767 123.17C52.4696 123.17 52.7505 123.287 52.9576 123.496C53.1647 123.705 53.2811 123.988 53.2811 124.283ZM57.1465 125.396C57.3649 125.396 57.5784 125.33 57.76 125.208C57.9417 125.086 58.0832 124.912 58.1668 124.709C58.2504 124.505 58.2723 124.282 58.2296 124.066C58.187 123.85 58.0818 123.651 57.9274 123.496C57.7729 123.34 57.5762 123.234 57.3619 123.191C57.1477 123.148 56.9256 123.17 56.7238 123.255C56.522 123.339 56.3495 123.481 56.2282 123.664C56.1068 123.848 56.0421 124.063 56.0421 124.283C56.0421 124.578 56.1584 124.861 56.3655 125.07C56.5726 125.278 56.8536 125.396 57.1465 125.396ZM52.1767 127.899C51.9582 127.899 51.7447 127.965 51.5631 128.087C51.3815 128.209 51.2399 128.383 51.1563 128.586C51.0727 128.79 51.0509 129.014 51.0935 129.229C51.1361 129.445 51.2413 129.644 51.3957 129.799C51.5502 129.955 51.747 130.061 51.9612 130.104C52.1754 130.147 52.3975 130.125 52.5993 130.04C52.8011 129.956 52.9736 129.814 53.0949 129.631C53.2163 129.448 53.2811 129.232 53.2811 129.012C53.2811 128.717 53.1647 128.434 52.9576 128.225C52.7505 128.017 52.4696 127.899 52.1767 127.899ZM57.1465 127.899C56.928 127.899 56.7145 127.965 56.5329 128.087C56.3513 128.209 56.2097 128.383 56.1261 128.586C56.0425 128.79 56.0207 129.014 56.0633 129.229C56.1059 129.445 56.2111 129.644 56.3655 129.799C56.52 129.955 56.7168 130.061 56.931 130.104C57.1452 130.147 57.3673 130.125 57.5691 130.04C57.7709 129.956 57.9434 129.814 58.0647 129.631C58.1861 129.448 58.2509 129.232 58.2509 129.012C58.2509 128.717 58.1345 128.434 57.9274 128.225C57.7203 128.017 57.4394 127.899 57.1465 127.899ZM52.1767 132.629C51.9582 132.629 51.7447 132.694 51.5631 132.817C51.3815 132.939 51.2399 133.113 51.1563 133.316C51.0727 133.519 51.0509 133.743 51.0935 133.959C51.1361 134.175 51.2413 134.373 51.3957 134.529C51.5502 134.684 51.747 134.79 51.9612 134.833C52.1754 134.876 52.3975 134.854 52.5993 134.77C52.8011 134.686 52.9736 134.543 53.0949 134.36C53.2163 134.177 53.2811 133.962 53.2811 133.742C53.2811 133.447 53.1647 133.164 52.9576 132.955C52.7505 132.746 52.4696 132.629 52.1767 132.629ZM57.1465 132.629C56.928 132.629 56.7145 132.694 56.5329 132.817C56.3513 132.939 56.2097 133.113 56.1261 133.316C56.0425 133.519 56.0207 133.743 56.0633 133.959C56.1059 134.175 56.2111 134.373 56.3655 134.529C56.52 134.684 56.7168 134.79 56.931 134.833C57.1452 134.876 57.3673 134.854 57.5691 134.77C57.7709 134.686 57.9434 134.543 58.0647 134.36C58.1861 134.177 58.2509 133.962 58.2509 133.742C58.2509 133.447 58.1345 133.164 57.9274 132.955C57.7203 132.746 57.4394 132.629 57.1465 132.629Z" fill="#2B2D2D"/>
<path d="M73.0952 123.941V122.729H81.5601V123.941H78.011V134.016H76.6443V123.941H73.0952ZM83.4931 134.016V125.551H84.7937V134.016H83.4931ZM84.1545 124.14C83.901 124.14 83.6824 124.054 83.4987 123.881C83.3186 123.708 83.2286 123.501 83.2286 123.258C83.2286 123.016 83.3186 122.808 83.4987 122.635C83.6824 122.463 83.901 122.376 84.1545 122.376C84.408 122.376 84.6247 122.463 84.8048 122.635C84.9885 122.808 85.0803 123.016 85.0803 123.258C85.0803 123.501 84.9885 123.708 84.8048 123.881C84.6247 124.054 84.408 124.14 84.1545 124.14ZM87.1759 134.016V125.551H88.4324V126.873H88.5426C88.719 126.421 89.0037 126.071 89.3968 125.821C89.79 125.567 90.2621 125.44 90.8132 125.44C91.3716 125.44 91.8364 125.567 92.2075 125.821C92.5822 126.071 92.8743 126.421 93.0837 126.873H93.1719C93.3887 126.436 93.7138 126.089 94.1473 125.832C94.5809 125.571 95.1008 125.44 95.707 125.44C96.4638 125.44 97.0829 125.677 97.5642 126.151C98.0455 126.622 98.2861 127.355 98.2861 128.35V134.016H96.9855V128.35C96.9855 127.726 96.8147 127.279 96.473 127.011C96.1313 126.743 95.729 126.609 95.2661 126.609C94.6709 126.609 94.2098 126.789 93.8828 127.149C93.5558 127.505 93.3923 127.957 93.3923 128.505V134.016H92.0697V128.218C92.0697 127.737 91.9135 127.349 91.6012 127.055C91.289 126.758 90.8867 126.609 90.3943 126.609C90.0563 126.609 89.7404 126.699 89.4464 126.879C89.1562 127.059 88.921 127.309 88.741 127.628C88.5647 127.944 88.4765 128.31 88.4765 128.725V134.016H87.1759ZM104.213 134.192C103.398 134.192 102.694 134.012 102.103 133.652C101.515 133.288 101.061 132.781 100.741 132.131C100.425 131.477 100.267 130.716 100.267 129.849C100.267 128.982 100.425 128.218 100.741 127.557C101.061 126.892 101.505 126.374 102.075 126.003C102.648 125.628 103.317 125.44 104.081 125.44C104.522 125.44 104.957 125.514 105.387 125.661C105.817 125.808 106.208 126.047 106.561 126.377C106.914 126.704 107.195 127.138 107.404 127.678C107.614 128.218 107.718 128.883 107.718 129.673V130.224H101.193V129.1H106.396C106.396 128.622 106.3 128.196 106.109 127.821C105.922 127.446 105.653 127.151 105.304 126.934C104.959 126.717 104.551 126.609 104.081 126.609C103.563 126.609 103.115 126.737 102.736 126.995C102.362 127.248 102.073 127.579 101.871 127.987C101.669 128.394 101.568 128.832 101.568 129.298V130.048C101.568 130.687 101.678 131.229 101.899 131.673C102.123 132.114 102.433 132.45 102.83 132.682C103.227 132.91 103.688 133.024 104.213 133.024C104.555 133.024 104.864 132.976 105.139 132.88C105.418 132.781 105.659 132.634 105.861 132.439C106.063 132.241 106.219 131.995 106.329 131.701L107.586 132.054C107.454 132.48 107.231 132.855 106.919 133.178C106.607 133.498 106.221 133.747 105.762 133.927C105.303 134.104 104.786 134.192 104.213 134.192ZM110.997 122.729V134.016H109.697V122.729H110.997ZM113.379 134.016V125.551H114.68V134.016H113.379ZM114.041 124.14C113.787 124.14 113.569 124.054 113.385 123.881C113.205 123.708 113.115 123.501 113.115 123.258C113.115 123.016 113.205 122.808 113.385 122.635C113.569 122.463 113.787 122.376 114.041 122.376C114.294 122.376 114.511 122.463 114.691 122.635C114.875 122.808 114.967 123.016 114.967 123.258C114.967 123.501 114.875 123.708 114.691 123.881C114.511 124.054 114.294 124.14 114.041 124.14ZM118.363 128.923V134.016H117.062V125.551H118.319V126.873H118.429C118.627 126.443 118.929 126.098 119.333 125.837C119.737 125.573 120.259 125.44 120.898 125.44C121.471 125.44 121.973 125.558 122.402 125.793C122.832 126.025 123.167 126.377 123.405 126.851C123.644 127.322 123.764 127.917 123.764 128.637V134.016H122.463V128.725C122.463 128.06 122.29 127.542 121.945 127.171C121.6 126.796 121.126 126.609 120.523 126.609C120.108 126.609 119.737 126.699 119.41 126.879C119.087 127.059 118.831 127.322 118.644 127.667C118.457 128.012 118.363 128.431 118.363 128.923ZM129.689 134.192C128.874 134.192 128.17 134.012 127.579 133.652C126.991 133.288 126.537 132.781 126.217 132.131C125.901 131.477 125.743 130.716 125.743 129.849C125.743 128.982 125.901 128.218 126.217 127.557C126.537 126.892 126.982 126.374 127.551 126.003C128.124 125.628 128.793 125.44 129.557 125.44C129.998 125.44 130.433 125.514 130.863 125.661C131.293 125.808 131.684 126.047 132.037 126.377C132.39 126.704 132.671 127.138 132.88 127.678C133.09 128.218 133.194 128.883 133.194 129.673V130.224H126.669V129.1H131.872C131.872 128.622 131.776 128.196 131.585 127.821C131.398 127.446 131.13 127.151 130.781 126.934C130.435 126.717 130.027 126.609 129.557 126.609C129.039 126.609 128.591 126.737 128.212 126.995C127.838 127.248 127.549 127.579 127.347 127.987C127.145 128.394 127.044 128.832 127.044 129.298V130.048C127.044 130.687 127.154 131.229 127.375 131.673C127.599 132.114 127.909 132.45 128.306 132.682C128.703 132.91 129.164 133.024 129.689 133.024C130.031 133.024 130.34 132.976 130.615 132.88C130.894 132.781 131.135 132.634 131.337 132.439C131.539 132.241 131.695 131.995 131.806 131.701L133.062 132.054C132.93 132.48 132.708 132.855 132.395 133.178C132.083 133.498 131.697 133.747 131.238 133.927C130.779 134.104 130.263 134.192 129.689 134.192Z" fill="#666666"/>
<g clip-path="url(#clip1_3528_5078)">
<path d="M267.287 122.729H268.918L272.754 132.098H272.886L276.722 122.729H278.353V134.016H277.074V125.44H276.964L273.437 134.016H272.202L268.675 125.44H268.565V134.016H267.287V122.729ZM284.356 134.192C283.592 134.192 282.921 134.01 282.344 133.646C281.771 133.283 281.323 132.774 280.999 132.12C280.68 131.466 280.52 130.702 280.52 129.827C280.52 128.945 280.68 128.176 280.999 127.518C281.323 126.86 281.771 126.35 282.344 125.986C282.921 125.622 283.592 125.44 284.356 125.44C285.12 125.44 285.789 125.622 286.362 125.986C286.939 126.35 287.387 126.86 287.706 127.518C288.03 128.176 288.191 128.945 288.191 129.827C288.191 130.702 288.03 131.466 287.706 132.12C287.387 132.774 286.939 133.283 286.362 133.646C285.789 134.01 285.12 134.192 284.356 134.192ZM284.356 133.024C284.936 133.024 285.414 132.875 285.789 132.577C286.163 132.28 286.441 131.888 286.621 131.403C286.801 130.918 286.891 130.393 286.891 129.827C286.891 129.261 286.801 128.734 286.621 128.246C286.441 127.757 286.163 127.362 285.789 127.061C285.414 126.759 284.936 126.609 284.356 126.609C283.775 126.609 283.298 126.759 282.923 127.061C282.548 127.362 282.271 127.757 282.091 128.246C281.911 128.734 281.821 129.261 281.821 129.827C281.821 130.393 281.911 130.918 282.091 131.403C282.271 131.888 282.548 132.28 282.923 132.577C283.298 132.875 283.775 133.024 284.356 133.024ZM291.477 128.923V134.016H290.177V125.551H291.433V126.873H291.543C291.742 126.443 292.043 126.098 292.447 125.837C292.851 125.573 293.373 125.44 294.012 125.44C294.586 125.44 295.087 125.558 295.517 125.793C295.947 126.025 296.281 126.377 296.52 126.851C296.759 127.322 296.878 127.917 296.878 128.637V134.016H295.578V128.725C295.578 128.06 295.405 127.542 295.06 127.171C294.714 126.796 294.24 126.609 293.638 126.609C293.222 126.609 292.851 126.699 292.524 126.879C292.201 127.059 291.946 127.322 291.758 127.667C291.571 128.012 291.477 128.431 291.477 128.923ZM302.936 125.551V126.653H298.549V125.551H302.936ZM299.828 123.523H301.129V131.591C301.129 131.958 301.182 132.234 301.288 132.417C301.399 132.597 301.538 132.719 301.707 132.781C301.88 132.84 302.062 132.869 302.253 132.869C302.396 132.869 302.514 132.862 302.605 132.847C302.697 132.829 302.771 132.814 302.826 132.803L303.09 133.972C303.002 134.005 302.879 134.038 302.721 134.071C302.563 134.107 302.363 134.126 302.121 134.126C301.753 134.126 301.393 134.047 301.04 133.889C300.691 133.731 300.401 133.49 300.17 133.167C299.942 132.844 299.828 132.436 299.828 131.943V123.523ZM306.375 128.923V134.016H305.074V122.729H306.375V126.873H306.485C306.684 126.436 306.981 126.089 307.378 125.832C307.778 125.571 308.311 125.44 308.976 125.44C309.553 125.44 310.058 125.556 310.492 125.788C310.925 126.015 311.261 126.366 311.5 126.84C311.743 127.311 311.864 127.909 311.864 128.637V134.016H310.563V128.725C310.563 128.053 310.389 127.533 310.04 127.165C309.695 126.794 309.215 126.609 308.601 126.609C308.175 126.609 307.793 126.699 307.455 126.879C307.121 127.059 306.856 127.322 306.662 127.667C306.471 128.012 306.375 128.431 306.375 128.923ZM315.544 122.729V134.016H314.243V122.729H315.544ZM318.764 137.19C318.543 137.19 318.347 137.172 318.174 137.135C318.001 137.102 317.882 137.069 317.816 137.036L318.147 135.889C318.463 135.97 318.742 136 318.984 135.978C319.227 135.956 319.442 135.847 319.629 135.652C319.82 135.461 319.995 135.151 320.153 134.721L320.395 134.06L317.265 125.551H318.676L321.012 132.296H321.101L323.437 125.551H324.848L321.255 135.25C321.093 135.687 320.893 136.049 320.654 136.336C320.415 136.626 320.138 136.841 319.822 136.981C319.51 137.12 319.157 137.19 318.764 137.19Z" fill="#2B2D2D"/>
<path d="M345.932 129.535L341.099 134.405C340.963 134.542 340.778 134.619 340.586 134.619C340.393 134.619 340.208 134.542 340.072 134.405C339.936 134.268 339.859 134.082 339.859 133.888C339.859 133.693 339.936 133.507 340.072 133.37L344.392 129.018L340.073 124.665C340.006 124.597 339.952 124.517 339.916 124.428C339.879 124.339 339.861 124.244 339.861 124.148C339.861 124.052 339.879 123.957 339.916 123.868C339.952 123.779 340.006 123.698 340.073 123.63C340.141 123.562 340.221 123.508 340.309 123.472C340.397 123.435 340.491 123.416 340.587 123.416C340.682 123.416 340.777 123.435 340.865 123.472C340.953 123.508 341.033 123.562 341.1 123.63L345.933 128.5C346.001 128.568 346.054 128.649 346.091 128.738C346.127 128.827 346.146 128.922 346.146 129.018C346.146 129.114 346.127 129.209 346.09 129.298C346.053 129.387 346 129.467 345.932 129.535Z" fill="#2B2D2D"/>
</g>
<rect x="32.5059" y="159.033" width="331.044" height="46.7347" rx="23.3673" fill="white"/>
<path d="M53.2811 177.669C53.2811 177.89 53.2163 178.105 53.0949 178.288C52.9736 178.471 52.8011 178.613 52.5993 178.698C52.3975 178.782 52.1754 178.804 51.9612 178.761C51.747 178.718 51.5502 178.612 51.3957 178.456C51.2413 178.301 51.1361 178.102 51.0935 177.887C51.0509 177.671 51.0727 177.447 51.1563 177.244C51.2399 177.04 51.3815 176.866 51.5631 176.744C51.7447 176.622 51.9582 176.557 52.1767 176.557C52.4696 176.557 52.7505 176.674 52.9576 176.883C53.1647 177.091 53.2811 177.374 53.2811 177.669ZM57.1465 178.782C57.3649 178.782 57.5784 178.717 57.76 178.595C57.9417 178.472 58.0832 178.299 58.1668 178.095C58.2504 177.892 58.2723 177.668 58.2296 177.452C58.187 177.237 58.0818 177.038 57.9274 176.883C57.7729 176.727 57.5762 176.621 57.3619 176.578C57.1477 176.535 56.9256 176.557 56.7238 176.641C56.522 176.726 56.3495 176.868 56.2282 177.051C56.1068 177.234 56.0421 177.449 56.0421 177.669C56.0421 177.965 56.1584 178.248 56.3655 178.456C56.5726 178.665 56.8536 178.782 57.1465 178.782ZM52.1767 181.286C51.9582 181.286 51.7447 181.351 51.5631 181.474C51.3815 181.596 51.2399 181.77 51.1563 181.973C51.0727 182.177 51.0509 182.4 51.0935 182.616C51.1361 182.832 51.2413 183.03 51.3957 183.186C51.5502 183.342 51.747 183.448 51.9612 183.49C52.1754 183.533 52.3975 183.511 52.5993 183.427C52.8011 183.343 52.9736 183.2 53.0949 183.017C53.2163 182.834 53.2811 182.619 53.2811 182.399C53.2811 182.104 53.1647 181.821 52.9576 181.612C52.7505 181.403 52.4696 181.286 52.1767 181.286ZM57.1465 181.286C56.928 181.286 56.7145 181.351 56.5329 181.474C56.3513 181.596 56.2097 181.77 56.1261 181.973C56.0425 182.177 56.0207 182.4 56.0633 182.616C56.1059 182.832 56.2111 183.03 56.3655 183.186C56.52 183.342 56.7168 183.448 56.931 183.49C57.1452 183.533 57.3673 183.511 57.5691 183.427C57.7709 183.343 57.9434 183.2 58.0647 183.017C58.1861 182.834 58.2509 182.619 58.2509 182.399C58.2509 182.104 58.1345 181.821 57.9274 181.612C57.7203 181.403 57.4394 181.286 57.1465 181.286ZM52.1767 186.016C51.9582 186.016 51.7447 186.081 51.5631 186.203C51.3815 186.326 51.2399 186.499 51.1563 186.703C51.0727 186.906 51.0509 187.13 51.0935 187.346C51.1361 187.562 51.2413 187.76 51.3957 187.915C51.5502 188.071 51.747 188.177 51.9612 188.22C52.1754 188.263 52.3975 188.241 52.5993 188.157C52.8011 188.072 52.9736 187.93 53.0949 187.747C53.2163 187.564 53.2811 187.349 53.2811 187.129C53.2811 186.833 53.1647 186.55 52.9576 186.342C52.7505 186.133 52.4696 186.016 52.1767 186.016ZM57.1465 186.016C56.928 186.016 56.7145 186.081 56.5329 186.203C56.3513 186.326 56.2097 186.499 56.1261 186.703C56.0425 186.906 56.0207 187.13 56.0633 187.346C56.1059 187.562 56.2111 187.76 56.3655 187.915C56.52 188.071 56.7168 188.177 56.931 188.22C57.1452 188.263 57.3673 188.241 57.5691 188.157C57.7709 188.072 57.9434 187.93 58.0647 187.747C58.1861 187.564 58.2509 187.349 58.2509 187.129C58.2509 186.833 58.1345 186.55 57.9274 186.342C57.7203 186.133 57.4394 186.016 57.1465 186.016Z" fill="#2B2D2D"/>
<path d="M82.7946 179.641H81.4279C81.3471 179.248 81.2056 178.902 81.0035 178.605C80.8051 178.307 80.5627 178.057 80.2761 177.855C79.9932 177.65 79.679 177.495 79.3337 177.392C78.9883 177.289 78.6283 177.238 78.2535 177.238C77.5702 177.238 76.9511 177.411 76.3963 177.756C75.8452 178.101 75.4062 178.61 75.0792 179.283C74.7559 179.955 74.5942 180.78 74.5942 181.757C74.5942 182.734 74.7559 183.559 75.0792 184.232C75.4062 184.904 75.8452 185.413 76.3963 185.758C76.9511 186.103 77.5702 186.276 78.2535 186.276C78.6283 186.276 78.9883 186.225 79.3337 186.122C79.679 186.019 79.9932 185.866 80.2761 185.664C80.5627 185.459 80.8051 185.207 81.0035 184.909C81.2056 184.608 81.3471 184.263 81.4279 183.873H82.7946C82.6917 184.45 82.5044 184.966 82.2325 185.422C81.9606 185.878 81.6226 186.265 81.2185 186.585C80.8143 186.901 80.3606 187.141 79.8572 187.307C79.3576 187.472 78.823 187.555 78.2535 187.555C77.2909 187.555 76.4349 187.32 75.6854 186.849C74.9359 186.379 74.3462 185.71 73.9163 184.843C73.4865 183.976 73.2716 182.947 73.2716 181.757C73.2716 180.567 73.4865 179.538 73.9163 178.671C74.3462 177.804 74.9359 177.135 75.6854 176.665C76.4349 176.195 77.2909 175.959 78.2535 175.959C78.823 175.959 79.3576 176.042 79.8572 176.207C80.3606 176.373 80.8143 176.615 81.2185 176.935C81.6226 177.251 81.9606 177.637 82.2325 178.092C82.5044 178.544 82.6917 179.06 82.7946 179.641ZM87.3178 187.599C86.7814 187.599 86.2946 187.498 85.8574 187.296C85.4202 187.09 85.073 186.794 84.8158 186.408C84.5586 186.019 84.43 185.549 84.43 184.998C84.43 184.513 84.5255 184.119 84.7166 183.818C84.9076 183.513 85.163 183.274 85.4826 183.102C85.8023 182.929 86.155 182.801 86.5407 182.716C86.9302 182.628 87.3215 182.558 87.7146 182.507C88.229 182.44 88.646 182.391 88.9656 182.358C89.2889 182.321 89.524 182.26 89.671 182.176C89.8216 182.091 89.897 181.944 89.897 181.735V181.691C89.897 181.147 89.7482 180.725 89.4506 180.423C89.1566 180.122 88.7103 179.972 88.1114 179.972C87.4905 179.972 87.0037 180.107 86.651 180.379C86.2983 180.651 86.0503 180.941 85.907 181.25L84.6725 180.809C84.8929 180.295 85.1869 179.894 85.5543 179.608C85.9253 179.318 86.3295 179.115 86.7667 179.002C87.2076 178.884 87.6411 178.825 88.0673 178.825C88.3392 178.825 88.6515 178.858 89.0042 178.924C89.3606 178.987 89.7041 179.117 90.0347 179.316C90.3691 179.514 90.6465 179.814 90.8669 180.214C91.0873 180.614 91.1976 181.151 91.1976 181.823V187.4H89.897V186.254H89.8308C89.7427 186.438 89.5957 186.634 89.3899 186.844C89.1842 187.053 88.9105 187.231 88.5688 187.378C88.2271 187.525 87.8101 187.599 87.3178 187.599ZM87.5162 186.43C88.0306 186.43 88.4641 186.329 88.8168 186.127C89.1732 185.925 89.4414 185.664 89.6214 185.345C89.8051 185.025 89.897 184.689 89.897 184.336V183.146C89.8419 183.212 89.7206 183.273 89.5332 183.328C89.3495 183.379 89.1364 183.425 88.894 183.466C88.6551 183.502 88.4218 183.535 88.1941 183.565C87.9699 183.59 87.7881 183.612 87.6485 183.631C87.3104 183.675 86.9945 183.747 86.7006 183.846C86.4103 183.941 86.1752 184.086 85.9952 184.281C85.8188 184.472 85.7306 184.733 85.7306 185.064C85.7306 185.516 85.8978 185.857 86.2321 186.089C86.5701 186.317 86.9982 186.43 87.5162 186.43ZM97.2528 178.935V180.038H92.866V178.935H97.2528ZM94.1446 176.907H95.4452V184.976C95.4452 185.343 95.4985 185.618 95.605 185.802C95.7152 185.982 95.8548 186.103 96.0238 186.166C96.1965 186.225 96.3784 186.254 96.5694 186.254C96.7127 186.254 96.8303 186.247 96.9221 186.232C97.014 186.214 97.0875 186.199 97.1426 186.188L97.4071 187.356C97.3189 187.389 97.1959 187.422 97.0379 187.456C96.8799 187.492 96.6797 187.511 96.4372 187.511C96.0698 187.511 95.7097 187.432 95.357 187.274C95.008 187.116 94.7177 186.875 94.4863 186.552C94.2585 186.228 94.1446 185.821 94.1446 185.328V176.907ZM102.667 187.577C101.852 187.577 101.148 187.397 100.557 187.037C99.9688 186.673 99.5151 186.166 99.1954 185.516C98.8795 184.862 98.7215 184.101 98.7215 183.234C98.7215 182.367 98.8795 181.603 99.1954 180.941C99.5151 180.276 99.9596 179.758 100.529 179.387C101.102 179.013 101.771 178.825 102.535 178.825C102.976 178.825 103.411 178.899 103.841 179.046C104.271 179.193 104.662 179.431 105.015 179.762C105.368 180.089 105.649 180.523 105.858 181.063C106.068 181.603 106.172 182.268 106.172 183.058V183.609H99.6474V182.485H104.85C104.85 182.007 104.754 181.581 104.563 181.206C104.376 180.831 104.108 180.535 103.759 180.319C103.413 180.102 103.005 179.994 102.535 179.994C102.017 179.994 101.569 180.122 101.19 180.379C100.816 180.633 100.527 180.964 100.325 181.371C100.123 181.779 100.022 182.216 100.022 182.683V183.432C100.022 184.072 100.132 184.614 100.353 185.058C100.577 185.499 100.887 185.835 101.284 186.067C101.681 186.295 102.142 186.408 102.667 186.408C103.009 186.408 103.318 186.361 103.593 186.265C103.872 186.166 104.113 186.019 104.315 185.824C104.517 185.626 104.673 185.38 104.784 185.086L106.04 185.438C105.908 185.865 105.686 186.239 105.373 186.563C105.061 186.882 104.675 187.132 104.216 187.312C103.757 187.489 103.241 187.577 102.667 187.577ZM111.568 190.751C110.939 190.751 110.399 190.67 109.947 190.509C109.496 190.351 109.119 190.141 108.818 189.88C108.52 189.623 108.283 189.348 108.107 189.054L109.143 188.326C109.26 188.481 109.409 188.657 109.589 188.855C109.769 189.057 110.015 189.232 110.328 189.379C110.644 189.529 111.057 189.605 111.568 189.605C112.251 189.605 112.815 189.439 113.26 189.109C113.704 188.778 113.926 188.26 113.926 187.555V185.835H113.816C113.721 185.99 113.585 186.181 113.408 186.408C113.236 186.633 112.986 186.833 112.659 187.009C112.336 187.182 111.898 187.268 111.347 187.268C110.664 187.268 110.05 187.106 109.507 186.783C108.967 186.46 108.538 185.99 108.223 185.372C107.91 184.755 107.754 184.006 107.754 183.124C107.754 182.257 107.907 181.502 108.211 180.859C108.516 180.212 108.941 179.713 109.485 179.36C110.028 179.003 110.657 178.825 111.369 178.825C111.92 178.825 112.358 178.917 112.681 179.101C113.008 179.281 113.258 179.487 113.43 179.718C113.607 179.946 113.743 180.133 113.838 180.28H113.971V178.935H115.227V187.643C115.227 188.37 115.062 188.962 114.731 189.417C114.404 189.877 113.963 190.213 113.408 190.426C112.857 190.643 112.244 190.751 111.568 190.751ZM111.524 186.1C112.045 186.1 112.486 185.98 112.846 185.742C113.206 185.503 113.48 185.159 113.667 184.711C113.855 184.263 113.948 183.726 113.948 183.102C113.948 182.492 113.857 181.954 113.673 181.487C113.489 181.02 113.217 180.655 112.857 180.39C112.497 180.126 112.053 179.994 111.524 179.994C110.973 179.994 110.513 180.133 110.146 180.412C109.782 180.692 109.508 181.066 109.325 181.537C109.145 182.007 109.055 182.529 109.055 183.102C109.055 183.69 109.147 184.21 109.33 184.661C109.518 185.11 109.793 185.462 110.157 185.72C110.524 185.973 110.98 186.1 111.524 186.1ZM121.047 187.577C120.282 187.577 119.612 187.395 119.035 187.031C118.462 186.667 118.014 186.159 117.69 185.505C117.371 184.851 117.211 184.086 117.211 183.212C117.211 182.33 117.371 181.561 117.69 180.903C118.014 180.245 118.462 179.735 119.035 179.371C119.612 179.007 120.282 178.825 121.047 178.825C121.811 178.825 122.48 179.007 123.053 179.371C123.63 179.735 124.078 180.245 124.397 180.903C124.721 181.561 124.882 182.33 124.882 183.212C124.882 184.086 124.721 184.851 124.397 185.505C124.078 186.159 123.63 186.667 123.053 187.031C122.48 187.395 121.811 187.577 121.047 187.577ZM121.047 186.408C121.627 186.408 122.105 186.26 122.48 185.962C122.854 185.664 123.132 185.273 123.312 184.788C123.492 184.303 123.582 183.778 123.582 183.212C123.582 182.646 123.492 182.119 123.312 181.63C123.132 181.142 122.854 180.747 122.48 180.445C122.105 180.144 121.627 179.994 121.047 179.994C120.466 179.994 119.989 180.144 119.614 180.445C119.239 180.747 118.962 181.142 118.782 181.63C118.602 182.119 118.512 182.646 118.512 183.212C118.512 183.778 118.602 184.303 118.782 184.788C118.962 185.273 119.239 185.664 119.614 185.962C119.989 186.26 120.466 186.408 121.047 186.408ZM126.868 187.4V178.935H128.124V180.214H128.212C128.367 179.795 128.646 179.455 129.05 179.194C129.454 178.934 129.91 178.803 130.417 178.803C130.512 178.803 130.632 178.805 130.775 178.809C130.918 178.812 131.027 178.818 131.1 178.825V180.148C131.056 180.137 130.955 180.12 130.797 180.098C130.643 180.073 130.479 180.06 130.307 180.06C129.895 180.06 129.528 180.146 129.204 180.319C128.885 180.488 128.631 180.723 128.444 181.024C128.26 181.322 128.168 181.662 128.168 182.044V187.4H126.868ZM133.737 190.575C133.517 190.575 133.32 190.556 133.148 190.52C132.975 190.487 132.855 190.454 132.789 190.42L133.12 189.274C133.436 189.355 133.715 189.384 133.958 189.362C134.2 189.34 134.415 189.232 134.602 189.037C134.793 188.846 134.968 188.536 135.126 188.106L135.368 187.444L132.238 178.935H133.649L135.986 185.681H136.074L138.411 178.935H139.821L136.228 188.635C136.067 189.072 135.866 189.434 135.627 189.721C135.389 190.011 135.111 190.226 134.795 190.365C134.483 190.505 134.13 190.575 133.737 190.575Z" fill="#666666"/>
<g clip-path="url(#clip2_3528_5078)">
<path d="M182.078 176.114L185.428 185.615H185.561L188.911 176.114H190.344L186.2 187.4H184.789L180.645 176.114H182.078ZM193.629 187.599C193.092 187.599 192.606 187.498 192.168 187.296C191.731 187.09 191.384 186.794 191.127 186.408C190.87 186.019 190.741 185.549 190.741 184.998C190.741 184.513 190.837 184.119 191.028 183.818C191.219 183.513 191.474 183.274 191.794 183.102C192.113 182.929 192.466 182.801 192.852 182.716C193.241 182.628 193.633 182.558 194.026 182.507C194.54 182.44 194.957 182.391 195.277 182.358C195.6 182.321 195.835 182.26 195.982 182.176C196.133 182.091 196.208 181.944 196.208 181.735V181.691C196.208 181.147 196.059 180.725 195.762 180.423C195.468 180.122 195.021 179.972 194.422 179.972C193.802 179.972 193.315 180.107 192.962 180.379C192.609 180.651 192.361 180.941 192.218 181.25L190.984 180.809C191.204 180.295 191.498 179.894 191.865 179.608C192.236 179.318 192.641 179.115 193.078 179.002C193.519 178.884 193.952 178.825 194.378 178.825C194.65 178.825 194.963 178.858 195.315 178.924C195.672 178.987 196.015 179.117 196.346 179.316C196.68 179.514 196.957 179.814 197.178 180.214C197.398 180.614 197.509 181.151 197.509 181.823V187.4H196.208V186.254H196.142C196.054 186.438 195.907 186.634 195.701 186.844C195.495 187.053 195.222 187.231 194.88 187.378C194.538 187.525 194.121 187.599 193.629 187.599ZM193.827 186.43C194.342 186.43 194.775 186.329 195.128 186.127C195.484 185.925 195.752 185.664 195.932 185.345C196.116 185.025 196.208 184.689 196.208 184.336V183.146C196.153 183.212 196.032 183.273 195.844 183.328C195.661 183.379 195.447 183.425 195.205 183.466C194.966 183.502 194.733 183.535 194.505 183.565C194.281 183.59 194.099 183.612 193.959 183.631C193.621 183.675 193.306 183.747 193.012 183.846C192.721 183.941 192.486 184.086 192.306 184.281C192.13 184.472 192.042 184.733 192.042 185.064C192.042 185.516 192.209 185.857 192.543 186.089C192.881 186.317 193.309 186.43 193.827 186.43ZM201.183 176.114V187.4H199.882V176.114H201.183ZM208.9 183.939V178.935H210.201V187.4H208.9V185.968H208.812C208.613 186.397 208.305 186.763 207.886 187.064C207.467 187.362 206.938 187.511 206.299 187.511C205.77 187.511 205.299 187.395 204.888 187.163C204.476 186.928 204.153 186.576 203.918 186.105C203.683 185.631 203.565 185.034 203.565 184.314V178.935H204.866V184.226C204.866 184.843 205.039 185.336 205.384 185.703C205.733 186.07 206.177 186.254 206.718 186.254C207.041 186.254 207.37 186.171 207.704 186.006C208.042 185.841 208.325 185.587 208.553 185.246C208.784 184.904 208.9 184.469 208.9 183.939ZM216.132 187.577C215.316 187.577 214.613 187.397 214.021 187.037C213.433 186.673 212.979 186.166 212.66 185.516C212.344 184.862 212.186 184.101 212.186 183.234C212.186 182.367 212.344 181.603 212.66 180.941C212.979 180.276 213.424 179.758 213.993 179.387C214.567 179.013 215.235 178.825 215.999 178.825C216.44 178.825 216.876 178.899 217.306 179.046C217.735 179.193 218.127 179.431 218.479 179.762C218.832 180.089 219.113 180.523 219.323 181.063C219.532 181.603 219.637 182.268 219.637 183.058V183.609H213.112V182.485H218.314C218.314 182.007 218.219 181.581 218.028 181.206C217.84 180.831 217.572 180.535 217.223 180.319C216.878 180.102 216.47 179.994 215.999 179.994C215.481 179.994 215.033 180.122 214.655 180.379C214.28 180.633 213.992 180.964 213.79 181.371C213.587 181.779 213.486 182.216 213.486 182.683V183.432C213.486 184.072 213.597 184.614 213.817 185.058C214.041 185.499 214.352 185.835 214.748 186.067C215.145 186.295 215.606 186.408 216.132 186.408C216.473 186.408 216.782 186.361 217.058 186.265C217.337 186.166 217.577 186.019 217.78 185.824C217.982 185.626 218.138 185.38 218.248 185.086L219.505 185.438C219.372 185.865 219.15 186.239 218.838 186.563C218.525 186.882 218.14 187.132 217.68 187.312C217.221 187.489 216.705 187.577 216.132 187.577ZM228.471 187.599C227.935 187.599 227.448 187.498 227.011 187.296C226.573 187.09 226.226 186.794 225.969 186.408C225.712 186.019 225.583 185.549 225.583 184.998C225.583 184.513 225.679 184.119 225.87 183.818C226.061 183.513 226.316 183.274 226.636 183.102C226.955 182.929 227.308 182.801 227.694 182.716C228.083 182.628 228.475 182.558 228.868 182.507C229.382 182.44 229.799 182.391 230.119 182.358C230.442 182.321 230.677 182.26 230.824 182.176C230.975 182.091 231.05 181.944 231.05 181.735V181.691C231.05 181.147 230.901 180.725 230.604 180.423C230.31 180.122 229.863 179.972 229.265 179.972C228.644 179.972 228.157 180.107 227.804 180.379C227.451 180.651 227.203 180.941 227.06 181.25L225.826 180.809C226.046 180.295 226.34 179.894 226.707 179.608C227.078 179.318 227.483 179.115 227.92 179.002C228.361 178.884 228.794 178.825 229.22 178.825C229.492 178.825 229.805 178.858 230.157 178.924C230.514 178.987 230.857 179.117 231.188 179.316C231.522 179.514 231.8 179.814 232.02 180.214C232.24 180.614 232.351 181.151 232.351 181.823V187.4H231.05V186.254H230.984C230.896 186.438 230.749 186.634 230.543 186.844C230.337 187.053 230.064 187.231 229.722 187.378C229.38 187.525 228.963 187.599 228.471 187.599ZM228.669 186.43C229.184 186.43 229.617 186.329 229.97 186.127C230.326 185.925 230.595 185.664 230.775 185.345C230.958 185.025 231.05 184.689 231.05 184.336V183.146C230.995 183.212 230.874 183.273 230.686 183.328C230.503 183.379 230.29 183.425 230.047 183.466C229.808 183.502 229.575 183.535 229.347 183.565C229.123 183.59 228.941 183.612 228.802 183.631C228.464 183.675 228.148 183.747 227.854 183.846C227.563 183.941 227.328 184.086 227.148 184.281C226.972 184.472 226.884 184.733 226.884 185.064C226.884 185.516 227.051 185.857 227.385 186.089C227.723 186.317 228.151 186.43 228.669 186.43ZM236.025 182.308V187.4H234.725V178.935H235.981V180.258H236.091C236.29 179.828 236.591 179.483 236.995 179.222C237.399 178.957 237.921 178.825 238.56 178.825C239.133 178.825 239.635 178.943 240.065 179.178C240.495 179.409 240.829 179.762 241.068 180.236C241.307 180.706 241.426 181.302 241.426 182.022V187.4H240.125V182.11C240.125 181.445 239.953 180.927 239.607 180.556C239.262 180.181 238.788 179.994 238.186 179.994C237.77 179.994 237.399 180.084 237.072 180.264C236.749 180.444 236.494 180.706 236.306 181.052C236.119 181.397 236.025 181.816 236.025 182.308ZM246.999 187.577C246.294 187.577 245.671 187.399 245.131 187.042C244.591 186.682 244.168 186.175 243.863 185.521C243.558 184.863 243.406 184.086 243.406 183.19C243.406 182.301 243.558 181.529 243.863 180.875C244.168 180.221 244.593 179.716 245.136 179.36C245.68 179.003 246.308 178.825 247.021 178.825C247.572 178.825 248.008 178.917 248.327 179.101C248.651 179.281 248.897 179.487 249.066 179.718C249.238 179.946 249.372 180.133 249.468 180.28H249.578V176.114H250.879V187.4H249.622V186.1H249.468C249.372 186.254 249.237 186.449 249.06 186.684C248.884 186.915 248.632 187.123 248.305 187.307C247.978 187.487 247.543 187.577 246.999 187.577ZM247.175 186.408C247.697 186.408 248.138 186.272 248.498 186.001C248.858 185.725 249.132 185.345 249.319 184.86C249.507 184.371 249.6 183.807 249.6 183.168C249.6 182.536 249.508 181.983 249.325 181.509C249.141 181.031 248.869 180.66 248.509 180.396C248.149 180.128 247.704 179.994 247.175 179.994C246.624 179.994 246.165 180.135 245.798 180.418C245.434 180.697 245.16 181.077 244.976 181.559C244.796 182.036 244.706 182.573 244.706 183.168C244.706 183.77 244.798 184.318 244.982 184.81C245.169 185.299 245.445 185.688 245.809 185.979C246.176 186.265 246.632 186.408 247.175 186.408ZM261.465 187.4H257.983V176.114H261.62C262.715 176.114 263.652 176.34 264.43 176.792C265.209 177.24 265.806 177.885 266.222 178.726C266.637 179.564 266.844 180.567 266.844 181.735C266.844 182.911 266.635 183.923 266.216 184.772C265.797 185.617 265.187 186.267 264.386 186.723C263.585 187.174 262.612 187.4 261.465 187.4ZM259.349 186.188H261.377C262.311 186.188 263.084 186.008 263.697 185.648C264.311 185.288 264.768 184.775 265.07 184.11C265.371 183.445 265.522 182.654 265.522 181.735C265.522 180.824 265.373 180.039 265.075 179.382C264.778 178.721 264.333 178.214 263.742 177.861C263.15 177.504 262.413 177.326 261.532 177.326H259.349V186.188ZM268.96 187.4V178.935H270.261V187.4H268.96ZM269.622 177.525C269.368 177.525 269.15 177.438 268.966 177.266C268.786 177.093 268.696 176.885 268.696 176.643C268.696 176.4 268.786 176.193 268.966 176.02C269.15 175.847 269.368 175.761 269.622 175.761C269.875 175.761 270.092 175.847 270.272 176.02C270.456 176.193 270.548 176.4 270.548 176.643C270.548 176.885 270.456 177.093 270.272 177.266C270.092 177.438 269.875 177.525 269.622 177.525ZM278.639 180.831L277.471 181.162C277.397 180.967 277.289 180.778 277.146 180.594C277.006 180.407 276.815 180.253 276.573 180.131C276.33 180.01 276.02 179.949 275.641 179.949C275.123 179.949 274.692 180.069 274.346 180.308C274.004 180.543 273.834 180.842 273.834 181.206C273.834 181.529 273.951 181.785 274.186 181.972C274.421 182.159 274.789 182.316 275.289 182.44L276.545 182.749C277.302 182.933 277.866 183.214 278.237 183.592C278.608 183.967 278.794 184.45 278.794 185.042C278.794 185.527 278.654 185.96 278.375 186.342C278.099 186.724 277.713 187.026 277.217 187.246C276.721 187.467 276.145 187.577 275.487 187.577C274.624 187.577 273.909 187.389 273.343 187.015C272.777 186.64 272.419 186.092 272.268 185.372L273.503 185.064C273.621 185.519 273.843 185.861 274.17 186.089C274.5 186.317 274.932 186.43 275.465 186.43C276.071 186.43 276.552 186.302 276.909 186.045C277.269 185.784 277.449 185.472 277.449 185.108C277.449 184.814 277.346 184.568 277.14 184.369C276.934 184.167 276.619 184.017 276.192 183.917L274.782 183.587C274.006 183.403 273.437 183.118 273.073 182.733C272.713 182.343 272.533 181.856 272.533 181.272C272.533 180.795 272.667 180.372 272.935 180.005C273.207 179.637 273.576 179.349 274.043 179.139C274.513 178.93 275.046 178.825 275.641 178.825C276.479 178.825 277.137 179.009 277.614 179.376C278.095 179.744 278.437 180.229 278.639 180.831ZM280.751 190.575V178.935H282.008V180.28H282.162C282.258 180.133 282.39 179.946 282.559 179.718C282.732 179.487 282.978 179.281 283.297 179.101C283.621 178.917 284.058 178.825 284.609 178.825C285.322 178.825 285.95 179.003 286.494 179.36C287.038 179.716 287.462 180.221 287.767 180.875C288.072 181.529 288.224 182.301 288.224 183.19C288.224 184.086 288.072 184.863 287.767 185.521C287.462 186.175 287.039 186.682 286.499 187.042C285.959 187.399 285.337 187.577 284.631 187.577C284.087 187.577 283.652 187.487 283.325 187.307C282.998 187.123 282.746 186.915 282.57 186.684C282.394 186.449 282.258 186.254 282.162 186.1H282.052V190.575H280.751ZM282.03 183.168C282.03 183.807 282.124 184.371 282.311 184.86C282.498 185.345 282.772 185.725 283.132 186.001C283.492 186.272 283.933 186.408 284.455 186.408C284.999 186.408 285.452 186.265 285.816 185.979C286.183 185.688 286.459 185.299 286.643 184.81C286.83 184.318 286.924 183.77 286.924 183.168C286.924 182.573 286.832 182.036 286.648 181.559C286.468 181.077 286.194 180.697 285.827 180.418C285.463 180.135 285.006 179.994 284.455 179.994C283.926 179.994 283.481 180.128 283.121 180.396C282.761 180.66 282.489 181.031 282.305 181.509C282.122 181.983 282.03 182.536 282.03 183.168ZM295.543 183.939V178.935H296.844V187.4H295.543V185.968H295.455C295.256 186.397 294.948 186.763 294.529 187.064C294.11 187.362 293.581 187.511 292.942 187.511C292.413 187.511 291.942 187.395 291.531 187.163C291.119 186.928 290.796 186.576 290.561 186.105C290.326 185.631 290.208 185.034 290.208 184.314V178.935H291.509V184.226C291.509 184.843 291.682 185.336 292.027 185.703C292.376 186.07 292.821 186.254 293.361 186.254C293.684 186.254 294.013 186.171 294.347 186.006C294.685 185.841 294.968 185.587 295.196 185.246C295.427 184.904 295.543 184.469 295.543 183.939ZM302.907 178.935V180.038H298.52V178.935H302.907ZM299.799 176.907H301.099V184.976C301.099 185.343 301.153 185.618 301.259 185.802C301.369 185.982 301.509 186.103 301.678 186.166C301.851 186.225 302.033 186.254 302.224 186.254C302.367 186.254 302.485 186.247 302.576 186.232C302.668 186.214 302.742 186.199 302.797 186.188L303.061 187.356C302.973 187.389 302.85 187.422 302.692 187.456C302.534 187.492 302.334 187.511 302.091 187.511C301.724 187.511 301.364 187.432 301.011 187.274C300.662 187.116 300.372 186.875 300.141 186.552C299.913 186.228 299.799 185.821 299.799 185.328V176.907ZM308.322 187.577C307.506 187.577 306.802 187.397 306.211 187.037C305.623 186.673 305.169 186.166 304.85 185.516C304.534 184.862 304.376 184.101 304.376 183.234C304.376 182.367 304.534 181.603 304.85 180.941C305.169 180.276 305.614 179.758 306.183 179.387C306.757 179.013 307.425 178.825 308.189 178.825C308.63 178.825 309.066 178.899 309.496 179.046C309.925 179.193 310.317 179.431 310.669 179.762C311.022 180.089 311.303 180.523 311.513 181.063C311.722 181.603 311.827 182.268 311.827 183.058V183.609H305.302V182.485H310.504C310.504 182.007 310.408 181.581 310.217 181.206C310.03 180.831 309.762 180.535 309.413 180.319C309.067 180.102 308.66 179.994 308.189 179.994C307.671 179.994 307.223 180.122 306.845 180.379C306.47 180.633 306.182 180.964 305.979 181.371C305.777 181.779 305.676 182.216 305.676 182.683V183.432C305.676 184.072 305.787 184.614 306.007 185.058C306.231 185.499 306.542 185.835 306.938 186.067C307.335 186.295 307.796 186.408 308.322 186.408C308.663 186.408 308.972 186.361 309.248 186.265C309.527 186.166 309.767 186.019 309.969 185.824C310.172 185.626 310.328 185.38 310.438 185.086L311.694 185.438C311.562 185.865 311.34 186.239 311.028 186.563C310.715 186.882 310.33 187.132 309.87 187.312C309.411 187.489 308.895 187.577 308.322 187.577ZM321.851 178.935V180.038H317.464V178.935H321.851ZM318.743 176.907H320.044V184.976C320.044 185.343 320.097 185.618 320.203 185.802C320.314 185.982 320.453 186.103 320.622 186.166C320.795 186.225 320.977 186.254 321.168 186.254C321.311 186.254 321.429 186.247 321.521 186.232C321.612 186.214 321.686 186.199 321.741 186.188L322.006 187.356C321.917 187.389 321.794 187.422 321.636 187.456C321.478 187.492 321.278 187.511 321.036 187.511C320.668 187.511 320.308 187.432 319.955 187.274C319.606 187.116 319.316 186.875 319.085 186.552C318.857 186.228 318.743 185.821 318.743 185.328V176.907ZM324.645 190.575C324.425 190.575 324.228 190.556 324.056 190.52C323.883 190.487 323.764 190.454 323.697 190.42L324.028 189.274C324.344 189.355 324.623 189.384 324.866 189.362C325.108 189.34 325.323 189.232 325.511 189.037C325.702 188.846 325.876 188.536 326.034 188.106L326.277 187.444L323.146 178.935H324.557L326.894 185.681H326.982L329.319 178.935H330.73L327.136 188.635C326.975 189.072 326.774 189.434 326.536 189.721C326.297 190.011 326.019 190.226 325.703 190.365C325.391 190.505 325.038 190.575 324.645 190.575ZM332.446 190.575V178.935H333.703V180.28H333.857C333.953 180.133 334.085 179.946 334.254 179.718C334.426 179.487 334.673 179.281 334.992 179.101C335.316 178.917 335.753 178.825 336.304 178.825C337.017 178.825 337.645 179.003 338.189 179.36C338.732 179.716 339.157 180.221 339.462 180.875C339.767 181.529 339.919 182.301 339.919 183.19C339.919 184.086 339.767 184.863 339.462 185.521C339.157 186.175 338.734 186.682 338.194 187.042C337.654 187.399 337.031 187.577 336.326 187.577C335.782 187.577 335.347 187.487 335.02 187.307C334.693 187.123 334.441 186.915 334.265 186.684C334.088 186.449 333.953 186.254 333.857 186.1H333.747V190.575H332.446ZM333.725 183.168C333.725 183.807 333.818 184.371 334.006 184.86C334.193 185.345 334.467 185.725 334.827 186.001C335.187 186.272 335.628 186.408 336.15 186.408C336.693 186.408 337.147 186.265 337.511 185.979C337.878 185.688 338.154 185.299 338.337 184.81C338.525 184.318 338.619 183.77 338.619 183.168C338.619 182.573 338.527 182.036 338.343 181.559C338.163 181.077 337.889 180.697 337.522 180.418C337.158 180.135 336.701 179.994 336.15 179.994C335.621 179.994 335.176 180.128 334.816 180.396C334.456 180.66 334.184 181.031 334 181.509C333.817 181.983 333.725 182.536 333.725 183.168ZM345.452 187.577C344.637 187.577 343.933 187.397 343.341 187.037C342.754 186.673 342.3 186.166 341.98 185.516C341.664 184.862 341.506 184.101 341.506 183.234C341.506 182.367 341.664 181.603 341.98 180.941C342.3 180.276 342.744 179.758 343.314 179.387C343.887 179.013 344.556 178.825 345.32 178.825C345.761 178.825 346.196 178.899 346.626 179.046C347.056 179.193 347.447 179.431 347.8 179.762C348.153 180.089 348.434 180.523 348.643 181.063C348.853 181.603 348.957 182.268 348.957 183.058V183.609H342.432V182.485H347.635C347.635 182.007 347.539 181.581 347.348 181.206C347.161 180.831 346.892 180.535 346.543 180.319C346.198 180.102 345.79 179.994 345.32 179.994C344.802 179.994 344.354 180.122 343.975 180.379C343.601 180.633 343.312 180.964 343.11 181.371C342.908 181.779 342.807 182.216 342.807 182.683V183.432C342.807 184.072 342.917 184.614 343.138 185.058C343.362 185.499 343.672 185.835 344.069 186.067C344.466 186.295 344.927 186.408 345.452 186.408C345.794 186.408 346.103 186.361 346.378 186.265C346.657 186.166 346.898 186.019 347.1 185.824C347.302 185.626 347.458 185.38 347.568 185.086L348.825 185.438C348.693 185.865 348.47 186.239 348.158 186.563C347.846 186.882 347.46 187.132 347.001 187.312C346.542 187.489 346.025 187.577 345.452 187.577Z" fill="#2B2D2D"/>
</g>
<defs>
<clipPath id="clip0_3528_5078">
<rect width="22.1704" height="22.1704" fill="white" transform="translate(65.0156 46.7402)"/>
</clipPath>
<clipPath id="clip1_3528_5078">
<rect width="84.3284" height="24" fill="white" transform="translate(265.92 117.016)"/>
</clipPath>
<clipPath id="clip2_3528_5078">
<rect width="170" height="24" fill="white" transform="translate(180.248 170.4)"/>
</clipPath>
</defs>
</svg>
