<svg width="397" height="224" viewBox="0 0 397 224" fill="none" xmlns="http://www.w3.org/2000/svg">
<rect x="0.787109" y="0.474609" width="395.337" height="222.546" rx="26.6041" fill="#E7E6E4" fill-opacity="0.5"/>
<g clip-path="url(#clip0_3528_5143)">
<rect width="350.997" height="93.3402" transform="translate(22.957 27.0781)" fill="white"/>
<rect x="39.584" y="51.4922" width="44.1724" height="44.5099" rx="22.0862" fill="#F2F2F2"/>
<path d="M68.2955 68.1836H55.0438C54.7509 68.1836 54.47 68.3008 54.2629 68.5095C54.0558 68.7182 53.9395 69.0012 53.9395 69.2963V78.1983C53.9395 78.4934 54.0558 78.7765 54.2629 78.9851C54.47 79.1938 54.7509 79.3111 55.0438 79.3111H68.2955C68.5884 79.3111 68.8693 79.1938 69.0764 78.9851C69.2835 78.7765 69.3998 78.4934 69.3998 78.1983V69.2963C69.3998 69.0012 69.2835 68.7182 69.0764 68.5095C68.8693 68.3008 68.5884 68.1836 68.2955 68.1836ZM68.2955 69.2963V70.9655H55.0438V69.2963H68.2955ZM68.2955 78.1983H55.0438V72.0782H68.2955V78.1983ZM67.1912 76.5292C67.1912 76.6768 67.133 76.8183 67.0295 76.9226C66.9259 77.0269 66.7855 77.0856 66.639 77.0856H64.4304C64.284 77.0856 64.1435 77.0269 64.04 76.9226C63.9364 76.8183 63.8783 76.6768 63.8783 76.5292C63.8783 76.3816 63.9364 76.2401 64.04 76.1358C64.1435 76.0314 64.284 75.9728 64.4304 75.9728H66.639C66.7855 75.9728 66.9259 76.0314 67.0295 76.1358C67.133 76.2401 67.1912 76.3816 67.1912 76.5292ZM62.7739 76.5292C62.7739 76.6768 62.7158 76.8183 62.6122 76.9226C62.5087 77.0269 62.3682 77.0856 62.2218 77.0856H61.1175C60.971 77.0856 60.8306 77.0269 60.727 76.9226C60.6235 76.8183 60.5653 76.6768 60.5653 76.5292C60.5653 76.3816 60.6235 76.2401 60.727 76.1358C60.8306 76.0314 60.971 75.9728 61.1175 75.9728H62.2218C62.3682 75.9728 62.5087 76.0314 62.6122 76.1358C62.7158 76.2401 62.7739 76.3816 62.7739 76.5292Z" fill="#2B2D2D"/>
<path d="M104.547 57.7831C104.481 57.2247 104.213 56.7911 103.742 56.4825C103.272 56.1739 102.695 56.0196 102.012 56.0196C101.512 56.0196 101.075 56.1004 100.7 56.2621C100.329 56.4237 100.039 56.646 99.8295 56.9289C99.6237 57.2118 99.5208 57.5333 99.5208 57.8933C99.5208 58.1946 99.5925 58.4536 99.7358 58.6704C99.8827 58.8835 100.07 59.0617 100.298 59.2049C100.526 59.3446 100.764 59.4603 101.014 59.5521C101.264 59.6403 101.494 59.712 101.703 59.7671L102.85 60.0757C103.143 60.1528 103.47 60.2594 103.83 60.3953C104.194 60.5313 104.541 60.7168 104.872 60.9519C105.206 61.1834 105.482 61.481 105.699 61.8447C105.915 62.2085 106.024 62.6549 106.024 63.1839C106.024 63.7938 105.864 64.3449 105.544 64.8372C105.228 65.3295 104.766 65.7208 104.156 66.0111C103.549 66.3013 102.813 66.4464 101.946 66.4464C101.137 66.4464 100.438 66.316 99.846 66.0552C99.2582 65.7943 98.7952 65.4306 98.4572 64.964C98.1229 64.4974 97.9337 63.9555 97.8896 63.3382H99.3004C99.3371 63.7644 99.4804 64.1171 99.7303 64.3963C99.9838 64.6719 100.303 64.8776 100.689 65.0136C101.079 65.1458 101.497 65.212 101.946 65.212C102.467 65.212 102.936 65.1275 103.351 64.9585C103.766 64.7858 104.095 64.547 104.337 64.242C104.58 63.9334 104.701 63.5734 104.701 63.1619C104.701 62.7871 104.597 62.4822 104.387 62.247C104.178 62.0119 103.902 61.8209 103.56 61.6739C103.219 61.5269 102.85 61.3983 102.453 61.2881L101.064 60.8913C100.182 60.6378 99.4841 60.2759 98.9697 59.8057C98.4554 59.3354 98.1982 58.72 98.1982 57.9595C98.1982 57.3275 98.369 56.7764 98.7107 56.3061C99.0561 55.8322 99.519 55.4648 100.1 55.2039C100.684 54.9394 101.336 54.8071 102.056 54.8071C102.783 54.8071 103.43 54.9376 103.996 55.1984C104.562 55.4556 105.01 55.8083 105.34 56.2565C105.675 56.7048 105.851 57.2136 105.87 57.7831H104.547ZM109.395 61.1559V66.248H108.095V54.9615H109.395V59.1058H109.505C109.704 58.6685 110.001 58.3213 110.398 58.0642C110.799 57.8033 111.331 57.6729 111.996 57.6729C112.573 57.6729 113.078 57.7886 113.512 58.0201C113.946 58.2479 114.282 58.5987 114.52 59.0727C114.763 59.543 114.884 60.1418 114.884 60.8693V66.248H113.584V60.9575C113.584 60.2851 113.409 59.7652 113.06 59.3978C112.715 59.0268 112.235 58.8412 111.622 58.8412C111.196 58.8412 110.813 58.9312 110.475 59.1113C110.141 59.2913 109.877 59.554 109.682 59.8993C109.491 60.2447 109.395 60.6635 109.395 61.1559ZM119.755 66.4464C119.218 66.4464 118.731 66.3454 118.294 66.1433C117.857 65.9376 117.51 65.6418 117.253 65.2561C116.995 64.8666 116.867 64.3963 116.867 63.8452C116.867 63.3603 116.962 62.9671 117.153 62.6659C117.344 62.3609 117.6 62.1221 117.919 61.9494C118.239 61.7768 118.592 61.6482 118.978 61.5637C119.367 61.4755 119.758 61.4057 120.151 61.3543C120.666 61.2881 121.083 61.2385 121.402 61.2055C121.726 61.1687 121.961 61.1081 122.108 61.0236C122.258 60.9391 122.334 60.7921 122.334 60.5827V60.5386C122.334 59.9949 122.185 59.5724 121.887 59.2711C121.593 58.9698 121.147 58.8192 120.548 58.8192C119.927 58.8192 119.44 58.9551 119.088 59.227C118.735 59.4989 118.487 59.7891 118.344 60.0977L117.109 59.6569C117.33 59.1425 117.624 58.742 117.991 58.4554C118.362 58.1652 118.766 57.9631 119.203 57.8492C119.644 57.7317 120.078 57.6729 120.504 57.6729C120.776 57.6729 121.088 57.7059 121.441 57.7721C121.797 57.8345 122.141 57.965 122.472 58.1634C122.806 58.3618 123.083 58.6612 123.304 59.0617C123.524 59.4621 123.634 59.9985 123.634 60.6709V66.248H122.334V65.1018H122.268C122.179 65.2855 122.032 65.482 121.827 65.6914C121.621 65.9009 121.347 66.079 121.006 66.226C120.664 66.373 120.247 66.4464 119.755 66.4464ZM119.953 65.2781C120.467 65.2781 120.901 65.1771 121.254 64.975C121.61 64.7729 121.878 64.5121 122.058 64.1924C122.242 63.8728 122.334 63.5366 122.334 63.1839V61.9935C122.279 62.0597 122.157 62.1203 121.97 62.1754C121.786 62.2268 121.573 62.2728 121.331 62.3132C121.092 62.3499 120.859 62.383 120.631 62.4124C120.407 62.4381 120.225 62.4601 120.085 62.4785C119.747 62.5226 119.431 62.5942 119.137 62.6934C118.847 62.789 118.612 62.9341 118.432 63.1288C118.256 63.3199 118.167 63.5807 118.167 63.9114C118.167 64.3633 118.335 64.705 118.669 64.9364C119.007 65.1642 119.435 65.2781 119.953 65.2781ZM126.008 66.248V57.7831H127.265V59.0617H127.353C127.507 58.6428 127.786 58.303 128.191 58.0421C128.595 57.7813 129.05 57.6508 129.557 57.6508C129.653 57.6508 129.772 57.6527 129.916 57.6563C130.059 57.66 130.167 57.6655 130.241 57.6729V58.9955C130.197 58.9845 130.096 58.968 129.938 58.9459C129.783 58.9202 129.62 58.9074 129.447 58.9074C129.036 58.9074 128.668 58.9937 128.345 59.1664C128.025 59.3354 127.772 59.5705 127.584 59.8718C127.401 60.1694 127.309 60.5092 127.309 60.8913V66.248H126.008ZM135.074 66.4244C134.258 66.4244 133.555 66.2444 132.963 65.8843C132.375 65.5206 131.922 65.0136 131.602 64.3633C131.286 63.7093 131.128 62.9488 131.128 62.0817C131.128 61.2146 131.286 60.4504 131.602 59.7891C131.922 59.1241 132.366 58.6061 132.936 58.235C133.509 57.8603 134.177 57.6729 134.942 57.6729C135.383 57.6729 135.818 57.7464 136.248 57.8933C136.678 58.0403 137.069 58.2791 137.422 58.6098C137.774 58.9367 138.055 59.3703 138.265 59.9104C138.474 60.4504 138.579 61.1154 138.579 61.9054V62.4565H132.054V61.3322H137.256C137.256 60.8546 137.161 60.4284 136.97 60.0536C136.782 59.6789 136.514 59.3831 136.165 59.1664C135.82 58.9496 135.412 58.8412 134.942 58.8412C134.424 58.8412 133.975 58.9698 133.597 59.227C133.222 59.4805 132.934 59.8112 132.732 60.219C132.53 60.6268 132.429 61.064 132.429 61.5306V62.2801C132.429 62.9194 132.539 63.4613 132.759 63.9059C132.983 64.3467 133.294 64.6829 133.691 64.9144C134.087 65.1422 134.548 65.2561 135.074 65.2561C135.416 65.2561 135.724 65.2083 136 65.1128C136.279 65.0136 136.52 64.8666 136.722 64.6719C136.924 64.4735 137.08 64.2273 137.19 63.9334L138.447 64.2861C138.314 64.7123 138.092 65.0871 137.78 65.4104C137.468 65.73 137.082 65.9798 136.622 66.1599C136.163 66.3362 135.647 66.4244 135.074 66.4244ZM143.754 66.4244C143.048 66.4244 142.426 66.2462 141.886 65.8898C141.345 65.5298 140.923 65.0228 140.618 64.3688C140.313 63.7111 140.161 62.9341 140.161 62.0376C140.161 61.1485 140.313 60.377 140.618 59.723C140.923 59.069 141.347 58.5638 141.891 58.2075C142.435 57.8511 143.063 57.6729 143.776 57.6729C144.327 57.6729 144.762 57.7647 145.082 57.9484C145.405 58.1285 145.651 58.3342 145.82 58.5657C145.993 58.7935 146.127 58.9808 146.223 59.1278H146.333V54.9615H147.634V66.248H146.377V64.9474H146.223C146.127 65.1018 145.991 65.2965 145.815 65.5316C145.639 65.7631 145.387 65.9707 145.06 66.1544C144.733 66.3344 144.298 66.4244 143.754 66.4244ZM143.93 65.2561C144.452 65.2561 144.893 65.1201 145.253 64.8482C145.613 64.5727 145.887 64.1924 146.074 63.7075C146.261 63.2188 146.355 62.6549 146.355 62.0156C146.355 61.3836 146.263 60.8307 146.079 60.3568C145.896 59.8791 145.624 59.5081 145.264 59.2435C144.904 58.9753 144.459 58.8412 143.93 58.8412C143.379 58.8412 142.92 58.9827 142.552 59.2656C142.189 59.5448 141.915 59.9251 141.731 60.4064C141.551 60.884 141.461 61.4204 141.461 62.0156C141.461 62.6181 141.553 63.1655 141.737 63.6579C141.924 64.1465 142.2 64.536 142.563 64.8262C142.931 65.1128 143.386 65.2561 143.93 65.2561ZM158.22 66.248H154.737V54.9615H158.375C159.469 54.9615 160.406 55.1874 161.185 55.6393C161.964 56.0875 162.561 56.7323 162.976 57.5737C163.391 58.4114 163.599 59.4144 163.599 60.5827C163.599 61.7584 163.39 62.7706 162.971 63.6193C162.552 64.4643 161.942 65.1146 161.141 65.5702C160.34 66.0221 159.367 66.248 158.22 66.248ZM156.104 65.0356H158.132C159.065 65.0356 159.839 64.8556 160.452 64.4955C161.066 64.1355 161.523 63.623 161.824 62.958C162.126 62.293 162.276 61.5012 162.276 60.5827C162.276 59.6715 162.128 58.8871 161.83 58.2295C161.532 57.5682 161.088 57.0612 160.496 56.7085C159.905 56.3521 159.168 56.1739 158.286 56.1739H156.104V65.0356ZM169.154 66.4244C168.39 66.4244 167.719 66.2425 167.143 65.8788C166.569 65.5151 166.121 65.0062 165.798 64.3523C165.478 63.6983 165.318 62.9341 165.318 62.0597C165.318 61.1779 165.478 60.4082 165.798 59.7505C166.121 59.0929 166.569 58.5822 167.143 58.2185C167.719 57.8547 168.39 57.6729 169.154 57.6729C169.918 57.6729 170.587 57.8547 171.16 58.2185C171.737 58.5822 172.185 59.0929 172.505 59.7505C172.828 60.4082 172.99 61.1779 172.99 62.0597C172.99 62.9341 172.828 63.6983 172.505 64.3523C172.185 65.0062 171.737 65.5151 171.16 65.8788C170.587 66.2425 169.918 66.4244 169.154 66.4244ZM169.154 65.2561C169.735 65.2561 170.212 65.1073 170.587 64.8097C170.962 64.5121 171.239 64.1208 171.419 63.6358C171.599 63.1508 171.689 62.6255 171.689 62.0597C171.689 61.4939 171.599 60.9666 171.419 60.478C171.239 59.9894 170.962 59.5944 170.587 59.2931C170.212 58.9919 169.735 58.8412 169.154 58.8412C168.574 58.8412 168.096 58.9919 167.721 59.2931C167.346 59.5944 167.069 59.9894 166.889 60.478C166.709 60.9666 166.619 61.4939 166.619 62.0597C166.619 62.6255 166.709 63.1508 166.889 63.6358C167.069 64.1208 167.346 64.5121 167.721 64.8097C168.096 65.1073 168.574 65.2561 169.154 65.2561ZM178.414 66.4244C177.62 66.4244 176.937 66.237 176.364 65.8623C175.791 65.4875 175.35 64.9713 175.041 64.3137C174.733 63.656 174.578 62.9047 174.578 62.0597C174.578 61.1999 174.736 60.4413 175.052 59.7836C175.372 59.1223 175.816 58.6061 176.386 58.235C176.959 57.8603 177.628 57.6729 178.392 57.6729C178.987 57.6729 179.524 57.7831 180.001 58.0035C180.479 58.224 180.87 58.5326 181.175 58.9294C181.48 59.3262 181.669 59.7891 181.743 60.3182H180.442C180.343 59.9324 180.122 59.5907 179.781 59.2931C179.443 58.9919 178.987 58.8412 178.414 58.8412C177.907 58.8412 177.462 58.9735 177.08 59.238C176.702 59.4989 176.406 59.8681 176.193 60.3457C175.984 60.8197 175.879 61.3763 175.879 62.0156C175.879 62.6696 175.982 63.239 176.188 63.724C176.397 64.209 176.691 64.5856 177.069 64.8538C177.451 65.122 177.9 65.2561 178.414 65.2561C178.752 65.2561 179.059 65.1973 179.334 65.0797C179.61 64.9621 179.843 64.7931 180.034 64.5727C180.225 64.3523 180.361 64.0877 180.442 63.7791H181.743C181.669 64.2788 181.487 64.7288 181.197 65.1293C180.911 65.5261 180.53 65.8421 180.056 66.0772C179.586 66.3087 179.039 66.4244 178.414 66.4244ZM188.979 62.7871V57.7831H190.279V66.248H188.979V64.8152H188.89C188.692 65.245 188.383 65.6106 187.965 65.9119C187.546 66.2095 187.017 66.3583 186.377 66.3583C185.848 66.3583 185.378 66.2425 184.967 66.0111C184.555 65.7759 184.232 65.4232 183.997 64.953C183.762 64.479 183.644 63.882 183.644 63.1619V57.7831H184.945V63.0737C184.945 63.6909 185.117 64.1832 185.463 64.5506C185.812 64.9181 186.256 65.1018 186.796 65.1018C187.12 65.1018 187.448 65.0191 187.783 64.8538C188.121 64.6884 188.404 64.4349 188.631 64.0932C188.863 63.7515 188.979 63.3162 188.979 62.7871ZM192.661 66.248V57.7831H193.918V59.1058H194.028C194.204 58.6538 194.489 58.303 194.882 58.0531C195.275 57.7996 195.748 57.6729 196.299 57.6729C196.857 57.6729 197.322 57.7996 197.693 58.0531C198.068 58.303 198.36 58.6538 198.569 59.1058H198.657C198.874 58.6685 199.199 58.3213 199.633 58.0642C200.066 57.8033 200.586 57.6729 201.192 57.6729C201.949 57.6729 202.568 57.9099 203.05 58.3838C203.531 58.8541 203.772 59.587 203.772 60.5827V66.248H202.471V60.5827C202.471 59.9581 202.3 59.5117 201.959 59.2435C201.617 58.9753 201.215 58.8412 200.752 58.8412C200.156 58.8412 199.695 59.0212 199.368 59.3813C199.041 59.7377 198.878 60.1896 198.878 60.737V66.248H197.555V60.4504C197.555 59.9691 197.399 59.5815 197.087 59.2876C196.774 58.99 196.372 58.8412 195.88 58.8412C195.542 58.8412 195.226 58.9312 194.932 59.1113C194.642 59.2913 194.407 59.5411 194.227 59.8608C194.05 60.1767 193.962 60.5423 193.962 60.9575V66.248H192.661ZM209.699 66.4244C208.883 66.4244 208.18 66.2444 207.588 65.8843C207 65.5206 206.546 65.0136 206.227 64.3633C205.911 63.7093 205.753 62.9488 205.753 62.0817C205.753 61.2146 205.911 60.4504 206.227 59.7891C206.546 59.1241 206.991 58.6061 207.56 58.235C208.134 57.8603 208.802 57.6729 209.566 57.6729C210.007 57.6729 210.443 57.7464 210.873 57.8933C211.302 58.0403 211.694 58.2791 212.046 58.6098C212.399 58.9367 212.68 59.3703 212.89 59.9104C213.099 60.4504 213.204 61.1154 213.204 61.9054V62.4565H206.679V61.3322H211.881C211.881 60.8546 211.786 60.4284 211.595 60.0536C211.407 59.6789 211.139 59.3831 210.79 59.1664C210.445 58.9496 210.037 58.8412 209.566 58.8412C209.048 58.8412 208.6 58.9698 208.222 59.227C207.847 59.4805 207.559 59.8112 207.357 60.219C207.155 60.6268 207.053 61.064 207.053 61.5306V62.2801C207.053 62.9194 207.164 63.4613 207.384 63.9059C207.608 64.3467 207.919 64.6829 208.315 64.9144C208.712 65.1422 209.173 65.2561 209.699 65.2561C210.04 65.2561 210.349 65.2083 210.625 65.1128C210.904 65.0136 211.144 64.8666 211.347 64.6719C211.549 64.4735 211.705 64.2273 211.815 63.9334L213.072 64.2861C212.939 64.7123 212.717 65.0871 212.405 65.4104C212.092 65.73 211.707 65.9798 211.247 66.1599C210.788 66.3362 210.272 66.4244 209.699 66.4244ZM216.483 61.1559V66.248H215.182V57.7831H216.439V59.1058H216.549C216.747 58.6759 217.049 58.3305 217.453 58.0697C217.857 57.8051 218.379 57.6729 219.018 57.6729C219.591 57.6729 220.093 57.7905 220.522 58.0256C220.952 58.2571 221.287 58.6098 221.525 59.0837C221.764 59.554 221.884 60.1492 221.884 60.8693V66.248H220.583V60.9575C220.583 60.2925 220.41 59.7744 220.065 59.4033C219.72 59.0286 219.246 58.8412 218.643 58.8412C218.228 58.8412 217.857 58.9312 217.53 59.1113C217.207 59.2913 216.951 59.554 216.764 59.8993C216.577 60.2447 216.483 60.6635 216.483 61.1559ZM227.942 57.7831V58.8853H223.555V57.7831H227.942ZM224.833 55.755H226.134V63.8232C226.134 64.1906 226.187 64.4661 226.294 64.6498C226.404 64.8299 226.544 64.9511 226.713 65.0136C226.885 65.0724 227.067 65.1018 227.258 65.1018C227.402 65.1018 227.519 65.0944 227.611 65.0797C227.703 65.0613 227.776 65.0466 227.831 65.0356L228.096 66.204C228.008 66.237 227.885 66.2701 227.727 66.3032C227.569 66.3399 227.369 66.3583 227.126 66.3583C226.759 66.3583 226.399 66.2793 226.046 66.1213C225.697 65.9633 225.407 65.7227 225.175 65.3993C224.947 65.076 224.833 64.6682 224.833 64.1759V55.755ZM235.743 59.6789L234.574 60.0096C234.501 59.8148 234.392 59.6256 234.249 59.4419C234.109 59.2545 233.918 59.1002 233.676 58.979C233.433 58.8578 233.123 58.7971 232.745 58.7971C232.226 58.7971 231.795 58.9165 231.449 59.1553C231.108 59.3905 230.937 59.6899 230.937 60.0536C230.937 60.377 231.054 60.6323 231.29 60.8197C231.525 61.0071 231.892 61.1632 232.392 61.2881L233.648 61.5967C234.405 61.7804 234.969 62.0615 235.34 62.4399C235.711 62.8147 235.897 63.2978 235.897 63.8893C235.897 64.3743 235.757 64.8078 235.478 65.1899C235.202 65.572 234.817 65.8733 234.321 66.0937C233.825 66.3142 233.248 66.4244 232.59 66.4244C231.727 66.4244 231.012 66.237 230.446 65.8623C229.881 65.4875 229.522 64.9401 229.372 64.22L230.606 63.9114C230.724 64.3669 230.946 64.7086 231.273 64.9364C231.604 65.1642 232.035 65.2781 232.568 65.2781C233.174 65.2781 233.656 65.1495 234.012 64.8923C234.372 64.6315 234.552 64.3192 234.552 63.9555C234.552 63.6615 234.449 63.4154 234.244 63.217C234.038 63.0149 233.722 62.8643 233.296 62.7651L231.885 62.4344C231.11 62.2507 230.54 61.966 230.176 61.5802C229.816 61.1908 229.636 60.7039 229.636 60.1198C229.636 59.6422 229.77 59.2196 230.039 58.8522C230.31 58.4848 230.68 58.1964 231.146 57.987C231.617 57.7776 232.149 57.6729 232.745 57.6729C233.582 57.6729 234.24 57.8566 234.717 58.224C235.199 58.5914 235.54 59.0764 235.743 59.6789Z" fill="#666666"/>
<path d="M106.619 79.8844H108.116V88.0705C108.116 88.9157 107.917 89.6703 107.518 90.3343C107.124 90.9944 106.566 91.5156 105.846 91.8979C105.125 92.2762 104.28 92.4654 103.31 92.4654C102.34 92.4654 101.495 92.2762 100.775 91.8979C100.054 91.5156 99.495 90.9944 99.0966 90.3343C98.7022 89.6703 98.505 88.9157 98.505 88.0705V79.8844H100.002V87.9498C100.002 88.5534 100.135 89.0907 100.401 89.5616C100.666 90.0285 101.045 90.3967 101.536 90.6664C102.031 90.932 102.622 91.0648 103.31 91.0648C103.999 91.0648 104.59 90.932 105.085 90.6664C105.58 90.3967 105.959 90.0285 106.22 89.5616C106.486 89.0907 106.619 88.5534 106.619 87.9498V79.8844ZM110.912 95.7253V82.9753H112.289V84.4483H112.458C112.562 84.2873 112.707 84.0821 112.892 83.8326C113.082 83.579 113.351 83.3536 113.701 83.1564C114.056 82.9552 114.535 82.8546 115.138 82.8546C115.919 82.8546 116.607 83.0498 117.203 83.4402C117.799 83.8306 118.263 84.3839 118.597 85.1003C118.931 85.8167 119.098 86.6619 119.098 87.6358C119.098 88.6178 118.931 89.469 118.597 90.1895C118.263 90.9058 117.801 91.4612 117.209 91.8556C116.617 92.246 115.935 92.4412 115.162 92.4412C114.567 92.4412 114.09 92.3426 113.732 92.1454C113.373 91.9442 113.098 91.7168 112.905 91.4632C112.711 91.2057 112.562 90.9924 112.458 90.8233H112.337V95.7253H110.912ZM112.313 87.6117C112.313 88.312 112.416 88.9297 112.621 89.465C112.826 89.9963 113.126 90.4128 113.52 90.7147C113.915 91.0125 114.398 91.1614 114.969 91.1614C115.565 91.1614 116.062 91.0044 116.46 90.6905C116.863 90.3726 117.165 89.946 117.366 89.4107C117.571 88.8714 117.674 88.2717 117.674 87.6117C117.674 86.9597 117.573 86.3721 117.372 85.8489C117.175 85.3217 116.875 84.9051 116.472 84.5993C116.074 84.2894 115.573 84.1344 114.969 84.1344C114.39 84.1344 113.903 84.2813 113.508 84.5751C113.114 84.8649 112.816 85.2714 112.615 85.7946C112.414 86.3137 112.313 86.9194 112.313 87.6117ZM122.696 79.8844V92.248H121.272V79.8844H122.696ZM129.073 92.4412C128.236 92.4412 127.501 92.242 126.869 91.8436C126.242 91.4451 125.751 90.8877 125.396 90.1713C125.046 89.455 124.871 88.6178 124.871 87.66C124.871 86.6941 125.046 85.8509 125.396 85.1305C125.751 84.4101 126.242 83.8507 126.869 83.4522C127.501 83.0538 128.236 82.8546 129.073 82.8546C129.91 82.8546 130.643 83.0538 131.27 83.4522C131.902 83.8507 132.393 84.4101 132.743 85.1305C133.098 85.8509 133.275 86.6941 133.275 87.66C133.275 88.6178 133.098 89.455 132.743 90.1713C132.393 90.8877 131.902 91.4451 131.27 91.8436C130.643 92.242 129.91 92.4412 129.073 92.4412ZM129.073 91.1614C129.709 91.1614 130.232 90.9984 130.643 90.6724C131.053 90.3464 131.357 89.9178 131.554 89.3865C131.751 88.8553 131.85 88.2798 131.85 87.66C131.85 87.0402 131.751 86.4627 131.554 85.9274C131.357 85.3921 131.053 84.9595 130.643 84.6294C130.232 84.2994 129.709 84.1344 129.073 84.1344C128.437 84.1344 127.914 84.2994 127.503 84.6294C127.093 84.9595 126.789 85.3921 126.592 85.9274C126.395 86.4627 126.296 87.0402 126.296 87.66C126.296 88.2798 126.395 88.8553 126.592 89.3865C126.789 89.9178 127.093 90.3464 127.503 90.6724C127.914 90.9984 128.437 91.1614 129.073 91.1614ZM138.178 92.4654C137.591 92.4654 137.057 92.3547 136.578 92.1333C136.099 91.908 135.719 91.584 135.437 91.1614C135.156 90.7348 135.015 90.2196 135.015 89.6159C135.015 89.0847 135.119 88.6541 135.329 88.324C135.538 87.99 135.818 87.7284 136.168 87.5392C136.518 87.3501 136.904 87.2092 137.327 87.1167C137.754 87.0201 138.182 86.9436 138.613 86.8873C139.176 86.8148 139.633 86.7605 139.983 86.7243C140.337 86.684 140.595 86.6176 140.756 86.525C140.921 86.4325 141.003 86.2715 141.003 86.0421V85.9938C141.003 85.3981 140.84 84.9353 140.514 84.6053C140.193 84.2753 139.704 84.1103 139.047 84.1103C138.367 84.1103 137.834 84.2592 137.448 84.557C137.061 84.8548 136.79 85.1728 136.633 85.5108L135.28 85.0279C135.522 84.4644 135.844 84.0257 136.246 83.7118C136.653 83.3939 137.096 83.1725 137.574 83.0478C138.057 82.919 138.532 82.8546 138.999 82.8546C139.297 82.8546 139.639 82.8908 140.025 82.9632C140.416 83.0317 140.792 83.1745 141.154 83.3919C141.521 83.6092 141.824 83.9372 142.066 84.3759C142.307 84.8146 142.428 85.4022 142.428 86.1387V92.248H141.003V90.9924H140.931C140.834 91.1936 140.673 91.4089 140.448 91.6383C140.223 91.8677 139.923 92.0629 139.549 92.2239C139.174 92.3849 138.717 92.4654 138.178 92.4654ZM138.396 91.1855C138.959 91.1855 139.434 91.0749 139.82 90.8535C140.211 90.6322 140.504 90.3464 140.702 89.9963C140.903 89.6461 141.003 89.2779 141.003 88.8915V87.5875C140.943 87.66 140.81 87.7264 140.605 87.7868C140.404 87.8431 140.17 87.8934 139.905 87.9377C139.643 87.9779 139.388 88.0141 139.138 88.0463C138.893 88.0745 138.693 88.0987 138.54 88.1188C138.17 88.1671 137.824 88.2456 137.502 88.3542C137.184 88.4589 136.927 88.6178 136.729 88.8311C136.536 89.0404 136.44 89.3262 136.44 89.6884C136.44 90.1834 136.623 90.5577 136.989 90.8113C137.359 91.0608 137.828 91.1855 138.396 91.1855ZM148.53 92.4412C147.757 92.4412 147.075 92.246 146.483 91.8556C145.892 91.4612 145.429 90.9058 145.095 90.1895C144.761 89.469 144.594 88.6178 144.594 87.6358C144.594 86.6619 144.761 85.8167 145.095 85.1003C145.429 84.3839 145.894 83.8306 146.49 83.4402C147.085 83.0498 147.773 82.8546 148.554 82.8546C149.158 82.8546 149.635 82.9552 149.985 83.1564C150.339 83.3536 150.609 83.579 150.794 83.8326C150.983 84.0821 151.13 84.2873 151.235 84.4483H151.355V79.8844H152.78V92.248H151.404V90.8233H151.235C151.13 90.9924 150.981 91.2057 150.788 91.4632C150.595 91.7168 150.319 91.9442 149.961 92.1454C149.603 92.3426 149.126 92.4412 148.53 92.4412ZM148.723 91.1614C149.295 91.1614 149.778 91.0125 150.172 90.7147C150.566 90.4128 150.866 89.9963 151.072 89.465C151.277 88.9297 151.379 88.312 151.379 87.6117C151.379 86.9194 151.279 86.3137 151.078 85.7946C150.876 85.2714 150.579 84.8649 150.184 84.5751C149.79 84.2813 149.303 84.1344 148.723 84.1344C148.119 84.1344 147.616 84.2894 147.214 84.5993C146.816 84.9051 146.516 85.3217 146.314 85.8489C146.117 86.3721 146.019 86.9597 146.019 87.6117C146.019 88.2717 146.119 88.8714 146.32 89.4107C146.526 89.946 146.828 90.3726 147.226 90.6905C147.628 91.0044 148.128 91.1614 148.723 91.1614ZM163.87 92.4171C163.057 92.4171 162.357 92.2682 161.769 91.9703C161.181 91.6725 160.729 91.264 160.411 90.7449C160.093 90.2257 159.934 89.632 159.934 88.964C159.934 88.4488 160.042 87.992 160.26 87.5936C160.481 87.1911 160.785 86.8188 161.171 86.4767C161.562 86.1306 162.01 85.7845 162.518 85.4384L164.305 84.1103C164.655 83.8809 164.934 83.6354 165.144 83.3738C165.357 83.1122 165.464 82.7701 165.464 82.3475C165.464 82.0336 165.325 81.7297 165.047 81.4359C164.773 81.1421 164.413 80.9952 163.966 80.9952C163.653 80.9952 163.375 81.0757 163.133 81.2367C162.896 81.3936 162.709 81.5949 162.572 81.8404C162.439 82.0819 162.373 82.3314 162.373 82.589C162.373 82.8787 162.451 83.1725 162.608 83.4703C162.769 83.7641 162.972 84.066 163.218 84.3759C163.467 84.6818 163.725 84.9957 163.991 85.3176L169.665 92.248H167.951L163.266 86.5975C162.831 86.0743 162.437 85.5994 162.083 85.1728C161.729 84.7462 161.447 84.3256 161.238 83.911C161.028 83.4965 160.924 83.0478 160.924 82.5648C160.924 82.0094 161.047 81.5224 161.292 81.1039C161.542 80.6813 161.89 80.3533 162.336 80.1199C162.787 79.8824 163.314 79.7637 163.918 79.7637C164.538 79.7637 165.071 79.8844 165.518 80.1259C165.965 80.3633 166.309 80.6793 166.55 81.0737C166.792 81.4641 166.912 81.8887 166.912 82.3475C166.912 82.9391 166.766 83.4522 166.472 83.8869C166.178 84.3216 165.778 84.726 165.27 85.1003L162.807 86.9355C162.252 87.3461 161.876 87.7445 161.678 88.1309C161.481 88.5172 161.383 88.7949 161.383 88.964C161.383 89.3503 161.483 89.7105 161.684 90.0446C161.886 90.3786 162.169 90.6483 162.536 90.8535C162.902 91.0588 163.331 91.1614 163.822 91.1614C164.288 91.1614 164.743 91.0628 165.186 90.8656C165.629 90.6644 166.029 90.3746 166.387 89.9963C166.749 89.618 167.035 89.1632 167.244 88.6319C167.458 88.1007 167.564 87.503 167.564 86.839H168.941C168.941 87.66 168.846 88.3301 168.657 88.8493C168.468 89.3684 168.255 89.7749 168.017 90.0687C167.78 90.3625 167.589 90.5819 167.444 90.7267C167.395 90.7871 167.351 90.8475 167.311 90.9078C167.271 90.9682 167.226 91.0286 167.178 91.089C166.78 91.5357 166.277 91.8697 165.669 92.0911C165.061 92.3084 164.461 92.4171 163.87 92.4171ZM182.978 82.9753C182.906 82.3636 182.612 81.8887 182.097 81.5506C181.582 81.2125 180.95 81.0435 180.201 81.0435C179.654 81.0435 179.175 81.132 178.764 81.3091C178.358 81.4862 178.04 81.7297 177.811 82.0396C177.585 82.3495 177.473 82.7016 177.473 83.0961C177.473 83.4261 177.551 83.7098 177.708 83.9473C177.869 84.1807 178.074 84.3759 178.324 84.5328C178.573 84.6858 178.835 84.8126 179.109 84.9132C179.382 85.0098 179.634 85.0882 179.863 85.1486L181.119 85.4867C181.441 85.5712 181.799 85.6879 182.193 85.8368C182.592 85.9857 182.972 86.189 183.334 86.4466C183.701 86.7001 184.003 87.0261 184.24 87.4245C184.477 87.823 184.596 88.312 184.596 88.8915C184.596 89.5596 184.421 90.1633 184.071 90.7026C183.725 91.2419 183.218 91.6705 182.55 91.9885C181.886 92.3064 181.079 92.4654 180.129 92.4654C179.243 92.4654 178.477 92.3225 177.829 92.0368C177.185 91.751 176.678 91.3526 176.307 90.8414C175.941 90.3303 175.734 89.7367 175.686 89.0605H177.231C177.271 89.5274 177.428 89.9138 177.702 90.2196C177.98 90.5215 178.33 90.7469 178.752 90.8958C179.179 91.0407 179.638 91.1131 180.129 91.1131C180.7 91.1131 181.213 91.0205 181.668 90.8354C182.123 90.6462 182.483 90.3846 182.749 90.0506C183.014 89.7125 183.147 89.3181 183.147 88.8674C183.147 88.4569 183.033 88.1228 182.803 87.8652C182.574 87.6077 182.272 87.3984 181.898 87.2374C181.523 87.0764 181.119 86.9355 180.684 86.8148L179.163 86.3801C178.197 86.1025 177.432 85.706 176.869 85.1909C176.305 84.6757 176.024 84.0016 176.024 83.1685C176.024 82.4763 176.211 81.8726 176.585 81.3574C176.963 80.8382 177.471 80.4358 178.106 80.15C178.746 79.8603 179.461 79.7154 180.25 79.7154C181.046 79.7154 181.755 79.8582 182.375 80.144C182.994 80.4257 183.485 80.8121 183.848 81.3031C184.214 81.7941 184.407 82.3515 184.427 82.9753H182.978ZM188.289 86.6699V92.248H186.865V79.8844H188.289V84.4242H188.41C188.627 83.9453 188.953 83.5649 189.388 83.2832C189.827 82.9975 190.41 82.8546 191.139 82.8546C191.771 82.8546 192.324 82.9814 192.799 83.2349C193.274 83.4844 193.642 83.8688 193.904 84.388C194.169 84.9031 194.302 85.5591 194.302 86.356V92.248H192.877V86.4526C192.877 85.7161 192.686 85.1466 192.304 84.7441C191.925 84.3377 191.4 84.1344 190.728 84.1344C190.261 84.1344 189.843 84.233 189.472 84.4302C189.106 84.6274 188.816 84.9152 188.603 85.2935C188.394 85.6718 188.289 86.1306 188.289 86.6699ZM199.637 92.4654C199.05 92.4654 198.516 92.3547 198.037 92.1333C197.558 91.908 197.178 91.584 196.896 91.1614C196.615 90.7348 196.474 90.2196 196.474 89.6159C196.474 89.0847 196.578 88.6541 196.788 88.324C196.997 87.99 197.277 87.7284 197.627 87.5392C197.977 87.3501 198.363 87.2092 198.786 87.1167C199.213 87.0201 199.641 86.9436 200.072 86.8873C200.635 86.8148 201.092 86.7605 201.442 86.7243C201.796 86.684 202.054 86.6176 202.215 86.525C202.38 86.4325 202.462 86.2715 202.462 86.0421V85.9938C202.462 85.3981 202.299 84.9353 201.973 84.6053C201.651 84.2753 201.162 84.1103 200.506 84.1103C199.826 84.1103 199.293 84.2592 198.907 84.557C198.52 84.8548 198.249 85.1728 198.092 85.5108L196.739 85.0279C196.981 84.4644 197.303 84.0257 197.705 83.7118C198.112 83.3939 198.555 83.1725 199.033 83.0478C199.516 82.919 199.991 82.8546 200.458 82.8546C200.756 82.8546 201.098 82.8908 201.484 82.9632C201.875 83.0317 202.251 83.1745 202.613 83.3919C202.98 83.6092 203.283 83.9372 203.525 84.3759C203.766 84.8146 203.887 85.4022 203.887 86.1387V92.248H202.462V90.9924H202.39C202.293 91.1936 202.132 91.4089 201.907 91.6383C201.682 91.8677 201.382 92.0629 201.008 92.2239C200.633 92.3849 200.176 92.4654 199.637 92.4654ZM199.854 91.1855C200.418 91.1855 200.893 91.0749 201.279 90.8535C201.67 90.6322 201.963 90.3464 202.161 89.9963C202.362 89.6461 202.462 89.2779 202.462 88.8915V87.5875C202.402 87.66 202.269 87.7264 202.064 87.7868C201.863 87.8431 201.629 87.8934 201.364 87.9377C201.102 87.9779 200.847 88.0141 200.597 88.0463C200.352 88.0745 200.152 88.0987 199.999 88.1188C199.629 88.1671 199.283 88.2456 198.961 88.3542C198.643 88.4589 198.386 88.6178 198.188 88.8311C197.995 89.0404 197.899 89.3262 197.899 89.6884C197.899 90.1834 198.082 90.5577 198.448 90.8113C198.818 91.0608 199.287 91.1855 199.854 91.1855ZM206.488 92.248V82.9753H207.864V84.3759H207.961C208.13 83.9171 208.435 83.5448 208.878 83.2591C209.321 82.9733 209.82 82.8304 210.375 82.8304C210.48 82.8304 210.611 82.8324 210.768 82.8365C210.925 82.8405 211.043 82.8465 211.124 82.8546V84.3034C211.076 84.2914 210.965 84.2733 210.792 84.2491C210.623 84.2209 210.444 84.2069 210.255 84.2069C209.804 84.2069 209.401 84.3014 209.047 84.4906C208.697 84.6757 208.419 84.9333 208.214 85.2633C208.013 85.5893 207.912 85.9616 207.912 86.3801V92.248H206.488ZM216.418 92.4412C215.525 92.4412 214.754 92.244 214.106 91.8496C213.462 91.4512 212.965 90.8958 212.615 90.1834C212.269 89.467 212.096 88.6339 212.096 87.6841C212.096 86.7343 212.269 85.8972 212.615 85.1728C212.965 84.4443 213.452 83.8768 214.076 83.4703C214.704 83.0598 215.436 82.8546 216.273 82.8546C216.756 82.8546 217.233 82.9351 217.704 83.0961C218.175 83.257 218.604 83.5186 218.99 83.8809C219.376 84.2391 219.684 84.714 219.914 85.3056C220.143 85.8972 220.258 86.6257 220.258 87.4909V88.0946H213.11V86.8631H218.809C218.809 86.3399 218.704 85.873 218.495 85.4625C218.29 85.052 217.996 84.728 217.614 84.4906C217.235 84.2531 216.789 84.1344 216.273 84.1344C215.706 84.1344 215.215 84.2753 214.8 84.557C214.39 84.8347 214.074 85.1969 213.853 85.6436C213.631 86.0904 213.521 86.5693 213.521 87.0804V87.9015C213.521 88.6017 213.641 89.1954 213.883 89.6824C214.128 90.1653 214.468 90.5336 214.903 90.7871C215.338 91.0366 215.843 91.1614 216.418 91.1614C216.793 91.1614 217.131 91.1091 217.433 91.0044C217.738 90.8958 218.002 90.7348 218.223 90.5215C218.445 90.3042 218.616 90.0345 218.737 89.7125L220.113 90.0989C219.968 90.5658 219.725 90.9763 219.382 91.3304C219.04 91.6806 218.618 91.9542 218.115 92.1515C217.612 92.3446 217.046 92.4412 216.418 92.4412Z" fill="#2B2D2D"/>
<rect x="243.277" y="60.0855" width="113.496" height="27.3255" rx="13.6628" stroke="#E6E6E6" stroke-width="1.1085"/>
<path d="M257.392 78.748V67.4615H261.206C262.091 67.4615 262.815 67.6213 263.377 67.9409C263.943 68.2569 264.362 68.6849 264.634 69.225C264.905 69.7651 265.041 70.3676 265.041 71.0326C265.041 71.6976 264.905 72.302 264.634 72.8457C264.365 73.3895 263.95 73.823 263.388 74.1463C262.826 74.466 262.106 74.6258 261.228 74.6258H258.494V73.4134H261.184C261.79 73.4134 262.277 73.3087 262.644 73.0992C263.012 72.8898 263.278 72.6069 263.443 72.2505C263.612 71.8905 263.697 71.4845 263.697 71.0326C263.697 70.5807 263.612 70.1766 263.443 69.8202C263.278 69.4638 263.01 69.1846 262.639 68.9825C262.268 68.7768 261.775 68.6739 261.162 68.6739H258.759V78.748H257.392ZM269.558 78.9464C269.021 78.9464 268.535 78.8454 268.097 78.6433C267.66 78.4376 267.313 78.1418 267.056 77.7561C266.799 77.3666 266.67 76.8963 266.67 76.3452C266.67 75.8603 266.765 75.4671 266.957 75.1659C267.148 74.8609 267.403 74.6221 267.723 74.4494C268.042 74.2768 268.395 74.1482 268.781 74.0637C269.17 73.9755 269.561 73.9057 269.955 73.8543C270.469 73.7881 270.886 73.7385 271.206 73.7055C271.529 73.6687 271.764 73.6081 271.911 73.5236C272.062 73.4391 272.137 73.2921 272.137 73.0827V73.0386C272.137 72.4949 271.988 72.0724 271.69 71.7711C271.397 71.4698 270.95 71.3192 270.351 71.3192C269.73 71.3192 269.244 71.4551 268.891 71.727C268.538 71.9989 268.29 72.2891 268.147 72.5977L266.912 72.1569C267.133 71.6425 267.427 71.242 267.794 70.9554C268.165 70.6652 268.569 70.4631 269.007 70.3492C269.448 70.2317 269.881 70.1729 270.307 70.1729C270.579 70.1729 270.891 70.2059 271.244 70.2721C271.6 70.3345 271.944 70.465 272.275 70.6634C272.609 70.8618 272.886 71.1612 273.107 71.5617C273.327 71.9621 273.437 72.4985 273.437 73.1709V78.748H272.137V77.6018H272.071C271.983 77.7855 271.836 77.982 271.63 78.1914C271.424 78.4009 271.15 78.579 270.809 78.726C270.467 78.873 270.05 78.9464 269.558 78.9464ZM269.756 77.7781C270.27 77.7781 270.704 77.6771 271.057 77.475C271.413 77.2729 271.681 77.0121 271.861 76.6924C272.045 76.3728 272.137 76.0366 272.137 75.6839V74.4935C272.082 74.5597 271.961 74.6203 271.773 74.6754C271.589 74.7268 271.376 74.7728 271.134 74.8132C270.895 74.8499 270.662 74.883 270.434 74.9124C270.21 74.9381 270.028 74.9601 269.888 74.9785C269.55 75.0226 269.234 75.0942 268.94 75.1934C268.65 75.289 268.415 75.4341 268.235 75.6288C268.059 75.8199 267.971 76.0807 267.971 76.4114C267.971 76.8633 268.138 77.205 268.472 77.4364C268.81 77.6642 269.238 77.7781 269.756 77.7781ZM275.811 78.748V70.2831H277.068V71.5617H277.156C277.31 71.1428 277.59 70.803 277.994 70.5421C278.398 70.2813 278.853 70.1508 279.36 70.1508C279.456 70.1508 279.575 70.1527 279.719 70.1563C279.862 70.16 279.97 70.1655 280.044 70.1729V71.4955C280 71.4845 279.899 71.468 279.741 71.4459C279.586 71.4202 279.423 71.4074 279.25 71.4074C278.839 71.4074 278.471 71.4937 278.148 71.6664C277.828 71.8354 277.575 72.0705 277.388 72.3718C277.204 72.6694 277.112 73.0092 277.112 73.3913V78.748H275.811ZM285.797 70.2831V71.3853H281.411V70.2831H285.797ZM282.689 68.255H283.99V76.3232C283.99 76.6906 284.043 76.9661 284.15 77.1498C284.26 77.3299 284.399 77.4511 284.568 77.5136C284.741 77.5724 284.923 77.6018 285.114 77.6018C285.257 77.6018 285.375 77.5944 285.467 77.5797C285.559 77.5613 285.632 77.5466 285.687 77.5356L285.952 78.704C285.863 78.737 285.74 78.7701 285.582 78.8032C285.424 78.8399 285.224 78.8583 284.982 78.8583C284.614 78.8583 284.254 78.7793 283.902 78.6213C283.553 78.4633 283.262 78.2227 283.031 77.8993C282.803 77.576 282.689 77.1682 282.689 76.6759V68.255ZM287.754 78.748V70.2831H289.054V78.748H287.754ZM288.415 68.8723C288.162 68.8723 287.943 68.7859 287.759 68.6133C287.579 68.4406 287.489 68.233 287.489 67.9905C287.489 67.748 287.579 67.5404 287.759 67.3678C287.943 67.1951 288.162 67.1087 288.415 67.1087C288.669 67.1087 288.885 67.1951 289.065 67.3678C289.249 67.5404 289.341 67.748 289.341 67.9905C289.341 68.233 289.249 68.4406 289.065 68.6133C288.885 68.7859 288.669 68.8723 288.415 68.8723ZM294.875 78.9244C294.082 78.9244 293.398 78.737 292.825 78.3623C292.252 77.9875 291.811 77.4713 291.503 76.8137C291.194 76.156 291.04 75.4047 291.04 74.5597C291.04 73.6999 291.198 72.9413 291.514 72.2836C291.833 71.6223 292.278 71.1061 292.847 70.735C293.42 70.3603 294.089 70.1729 294.853 70.1729C295.449 70.1729 295.985 70.2831 296.463 70.5035C296.94 70.724 297.331 71.0326 297.636 71.4294C297.941 71.8262 298.131 72.2891 298.204 72.8182H296.903C296.804 72.4324 296.584 72.0907 296.242 71.7931C295.904 71.4919 295.449 71.3412 294.875 71.3412C294.368 71.3412 293.924 71.4735 293.542 71.738C293.163 71.9989 292.868 72.3681 292.654 72.8457C292.445 73.3197 292.34 73.8763 292.34 74.5156C292.34 75.1696 292.443 75.739 292.649 76.224C292.858 76.709 293.152 77.0856 293.531 77.3538C293.913 77.622 294.361 77.7561 294.875 77.7561C295.213 77.7561 295.52 77.6973 295.796 77.5797C296.071 77.4621 296.305 77.2931 296.496 77.0727C296.687 76.8523 296.823 76.5877 296.903 76.2791H298.204C298.131 76.7788 297.949 77.2288 297.658 77.6293C297.372 78.0261 296.992 78.3421 296.518 78.5772C296.047 78.8087 295.5 78.9244 294.875 78.9244ZM300.105 78.748V70.2831H301.406V78.748H300.105ZM300.767 68.8723C300.513 68.8723 300.295 68.7859 300.111 68.6133C299.931 68.4406 299.841 68.233 299.841 67.9905C299.841 67.748 299.931 67.5404 300.111 67.3678C300.295 67.1951 300.513 67.1087 300.767 67.1087C301.02 67.1087 301.237 67.1951 301.417 67.3678C301.601 67.5404 301.693 67.748 301.693 67.9905C301.693 68.233 301.601 68.4406 301.417 68.6133C301.237 68.7859 301.02 68.8723 300.767 68.8723ZM303.788 81.9224V70.2831H305.045V71.6278H305.199C305.294 71.4808 305.427 71.2935 305.596 71.0657C305.768 70.8342 306.015 70.6285 306.334 70.4484C306.658 70.2647 307.095 70.1729 307.646 70.1729C308.359 70.1729 308.987 70.3511 309.531 70.7075C310.074 71.0638 310.499 71.569 310.804 72.223C311.109 72.877 311.261 73.6485 311.261 74.5376C311.261 75.4341 311.109 76.2111 310.804 76.8688C310.499 77.5228 310.076 78.0298 309.536 78.3898C308.996 78.7462 308.373 78.9244 307.668 78.9244C307.124 78.9244 306.689 78.8344 306.362 78.6544C306.035 78.4707 305.783 78.2631 305.607 78.0316C305.43 77.7965 305.294 77.6018 305.199 77.4474H305.089V81.9224H303.788ZM305.067 74.5156C305.067 75.1549 305.16 75.7188 305.348 76.2075C305.535 76.6924 305.809 77.0727 306.169 77.3482C306.529 77.6201 306.97 77.7561 307.492 77.7561C308.035 77.7561 308.489 77.6128 308.853 77.3262C309.22 77.036 309.496 76.6465 309.679 76.1579C309.867 75.6655 309.96 75.1181 309.96 74.5156C309.96 73.9204 309.869 73.384 309.685 72.9064C309.505 72.4251 309.231 72.0448 308.864 71.7656C308.5 71.4827 308.043 71.3412 307.492 71.3412C306.962 71.3412 306.518 71.4753 306.158 71.7435C305.798 72.0081 305.526 72.3791 305.342 72.8568C305.159 73.3307 305.067 73.8836 305.067 74.5156ZM315.736 78.9464C315.2 78.9464 314.713 78.8454 314.276 78.6433C313.838 78.4376 313.491 78.1418 313.234 77.7561C312.977 77.3666 312.848 76.8963 312.848 76.3452C312.848 75.8603 312.944 75.4671 313.135 75.1659C313.326 74.8609 313.581 74.6221 313.901 74.4494C314.221 74.2768 314.573 74.1482 314.959 74.0637C315.348 73.9755 315.74 73.9057 316.133 73.8543C316.647 73.7881 317.064 73.7385 317.384 73.7055C317.707 73.6687 317.942 73.6081 318.089 73.5236C318.24 73.4391 318.315 73.2921 318.315 73.0827V73.0386C318.315 72.4949 318.166 72.0724 317.869 71.7711C317.575 71.4698 317.128 71.3192 316.53 71.3192C315.909 71.3192 315.422 71.4551 315.069 71.727C314.716 71.9989 314.469 72.2891 314.325 72.5977L313.091 72.1569C313.311 71.6425 313.605 71.242 313.973 70.9554C314.344 70.6652 314.748 70.4631 315.185 70.3492C315.626 70.2317 316.059 70.1729 316.486 70.1729C316.757 70.1729 317.07 70.2059 317.422 70.2721C317.779 70.3345 318.122 70.465 318.453 70.6634C318.787 70.8618 319.065 71.1612 319.285 71.5617C319.506 71.9621 319.616 72.4985 319.616 73.1709V78.748H318.315V77.6018H318.249C318.161 77.7855 318.014 77.982 317.808 78.1914C317.602 78.4009 317.329 78.579 316.987 78.726C316.645 78.873 316.228 78.9464 315.736 78.9464ZM315.934 77.7781C316.449 77.7781 316.882 77.6771 317.235 77.475C317.591 77.2729 317.86 77.0121 318.04 76.6924C318.223 76.3728 318.315 76.0366 318.315 75.6839V74.4935C318.26 74.5597 318.139 74.6203 317.951 74.6754C317.768 74.7268 317.555 74.7728 317.312 74.8132C317.073 74.8499 316.84 74.883 316.612 74.9124C316.388 74.9381 316.206 74.9601 316.067 74.9785C315.729 75.0226 315.413 75.0942 315.119 75.1934C314.829 75.289 314.593 75.4341 314.413 75.6288C314.237 75.8199 314.149 76.0807 314.149 76.4114C314.149 76.8633 314.316 77.205 314.65 77.4364C314.988 77.6642 315.416 77.7781 315.934 77.7781ZM323.29 73.6559V78.748H321.99V70.2831H323.246V71.6058H323.356C323.555 71.1759 323.856 70.8305 324.26 70.5697C324.664 70.3051 325.186 70.1729 325.825 70.1729C326.399 70.1729 326.9 70.2905 327.33 70.5256C327.76 70.7571 328.094 71.1098 328.333 71.5837C328.572 72.054 328.691 72.6492 328.691 73.3693V78.748H327.39V73.4575C327.39 72.7925 327.218 72.2744 326.872 71.9033C326.527 71.5286 326.053 71.3412 325.451 71.3412C325.035 71.3412 324.664 71.4312 324.337 71.6113C324.014 71.7913 323.759 72.054 323.571 72.3993C323.384 72.7447 323.29 73.1635 323.29 73.6559ZM334.749 70.2831V71.3853H330.362V70.2831H334.749ZM331.641 68.255H332.941V76.3232C332.941 76.6906 332.995 76.9661 333.101 77.1498C333.212 77.3299 333.351 77.4511 333.52 77.5136C333.693 77.5724 333.875 77.6018 334.066 77.6018C334.209 77.6018 334.327 77.5944 334.418 77.5797C334.51 77.5613 334.584 77.5466 334.639 77.5356L334.903 78.704C334.815 78.737 334.692 78.7701 334.534 78.8032C334.376 78.8399 334.176 78.8583 333.933 78.8583C333.566 78.8583 333.206 78.7793 332.853 78.6213C332.504 78.4633 332.214 78.2227 331.983 77.8993C331.755 77.576 331.641 77.1682 331.641 76.6759V68.255ZM342.55 72.1789L341.382 72.5096C341.308 72.3148 341.2 72.1256 341.056 71.9419C340.917 71.7545 340.726 71.6002 340.483 71.479C340.241 71.3578 339.93 71.2971 339.552 71.2971C339.034 71.2971 338.602 71.4165 338.257 71.6553C337.915 71.8905 337.744 72.1899 337.744 72.5536C337.744 72.877 337.862 73.1323 338.097 73.3197C338.332 73.5071 338.7 73.6632 339.199 73.7881L340.456 74.0967C341.213 74.2804 341.777 74.5615 342.148 74.9399C342.519 75.3147 342.704 75.7978 342.704 76.3893C342.704 76.8743 342.565 77.3078 342.285 77.6899C342.01 78.072 341.624 78.3733 341.128 78.5937C340.632 78.8142 340.055 78.9244 339.398 78.9244C338.534 78.9244 337.82 78.737 337.254 78.3623C336.688 77.9875 336.33 77.4401 336.179 76.72L337.414 76.4114C337.531 76.8669 337.754 77.2086 338.081 77.4364C338.411 77.6642 338.843 77.7781 339.376 77.7781C339.982 77.7781 340.463 77.6495 340.819 77.3923C341.18 77.1315 341.36 76.8192 341.36 76.4555C341.36 76.1615 341.257 75.9154 341.051 75.717C340.845 75.5149 340.529 75.3643 340.103 75.2651L338.692 74.9344C337.917 74.7507 337.348 74.466 336.984 74.0802C336.624 73.6908 336.444 73.2039 336.444 72.6198C336.444 72.1422 336.578 71.7196 336.846 71.3522C337.118 70.9848 337.487 70.6964 337.954 70.487C338.424 70.2776 338.957 70.1729 339.552 70.1729C340.39 70.1729 341.047 70.3566 341.525 70.724C342.006 71.0914 342.348 71.5764 342.55 72.1789Z" fill="#2B2D2D"/>
<rect width="350.997" height="75.9977" transform="translate(22.957 120.418)" fill="#F7F7F7"/>
<rect x="39.584" y="142.588" width="166.883" height="28.931" rx="14.4655" fill="#D8F9B8"/>
<path d="M60.7704 149.966L68.2218 162.972C68.2905 163.091 68.3266 163.227 68.3266 163.366C68.3266 163.504 68.2905 163.64 68.2218 163.76C68.1532 163.88 68.0544 163.979 67.9355 164.048C67.8166 164.117 67.6817 164.154 67.5444 164.154H52.6416C52.5043 164.154 52.3694 164.117 52.2505 164.048C52.1316 163.979 52.0328 163.88 51.9642 163.76C51.8955 163.64 51.8594 163.504 51.8594 163.366C51.8594 163.227 51.8955 163.091 51.9642 162.972L59.4156 149.966C59.4843 149.847 59.583 149.747 59.7019 149.678C59.8208 149.609 59.9557 149.572 60.093 149.572C60.2303 149.572 60.3652 149.609 60.4841 149.678C60.603 149.747 60.7017 149.847 60.7704 149.966ZM59.3108 160.213V161.789H60.8752V160.213H59.3108ZM59.3108 154.696V158.636H60.8752V154.696H59.3108Z" fill="#2B2D2D"/>
<path d="M80.2125 162.053H78.7796L82.9239 150.766H84.3347L88.479 162.053H87.0462L83.6734 152.552H83.5852L80.2125 162.053ZM80.7415 157.644H86.5171V158.856H80.7415V157.644ZM90.0607 162.053V153.588H91.3172V154.866H91.4054C91.5597 154.448 91.8389 154.108 92.2431 153.847C92.6472 153.586 93.1028 153.456 93.6098 153.456C93.7053 153.456 93.8247 153.457 93.968 153.461C94.1113 153.465 94.2197 153.47 94.2932 153.478V154.8C94.2491 154.789 94.148 154.773 93.9901 154.751C93.8357 154.725 93.6723 154.712 93.4996 154.712C93.0881 154.712 92.7207 154.798 92.3974 154.971C92.0777 155.14 91.8242 155.375 91.6368 155.676C91.4531 155.974 91.3613 156.314 91.3613 156.696V162.053H90.0607ZM96.0112 162.053V150.766H97.3118V154.932H97.422C97.5176 154.786 97.6498 154.598 97.8188 154.37C97.9915 154.139 98.2377 153.933 98.5573 153.753C98.8806 153.569 99.3178 153.478 99.8689 153.478C100.582 153.478 101.21 153.656 101.754 154.012C102.297 154.369 102.722 154.874 103.027 155.528C103.332 156.182 103.484 156.953 103.484 157.842C103.484 158.739 103.332 159.516 103.027 160.173C102.722 160.827 102.299 161.334 101.759 161.695C101.219 162.051 100.596 162.229 99.891 162.229C99.3472 162.229 98.9119 162.139 98.5849 161.959C98.2579 161.775 98.0062 161.568 97.8299 161.336C97.6535 161.101 97.5176 160.906 97.422 160.752H97.2677V162.053H96.0112ZM97.2898 157.82C97.2898 158.46 97.3835 159.024 97.5708 159.512C97.7582 159.997 98.0319 160.377 98.392 160.653C98.752 160.925 99.1929 161.061 99.7146 161.061C100.258 161.061 100.712 160.917 101.076 160.631C101.443 160.341 101.719 159.951 101.903 159.463C102.09 158.97 102.184 158.423 102.184 157.82C102.184 157.225 102.092 156.689 101.908 156.211C101.728 155.73 101.454 155.349 101.087 155.07C100.723 154.787 100.266 154.646 99.7146 154.646C99.1856 154.646 98.741 154.78 98.381 155.048C98.0209 155.313 97.749 155.684 97.5653 156.161C97.3816 156.635 97.2898 157.188 97.2898 157.82ZM105.474 162.053V153.588H106.774V162.053H105.474ZM106.135 152.177C105.881 152.177 105.663 152.091 105.479 151.918C105.299 151.745 105.209 151.538 105.209 151.295C105.209 151.053 105.299 150.845 105.479 150.672C105.663 150.5 105.881 150.413 106.135 150.413C106.388 150.413 106.605 150.5 106.785 150.672C106.969 150.845 107.061 151.053 107.061 151.295C107.061 151.538 106.969 151.745 106.785 151.918C106.605 152.091 106.388 152.177 106.135 152.177ZM112.838 153.588V154.69H108.451V153.588H112.838ZM109.73 151.56H111.03V159.628C111.03 159.995 111.083 160.271 111.19 160.455C111.3 160.635 111.44 160.756 111.609 160.818C111.781 160.877 111.963 160.906 112.154 160.906C112.298 160.906 112.415 160.899 112.507 160.884C112.599 160.866 112.672 160.851 112.728 160.84L112.992 162.009C112.904 162.042 112.781 162.075 112.623 162.108C112.465 162.145 112.265 162.163 112.022 162.163C111.655 162.163 111.295 162.084 110.942 161.926C110.593 161.768 110.303 161.527 110.071 161.204C109.843 160.881 109.73 160.473 109.73 159.981V151.56ZM114.794 162.053V153.588H116.051V154.866H116.139C116.293 154.448 116.572 154.108 116.977 153.847C117.381 153.586 117.836 153.456 118.343 153.456C118.439 153.456 118.558 153.457 118.702 153.461C118.845 153.465 118.953 153.47 119.027 153.478V154.8C118.983 154.789 118.882 154.773 118.724 154.751C118.569 154.725 118.406 154.712 118.233 154.712C117.822 154.712 117.454 154.798 117.131 154.971C116.811 155.14 116.558 155.375 116.37 155.676C116.187 155.974 116.095 156.314 116.095 156.696V162.053H114.794ZM123.059 162.251C122.523 162.251 122.036 162.15 121.599 161.948C121.162 161.742 120.815 161.447 120.557 161.061C120.3 160.671 120.172 160.201 120.172 159.65C120.172 159.165 120.267 158.772 120.458 158.471C120.649 158.166 120.905 157.927 121.224 157.754C121.544 157.581 121.897 157.453 122.282 157.368C122.672 157.28 123.063 157.21 123.456 157.159C123.971 157.093 124.388 157.043 124.707 157.01C125.03 156.973 125.266 156.913 125.413 156.828C125.563 156.744 125.639 156.597 125.639 156.387V156.343C125.639 155.8 125.49 155.377 125.192 155.076C124.898 154.774 124.452 154.624 123.853 154.624C123.232 154.624 122.745 154.76 122.393 155.032C122.04 155.304 121.792 155.594 121.649 155.902L120.414 155.462C120.635 154.947 120.928 154.547 121.296 154.26C121.667 153.97 122.071 153.768 122.508 153.654C122.949 153.536 123.383 153.478 123.809 153.478C124.081 153.478 124.393 153.511 124.746 153.577C125.102 153.639 125.446 153.77 125.776 153.968C126.111 154.166 126.388 154.466 126.608 154.866C126.829 155.267 126.939 155.803 126.939 156.476V162.053H125.639V160.906H125.572C125.484 161.09 125.337 161.287 125.132 161.496C124.926 161.706 124.652 161.884 124.31 162.031C123.969 162.178 123.552 162.251 123.059 162.251ZM123.258 161.083C123.772 161.083 124.206 160.982 124.558 160.78C124.915 160.578 125.183 160.317 125.363 159.997C125.547 159.677 125.639 159.341 125.639 158.989V157.798C125.583 157.864 125.462 157.925 125.275 157.98C125.091 158.032 124.878 158.077 124.636 158.118C124.397 158.155 124.163 158.188 123.936 158.217C123.712 158.243 123.53 158.265 123.39 158.283C123.052 158.327 122.736 158.399 122.442 158.498C122.152 158.594 121.917 158.739 121.737 158.933C121.56 159.125 121.472 159.385 121.472 159.716C121.472 160.168 121.639 160.51 121.974 160.741C122.312 160.969 122.74 161.083 123.258 161.083ZM132.994 153.588V154.69H128.608V153.588H132.994ZM129.886 151.56H131.187V159.628C131.187 159.995 131.24 160.271 131.347 160.455C131.457 160.635 131.596 160.756 131.765 160.818C131.938 160.877 132.12 160.906 132.311 160.906C132.454 160.906 132.572 160.899 132.664 160.884C132.756 160.866 132.829 160.851 132.884 160.84L133.149 162.009C133.061 162.042 132.937 162.075 132.779 162.108C132.621 162.145 132.421 162.163 132.179 162.163C131.811 162.163 131.451 162.084 131.099 161.926C130.75 161.768 130.459 161.527 130.228 161.204C130 160.881 129.886 160.473 129.886 159.981V151.56ZM134.951 162.053V153.588H136.251V162.053H134.951ZM135.612 152.177C135.359 152.177 135.14 152.091 134.956 151.918C134.776 151.745 134.686 151.538 134.686 151.295C134.686 151.053 134.776 150.845 134.956 150.672C135.14 150.5 135.359 150.413 135.612 150.413C135.866 150.413 136.082 150.5 136.262 150.672C136.446 150.845 136.538 151.053 136.538 151.295C136.538 151.538 136.446 151.745 136.262 151.918C136.082 152.091 135.866 152.177 135.612 152.177ZM142.072 162.229C141.308 162.229 140.638 162.047 140.061 161.683C139.488 161.32 139.04 160.811 138.716 160.157C138.397 159.503 138.237 158.739 138.237 157.864C138.237 156.983 138.397 156.213 138.716 155.555C139.04 154.898 139.488 154.387 140.061 154.023C140.638 153.659 141.308 153.478 142.072 153.478C142.837 153.478 143.505 153.659 144.078 154.023C144.655 154.387 145.103 154.898 145.423 155.555C145.746 156.213 145.908 156.983 145.908 157.864C145.908 158.739 145.746 159.503 145.423 160.157C145.103 160.811 144.655 161.32 144.078 161.683C143.505 162.047 142.837 162.229 142.072 162.229ZM142.072 161.061C142.653 161.061 143.131 160.912 143.505 160.614C143.88 160.317 144.157 159.925 144.337 159.441C144.517 158.956 144.607 158.43 144.607 157.864C144.607 157.299 144.517 156.771 144.337 156.283C144.157 155.794 143.88 155.399 143.505 155.098C143.131 154.797 142.653 154.646 142.072 154.646C141.492 154.646 141.014 154.797 140.64 155.098C140.265 155.399 139.987 155.794 139.807 156.283C139.627 156.771 139.537 157.299 139.537 157.864C139.537 158.43 139.627 158.956 139.807 159.441C139.987 159.925 140.265 160.317 140.64 160.614C141.014 160.912 141.492 161.061 142.072 161.061ZM149.194 156.961V162.053H147.893V153.588H149.15V154.91H149.26C149.459 154.481 149.76 154.135 150.164 153.874C150.568 153.61 151.09 153.478 151.729 153.478C152.302 153.478 152.804 153.595 153.234 153.83C153.663 154.062 153.998 154.414 154.237 154.888C154.475 155.359 154.595 155.954 154.595 156.674V162.053H153.294V156.762C153.294 156.097 153.122 155.579 152.776 155.208C152.431 154.833 151.957 154.646 151.354 154.646C150.939 154.646 150.568 154.736 150.241 154.916C149.918 155.096 149.662 155.359 149.475 155.704C149.288 156.049 149.194 156.468 149.194 156.961ZM161.976 162.053H160.543L164.687 150.766H166.098L170.242 162.053H168.809L165.436 152.552H165.348L161.976 162.053ZM162.505 157.644H168.28V158.856H162.505V157.644ZM173.124 150.766V162.053H171.824V150.766H173.124ZM179.056 162.229C178.24 162.229 177.536 162.049 176.945 161.689C176.357 161.325 175.903 160.818 175.584 160.168C175.268 159.514 175.11 158.753 175.11 157.886C175.11 157.019 175.268 156.255 175.584 155.594C175.903 154.929 176.348 154.411 176.917 154.04C177.49 153.665 178.159 153.478 178.923 153.478C179.364 153.478 179.8 153.551 180.229 153.698C180.659 153.845 181.051 154.084 181.403 154.414C181.756 154.741 182.037 155.175 182.246 155.715C182.456 156.255 182.561 156.92 182.561 157.71V158.261H176.036V157.137H181.238C181.238 156.659 181.142 156.233 180.951 155.858C180.764 155.484 180.496 155.188 180.147 154.971C179.801 154.754 179.394 154.646 178.923 154.646C178.405 154.646 177.957 154.774 177.579 155.032C177.204 155.285 176.915 155.616 176.713 156.024C176.511 156.431 176.41 156.869 176.41 157.335V158.085C176.41 158.724 176.52 159.266 176.741 159.711C176.965 160.151 177.276 160.488 177.672 160.719C178.069 160.947 178.53 161.061 179.056 161.061C179.397 161.061 179.706 161.013 179.981 160.917C180.261 160.818 180.501 160.671 180.703 160.477C180.905 160.278 181.062 160.032 181.172 159.738L182.428 160.091C182.296 160.517 182.074 160.892 181.761 161.215C181.449 161.535 181.063 161.785 180.604 161.965C180.145 162.141 179.629 162.229 179.056 162.229ZM184.539 162.053V153.588H185.796V154.866H185.884C186.038 154.448 186.317 154.108 186.721 153.847C187.126 153.586 187.581 153.456 188.088 153.456C188.184 153.456 188.303 153.457 188.446 153.461C188.59 153.465 188.698 153.47 188.772 153.478V154.8C188.727 154.789 188.626 154.773 188.468 154.751C188.314 154.725 188.151 154.712 187.978 154.712C187.566 154.712 187.199 154.798 186.876 154.971C186.556 155.14 186.303 155.375 186.115 155.676C185.932 155.974 185.84 156.314 185.84 156.696V162.053H184.539ZM194.525 153.588V154.69H190.138V153.588H194.525ZM191.417 151.56H192.717V159.628C192.717 159.995 192.771 160.271 192.877 160.455C192.987 160.635 193.127 160.756 193.296 160.818C193.469 160.877 193.651 160.906 193.842 160.906C193.985 160.906 194.103 160.899 194.194 160.884C194.286 160.866 194.36 160.851 194.415 160.84L194.679 162.009C194.591 162.042 194.468 162.075 194.31 162.108C194.152 162.145 193.952 162.163 193.709 162.163C193.342 162.163 192.982 162.084 192.629 161.926C192.28 161.768 191.99 161.527 191.759 161.204C191.531 160.881 191.417 160.473 191.417 159.981V151.56Z" fill="#2B2D2D"/>
<rect x="217.553" y="142.588" width="128.883" height="28.931" rx="14.4655" fill="#D8F9B8"/>
<path d="M233.363 164.935C232.933 164.935 232.565 164.781 232.259 164.472C231.953 164.164 231.799 163.793 231.799 163.359V155.477C231.799 155.043 231.952 154.672 232.259 154.364C232.565 154.055 232.934 153.901 233.363 153.9H234.145V152.324C234.145 151.233 234.527 150.304 235.29 149.536C236.053 148.768 236.975 148.383 238.057 148.383C239.138 148.382 240.061 148.767 240.824 149.536C241.588 150.305 241.969 151.235 241.968 152.324V153.9H242.75C243.18 153.9 243.549 154.055 243.855 154.364C244.162 154.673 244.315 155.044 244.314 155.477V163.359C244.314 163.792 244.161 164.163 243.855 164.472C243.549 164.781 243.181 164.935 242.75 164.935H233.363ZM238.057 160.994C238.487 160.994 238.855 160.84 239.162 160.531C239.468 160.223 239.622 159.852 239.621 159.418C239.621 158.984 239.467 158.613 239.162 158.305C238.856 157.997 238.488 157.842 238.057 157.841C237.625 157.84 237.257 157.995 236.952 158.305C236.647 158.615 236.494 158.986 236.492 159.418C236.491 159.849 236.644 160.221 236.952 160.531C237.26 160.842 237.628 160.996 238.057 160.994ZM235.71 153.9H240.403V152.324C240.403 151.667 240.175 151.109 239.719 150.649C239.263 150.189 238.708 149.959 238.057 149.959C237.405 149.959 236.851 150.189 236.394 150.649C235.938 151.109 235.71 151.667 235.71 152.324V153.9Z" fill="#2B2D2D"/>
<path d="M257.718 162.053V150.766H264.53V151.979H259.085V155.792H264.177V157.005H259.085V160.84H264.618V162.053H257.718ZM268.118 156.961V162.053H266.817V153.588H268.074V154.91H268.184C268.382 154.481 268.683 154.135 269.088 153.874C269.492 153.61 270.013 153.478 270.653 153.478C271.226 153.478 271.727 153.595 272.157 153.83C272.587 154.062 272.921 154.414 273.16 154.888C273.399 155.359 273.518 155.954 273.518 156.674V162.053H272.218V156.762C272.218 156.097 272.045 155.579 271.7 155.208C271.354 154.833 270.88 154.646 270.278 154.646C269.863 154.646 269.492 154.736 269.165 154.916C268.841 155.096 268.586 155.359 268.399 155.704C268.211 156.049 268.118 156.468 268.118 156.961ZM279.334 162.229C278.54 162.229 277.857 162.042 277.284 161.667C276.711 161.292 276.27 160.776 275.961 160.118C275.653 159.461 275.498 158.709 275.498 157.864C275.498 157.005 275.656 156.246 275.972 155.588C276.292 154.927 276.736 154.411 277.306 154.04C277.879 153.665 278.548 153.478 279.312 153.478C279.907 153.478 280.443 153.588 280.921 153.808C281.399 154.029 281.79 154.337 282.095 154.734C282.4 155.131 282.589 155.594 282.663 156.123H281.362C281.263 155.737 281.042 155.395 280.701 155.098C280.363 154.797 279.907 154.646 279.334 154.646C278.827 154.646 278.382 154.778 278 155.043C277.622 155.304 277.326 155.673 277.113 156.15C276.904 156.624 276.799 157.181 276.799 157.82C276.799 158.474 276.902 159.044 277.107 159.529C277.317 160.014 277.611 160.39 277.989 160.658C278.371 160.927 278.82 161.061 279.334 161.061C279.672 161.061 279.979 161.002 280.254 160.884C280.53 160.767 280.763 160.598 280.954 160.377C281.145 160.157 281.281 159.892 281.362 159.584H282.663C282.589 160.083 282.407 160.534 282.117 160.934C281.83 161.331 281.45 161.647 280.976 161.882C280.506 162.113 279.959 162.229 279.334 162.229ZM284.564 162.053V153.588H285.82V154.866H285.909C286.063 154.448 286.342 154.108 286.746 153.847C287.15 153.586 287.606 153.456 288.113 153.456C288.209 153.456 288.328 153.457 288.471 153.461C288.615 153.465 288.723 153.47 288.796 153.478V154.8C288.752 154.789 288.651 154.773 288.493 154.751C288.339 154.725 288.175 154.712 288.003 154.712C287.591 154.712 287.224 154.798 286.901 154.971C286.581 155.14 286.327 155.375 286.14 155.676C285.956 155.974 285.865 156.314 285.865 156.696V162.053H284.564ZM291.433 165.227C291.213 165.227 291.016 165.209 290.844 165.172C290.671 165.139 290.552 165.106 290.486 165.073L290.816 163.926C291.132 164.007 291.411 164.037 291.654 164.015C291.896 163.993 292.111 163.884 292.299 163.69C292.49 163.498 292.664 163.188 292.822 162.758L293.065 162.097L289.934 153.588H291.345L293.682 160.333H293.77L296.107 153.588H297.518L293.924 163.287C293.763 163.724 293.563 164.086 293.324 164.373C293.085 164.663 292.807 164.878 292.492 165.018C292.179 165.157 291.827 165.227 291.433 165.227ZM299.234 165.227V153.588H300.491V154.932H300.645C300.741 154.786 300.873 154.598 301.042 154.37C301.215 154.139 301.461 153.933 301.78 153.753C302.104 153.569 302.541 153.478 303.092 153.478C303.805 153.478 304.433 153.656 304.977 154.012C305.521 154.369 305.945 154.874 306.25 155.528C306.555 156.182 306.707 156.953 306.707 157.842C306.707 158.739 306.555 159.516 306.25 160.173C305.945 160.827 305.522 161.334 304.982 161.695C304.442 162.051 303.819 162.229 303.114 162.229C302.57 162.229 302.135 162.139 301.808 161.959C301.481 161.775 301.229 161.568 301.053 161.336C300.877 161.101 300.741 160.906 300.645 160.752H300.535V165.227H299.234ZM300.513 157.82C300.513 158.46 300.607 159.024 300.794 159.512C300.981 159.997 301.255 160.377 301.615 160.653C301.975 160.925 302.416 161.061 302.938 161.061C303.481 161.061 303.935 160.917 304.299 160.631C304.666 160.341 304.942 159.951 305.126 159.463C305.313 158.97 305.407 158.423 305.407 157.82C305.407 157.225 305.315 156.689 305.131 156.211C304.951 155.73 304.677 155.349 304.31 155.07C303.946 154.787 303.489 154.646 302.938 154.646C302.409 154.646 301.964 154.78 301.604 155.048C301.244 155.313 300.972 155.684 300.788 156.161C300.605 156.635 300.513 157.188 300.513 157.82ZM312.373 153.588V154.69H307.986V153.588H312.373ZM309.264 151.56H310.565V159.628C310.565 159.995 310.618 160.271 310.725 160.455C310.835 160.635 310.975 160.756 311.144 160.818C311.316 160.877 311.498 160.906 311.689 160.906C311.832 160.906 311.95 160.899 312.042 160.884C312.134 160.866 312.207 160.851 312.262 160.84L312.527 162.009C312.439 162.042 312.316 162.075 312.158 162.108C312 162.145 311.799 162.163 311.557 162.163C311.19 162.163 310.829 162.084 310.477 161.926C310.128 161.768 309.837 161.527 309.606 161.204C309.378 160.881 309.264 160.473 309.264 159.981V151.56ZM314.329 162.053V153.588H315.63V162.053H314.329ZM314.99 152.177C314.737 152.177 314.518 152.091 314.334 151.918C314.154 151.745 314.064 151.538 314.064 151.295C314.064 151.053 314.154 150.845 314.334 150.672C314.518 150.5 314.737 150.413 314.99 150.413C315.244 150.413 315.461 150.5 315.641 150.672C315.824 150.845 315.916 151.053 315.916 151.295C315.916 151.538 315.824 151.745 315.641 151.918C315.461 152.091 315.244 152.177 314.99 152.177ZM321.451 162.229C320.686 162.229 320.016 162.047 319.439 161.683C318.866 161.32 318.418 160.811 318.094 160.157C317.775 159.503 317.615 158.739 317.615 157.864C317.615 156.983 317.775 156.213 318.094 155.555C318.418 154.898 318.866 154.387 319.439 154.023C320.016 153.659 320.686 153.478 321.451 153.478C322.215 153.478 322.883 153.659 323.457 154.023C324.033 154.387 324.482 154.898 324.801 155.555C325.125 156.213 325.286 156.983 325.286 157.864C325.286 158.739 325.125 159.503 324.801 160.157C324.482 160.811 324.033 161.32 323.457 161.683C322.883 162.047 322.215 162.229 321.451 162.229ZM321.451 161.061C322.031 161.061 322.509 160.912 322.883 160.614C323.258 160.317 323.536 159.925 323.716 159.441C323.896 158.956 323.986 158.43 323.986 157.864C323.986 157.299 323.896 156.771 323.716 156.283C323.536 155.794 323.258 155.399 322.883 155.098C322.509 154.797 322.031 154.646 321.451 154.646C320.87 154.646 320.392 154.797 320.018 155.098C319.643 155.399 319.366 155.794 319.186 156.283C319.006 156.771 318.916 157.299 318.916 157.864C318.916 158.43 319.006 158.956 319.186 159.441C319.366 159.925 319.643 160.317 320.018 160.614C320.392 160.912 320.87 161.061 321.451 161.061ZM328.572 156.961V162.053H327.272V153.588H328.528V154.91H328.638C328.837 154.481 329.138 154.135 329.542 153.874C329.946 153.61 330.468 153.478 331.107 153.478C331.68 153.478 332.182 153.595 332.612 153.83C333.042 154.062 333.376 154.414 333.615 154.888C333.854 155.359 333.973 155.954 333.973 156.674V162.053H332.672V156.762C332.672 156.097 332.5 155.579 332.154 155.208C331.809 154.833 331.335 154.646 330.733 154.646C330.317 154.646 329.946 154.736 329.619 154.916C329.296 155.096 329.041 155.359 328.853 155.704C328.666 156.049 328.572 156.468 328.572 156.961Z" fill="#2B2D2D"/>
</g>
<defs>
<clipPath id="clip0_3528_5143">
<rect x="22.957" y="27.0781" width="350.997" height="169.338" rx="17.7361" fill="white"/>
</clipPath>
</defs>
</svg>
