<svg width="389" height="223" viewBox="0 0 389 223" fill="none" xmlns="http://www.w3.org/2000/svg">
<rect x="0.609375" y="0.285156" width="387.607" height="222.546" rx="26.6041" fill="#E7E6E4" fill-opacity="0.5"/>
<path d="M32.7559 34.6482C32.7559 24.8528 40.6966 16.9121 50.4919 16.9121H338.334C348.129 16.9121 356.07 24.8528 356.07 34.6482V77.0672C356.07 86.8625 348.129 94.8032 338.334 94.8032H50.4919C40.6966 94.8032 32.7559 86.8625 32.7559 77.0672V34.6482Z" fill="white"/>
<rect x="50.7871" y="33.6035" width="44.1724" height="44.5099" rx="22.0862" fill="#F2F2F2"/>
<path d="M75.6352 48.6703V63.0396C75.6352 64.0401 74.4628 64.5705 73.7211 63.9057L69.5873 60.2021C69.461 60.0891 69.2979 60.0268 69.129 60.0268H65.7425C65.4705 60.0268 65.2013 59.9729 64.9501 59.868C64.6989 59.7632 64.4706 59.6095 64.2783 59.4157C64.0861 59.222 63.9335 58.992 63.8295 58.7389C63.7254 58.4857 63.6719 58.2144 63.6719 57.9404V53.7695C63.6721 53.2163 63.8904 52.6858 64.2787 52.2948C64.6669 51.9037 65.1935 51.684 65.7425 51.684H69.129C69.298 51.6838 69.4611 51.6211 69.5873 51.5078L73.7202 47.8052C74.4628 47.1403 75.6352 47.6707 75.6352 48.6703ZM79.3089 50.1985C79.456 50.0887 79.6403 50.0423 79.8213 50.0694C80.0023 50.0965 80.1653 50.195 80.2743 50.3431C81.4479 51.9383 82.0801 53.8721 82.0771 55.8577C82.0796 57.8432 81.4471 59.7766 80.2733 61.3714C80.1632 61.5164 80.0009 61.612 79.8215 61.6375C79.642 61.663 79.4598 61.6163 79.3142 61.5076C79.1686 61.3988 79.0713 61.2368 79.0433 61.0564C79.0153 60.876 79.0588 60.6917 79.1644 60.5433C80.162 59.1881 80.6993 57.545 80.6967 55.8577C80.6995 54.1702 80.1621 52.5267 79.1644 51.1712C79.1104 51.0978 79.0713 51.0143 79.0493 50.9256C79.0273 50.8368 79.0229 50.7446 79.0363 50.6542C79.0497 50.5638 79.0807 50.4769 79.1275 50.3985C79.1743 50.3202 79.2359 50.2528 79.3089 50.1985ZM77.6074 52.4907C77.6871 52.4472 77.7745 52.4199 77.8647 52.4104C77.9548 52.4009 78.046 52.4094 78.1329 52.4354C78.2198 52.4614 78.3008 52.5044 78.3712 52.562C78.4416 52.6195 78.5001 52.6905 78.5433 52.7708C79.0365 53.6888 79.3163 54.7413 79.3163 55.8577C79.3168 56.9351 79.0511 57.9957 78.5433 58.9438C78.5001 59.0241 78.4417 59.0951 78.3713 59.1528C78.3009 59.2104 78.22 59.2535 78.1331 59.2795C78.0461 59.3056 77.955 59.3142 77.8648 59.3048C77.7746 59.2954 77.6871 59.2682 77.6074 59.2247C77.5276 59.1812 77.4571 59.1224 77.3999 59.0514C77.3428 58.9805 77.3 58.899 77.2741 58.8114C77.2482 58.7238 77.2397 58.632 77.249 58.5411C77.2584 58.4502 77.2854 58.362 77.3285 58.2817C77.7274 57.537 77.9361 56.704 77.9359 55.8577C77.9359 54.9787 77.715 54.1534 77.3285 53.4329C77.2416 53.2707 77.2221 53.0803 77.2744 52.9037C77.3267 52.727 77.4464 52.5785 77.6074 52.4907Z" fill="#2B2D2D"/>
<path d="M119.103 42.7337C119.103 43.924 118.888 44.9528 118.458 45.8198C118.028 46.6869 117.438 47.3556 116.689 47.8259C115.939 48.2961 115.083 48.5313 114.121 48.5313C113.158 48.5313 112.302 48.2961 111.553 47.8259C110.803 47.3556 110.213 46.6869 109.784 45.8198C109.354 44.9528 109.139 43.924 109.139 42.7337C109.139 41.5433 109.354 40.5145 109.784 39.6475C110.213 38.7804 110.803 38.1117 111.553 37.6415C112.302 37.1712 113.158 36.9361 114.121 36.9361C115.083 36.9361 115.939 37.1712 116.689 37.6415C117.438 38.1117 118.028 38.7804 118.458 39.6475C118.888 40.5145 119.103 41.5433 119.103 42.7337ZM117.78 42.7337C117.78 41.7564 117.617 40.9315 117.29 40.2592C116.966 39.5869 116.527 39.078 115.972 38.7326C115.421 38.3873 114.804 38.2146 114.121 38.2146C113.437 38.2146 112.818 38.3873 112.263 38.7326C111.712 39.078 111.273 39.5869 110.946 40.2592C110.623 40.9315 110.461 41.7564 110.461 42.7337C110.461 43.7109 110.623 44.5358 110.946 45.2081C111.273 45.8805 111.712 46.3893 112.263 46.7347C112.818 47.08 113.437 47.2527 114.121 47.2527C114.804 47.2527 115.421 47.08 115.972 46.7347C116.527 46.3893 116.966 45.8805 117.29 45.2081C117.617 44.5358 117.78 43.7109 117.78 42.7337ZM122.525 43.2848V48.377H121.224V39.912H122.481V41.2347H122.591C122.79 40.8048 123.091 40.4594 123.495 40.1986C123.899 39.9341 124.421 39.8018 125.06 39.8018C125.633 39.8018 126.135 39.9194 126.565 40.1545C126.994 40.386 127.329 40.7387 127.568 41.2126C127.806 41.6829 127.926 42.2781 127.926 42.9982V48.377H126.625V43.0864C126.625 42.4214 126.453 41.9033 126.107 41.5323C125.762 41.1575 125.288 40.9701 124.685 40.9701C124.27 40.9701 123.899 41.0601 123.572 41.2402C123.249 41.4202 122.993 41.6829 122.806 42.0282C122.619 42.3736 122.525 42.7924 122.525 43.2848ZM131.603 37.0904V48.377H130.302V37.0904H131.603ZM133.985 48.377V39.912H135.286V48.377H133.985ZM134.647 38.5012C134.393 38.5012 134.174 38.4148 133.991 38.2422C133.811 38.0695 133.721 37.8619 133.721 37.6194C133.721 37.3769 133.811 37.1694 133.991 36.9967C134.174 36.824 134.393 36.7377 134.647 36.7377C134.9 36.7377 135.117 36.824 135.297 36.9967C135.481 37.1694 135.572 37.3769 135.572 37.6194C135.572 37.8619 135.481 38.0695 135.297 38.2422C135.117 38.4148 134.9 38.5012 134.647 38.5012ZM138.969 43.2848V48.377H137.668V39.912H138.924V41.2347H139.035C139.233 40.8048 139.534 40.4594 139.939 40.1986C140.343 39.9341 140.864 39.8018 141.504 39.8018C142.077 39.8018 142.578 39.9194 143.008 40.1545C143.438 40.386 143.772 40.7387 144.011 41.2126C144.25 41.6829 144.369 42.2781 144.369 42.9982V48.377H143.069V43.0864C143.069 42.4214 142.896 41.9033 142.551 41.5323C142.205 41.1575 141.731 40.9701 141.129 40.9701C140.714 40.9701 140.343 41.0601 140.016 41.2402C139.692 41.4202 139.437 41.6829 139.25 42.0282C139.062 42.3736 138.969 42.7924 138.969 43.2848ZM150.295 48.5533C149.479 48.5533 148.776 48.3733 148.184 48.0132C147.597 47.6495 147.143 47.1425 146.823 46.4922C146.507 45.8382 146.349 45.0777 146.349 44.2106C146.349 43.3435 146.507 42.5793 146.823 41.918C147.143 41.253 147.587 40.735 148.157 40.3639C148.73 39.9892 149.399 39.8018 150.163 39.8018C150.604 39.8018 151.039 39.8753 151.469 40.0222C151.899 40.1692 152.29 40.408 152.643 40.7387C152.996 41.0657 153.277 41.4992 153.486 42.0393C153.695 42.5793 153.8 43.2443 153.8 44.0343V44.5854H147.275V43.4611H152.477C152.477 42.9835 152.382 42.5573 152.191 42.1826C152.004 41.8078 151.735 41.512 151.386 41.2953C151.041 41.0785 150.633 40.9701 150.163 40.9701C149.645 40.9701 149.197 41.0987 148.818 41.3559C148.443 41.6094 148.155 41.9401 147.953 42.3479C147.751 42.7557 147.65 43.1929 147.65 43.6595V44.409C147.65 45.0483 147.76 45.5902 147.98 46.0348C148.205 46.4756 148.515 46.8118 148.912 47.0433C149.309 47.2711 149.77 47.385 150.295 47.385C150.637 47.385 150.945 47.3372 151.221 47.2417C151.5 47.1425 151.741 46.9955 151.943 46.8008C152.145 46.6024 152.301 46.3562 152.411 46.0623L153.668 46.415C153.536 46.8412 153.313 47.216 153.001 47.5393C152.689 47.8589 152.303 48.1087 151.844 48.2888C151.384 48.4651 150.868 48.5533 150.295 48.5533Z" fill="#666666"/>
<path d="M109.775 74.377V61.478H111.337V67.2221H118.215V61.478H119.777V74.377H118.215V68.6077H111.337V74.377H109.775ZM126.758 74.5785C125.826 74.5785 125.022 74.3728 124.346 73.9613C123.674 73.5456 123.156 72.9661 122.79 72.2229C122.429 71.4755 122.249 70.6064 122.249 69.6154C122.249 68.6245 122.429 67.7511 122.79 66.9953C123.156 66.2353 123.664 65.6433 124.315 65.2192C124.97 64.7909 125.734 64.5768 126.607 64.5768C127.111 64.5768 127.609 64.6607 128.1 64.8287C128.591 64.9967 129.038 65.2696 129.441 65.6475C129.844 66.0212 130.166 66.5166 130.405 67.1339C130.644 67.7511 130.764 68.5111 130.764 69.4139V70.0437H123.307V68.7589H129.252C129.252 68.213 129.143 67.7259 128.925 67.2976C128.711 66.8694 128.404 66.5313 128.005 66.2836C127.611 66.0359 127.145 65.912 126.607 65.912C126.015 65.912 125.503 66.059 125.07 66.3529C124.642 66.6426 124.312 67.0205 124.082 67.4866C123.851 67.9527 123.735 68.4523 123.735 68.9856V69.8422C123.735 70.5728 123.861 71.1921 124.113 71.7002C124.369 72.204 124.724 72.5882 125.177 72.8528C125.631 73.1131 126.158 73.2433 126.758 73.2433C127.149 73.2433 127.501 73.1887 127.816 73.0795C128.136 72.9661 128.411 72.7982 128.641 72.5756C128.872 72.3489 129.051 72.0676 129.177 71.7317L130.613 72.1348C130.462 72.6218 130.208 73.0501 129.851 73.4196C129.494 73.7849 129.053 74.0704 128.528 74.2762C128.003 74.4777 127.413 74.5785 126.758 74.5785ZM135.872 74.6037C135.259 74.6037 134.703 74.4882 134.203 74.2573C133.703 74.0221 133.306 73.6841 133.013 73.2433C132.719 72.7982 132.572 72.2607 132.572 71.6309C132.572 71.0766 132.681 70.6274 132.899 70.283C133.118 69.9345 133.409 69.6616 133.775 69.4643C134.14 69.2669 134.543 69.12 134.984 69.0234C135.429 68.9226 135.876 68.8428 136.325 68.784C136.913 68.7085 137.39 68.6518 137.755 68.614C138.125 68.572 138.393 68.5027 138.561 68.4061C138.734 68.3096 138.82 68.1416 138.82 67.9023V67.8519C138.82 67.2305 138.65 66.7476 138.309 66.4033C137.974 66.059 137.463 65.8868 136.779 65.8868C136.069 65.8868 135.513 66.0422 135.11 66.3529C134.707 66.6636 134.423 66.9953 134.26 67.348L132.849 66.8442C133.101 66.2563 133.437 65.7986 133.857 65.4711C134.281 65.1394 134.742 64.9085 135.242 64.7783C135.746 64.6439 136.241 64.5768 136.729 64.5768C137.039 64.5768 137.396 64.6146 137.799 64.6901C138.207 64.7615 138.599 64.9106 138.977 65.1373C139.359 65.3641 139.676 65.7063 139.928 66.1639C140.18 66.6216 140.306 67.2347 140.306 68.0031V74.377H138.82V73.0669H138.744C138.643 73.2768 138.475 73.5015 138.24 73.7408C138.005 73.9802 137.692 74.1838 137.302 74.3518C136.911 74.5197 136.435 74.6037 135.872 74.6037ZM136.099 73.2684C136.687 73.2684 137.182 73.153 137.585 72.922C137.992 72.6911 138.299 72.393 138.505 72.0277C138.715 71.6624 138.82 71.2782 138.82 70.8751V69.5146C138.757 69.5902 138.618 69.6595 138.404 69.7225C138.194 69.7813 137.95 69.8338 137.673 69.88C137.4 69.9219 137.134 69.9597 136.873 69.9933C136.617 70.0227 136.409 70.0479 136.25 70.0689C135.864 70.1193 135.502 70.2012 135.167 70.3145C134.835 70.4237 134.566 70.5896 134.36 70.8121C134.159 71.0304 134.058 71.3286 134.058 71.7065C134.058 72.2229 134.249 72.6134 134.631 72.878C135.017 73.1383 135.507 73.2684 136.099 73.2684ZM143.019 74.377V64.7027H144.455V66.1639H144.556C144.732 65.6853 145.051 65.2969 145.513 64.9988C145.975 64.7006 146.496 64.5516 147.075 64.5516C147.184 64.5516 147.321 64.5537 147.484 64.5579C147.648 64.5621 147.772 64.5684 147.856 64.5768V66.0884C147.806 66.0758 147.69 66.0569 147.51 66.0317C147.333 66.0023 147.146 65.9876 146.949 65.9876C146.479 65.9876 146.059 66.0863 145.689 66.2836C145.324 66.4768 145.034 66.7455 144.82 67.0898C144.61 67.4299 144.505 67.8183 144.505 68.255V74.377H143.019ZM149.618 74.377V64.7027H151.104V74.377H149.618ZM150.374 63.0904C150.084 63.0904 149.834 62.9917 149.624 62.7943C149.419 62.597 149.316 62.3598 149.316 62.0826C149.316 61.8055 149.419 61.5683 149.624 61.3709C149.834 61.1736 150.084 61.0749 150.374 61.0749C150.664 61.0749 150.911 61.1736 151.117 61.3709C151.327 61.5683 151.432 61.8055 151.432 62.0826C151.432 62.3598 151.327 62.597 151.117 62.7943C150.911 62.9917 150.664 63.0904 150.374 63.0904ZM155.313 68.5573V74.377H153.827V64.7027H155.263V66.2143H155.389C155.616 65.7231 155.96 65.3284 156.422 65.0302C156.884 64.7279 157.48 64.5768 158.211 64.5768C158.866 64.5768 159.439 64.7111 159.93 64.9799C160.421 65.2444 160.803 65.6475 161.076 66.1891C161.349 66.7266 161.486 67.4068 161.486 68.2298V74.377H159.999V68.3306C159.999 67.5706 159.802 66.9785 159.407 66.5544C159.013 66.1262 158.471 65.912 157.782 65.912C157.308 65.912 156.884 66.0149 156.51 66.2206C156.14 66.4264 155.849 66.7266 155.635 67.1213C155.42 67.516 155.313 67.9947 155.313 68.5573ZM168.107 78.2063C167.389 78.2063 166.772 78.114 166.255 77.9292C165.739 77.7487 165.308 77.5093 164.964 77.2112C164.624 76.9173 164.353 76.6024 164.151 76.2664L165.336 75.4351C165.47 75.6114 165.64 75.813 165.846 76.0397C166.051 76.2706 166.333 76.4701 166.69 76.6381C167.051 76.8102 167.523 76.8963 168.107 76.8963C168.888 76.8963 169.532 76.7073 170.04 76.3294C170.548 75.9515 170.802 75.3595 170.802 74.5533V72.5882H170.676C170.567 72.7646 170.412 72.9829 170.21 73.2433C170.013 73.4994 169.728 73.7282 169.354 73.9298C168.984 74.1271 168.485 74.2258 167.855 74.2258C167.074 74.2258 166.373 74.041 165.751 73.6715C165.134 73.302 164.645 72.7646 164.284 72.0592C163.927 71.3538 163.748 70.4972 163.748 69.4895C163.748 68.4985 163.923 67.6357 164.271 66.9008C164.62 66.1618 165.105 65.5908 165.726 65.1877C166.347 64.7804 167.065 64.5768 167.88 64.5768C168.51 64.5768 169.01 64.6817 169.379 64.8917C169.753 65.0974 170.038 65.3326 170.236 65.5971C170.437 65.8574 170.593 66.0716 170.702 66.2395H170.853V64.7027H172.289V74.6541C172.289 75.4855 172.1 76.1615 171.722 76.6821C171.348 77.207 170.844 77.5912 170.21 77.8347C169.581 78.0825 168.879 78.2063 168.107 78.2063ZM168.056 72.8905C168.653 72.8905 169.156 72.7541 169.568 72.4812C169.979 72.2082 170.292 71.8156 170.506 71.3034C170.721 70.7911 170.828 70.1781 170.828 69.4643C170.828 68.7672 170.723 68.1521 170.513 67.6189C170.303 67.0856 169.992 66.6678 169.581 66.3655C169.169 66.0632 168.661 65.912 168.056 65.912C167.427 65.912 166.902 66.0716 166.482 66.3907C166.066 66.7098 165.753 67.1381 165.543 67.6755C165.338 68.213 165.235 68.8092 165.235 69.4643C165.235 70.1361 165.34 70.7302 165.55 71.2467C165.764 71.759 166.079 72.162 166.494 72.456C166.914 72.7457 167.435 72.8905 168.056 72.8905Z" fill="#2B2D2D"/>
<rect x="228.164" y="42.5035" width="109.321" height="26.7098" rx="13.3549" stroke="#E6E6E6" stroke-width="1.1085"/>
<path d="M245.713 61.1719H242.23V49.8853H245.867C246.962 49.8853 247.899 50.1112 248.678 50.5631C249.457 51.0114 250.054 51.6562 250.469 52.4975C250.884 53.3352 251.092 54.3382 251.092 55.5065C251.092 56.6822 250.882 57.6944 250.463 58.5431C250.045 59.3881 249.435 60.0384 248.634 60.494C247.833 60.9459 246.859 61.1719 245.713 61.1719ZM243.597 59.9594H245.625C246.558 59.9594 247.331 59.7794 247.945 59.4194C248.559 59.0593 249.016 58.5468 249.317 57.8818C249.618 57.2168 249.769 56.425 249.769 55.5065C249.769 54.5954 249.62 53.811 249.323 53.1533C249.025 52.492 248.581 51.985 247.989 51.6323C247.398 51.2759 246.661 51.0977 245.779 51.0977H243.597V59.9594ZM256.647 61.3482C255.883 61.3482 255.212 61.1664 254.635 60.8026C254.062 60.4389 253.614 59.9301 253.291 59.2761C252.971 58.6221 252.811 57.8579 252.811 56.9835C252.811 56.1017 252.971 55.332 253.291 54.6744C253.614 54.0167 254.062 53.506 254.635 53.1423C255.212 52.7786 255.883 52.5967 256.647 52.5967C257.411 52.5967 258.08 52.7786 258.653 53.1423C259.23 53.506 259.678 54.0167 259.998 54.6744C260.321 55.332 260.483 56.1017 260.483 56.9835C260.483 57.8579 260.321 58.6221 259.998 59.2761C259.678 59.9301 259.23 60.4389 258.653 60.8026C258.08 61.1664 257.411 61.3482 256.647 61.3482ZM256.647 60.1799C257.227 60.1799 257.705 60.0311 258.08 59.7335C258.454 59.4359 258.732 59.0446 258.912 58.5596C259.092 58.0747 259.182 57.5493 259.182 56.9835C259.182 56.4177 259.092 55.8905 258.912 55.4018C258.732 54.9132 258.454 54.5182 258.08 54.217C257.705 53.9157 257.227 53.765 256.647 53.765C256.066 53.765 255.589 53.9157 255.214 54.217C254.839 54.5182 254.562 54.9132 254.382 55.4018C254.202 55.8905 254.112 56.4177 254.112 56.9835C254.112 57.5493 254.202 58.0747 254.382 58.5596C254.562 59.0446 254.839 59.4359 255.214 59.7335C255.589 60.0311 256.066 60.1799 256.647 60.1799ZM265.907 61.3482C265.113 61.3482 264.43 61.1609 263.857 60.7861C263.284 60.4114 262.843 59.8952 262.534 59.2375C262.225 58.5799 262.071 57.8285 262.071 56.9835C262.071 56.1238 262.229 55.3651 262.545 54.7074C262.865 54.0461 263.309 53.5299 263.879 53.1588C264.452 52.7841 265.121 52.5967 265.885 52.5967C266.48 52.5967 267.016 52.7069 267.494 52.9274C267.972 53.1478 268.363 53.4564 268.668 53.8532C268.973 54.25 269.162 54.7129 269.235 55.242H267.935C267.836 54.8562 267.615 54.5145 267.274 54.217C266.936 53.9157 266.48 53.765 265.907 53.765C265.4 53.765 264.955 53.8973 264.573 54.1618C264.195 54.4227 263.899 54.7919 263.686 55.2696C263.476 55.7435 263.372 56.3001 263.372 56.9394C263.372 57.5934 263.475 58.1629 263.68 58.6478C263.89 59.1328 264.184 59.5094 264.562 59.7776C264.944 60.0458 265.392 60.1799 265.907 60.1799C266.245 60.1799 266.552 60.1211 266.827 60.0035C267.103 59.886 267.336 59.717 267.527 59.4965C267.718 59.2761 267.854 59.0116 267.935 58.7029H269.235C269.162 59.2026 268.98 59.6527 268.69 60.0531C268.403 60.4499 268.023 60.7659 267.549 61.001C267.079 61.2325 266.531 61.3482 265.907 61.3482ZM276.471 57.7109V52.7069H277.772V61.1719H276.471V59.739H276.383C276.185 60.1689 275.876 60.5344 275.457 60.8357C275.039 61.1333 274.51 61.2821 273.87 61.2821C273.341 61.2821 272.871 61.1664 272.459 60.9349C272.048 60.6998 271.725 60.3471 271.489 59.8768C271.254 59.4028 271.137 58.8058 271.137 58.0857V52.7069H272.437V57.9975C272.437 58.6148 272.61 59.1071 272.955 59.4745C273.304 59.8419 273.749 60.0256 274.289 60.0256C274.612 60.0256 274.941 59.9429 275.276 59.7776C275.614 59.6123 275.896 59.3587 276.124 59.0171C276.356 58.6754 276.471 58.24 276.471 57.7109ZM280.154 61.1719V52.7069H281.411V54.0296H281.521C281.697 53.5777 281.982 53.2268 282.375 52.977C282.768 52.7235 283.24 52.5967 283.791 52.5967C284.35 52.5967 284.815 52.7235 285.186 52.977C285.56 53.2268 285.853 53.5777 286.062 54.0296H286.15C286.367 53.5924 286.692 53.2452 287.126 52.988C287.559 52.7271 288.079 52.5967 288.685 52.5967C289.442 52.5967 290.061 52.8337 290.542 53.3076C291.024 53.7779 291.264 54.5109 291.264 55.5065V61.1719H289.964V55.5065C289.964 54.882 289.793 54.4356 289.451 54.1674C289.11 53.8992 288.707 53.765 288.244 53.765C287.649 53.765 287.188 53.9451 286.861 54.3051C286.534 54.6615 286.371 55.1134 286.371 55.6608V61.1719H285.048V55.3743C285.048 54.893 284.892 54.5054 284.58 54.2114C284.267 53.9138 283.865 53.765 283.373 53.765C283.035 53.765 282.719 53.8551 282.425 54.0351C282.134 54.2151 281.899 54.4649 281.719 54.7846C281.543 55.1006 281.455 55.4661 281.455 55.8813V61.1719H280.154ZM297.192 61.3482C296.376 61.3482 295.672 61.1682 295.081 60.8081C294.493 60.4444 294.039 59.9374 293.72 59.2871C293.404 58.6331 293.246 57.8726 293.246 57.0055C293.246 56.1385 293.404 55.3743 293.72 54.7129C294.039 54.0479 294.484 53.5299 295.053 53.1588C295.626 52.7841 296.295 52.5967 297.059 52.5967C297.5 52.5967 297.936 52.6702 298.365 52.8172C298.795 52.9641 299.187 53.2029 299.539 53.5336C299.892 53.8606 300.173 54.2941 300.382 54.8342C300.592 55.3743 300.697 56.0393 300.697 56.8292V57.3803H294.171V56.256H299.374C299.374 55.7784 299.278 55.3522 299.087 54.9775C298.9 54.6027 298.632 54.307 298.283 54.0902C297.937 53.8734 297.53 53.765 297.059 53.765C296.541 53.765 296.093 53.8936 295.715 54.1508C295.34 54.4043 295.051 54.735 294.849 55.1428C294.647 55.5506 294.546 55.9878 294.546 56.4544V57.2039C294.546 57.8432 294.656 58.3851 294.877 58.8297C295.101 59.2706 295.411 59.6067 295.808 59.8382C296.205 60.066 296.666 60.1799 297.192 60.1799C297.533 60.1799 297.842 60.1321 298.117 60.0366C298.397 59.9374 298.637 59.7904 298.839 59.5957C299.041 59.3973 299.198 59.1512 299.308 58.8572L300.564 59.2099C300.432 59.6361 300.21 60.0109 299.897 60.3342C299.585 60.6538 299.199 60.9037 298.74 61.0837C298.281 61.2601 297.765 61.3482 297.192 61.3482ZM303.976 56.0797V61.1719H302.675V52.7069H303.932V54.0296H304.042C304.24 53.5997 304.541 53.2544 304.946 52.9935C305.35 52.729 305.871 52.5967 306.511 52.5967C307.084 52.5967 307.585 52.7143 308.015 52.9494C308.445 53.1809 308.779 53.5336 309.018 54.0075C309.257 54.4778 309.376 55.073 309.376 55.7931V61.1719H308.076V55.8813C308.076 55.2163 307.903 54.6983 307.558 54.3272C307.212 53.9524 306.738 53.765 306.136 53.765C305.721 53.765 305.35 53.8551 305.023 54.0351C304.699 54.2151 304.444 54.4778 304.257 54.8232C304.069 55.1685 303.976 55.5874 303.976 56.0797ZM315.434 52.7069V53.8091H311.048V52.7069H315.434ZM312.326 50.6789H313.627V58.747C313.627 59.1144 313.68 59.39 313.787 59.5737C313.897 59.7537 314.036 59.8749 314.205 59.9374C314.378 59.9962 314.56 60.0256 314.751 60.0256C314.894 60.0256 315.012 60.0182 315.104 60.0035C315.196 59.9852 315.269 59.9705 315.324 59.9594L315.589 61.1278C315.501 61.1609 315.377 61.1939 315.219 61.227C315.062 61.2637 314.861 61.2821 314.619 61.2821C314.251 61.2821 313.891 61.2031 313.539 61.0451C313.19 60.8871 312.899 60.6465 312.668 60.3232C312.44 59.9999 312.326 59.592 312.326 59.0997V50.6789ZM323.235 54.6027L322.067 54.9334C321.993 54.7387 321.885 54.5495 321.742 54.3658C321.602 54.1784 321.411 54.0241 321.169 53.9028C320.926 53.7816 320.616 53.721 320.237 53.721C319.719 53.721 319.288 53.8404 318.942 54.0792C318.601 54.3143 318.43 54.6137 318.43 54.9775C318.43 55.3008 318.547 55.5561 318.782 55.7435C319.018 55.9309 319.385 56.087 319.885 56.2119L321.141 56.5206C321.898 56.7043 322.462 56.9853 322.833 57.3638C323.204 57.7385 323.39 58.2216 323.39 58.8132C323.39 59.2981 323.25 59.7317 322.971 60.1138C322.695 60.4959 322.309 60.7971 321.813 61.0176C321.317 61.238 320.741 61.3482 320.083 61.3482C319.22 61.3482 318.505 61.1609 317.939 60.7861C317.373 60.4114 317.015 59.8639 316.865 59.1438L318.099 58.8352C318.217 59.2908 318.439 59.6325 318.766 59.8602C319.097 60.088 319.528 60.2019 320.061 60.2019C320.667 60.2019 321.148 60.0733 321.505 59.8162C321.865 59.5553 322.045 59.243 322.045 58.8793C322.045 58.5854 321.942 58.3392 321.736 58.1408C321.531 57.9387 321.215 57.7881 320.788 57.6889L319.378 57.3582C318.602 57.1745 318.033 56.8898 317.669 56.504C317.309 56.1146 317.129 55.6278 317.129 55.0436C317.129 54.566 317.263 54.1435 317.531 53.7761C317.803 53.4087 318.172 53.1203 318.639 52.9108C319.109 52.7014 319.642 52.5967 320.237 52.5967C321.075 52.5967 321.733 52.7804 322.21 53.1478C322.692 53.5152 323.033 54.0002 323.235 54.6027Z" fill="#2B2D2D"/>
<rect x="32.7559" y="103.672" width="224.707" height="28.931" rx="14.4655" fill="#D8F9B8"/>
<rect x="43.8418" y="109.236" width="17.669" height="17.8039" rx="8.83449" fill="#2B2D2D"/>
<path d="M57.8795 115.242L51.2514 121.92C51.1937 121.979 51.1251 122.025 51.0496 122.057C50.9741 122.088 50.8931 122.104 50.8113 122.104C50.7295 122.104 50.6485 122.088 50.573 122.057C50.4975 122.025 50.4289 121.979 50.3712 121.92L47.4714 118.998C47.4136 118.94 47.3677 118.871 47.3364 118.795C47.3052 118.719 47.2891 118.637 47.2891 118.555C47.2891 118.472 47.3052 118.391 47.3364 118.315C47.3677 118.239 47.4136 118.17 47.4714 118.111C47.5292 118.053 47.5978 118.007 47.6733 117.975C47.7488 117.944 47.8298 117.928 47.9115 117.928C47.9933 117.928 48.0742 117.944 48.1497 117.975C48.2252 118.007 48.2939 118.053 48.3517 118.111L50.8118 120.59L57.0002 114.356C57.117 114.238 57.2753 114.172 57.4404 114.172C57.6055 114.172 57.7638 114.238 57.8805 114.356C57.9973 114.473 58.0629 114.633 58.0629 114.799C58.0629 114.965 57.9973 115.125 57.8805 115.243L57.8795 115.242Z" fill="white"/>
<path d="M75.2267 123.137H71.7437V111.85H75.381C76.4758 111.85 77.4127 112.076 78.1916 112.528C78.9705 112.976 79.5675 113.621 79.9827 114.462C80.3978 115.3 80.6054 116.303 80.6054 117.471C80.6054 118.647 80.396 119.659 79.9772 120.508C79.5583 121.353 78.9484 122.003 78.1475 122.459C77.3466 122.911 76.373 123.137 75.2267 123.137ZM73.1104 121.924H75.1385C76.0717 121.924 76.8451 121.744 77.4586 121.384C78.0722 121.024 78.5296 120.512 78.8309 119.847C79.1321 119.182 79.2828 118.39 79.2828 117.471C79.2828 116.56 79.134 115.776 78.8364 115.118C78.5388 114.457 78.0942 113.95 77.5027 113.597C76.9112 113.241 76.1746 113.063 75.2928 113.063H73.1104V121.924ZM86.1605 123.313C85.3964 123.313 84.7258 123.131 84.149 122.767C83.5759 122.404 83.1276 121.895 82.8043 121.241C82.4847 120.587 82.3249 119.823 82.3249 118.948C82.3249 118.067 82.4847 117.297 82.8043 116.639C83.1276 115.982 83.5759 115.471 84.149 115.107C84.7258 114.743 85.3964 114.562 86.1605 114.562C86.9247 114.562 87.5934 114.743 88.1666 115.107C88.7434 115.471 89.1916 115.982 89.5113 116.639C89.8346 117.297 89.9962 118.067 89.9962 118.948C89.9962 119.823 89.8346 120.587 89.5113 121.241C89.1916 121.895 88.7434 122.404 88.1666 122.767C87.5934 123.131 86.9247 123.313 86.1605 123.313ZM86.1605 122.145C86.741 122.145 87.2187 121.996 87.5934 121.698C87.9682 121.401 88.2456 121.009 88.4256 120.524C88.6056 120.04 88.6956 119.514 88.6956 118.948C88.6956 118.383 88.6056 117.855 88.4256 117.367C88.2456 116.878 87.9682 116.483 87.5934 116.182C87.2187 115.881 86.741 115.73 86.1605 115.73C85.5801 115.73 85.1024 115.881 84.7277 116.182C84.3529 116.483 84.0755 116.878 83.8955 117.367C83.7155 117.855 83.6255 118.383 83.6255 118.948C83.6255 119.514 83.7155 120.04 83.8955 120.524C84.0755 121.009 84.3529 121.401 84.7277 121.698C85.1024 121.996 85.5801 122.145 86.1605 122.145ZM95.4205 123.313C94.6269 123.313 93.9435 123.126 93.3704 122.751C92.7972 122.376 92.3563 121.86 92.0477 121.202C91.7391 120.545 91.5848 119.793 91.5848 118.948C91.5848 118.089 91.7428 117.33 92.0587 116.672C92.3784 116.011 92.8229 115.495 93.3924 115.124C93.9655 114.749 94.6342 114.562 95.3984 114.562C95.9936 114.562 96.53 114.672 97.0076 114.892C97.4853 115.113 97.8765 115.421 98.1815 115.818C98.4864 116.215 98.6756 116.678 98.7491 117.207H97.4485C97.3493 116.821 97.1289 116.479 96.7872 116.182C96.4492 115.881 95.9936 115.73 95.4205 115.73C94.9134 115.73 94.4689 115.862 94.0868 116.127C93.7084 116.388 93.4126 116.757 93.1995 117.234C92.9901 117.708 92.8854 118.265 92.8854 118.904C92.8854 119.558 92.9883 120.128 93.194 120.613C93.4034 121.098 93.6973 121.474 94.0758 121.742C94.4579 122.011 94.9061 122.145 95.4205 122.145C95.7585 122.145 96.0652 122.086 96.3408 121.968C96.6164 121.851 96.8497 121.682 97.0407 121.461C97.2317 121.241 97.3677 120.976 97.4485 120.668H98.7491C98.6756 121.167 98.4938 121.618 98.2035 122.018C97.917 122.415 97.5367 122.731 97.0627 122.966C96.5925 123.197 96.045 123.313 95.4205 123.313ZM105.985 119.676V114.672H107.286V123.137H105.985V121.704H105.897C105.699 122.134 105.39 122.499 104.971 122.801C104.552 123.098 104.023 123.247 103.384 123.247C102.855 123.247 102.385 123.131 101.973 122.9C101.562 122.665 101.238 122.312 101.003 121.842C100.768 121.368 100.65 120.771 100.65 120.051V114.672H101.951V119.962C101.951 120.58 102.124 121.072 102.469 121.439C102.818 121.807 103.263 121.99 103.803 121.99C104.126 121.99 104.455 121.908 104.789 121.742C105.127 121.577 105.41 121.324 105.638 120.982C105.869 120.64 105.985 120.205 105.985 119.676ZM109.668 123.137V114.672H110.924V115.994H111.035C111.211 115.543 111.496 115.192 111.889 114.942C112.282 114.688 112.754 114.562 113.305 114.562C113.864 114.562 114.328 114.688 114.699 114.942C115.074 115.192 115.366 115.543 115.576 115.994H115.664C115.881 115.557 116.206 115.21 116.639 114.953C117.073 114.692 117.593 114.562 118.199 114.562C118.956 114.562 119.575 114.799 120.056 115.272C120.537 115.743 120.778 116.476 120.778 117.471V123.137H119.477V117.471C119.477 116.847 119.307 116.4 118.965 116.132C118.623 115.864 118.221 115.73 117.758 115.73C117.163 115.73 116.702 115.91 116.375 116.27C116.048 116.626 115.884 117.078 115.884 117.626V123.137H114.562V117.339C114.562 116.858 114.405 116.47 114.093 116.176C113.781 115.879 113.379 115.73 112.886 115.73C112.548 115.73 112.232 115.82 111.938 116C111.648 116.18 111.413 116.43 111.233 116.749C111.057 117.065 110.968 117.431 110.968 117.846V123.137H109.668ZM126.705 123.313C125.89 123.313 125.186 123.133 124.594 122.773C124.007 122.409 123.553 121.902 123.233 121.252C122.917 120.598 122.759 119.837 122.759 118.97C122.759 118.103 122.917 117.339 123.233 116.678C123.553 116.013 123.997 115.495 124.567 115.124C125.14 114.749 125.809 114.562 126.573 114.562C127.014 114.562 127.449 114.635 127.879 114.782C128.309 114.929 128.7 115.168 129.053 115.498C129.406 115.825 129.687 116.259 129.896 116.799C130.106 117.339 130.21 118.004 130.21 118.794V119.345H123.685V118.221H128.888C128.888 117.743 128.792 117.317 128.601 116.942C128.414 116.568 128.145 116.272 127.796 116.055C127.451 115.838 127.043 115.73 126.573 115.73C126.055 115.73 125.607 115.858 125.228 116.116C124.853 116.369 124.565 116.7 124.363 117.108C124.161 117.515 124.06 117.953 124.06 118.419V119.169C124.06 119.808 124.17 120.35 124.391 120.795C124.615 121.235 124.925 121.572 125.322 121.803C125.719 122.031 126.18 122.145 126.705 122.145C127.047 122.145 127.356 122.097 127.631 122.001C127.91 121.902 128.151 121.755 128.353 121.561C128.555 121.362 128.711 121.116 128.821 120.822L130.078 121.175C129.946 121.601 129.723 121.976 129.411 122.299C129.099 122.619 128.713 122.869 128.254 123.049C127.795 123.225 127.278 123.313 126.705 123.313ZM133.489 118.045V123.137H132.189V114.672H133.445V115.994H133.555C133.754 115.565 134.055 115.219 134.459 114.958C134.863 114.694 135.385 114.562 136.024 114.562C136.598 114.562 137.099 114.679 137.529 114.914C137.959 115.146 138.293 115.498 138.532 115.972C138.771 116.443 138.89 117.038 138.89 117.758V123.137H137.589V117.846C137.589 117.181 137.417 116.663 137.071 116.292C136.726 115.917 136.252 115.73 135.65 115.73C135.234 115.73 134.863 115.82 134.536 116C134.213 116.18 133.958 116.443 133.77 116.788C133.583 117.133 133.489 117.552 133.489 118.045ZM144.948 114.672V115.774H140.561V114.672H144.948ZM141.84 112.644H143.14V120.712C143.14 121.079 143.194 121.355 143.3 121.539C143.411 121.719 143.55 121.84 143.719 121.902C143.892 121.961 144.074 121.99 144.265 121.99C144.408 121.99 144.526 121.983 144.617 121.968C144.709 121.95 144.783 121.935 144.838 121.924L145.102 123.093C145.014 123.126 144.891 123.159 144.733 123.192C144.575 123.229 144.375 123.247 144.132 123.247C143.765 123.247 143.405 123.168 143.052 123.01C142.703 122.852 142.413 122.611 142.182 122.288C141.954 121.965 141.84 121.557 141.84 121.065V112.644ZM151.446 111.85H153.077L156.913 121.219H157.045L160.88 111.85H162.512V123.137H161.233V114.562H161.123L157.596 123.137H156.361L152.834 114.562H152.724V123.137H151.446V111.85ZM167.567 123.335C167.03 123.335 166.544 123.234 166.106 123.032C165.669 122.826 165.322 122.531 165.065 122.145C164.808 121.755 164.679 121.285 164.679 120.734C164.679 120.249 164.774 119.856 164.966 119.555C165.157 119.25 165.412 119.011 165.732 118.838C166.051 118.665 166.404 118.537 166.79 118.452C167.179 118.364 167.57 118.294 167.964 118.243C168.478 118.177 168.895 118.127 169.215 118.094C169.538 118.057 169.773 117.997 169.92 117.912C170.071 117.828 170.146 117.681 170.146 117.471V117.427C170.146 116.884 169.997 116.461 169.7 116.16C169.406 115.858 168.959 115.708 168.36 115.708C167.739 115.708 167.253 115.844 166.9 116.116C166.547 116.388 166.299 116.678 166.156 116.986L164.921 116.546C165.142 116.031 165.436 115.631 165.803 115.344C166.174 115.054 166.578 114.852 167.016 114.738C167.457 114.62 167.89 114.562 168.316 114.562C168.588 114.562 168.9 114.595 169.253 114.661C169.61 114.723 169.953 114.854 170.284 115.052C170.618 115.25 170.895 115.55 171.116 115.95C171.336 116.351 171.447 116.887 171.447 117.56V123.137H170.146V121.99H170.08C169.992 122.174 169.845 122.371 169.639 122.58C169.433 122.79 169.159 122.968 168.818 123.115C168.476 123.262 168.059 123.335 167.567 123.335ZM167.765 122.167C168.28 122.167 168.713 122.066 169.066 121.864C169.422 121.662 169.69 121.401 169.87 121.081C170.054 120.761 170.146 120.425 170.146 120.073V118.882C170.091 118.948 169.97 119.009 169.782 119.064C169.598 119.116 169.385 119.161 169.143 119.202C168.904 119.239 168.671 119.272 168.443 119.301C168.219 119.327 168.037 119.349 167.897 119.367C167.559 119.411 167.243 119.483 166.95 119.582C166.659 119.678 166.424 119.823 166.244 120.017C166.068 120.209 165.98 120.469 165.98 120.8C165.98 121.252 166.147 121.594 166.481 121.825C166.819 122.053 167.247 122.167 167.765 122.167ZM175.121 118.045V123.137H173.82V114.672H175.077V115.994H175.187C175.386 115.565 175.687 115.219 176.091 114.958C176.495 114.694 177.017 114.562 177.656 114.562C178.229 114.562 178.731 114.679 179.161 114.914C179.59 115.146 179.925 115.498 180.164 115.972C180.402 116.443 180.522 117.038 180.522 117.758V123.137H179.221V117.846C179.221 117.181 179.049 116.663 178.703 116.292C178.358 115.917 177.884 115.73 177.281 115.73C176.866 115.73 176.495 115.82 176.168 116C175.845 116.18 175.589 116.443 175.402 116.788C175.215 117.133 175.121 117.552 175.121 118.045ZM185.389 123.335C184.853 123.335 184.366 123.234 183.929 123.032C183.492 122.826 183.145 122.531 182.887 122.145C182.63 121.755 182.502 121.285 182.502 120.734C182.502 120.249 182.597 119.856 182.788 119.555C182.979 119.25 183.235 119.011 183.554 118.838C183.874 118.665 184.227 118.537 184.612 118.452C185.002 118.364 185.393 118.294 185.786 118.243C186.301 118.177 186.718 118.127 187.037 118.094C187.361 118.057 187.596 117.997 187.743 117.912C187.893 117.828 187.969 117.681 187.969 117.471V117.427C187.969 116.884 187.82 116.461 187.522 116.16C187.228 115.858 186.782 115.708 186.183 115.708C185.562 115.708 185.075 115.844 184.723 116.116C184.37 116.388 184.122 116.678 183.979 116.986L182.744 116.546C182.965 116.031 183.258 115.631 183.626 115.344C183.997 115.054 184.401 114.852 184.838 114.738C185.279 114.62 185.713 114.562 186.139 114.562C186.411 114.562 186.723 114.595 187.076 114.661C187.432 114.723 187.776 114.854 188.106 115.052C188.441 115.25 188.718 115.55 188.939 115.95C189.159 116.351 189.269 116.887 189.269 117.56V123.137H187.969V121.99H187.902C187.814 122.174 187.667 122.371 187.462 122.58C187.256 122.79 186.982 122.968 186.64 123.115C186.299 123.262 185.882 123.335 185.389 123.335ZM185.588 122.167C186.102 122.167 186.536 122.066 186.888 121.864C187.245 121.662 187.513 121.401 187.693 121.081C187.877 120.761 187.969 120.425 187.969 120.073V118.882C187.913 118.948 187.792 119.009 187.605 119.064C187.421 119.116 187.208 119.161 186.966 119.202C186.727 119.239 186.493 119.272 186.266 119.301C186.042 119.327 185.86 119.349 185.72 119.367C185.382 119.411 185.066 119.483 184.772 119.582C184.482 119.678 184.247 119.823 184.067 120.017C183.89 120.209 183.802 120.469 183.802 120.8C183.802 121.252 183.969 121.594 184.304 121.825C184.642 122.053 185.07 122.167 185.588 122.167ZM195.06 126.487C194.432 126.487 193.892 126.407 193.44 126.245C192.988 126.087 192.611 125.878 192.31 125.617C192.012 125.36 191.775 125.084 191.599 124.79L192.635 124.063C192.753 124.217 192.901 124.393 193.081 124.592C193.261 124.794 193.508 124.968 193.82 125.115C194.136 125.266 194.549 125.341 195.06 125.341C195.743 125.341 196.307 125.176 196.752 124.845C197.196 124.514 197.419 123.996 197.419 123.291V121.572H197.308C197.213 121.726 197.077 121.917 196.901 122.145C196.728 122.369 196.478 122.569 196.151 122.745C195.828 122.918 195.391 123.004 194.839 123.004C194.156 123.004 193.543 122.843 192.999 122.519C192.459 122.196 192.031 121.726 191.715 121.109C191.402 120.491 191.246 119.742 191.246 118.86C191.246 117.993 191.399 117.238 191.704 116.595C192.009 115.948 192.433 115.449 192.977 115.096C193.52 114.74 194.149 114.562 194.862 114.562C195.413 114.562 195.85 114.653 196.173 114.837C196.5 115.017 196.75 115.223 196.923 115.454C197.099 115.682 197.235 115.87 197.33 116.016H197.463V114.672H198.719V123.379C198.719 124.107 198.554 124.698 198.223 125.154C197.896 125.613 197.455 125.949 196.901 126.162C196.349 126.379 195.736 126.487 195.06 126.487ZM195.016 121.836C195.538 121.836 195.978 121.717 196.338 121.478C196.699 121.239 196.972 120.896 197.16 120.447C197.347 119.999 197.441 119.463 197.441 118.838C197.441 118.228 197.349 117.69 197.165 117.223C196.981 116.757 196.71 116.391 196.349 116.127C195.989 115.862 195.545 115.73 195.016 115.73C194.465 115.73 194.005 115.87 193.638 116.149C193.274 116.428 193.001 116.803 192.817 117.273C192.637 117.743 192.547 118.265 192.547 118.838C192.547 119.426 192.639 119.946 192.822 120.398C193.01 120.846 193.285 121.199 193.649 121.456C194.016 121.709 194.472 121.836 195.016 121.836ZM204.649 123.313C203.833 123.313 203.13 123.133 202.538 122.773C201.951 122.409 201.497 121.902 201.177 121.252C200.861 120.598 200.703 119.837 200.703 118.97C200.703 118.103 200.861 117.339 201.177 116.678C201.497 116.013 201.941 115.495 202.511 115.124C203.084 114.749 203.753 114.562 204.517 114.562C204.958 114.562 205.393 114.635 205.823 114.782C206.253 114.929 206.644 115.168 206.997 115.498C207.349 115.825 207.631 116.259 207.84 116.799C208.049 117.339 208.154 118.004 208.154 118.794V119.345H201.629V118.221H206.831C206.831 117.743 206.736 117.317 206.545 116.942C206.358 116.568 206.089 116.272 205.74 116.055C205.395 115.838 204.987 115.73 204.517 115.73C203.999 115.73 203.551 115.858 203.172 116.116C202.797 116.369 202.509 116.7 202.307 117.108C202.105 117.515 202.004 117.953 202.004 118.419V119.169C202.004 119.808 202.114 120.35 202.334 120.795C202.559 121.235 202.869 121.572 203.266 121.803C203.663 122.031 204.124 122.145 204.649 122.145C204.991 122.145 205.299 122.097 205.575 122.001C205.854 121.902 206.095 121.755 206.297 121.561C206.499 121.362 206.655 121.116 206.765 120.822L208.022 121.175C207.89 121.601 207.667 121.976 207.355 122.299C207.043 122.619 206.657 122.869 206.198 123.049C205.738 123.225 205.222 123.313 204.649 123.313ZM210.133 123.137V114.672H211.389V115.994H211.499C211.676 115.543 211.96 115.192 212.354 114.942C212.747 114.688 213.219 114.562 213.77 114.562C214.328 114.562 214.793 114.688 215.164 114.942C215.539 115.192 215.831 115.543 216.04 115.994H216.129C216.345 115.557 216.67 115.21 217.104 114.953C217.538 114.692 218.057 114.562 218.664 114.562C219.42 114.562 220.04 114.799 220.521 115.272C221.002 115.743 221.243 116.476 221.243 117.471V123.137H219.942V117.471C219.942 116.847 219.771 116.4 219.43 116.132C219.088 115.864 218.686 115.73 218.223 115.73C217.628 115.73 217.166 115.91 216.839 116.27C216.513 116.626 216.349 117.078 216.349 117.626V123.137H215.026V117.339C215.026 116.858 214.87 116.47 214.558 116.176C214.246 115.879 213.843 115.73 213.351 115.73C213.013 115.73 212.697 115.82 212.403 116C212.113 116.18 211.878 116.43 211.698 116.749C211.521 117.065 211.433 117.431 211.433 117.846V123.137H210.133ZM227.17 123.313C226.354 123.313 225.651 123.133 225.059 122.773C224.471 122.409 224.018 121.902 223.698 121.252C223.382 120.598 223.224 119.837 223.224 118.97C223.224 118.103 223.382 117.339 223.698 116.678C224.018 116.013 224.462 115.495 225.032 115.124C225.605 114.749 226.273 114.562 227.038 114.562C227.479 114.562 227.914 114.635 228.344 114.782C228.774 114.929 229.165 115.168 229.518 115.498C229.87 115.825 230.151 116.259 230.361 116.799C230.57 117.339 230.675 118.004 230.675 118.794V119.345H224.15V118.221H229.352C229.352 117.743 229.257 117.317 229.066 116.942C228.878 116.568 228.61 116.272 228.261 116.055C227.916 115.838 227.508 115.73 227.038 115.73C226.52 115.73 226.071 115.858 225.693 116.116C225.318 116.369 225.03 116.7 224.828 117.108C224.626 117.515 224.525 117.953 224.525 118.419V119.169C224.525 119.808 224.635 120.35 224.855 120.795C225.079 121.235 225.39 121.572 225.787 121.803C226.183 122.031 226.645 122.145 227.17 122.145C227.512 122.145 227.82 122.097 228.096 122.001C228.375 121.902 228.616 121.755 228.818 121.561C229.02 121.362 229.176 121.116 229.286 120.822L230.543 121.175C230.41 121.601 230.188 121.976 229.876 122.299C229.564 122.619 229.178 122.869 228.719 123.049C228.259 123.225 227.743 123.313 227.17 123.313ZM233.954 118.045V123.137H232.653V114.672H233.91V115.994H234.02C234.219 115.565 234.52 115.219 234.924 114.958C235.328 114.694 235.85 114.562 236.489 114.562C237.062 114.562 237.564 114.679 237.994 114.914C238.423 115.146 238.758 115.498 238.997 115.972C239.235 116.443 239.355 117.038 239.355 117.758V123.137H238.054V117.846C238.054 117.181 237.882 116.663 237.536 116.292C237.191 115.917 236.717 115.73 236.114 115.73C235.699 115.73 235.328 115.82 235.001 116C234.678 116.18 234.422 116.443 234.235 116.788C234.048 117.133 233.954 117.552 233.954 118.045ZM245.413 114.672V115.774H241.026V114.672H245.413ZM242.305 112.644H243.605V120.712C243.605 121.079 243.658 121.355 243.765 121.539C243.875 121.719 244.015 121.84 244.184 121.902C244.357 121.961 244.538 121.99 244.729 121.99C244.873 121.99 244.99 121.983 245.082 121.968C245.174 121.95 245.247 121.935 245.303 121.924L245.567 123.093C245.479 123.126 245.356 123.159 245.198 123.192C245.04 123.229 244.84 123.247 244.597 123.247C244.23 123.247 243.87 123.168 243.517 123.01C243.168 122.852 242.878 122.611 242.646 122.288C242.418 121.965 242.305 121.557 242.305 121.065V112.644Z" fill="#2B2D2D"/>
<rect x="32.7559" y="141.471" width="235.707" height="28.931" rx="14.4655" fill="#D8F9B8"/>
<rect x="43.8418" y="147.035" width="17.669" height="17.8039" rx="8.83449" fill="#2B2D2D"/>
<path d="M57.8795 153.04L51.2514 159.719C51.1937 159.777 51.1251 159.824 51.0496 159.855C50.9741 159.887 50.8931 159.903 50.8113 159.903C50.7295 159.903 50.6485 159.887 50.573 159.855C50.4975 159.824 50.4289 159.777 50.3712 159.719L47.4714 156.797C47.4136 156.739 47.3677 156.67 47.3364 156.594C47.3052 156.518 47.2891 156.436 47.2891 156.354C47.2891 156.271 47.3052 156.19 47.3364 156.114C47.3677 156.038 47.4136 155.968 47.4714 155.91C47.5292 155.852 47.5978 155.806 47.6733 155.774C47.7488 155.743 47.8298 155.726 47.9115 155.726C47.9933 155.726 48.0742 155.743 48.1497 155.774C48.2252 155.806 48.2939 155.852 48.3517 155.91L50.8118 158.389L57.0002 152.154C57.117 152.037 57.2753 151.971 57.4404 151.971C57.6055 151.971 57.7638 152.037 57.8805 152.154C57.9973 152.272 58.0629 152.432 58.0629 152.598C58.0629 152.764 57.9973 152.924 57.8805 153.041L57.8795 153.04Z" fill="white"/>
<path d="M72.2066 149.649L75.5573 159.15H75.6896L79.0403 149.649H80.4732L76.3289 160.936H74.918L70.7737 149.649H72.2066ZM82.0548 160.936V152.471H83.3554V160.936H82.0548ZM82.7162 151.06C82.4626 151.06 82.244 150.973 82.0603 150.801C81.8803 150.628 81.7903 150.42 81.7903 150.178C81.7903 149.936 81.8803 149.728 82.0603 149.555C82.244 149.383 82.4626 149.296 82.7162 149.296C82.9697 149.296 83.1864 149.383 83.3665 149.555C83.5502 149.728 83.642 149.936 83.642 150.178C83.642 150.42 83.5502 150.628 83.3665 150.801C83.1864 150.973 82.9697 151.06 82.7162 151.06ZM88.934 161.112C88.2286 161.112 87.6058 160.934 87.0657 160.577C86.5257 160.217 86.1031 159.71 85.7982 159.056C85.4933 158.399 85.3408 157.622 85.3408 156.725C85.3408 155.836 85.4933 155.064 85.7982 154.41C86.1031 153.757 86.5275 153.251 87.0712 152.895C87.615 152.539 88.2433 152.36 88.956 152.36C89.5071 152.36 89.9425 152.452 90.2621 152.636C90.5854 152.816 90.8316 153.022 91.0006 153.253C91.1733 153.481 91.3074 153.668 91.4029 153.815H91.5131V149.649H92.8137V160.936H91.5572V159.635H91.4029C91.3074 159.789 91.1715 159.984 90.9951 160.219C90.8187 160.451 90.5671 160.658 90.2401 160.842C89.9131 161.022 89.4777 161.112 88.934 161.112ZM89.1103 159.944C89.632 159.944 90.0729 159.808 90.433 159.536C90.793 159.26 91.0667 158.88 91.2541 158.395C91.4415 157.906 91.5352 157.342 91.5352 156.703C91.5352 156.071 91.4433 155.518 91.2596 155.044C91.0759 154.567 90.8041 154.196 90.444 153.931C90.0839 153.663 89.6394 153.529 89.1103 153.529C88.5592 153.529 88.1 153.67 87.7326 153.953C87.3688 154.232 87.0951 154.613 86.9114 155.094C86.7314 155.571 86.6414 156.108 86.6414 156.703C86.6414 157.306 86.7332 157.853 86.9169 158.345C87.1043 158.834 87.3799 159.223 87.7436 159.514C88.111 159.8 88.5666 159.944 89.1103 159.944ZM98.9255 161.112C98.1098 161.112 97.4063 160.932 96.8147 160.572C96.2269 160.208 95.7732 159.701 95.4535 159.051C95.1376 158.397 94.9796 157.636 94.9796 156.769C94.9796 155.902 95.1376 155.138 95.4535 154.477C95.7732 153.812 96.2177 153.294 96.7872 152.923C97.3603 152.548 98.029 152.36 98.7932 152.36C99.2341 152.36 99.6695 152.434 100.099 152.581C100.529 152.728 100.92 152.967 101.273 153.297C101.626 153.624 101.907 154.058 102.116 154.598C102.326 155.138 102.43 155.803 102.43 156.593V157.144H95.9054V156.02H101.108C101.108 155.542 101.012 155.116 100.821 154.741C100.634 154.366 100.366 154.071 100.017 153.854C99.6713 153.637 99.2635 153.529 98.7932 153.529C98.2752 153.529 97.8269 153.657 97.4485 153.914C97.0738 154.168 96.7854 154.499 96.5833 154.906C96.3812 155.314 96.2802 155.752 96.2802 156.218V156.968C96.2802 157.607 96.3904 158.149 96.6108 158.593C96.835 159.034 97.1454 159.37 97.5422 159.602C97.939 159.83 98.4001 159.944 98.9255 159.944C99.2672 159.944 99.5758 159.896 99.8513 159.8C100.131 159.701 100.371 159.554 100.573 159.359C100.775 159.161 100.931 158.915 101.042 158.621L102.298 158.974C102.166 159.4 101.944 159.775 101.631 160.098C101.319 160.418 100.933 160.667 100.474 160.847C100.015 161.024 99.4986 161.112 98.9255 161.112ZM107.848 161.112C107.084 161.112 106.413 160.93 105.836 160.566C105.263 160.203 104.815 159.694 104.492 159.04C104.172 158.386 104.012 157.622 104.012 156.747C104.012 155.865 104.172 155.096 104.492 154.438C104.815 153.78 105.263 153.27 105.836 152.906C106.413 152.542 107.084 152.36 107.848 152.36C108.612 152.36 109.281 152.542 109.854 152.906C110.431 153.27 110.879 153.78 111.199 154.438C111.522 155.096 111.684 155.865 111.684 156.747C111.684 157.622 111.522 158.386 111.199 159.04C110.879 159.694 110.431 160.203 109.854 160.566C109.281 160.93 108.612 161.112 107.848 161.112ZM107.848 159.944C108.428 159.944 108.906 159.795 109.281 159.497C109.655 159.2 109.933 158.808 110.113 158.323C110.293 157.838 110.383 157.313 110.383 156.747C110.383 156.181 110.293 155.654 110.113 155.165C109.933 154.677 109.655 154.282 109.281 153.981C108.906 153.679 108.428 153.529 107.848 153.529C107.267 153.529 106.79 153.679 106.415 153.981C106.04 154.282 105.763 154.677 105.583 155.165C105.403 155.654 105.313 156.181 105.313 156.747C105.313 157.313 105.403 157.838 105.583 158.323C105.763 158.808 106.04 159.2 106.415 159.497C106.79 159.795 107.267 159.944 107.848 159.944ZM127.292 153.176H125.925C125.845 152.783 125.703 152.438 125.501 152.14C125.303 151.842 125.06 151.593 124.774 151.39C124.491 151.185 124.177 151.03 123.831 150.928C123.486 150.825 123.126 150.773 122.751 150.773C122.068 150.773 121.449 150.946 120.894 151.291C120.343 151.637 119.904 152.145 119.577 152.818C119.253 153.49 119.092 154.315 119.092 155.292C119.092 156.27 119.253 157.094 119.577 157.767C119.904 158.439 120.343 158.948 120.894 159.293C121.449 159.639 122.068 159.811 122.751 159.811C123.126 159.811 123.486 159.76 123.831 159.657C124.177 159.554 124.491 159.402 124.774 159.2C125.06 158.994 125.303 158.742 125.501 158.445C125.703 158.143 125.845 157.798 125.925 157.408H127.292C127.189 157.985 127.002 158.502 126.73 158.957C126.458 159.413 126.12 159.8 125.716 160.12C125.312 160.436 124.858 160.677 124.355 160.842C123.855 161.007 123.321 161.09 122.751 161.09C121.788 161.09 120.932 160.855 120.183 160.384C119.433 159.914 118.844 159.245 118.414 158.378C117.984 157.511 117.769 156.483 117.769 155.292C117.769 154.102 117.984 153.073 118.414 152.206C118.844 151.339 119.433 150.67 120.183 150.2C120.932 149.73 121.788 149.495 122.751 149.495C123.321 149.495 123.855 149.577 124.355 149.743C124.858 149.908 125.312 150.15 125.716 150.47C126.12 150.786 126.458 151.172 126.73 151.627C127.002 152.079 127.189 152.596 127.292 153.176ZM132.763 161.112C131.999 161.112 131.328 160.93 130.752 160.566C130.179 160.203 129.73 159.694 129.407 159.04C129.087 158.386 128.928 157.622 128.928 156.747C128.928 155.865 129.087 155.096 129.407 154.438C129.73 153.78 130.179 153.27 130.752 152.906C131.328 152.542 131.999 152.36 132.763 152.36C133.527 152.36 134.196 152.542 134.769 152.906C135.346 153.27 135.794 153.78 136.114 154.438C136.437 155.096 136.599 155.865 136.599 156.747C136.599 157.622 136.437 158.386 136.114 159.04C135.794 159.694 135.346 160.203 134.769 160.566C134.196 160.93 133.527 161.112 132.763 161.112ZM132.763 159.944C133.344 159.944 133.821 159.795 134.196 159.497C134.571 159.2 134.848 158.808 135.028 158.323C135.208 157.838 135.298 157.313 135.298 156.747C135.298 156.181 135.208 155.654 135.028 155.165C134.848 154.677 134.571 154.282 134.196 153.981C133.821 153.679 133.344 153.529 132.763 153.529C132.183 153.529 131.705 153.679 131.33 153.981C130.956 154.282 130.678 154.677 130.498 155.165C130.318 155.654 130.228 156.181 130.228 156.747C130.228 157.313 130.318 157.838 130.498 158.323C130.678 158.808 130.956 159.2 131.33 159.497C131.705 159.795 132.183 159.944 132.763 159.944ZM139.885 155.843V160.936H138.584V152.471H139.841V153.793H139.951C140.149 153.363 140.451 153.018 140.855 152.757C141.259 152.493 141.781 152.36 142.42 152.36C142.993 152.36 143.495 152.478 143.924 152.713C144.354 152.945 144.689 153.297 144.927 153.771C145.166 154.241 145.286 154.837 145.286 155.557V160.936H143.985V155.645C143.985 154.98 143.812 154.462 143.467 154.091C143.122 153.716 142.648 153.529 142.045 153.529C141.63 153.529 141.259 153.619 140.932 153.799C140.609 153.979 140.353 154.241 140.166 154.587C139.979 154.932 139.885 155.351 139.885 155.843ZM151.432 152.471V153.573H146.869V152.471H151.432ZM148.235 160.936V151.302C148.235 150.817 148.349 150.413 148.577 150.09C148.805 149.767 149.101 149.524 149.464 149.362C149.828 149.201 150.212 149.12 150.616 149.12C150.936 149.12 151.197 149.146 151.399 149.197C151.601 149.248 151.751 149.296 151.851 149.34L151.476 150.465C151.41 150.443 151.318 150.415 151.2 150.382C151.086 150.349 150.936 150.332 150.748 150.332C150.319 150.332 150.008 150.441 149.817 150.657C149.63 150.874 149.536 151.192 149.536 151.611V160.936H148.235ZM156.455 161.112C155.639 161.112 154.936 160.932 154.344 160.572C153.757 160.208 153.303 159.701 152.983 159.051C152.667 158.397 152.509 157.636 152.509 156.769C152.509 155.902 152.667 155.138 152.983 154.477C153.303 153.812 153.747 153.294 154.317 152.923C154.89 152.548 155.559 152.36 156.323 152.36C156.764 152.36 157.199 152.434 157.629 152.581C158.059 152.728 158.45 152.967 158.803 153.297C159.156 153.624 159.437 154.058 159.646 154.598C159.855 155.138 159.96 155.803 159.96 156.593V157.144H153.435V156.02H158.638C158.638 155.542 158.542 155.116 158.351 154.741C158.164 154.366 157.895 154.071 157.546 153.854C157.201 153.637 156.793 153.529 156.323 153.529C155.805 153.529 155.357 153.657 154.978 153.914C154.603 154.168 154.315 154.499 154.113 154.906C153.911 155.314 153.81 155.752 153.81 156.218V156.968C153.81 157.607 153.92 158.149 154.14 158.593C154.365 159.034 154.675 159.37 155.072 159.602C155.469 159.83 155.93 159.944 156.455 159.944C156.797 159.944 157.105 159.896 157.381 159.8C157.66 159.701 157.901 159.554 158.103 159.359C158.305 159.161 158.461 158.915 158.571 158.621L159.828 158.974C159.696 159.4 159.473 159.775 159.161 160.098C158.849 160.418 158.463 160.667 158.004 160.847C157.544 161.024 157.028 161.112 156.455 161.112ZM161.939 160.936V152.471H163.195V153.749H163.283C163.438 153.33 163.717 152.99 164.121 152.73C164.525 152.469 164.981 152.338 165.488 152.338C165.583 152.338 165.703 152.34 165.846 152.344C165.989 152.348 166.098 152.353 166.171 152.36V153.683C166.127 153.672 166.026 153.655 165.868 153.633C165.714 153.608 165.55 153.595 165.377 153.595C164.966 153.595 164.599 153.681 164.275 153.854C163.956 154.023 163.702 154.258 163.515 154.559C163.331 154.857 163.239 155.197 163.239 155.579V160.936H161.939ZM171.004 161.112C170.189 161.112 169.485 160.932 168.894 160.572C168.306 160.208 167.852 159.701 167.532 159.051C167.216 158.397 167.058 157.636 167.058 156.769C167.058 155.902 167.216 155.138 167.532 154.477C167.852 153.812 168.296 153.294 168.866 152.923C169.439 152.548 170.108 152.36 170.872 152.36C171.313 152.36 171.748 152.434 172.178 152.581C172.608 152.728 172.999 152.967 173.352 153.297C173.705 153.624 173.986 154.058 174.195 154.598C174.405 155.138 174.509 155.803 174.509 156.593V157.144H167.984V156.02H173.187C173.187 155.542 173.091 155.116 172.9 154.741C172.713 154.366 172.444 154.071 172.095 153.854C171.75 153.637 171.342 153.529 170.872 153.529C170.354 153.529 169.906 153.657 169.527 153.914C169.153 154.168 168.864 154.499 168.662 154.906C168.46 155.314 168.359 155.752 168.359 156.218V156.968C168.359 157.607 168.469 158.149 168.69 158.593C168.914 159.034 169.224 159.37 169.621 159.602C170.018 159.83 170.479 159.944 171.004 159.944C171.346 159.944 171.655 159.896 171.93 159.8C172.209 159.701 172.45 159.554 172.652 159.359C172.854 159.161 173.01 158.915 173.12 158.621L174.377 158.974C174.245 159.4 174.022 159.775 173.71 160.098C173.398 160.418 173.012 160.667 172.553 160.847C172.094 161.024 171.577 161.112 171.004 161.112ZM177.788 155.843V160.936H176.488V152.471H177.744V153.793H177.854C178.053 153.363 178.354 153.018 178.758 152.757C179.162 152.493 179.684 152.36 180.323 152.36C180.897 152.36 181.398 152.478 181.828 152.713C182.258 152.945 182.592 153.297 182.831 153.771C183.07 154.241 183.189 154.837 183.189 155.557V160.936H181.889V155.645C181.889 154.98 181.716 154.462 181.371 154.091C181.025 153.716 180.551 153.529 179.949 153.529C179.533 153.529 179.162 153.619 178.835 153.799C178.512 153.979 178.257 154.241 178.069 154.587C177.882 154.932 177.788 155.351 177.788 155.843ZM189.005 161.112C188.211 161.112 187.528 160.925 186.955 160.55C186.381 160.175 185.941 159.659 185.632 159.001C185.323 158.344 185.169 157.592 185.169 156.747C185.169 155.887 185.327 155.129 185.643 154.471C185.963 153.81 186.407 153.294 186.977 152.923C187.55 152.548 188.218 152.36 188.983 152.36C189.578 152.36 190.114 152.471 190.592 152.691C191.069 152.911 191.461 153.22 191.766 153.617C192.071 154.014 192.26 154.477 192.333 155.006H191.033C190.934 154.62 190.713 154.278 190.371 153.981C190.033 153.679 189.578 153.529 189.005 153.529C188.498 153.529 188.053 153.661 187.671 153.926C187.293 154.186 186.997 154.556 186.784 155.033C186.574 155.507 186.47 156.064 186.47 156.703C186.47 157.357 186.572 157.927 186.778 158.411C186.988 158.896 187.282 159.273 187.66 159.541C188.042 159.809 188.49 159.944 189.005 159.944C189.343 159.944 189.649 159.885 189.925 159.767C190.201 159.65 190.434 159.481 190.625 159.26C190.816 159.04 190.952 158.775 191.033 158.467H192.333C192.26 158.966 192.078 159.416 191.788 159.817C191.501 160.214 191.121 160.53 190.647 160.765C190.177 160.996 189.629 161.112 189.005 161.112ZM194.235 160.936V152.471H195.535V160.936H194.235ZM194.896 151.06C194.642 151.06 194.424 150.973 194.24 150.801C194.06 150.628 193.97 150.42 193.97 150.178C193.97 149.936 194.06 149.728 194.24 149.555C194.424 149.383 194.642 149.296 194.896 149.296C195.149 149.296 195.366 149.383 195.546 149.555C195.73 149.728 195.822 149.936 195.822 150.178C195.822 150.42 195.73 150.628 195.546 150.801C195.366 150.973 195.149 151.06 194.896 151.06ZM199.218 155.843V160.936H197.917V152.471H199.174V153.793H199.284C199.483 153.363 199.784 153.018 200.188 152.757C200.592 152.493 201.114 152.36 201.753 152.36C202.326 152.36 202.828 152.478 203.258 152.713C203.687 152.945 204.022 153.297 204.261 153.771C204.499 154.241 204.619 154.837 204.619 155.557V160.936H203.318V155.645C203.318 154.98 203.146 154.462 202.8 154.091C202.455 153.716 201.981 153.529 201.378 153.529C200.963 153.529 200.592 153.619 200.265 153.799C199.942 153.979 199.686 154.241 199.499 154.587C199.312 154.932 199.218 155.351 199.218 155.843ZM210.412 164.286C209.784 164.286 209.244 164.205 208.792 164.044C208.34 163.886 207.964 163.676 207.662 163.416C207.365 163.158 207.128 162.883 206.951 162.589L207.987 161.861C208.105 162.016 208.254 162.192 208.434 162.39C208.614 162.593 208.86 162.767 209.172 162.914C209.488 163.065 209.902 163.14 210.412 163.14C211.096 163.14 211.66 162.975 212.104 162.644C212.549 162.313 212.771 161.795 212.771 161.09V159.37H212.661C212.565 159.525 212.429 159.716 212.253 159.944C212.08 160.168 211.83 160.368 211.503 160.544C211.18 160.717 210.743 160.803 210.192 160.803C209.508 160.803 208.895 160.642 208.351 160.318C207.811 159.995 207.383 159.525 207.067 158.907C206.755 158.29 206.599 157.541 206.599 156.659C206.599 155.792 206.751 155.037 207.056 154.394C207.361 153.747 207.785 153.248 208.329 152.895C208.873 152.539 209.501 152.36 210.214 152.36C210.765 152.36 211.202 152.452 211.525 152.636C211.852 152.816 212.102 153.022 212.275 153.253C212.451 153.481 212.587 153.668 212.683 153.815H212.815V152.471H214.072V161.178C214.072 161.905 213.906 162.497 213.576 162.953C213.249 163.412 212.808 163.748 212.253 163.961C211.702 164.178 211.088 164.286 210.412 164.286ZM210.368 159.635C210.89 159.635 211.331 159.516 211.691 159.277C212.051 159.038 212.325 158.694 212.512 158.246C212.699 157.798 212.793 157.262 212.793 156.637C212.793 156.027 212.701 155.489 212.517 155.022C212.334 154.556 212.062 154.19 211.702 153.926C211.342 153.661 210.897 153.529 210.368 153.529C209.817 153.529 209.358 153.668 208.99 153.948C208.627 154.227 208.353 154.602 208.169 155.072C207.989 155.542 207.899 156.064 207.899 156.637C207.899 157.225 207.991 157.745 208.175 158.197C208.362 158.645 208.638 158.998 209.001 159.255C209.369 159.508 209.824 159.635 210.368 159.635ZM227.166 152.471C227.1 151.912 226.831 151.479 226.361 151.17C225.891 150.861 225.314 150.707 224.631 150.707C224.131 150.707 223.694 150.788 223.319 150.95C222.948 151.111 222.658 151.333 222.448 151.616C222.243 151.899 222.14 152.221 222.14 152.581C222.14 152.882 222.211 153.141 222.355 153.358C222.502 153.571 222.689 153.749 222.917 153.892C223.145 154.032 223.383 154.148 223.633 154.24C223.883 154.328 224.113 154.399 224.322 154.455L225.468 154.763C225.762 154.84 226.089 154.947 226.449 155.083C226.813 155.219 227.16 155.404 227.491 155.639C227.825 155.871 228.101 156.169 228.318 156.532C228.534 156.896 228.643 157.342 228.643 157.871C228.643 158.481 228.483 159.032 228.163 159.525C227.847 160.017 227.384 160.408 226.775 160.699C226.168 160.989 225.432 161.134 224.565 161.134C223.756 161.134 223.056 161.004 222.465 160.743C221.877 160.482 221.414 160.118 221.076 159.651C220.742 159.185 220.553 158.643 220.508 158.026H221.919C221.956 158.452 222.099 158.805 222.349 159.084C222.603 159.359 222.922 159.565 223.308 159.701C223.698 159.833 224.116 159.899 224.565 159.899C225.086 159.899 225.555 159.815 225.97 159.646C226.385 159.473 226.714 159.234 226.956 158.93C227.199 158.621 227.32 158.261 227.32 157.849C227.32 157.475 227.215 157.17 227.006 156.935C226.797 156.699 226.521 156.508 226.179 156.361C225.838 156.214 225.468 156.086 225.072 155.976L223.683 155.579C222.801 155.325 222.103 154.963 221.589 154.493C221.074 154.023 220.817 153.407 220.817 152.647C220.817 152.015 220.988 151.464 221.33 150.994C221.675 150.52 222.138 150.152 222.718 149.891C223.303 149.627 223.955 149.495 224.675 149.495C225.402 149.495 226.049 149.625 226.615 149.886C227.18 150.143 227.629 150.496 227.959 150.944C228.294 151.392 228.47 151.901 228.488 152.471H227.166ZM236.048 157.475V152.471H237.349V160.936H236.048V159.503H235.96C235.762 159.933 235.453 160.298 235.034 160.599C234.615 160.897 234.086 161.046 233.447 161.046C232.918 161.046 232.448 160.93 232.036 160.699C231.625 160.463 231.301 160.111 231.066 159.64C230.831 159.167 230.714 158.569 230.714 157.849V152.471H232.014V157.761C232.014 158.378 232.187 158.871 232.532 159.238C232.881 159.606 233.326 159.789 233.866 159.789C234.189 159.789 234.518 159.707 234.852 159.541C235.19 159.376 235.473 159.122 235.701 158.781C235.932 158.439 236.048 158.004 236.048 157.475ZM239.731 160.936V152.471H241.032V160.936H239.731ZM240.392 151.06C240.139 151.06 239.92 150.973 239.736 150.801C239.556 150.628 239.466 150.42 239.466 150.178C239.466 149.936 239.556 149.728 239.736 149.555C239.92 149.383 240.139 149.296 240.392 149.296C240.646 149.296 240.863 149.383 241.043 149.555C241.226 149.728 241.318 149.936 241.318 150.178C241.318 150.42 241.226 150.628 241.043 150.801C240.863 150.973 240.646 151.06 240.392 151.06ZM247.095 152.471V153.573H242.708V152.471H247.095ZM243.987 150.443H245.287V158.511C245.287 158.878 245.341 159.154 245.447 159.337C245.557 159.517 245.697 159.639 245.866 159.701C246.039 159.76 246.221 159.789 246.412 159.789C246.555 159.789 246.673 159.782 246.764 159.767C246.856 159.749 246.93 159.734 246.985 159.723L247.249 160.891C247.161 160.925 247.038 160.958 246.88 160.991C246.722 161.027 246.522 161.046 246.279 161.046C245.912 161.046 245.552 160.967 245.199 160.809C244.85 160.651 244.56 160.41 244.329 160.087C244.101 159.764 243.987 159.356 243.987 158.863V150.443ZM252.51 161.112C251.694 161.112 250.99 160.932 250.399 160.572C249.811 160.208 249.357 159.701 249.038 159.051C248.722 158.397 248.564 157.636 248.564 156.769C248.564 155.902 248.722 155.138 249.038 154.477C249.357 153.812 249.802 153.294 250.371 152.923C250.945 152.548 251.613 152.36 252.377 152.36C252.818 152.36 253.254 152.434 253.683 152.581C254.113 152.728 254.505 152.967 254.857 153.297C255.21 153.624 255.491 154.058 255.701 154.598C255.91 155.138 256.015 155.803 256.015 156.593V157.144H249.49V156.02H254.692C254.692 155.542 254.596 155.116 254.405 154.741C254.218 154.366 253.95 154.071 253.601 153.854C253.255 153.637 252.848 153.529 252.377 153.529C251.859 153.529 251.411 153.657 251.033 153.914C250.658 154.168 250.37 154.499 250.167 154.906C249.965 155.314 249.864 155.752 249.864 156.218V156.968C249.864 157.607 249.975 158.149 250.195 158.593C250.419 159.034 250.73 159.37 251.126 159.602C251.523 159.83 251.984 159.944 252.51 159.944C252.851 159.944 253.16 159.896 253.435 159.8C253.715 159.701 253.955 159.554 254.157 159.359C254.36 159.161 254.516 158.915 254.626 158.621L255.882 158.974C255.75 159.4 255.528 159.775 255.216 160.098C254.903 160.418 254.517 160.667 254.058 160.847C253.599 161.024 253.083 161.112 252.51 161.112Z" fill="#2B2D2D"/>
<rect x="32.7559" y="179.27" width="238.528" height="30.0437" rx="15.0219" fill="#D8F9B8"/>
<rect x="43.8047" y="185.389" width="17.669" height="17.8039" rx="8.83449" fill="#2B2D2D"/>
<path d="M57.7682 191.468L51.1401 198.147C51.0824 198.205 51.0138 198.251 50.9383 198.283C50.8627 198.315 50.7818 198.331 50.7 198.331C50.6182 198.331 50.5372 198.315 50.4617 198.283C50.3861 198.251 50.3176 198.205 50.2598 198.147L47.36 195.225C47.3022 195.167 47.2564 195.097 47.2251 195.021C47.1938 194.945 47.1777 194.864 47.1777 194.781C47.1777 194.699 47.1938 194.617 47.2251 194.541C47.2564 194.465 47.3022 194.396 47.36 194.338C47.4178 194.28 47.4865 194.233 47.562 194.202C47.6375 194.17 47.7185 194.154 47.8002 194.154C47.8819 194.154 47.9629 194.17 48.0384 194.202C48.1139 194.233 48.1825 194.28 48.2403 194.338L50.7005 196.817L56.8889 190.582C57.0057 190.465 57.164 190.398 57.3291 190.398C57.4942 190.398 57.6525 190.465 57.7692 190.582C57.8859 190.7 57.9515 190.859 57.9515 191.026C57.9515 191.192 57.8859 191.352 57.7692 191.469L57.7682 191.468Z" fill="white"/>
<path d="M72.1324 188.323L75.4831 197.824H75.6154L78.9661 188.323H80.3989L76.2546 199.609H74.8438L70.6995 188.323H72.1324ZM81.9806 199.609V191.144H83.2812V199.609H81.9806ZM82.6419 189.734C82.3884 189.734 82.1698 189.647 81.9861 189.475C81.8061 189.302 81.7161 189.094 81.7161 188.852C81.7161 188.609 81.8061 188.402 81.9861 188.229C82.1698 188.056 82.3884 187.97 82.6419 187.97C82.8954 187.97 83.1122 188.056 83.2922 188.229C83.4759 188.402 83.5678 188.609 83.5678 188.852C83.5678 189.094 83.4759 189.302 83.2922 189.475C83.1122 189.647 82.8954 189.734 82.6419 189.734ZM85.6634 199.609V191.144H86.9199V192.423H87.008C87.1624 192.004 87.4416 191.664 87.8457 191.403C88.2499 191.143 88.7054 191.012 89.2125 191.012C89.308 191.012 89.4274 191.014 89.5707 191.018C89.714 191.021 89.8223 191.027 89.8958 191.034V192.357C89.8517 192.346 89.7507 192.329 89.5927 192.307C89.4384 192.282 89.2749 192.269 89.1022 192.269C88.6908 192.269 88.3233 192.355 88 192.528C87.6804 192.697 87.4269 192.932 87.2395 193.233C87.0558 193.531 86.964 193.871 86.964 194.253V199.609H85.6634ZM95.6493 191.144V192.247H91.2626V191.144H95.6493ZM92.5411 189.116H93.8417V197.185C93.8417 197.552 93.895 197.827 94.0015 198.011C94.1118 198.191 94.2514 198.312 94.4204 198.375C94.5931 198.434 94.7749 198.463 94.966 198.463C95.1093 198.463 95.2268 198.456 95.3187 198.441C95.4105 198.423 95.484 198.408 95.5391 198.397L95.8037 199.565C95.7155 199.598 95.5924 199.631 95.4344 199.664C95.2764 199.701 95.0762 199.72 94.8337 199.72C94.4663 199.72 94.1063 199.641 93.7536 199.483C93.4045 199.325 93.1143 199.084 92.8828 198.761C92.655 198.437 92.5411 198.03 92.5411 197.537V189.116ZM102.94 196.148V191.144H104.241V199.609H102.94V198.177H102.852C102.654 198.606 102.345 198.972 101.926 199.273C101.508 199.571 100.979 199.72 100.339 199.72C99.8102 199.72 99.3399 199.604 98.9284 199.372C98.5169 199.137 98.1936 198.785 97.9585 198.314C97.7233 197.84 97.6058 197.243 97.6058 196.523V191.144H98.9064V196.435C98.9064 197.052 99.079 197.545 99.4244 197.912C99.7734 198.279 100.218 198.463 100.758 198.463C101.081 198.463 101.41 198.38 101.745 198.215C102.083 198.05 102.365 197.796 102.593 197.455C102.825 197.113 102.94 196.678 102.94 196.148ZM109.114 199.808C108.578 199.808 108.091 199.707 107.654 199.505C107.217 199.299 106.869 199.003 106.612 198.617C106.355 198.228 106.226 197.758 106.226 197.207C106.226 196.722 106.322 196.328 106.513 196.027C106.704 195.722 106.959 195.483 107.279 195.311C107.599 195.138 107.951 195.01 108.337 194.925C108.727 194.837 109.118 194.767 109.511 194.716C110.025 194.649 110.442 194.6 110.762 194.567C111.085 194.53 111.32 194.469 111.467 194.385C111.618 194.3 111.693 194.153 111.693 193.944V193.9C111.693 193.356 111.545 192.934 111.247 192.632C110.953 192.331 110.507 192.181 109.908 192.181C109.287 192.181 108.8 192.316 108.447 192.588C108.095 192.86 107.847 193.15 107.703 193.459L106.469 193.018C106.689 192.504 106.983 192.103 107.351 191.817C107.722 191.527 108.126 191.324 108.563 191.211C109.004 191.093 109.437 191.034 109.864 191.034C110.136 191.034 110.448 191.067 110.801 191.133C111.157 191.196 111.5 191.326 111.831 191.525C112.165 191.723 112.443 192.023 112.663 192.423C112.884 192.823 112.994 193.36 112.994 194.032V199.609H111.693V198.463H111.627C111.539 198.647 111.392 198.843 111.186 199.053C110.981 199.262 110.707 199.44 110.365 199.587C110.023 199.734 109.606 199.808 109.114 199.808ZM109.313 198.639C109.827 198.639 110.26 198.538 110.613 198.336C110.97 198.134 111.238 197.873 111.418 197.554C111.601 197.234 111.693 196.898 111.693 196.545V195.355C111.638 195.421 111.517 195.482 111.33 195.537C111.146 195.588 110.933 195.634 110.69 195.674C110.452 195.711 110.218 195.744 109.99 195.774C109.766 195.799 109.584 195.821 109.445 195.84C109.107 195.884 108.791 195.956 108.497 196.055C108.207 196.15 107.972 196.295 107.792 196.49C107.615 196.681 107.527 196.942 107.527 197.273C107.527 197.725 107.694 198.066 108.028 198.298C108.367 198.526 108.795 198.639 109.313 198.639ZM116.668 188.323V199.609H115.368V188.323H116.668ZM124.716 194.517V199.609H123.415V188.323H124.716V192.467H124.826C125.025 192.03 125.322 191.683 125.719 191.425C126.119 191.165 126.652 191.034 127.317 191.034C127.894 191.034 128.399 191.15 128.833 191.381C129.266 191.609 129.602 191.96 129.841 192.434C130.084 192.904 130.205 193.503 130.205 194.231V199.609H128.904V194.319C128.904 193.646 128.73 193.127 128.381 192.759C128.035 192.388 127.556 192.203 126.942 192.203C126.516 192.203 126.134 192.293 125.796 192.473C125.462 192.653 125.197 192.915 125.002 193.261C124.811 193.606 124.716 194.025 124.716 194.517ZM136.133 199.786C135.318 199.786 134.614 199.606 134.023 199.246C133.435 198.882 132.981 198.375 132.661 197.725C132.345 197.071 132.187 196.31 132.187 195.443C132.187 194.576 132.345 193.812 132.661 193.15C132.981 192.485 133.426 191.967 133.995 191.596C134.568 191.222 135.237 191.034 136.001 191.034C136.442 191.034 136.877 191.108 137.307 191.255C137.737 191.402 138.128 191.64 138.481 191.971C138.834 192.298 139.115 192.732 139.324 193.272C139.534 193.812 139.638 194.477 139.638 195.267V195.818H133.113V194.694H138.316C138.316 194.216 138.22 193.79 138.029 193.415C137.842 193.04 137.574 192.744 137.225 192.528C136.879 192.311 136.471 192.203 136.001 192.203C135.483 192.203 135.035 192.331 134.656 192.588C134.282 192.842 133.993 193.172 133.791 193.58C133.589 193.988 133.488 194.425 133.488 194.892V195.641C133.488 196.281 133.598 196.823 133.819 197.267C134.043 197.708 134.353 198.044 134.75 198.276C135.147 198.503 135.608 198.617 136.133 198.617C136.475 198.617 136.784 198.57 137.059 198.474C137.338 198.375 137.579 198.228 137.781 198.033C137.983 197.835 138.139 197.589 138.25 197.295L139.506 197.647C139.374 198.074 139.152 198.448 138.839 198.772C138.527 199.091 138.141 199.341 137.682 199.521C137.223 199.698 136.707 199.786 136.133 199.786ZM144.108 199.808C143.571 199.808 143.085 199.707 142.647 199.505C142.21 199.299 141.863 199.003 141.606 198.617C141.349 198.228 141.22 197.758 141.22 197.207C141.22 196.722 141.316 196.328 141.507 196.027C141.698 195.722 141.953 195.483 142.273 195.311C142.592 195.138 142.945 195.01 143.331 194.925C143.72 194.837 144.112 194.767 144.505 194.716C145.019 194.649 145.436 194.6 145.756 194.567C146.079 194.53 146.314 194.469 146.461 194.385C146.612 194.3 146.687 194.153 146.687 193.944V193.9C146.687 193.356 146.538 192.934 146.241 192.632C145.947 192.331 145.5 192.181 144.901 192.181C144.281 192.181 143.794 192.316 143.441 192.588C143.088 192.86 142.84 193.15 142.697 193.459L141.463 193.018C141.683 192.504 141.977 192.103 142.344 191.817C142.715 191.527 143.12 191.324 143.557 191.211C143.998 191.093 144.431 191.034 144.857 191.034C145.129 191.034 145.442 191.067 145.794 191.133C146.151 191.196 146.494 191.326 146.825 191.525C147.159 191.723 147.437 192.023 147.657 192.423C147.877 192.823 147.988 193.36 147.988 194.032V199.609H146.687V198.463H146.621C146.533 198.647 146.386 198.843 146.18 199.053C145.974 199.262 145.701 199.44 145.359 199.587C145.017 199.734 144.6 199.808 144.108 199.808ZM144.306 198.639C144.821 198.639 145.254 198.538 145.607 198.336C145.963 198.134 146.231 197.873 146.411 197.554C146.595 197.234 146.687 196.898 146.687 196.545V195.355C146.632 195.421 146.511 195.482 146.323 195.537C146.14 195.588 145.926 195.634 145.684 195.674C145.445 195.711 145.212 195.744 144.984 195.774C144.76 195.799 144.578 195.821 144.439 195.84C144.1 195.884 143.785 195.956 143.491 196.055C143.2 196.15 142.965 196.295 142.785 196.49C142.609 196.681 142.521 196.942 142.521 197.273C142.521 197.725 142.688 198.066 143.022 198.298C143.36 198.526 143.788 198.639 144.306 198.639ZM150.361 199.609V191.144H151.618V192.423H151.706C151.86 192.004 152.14 191.664 152.544 191.403C152.948 191.143 153.404 191.012 153.911 191.012C154.006 191.012 154.126 191.014 154.269 191.018C154.412 191.021 154.52 191.027 154.594 191.034V192.357C154.55 192.346 154.449 192.329 154.291 192.307C154.137 192.282 153.973 192.269 153.8 192.269C153.389 192.269 153.021 192.355 152.698 192.528C152.379 192.697 152.125 192.932 151.938 193.233C151.754 193.531 151.662 193.871 151.662 194.253V199.609H150.361ZM156.136 199.609V191.144H157.436V199.609H156.136ZM156.797 189.734C156.543 189.734 156.325 189.647 156.141 189.475C155.961 189.302 155.871 189.094 155.871 188.852C155.871 188.609 155.961 188.402 156.141 188.229C156.325 188.056 156.543 187.97 156.797 187.97C157.05 187.97 157.267 188.056 157.447 188.229C157.631 188.402 157.723 188.609 157.723 188.852C157.723 189.094 157.631 189.302 157.447 189.475C157.267 189.647 157.05 189.734 156.797 189.734ZM161.119 194.517V199.609H159.818V191.144H161.075V192.467H161.185C161.384 192.037 161.685 191.692 162.089 191.431C162.493 191.166 163.015 191.034 163.654 191.034C164.227 191.034 164.729 191.152 165.159 191.387C165.588 191.618 165.923 191.971 166.162 192.445C166.4 192.915 166.52 193.511 166.52 194.231V199.609H165.219V194.319C165.219 193.654 165.047 193.136 164.701 192.765C164.356 192.39 163.882 192.203 163.279 192.203C162.864 192.203 162.493 192.293 162.166 192.473C161.843 192.653 161.587 192.915 161.4 193.261C161.213 193.606 161.119 194.025 161.119 194.517ZM172.313 202.96C171.685 202.96 171.145 202.879 170.693 202.718C170.241 202.56 169.865 202.35 169.563 202.089C169.266 201.832 169.029 201.557 168.852 201.263L169.888 200.535C170.006 200.69 170.155 200.866 170.335 201.064C170.515 201.266 170.761 201.441 171.073 201.588C171.389 201.738 171.803 201.814 172.313 201.814C172.997 201.814 173.561 201.648 174.005 201.318C174.45 200.987 174.672 200.469 174.672 199.764V198.044H174.562C174.466 198.199 174.33 198.39 174.154 198.617C173.981 198.842 173.731 199.042 173.404 199.218C173.081 199.391 172.644 199.477 172.093 199.477C171.409 199.477 170.796 199.315 170.252 198.992C169.712 198.669 169.284 198.199 168.968 197.581C168.656 196.964 168.5 196.215 168.5 195.333C168.5 194.466 168.652 193.711 168.957 193.068C169.262 192.421 169.686 191.921 170.23 191.569C170.774 191.212 171.402 191.034 172.115 191.034C172.666 191.034 173.103 191.126 173.427 191.31C173.754 191.49 174.003 191.696 174.176 191.927C174.352 192.155 174.488 192.342 174.584 192.489H174.716V191.144H175.973V199.852C175.973 200.579 175.807 201.171 175.477 201.626C175.15 202.086 174.709 202.422 174.154 202.635C173.603 202.852 172.989 202.96 172.313 202.96ZM172.269 198.309C172.791 198.309 173.232 198.189 173.592 197.951C173.952 197.712 174.226 197.368 174.413 196.92C174.6 196.472 174.694 195.935 174.694 195.311C174.694 194.701 174.602 194.163 174.419 193.696C174.235 193.229 173.963 192.864 173.603 192.599C173.243 192.335 172.798 192.203 172.269 192.203C171.718 192.203 171.259 192.342 170.891 192.621C170.528 192.901 170.254 193.275 170.07 193.746C169.89 194.216 169.8 194.738 169.8 195.311C169.8 195.899 169.892 196.418 170.076 196.87C170.263 197.319 170.539 197.671 170.902 197.929C171.27 198.182 171.725 198.309 172.269 198.309ZM184.349 193.04L183.181 193.371C183.108 193.176 182.999 192.987 182.856 192.803C182.716 192.616 182.525 192.462 182.283 192.34C182.04 192.219 181.73 192.158 181.351 192.158C180.833 192.158 180.402 192.278 180.056 192.517C179.715 192.752 179.544 193.051 179.544 193.415C179.544 193.738 179.661 193.994 179.896 194.181C180.132 194.368 180.499 194.525 180.999 194.649L182.255 194.958C183.012 195.142 183.576 195.423 183.947 195.801C184.318 196.176 184.504 196.659 184.504 197.251C184.504 197.736 184.364 198.169 184.085 198.551C183.809 198.933 183.424 199.235 182.928 199.455C182.432 199.676 181.855 199.786 181.197 199.786C180.334 199.786 179.619 199.598 179.053 199.224C178.487 198.849 178.129 198.301 177.979 197.581L179.213 197.273C179.331 197.728 179.553 198.07 179.88 198.298C180.211 198.526 180.642 198.639 181.175 198.639C181.781 198.639 182.263 198.511 182.619 198.254C182.979 197.993 183.159 197.681 183.159 197.317C183.159 197.023 183.056 196.777 182.85 196.578C182.645 196.376 182.329 196.226 181.902 196.126L180.492 195.796C179.716 195.612 179.147 195.327 178.783 194.942C178.423 194.552 178.243 194.065 178.243 193.481C178.243 193.003 178.377 192.581 178.645 192.214C178.917 191.846 179.287 191.558 179.753 191.348C180.223 191.139 180.756 191.034 181.351 191.034C182.189 191.034 182.847 191.218 183.324 191.585C183.806 191.953 184.147 192.438 184.349 193.04ZM194.265 199.786C193.472 199.786 192.788 199.598 192.215 199.224C191.642 198.849 191.201 198.333 190.892 197.675C190.584 197.017 190.429 196.266 190.429 195.421C190.429 194.561 190.587 193.803 190.903 193.145C191.223 192.484 191.668 191.967 192.237 191.596C192.81 191.222 193.479 191.034 194.243 191.034C194.838 191.034 195.375 191.144 195.852 191.365C196.33 191.585 196.721 191.894 197.026 192.291C197.331 192.688 197.52 193.15 197.594 193.68H196.293C196.194 193.294 195.974 192.952 195.632 192.654C195.294 192.353 194.838 192.203 194.265 192.203C193.758 192.203 193.314 192.335 192.931 192.599C192.553 192.86 192.257 193.229 192.044 193.707C191.835 194.181 191.73 194.738 191.73 195.377C191.73 196.031 191.833 196.6 192.039 197.085C192.248 197.57 192.542 197.947 192.92 198.215C193.303 198.483 193.751 198.617 194.265 198.617C194.603 198.617 194.91 198.559 195.185 198.441C195.461 198.323 195.694 198.154 195.885 197.934C196.076 197.714 196.212 197.449 196.293 197.14H197.594C197.52 197.64 197.338 198.09 197.048 198.491C196.762 198.887 196.381 199.203 195.907 199.439C195.437 199.67 194.89 199.786 194.265 199.786ZM201.986 199.808C201.45 199.808 200.963 199.707 200.526 199.505C200.088 199.299 199.741 199.003 199.484 198.617C199.227 198.228 199.098 197.758 199.098 197.207C199.098 196.722 199.194 196.328 199.385 196.027C199.576 195.722 199.831 195.483 200.151 195.311C200.471 195.138 200.823 195.01 201.209 194.925C201.598 194.837 201.99 194.767 202.383 194.716C202.897 194.649 203.314 194.6 203.634 194.567C203.957 194.53 204.192 194.469 204.339 194.385C204.49 194.3 204.565 194.153 204.565 193.944V193.9C204.565 193.356 204.416 192.934 204.119 192.632C203.825 192.331 203.379 192.181 202.78 192.181C202.159 192.181 201.672 192.316 201.319 192.588C200.967 192.86 200.719 193.15 200.575 193.459L199.341 193.018C199.561 192.504 199.855 192.103 200.223 191.817C200.594 191.527 200.998 191.324 201.435 191.211C201.876 191.093 202.309 191.034 202.736 191.034C203.007 191.034 203.32 191.067 203.672 191.133C204.029 191.196 204.372 191.326 204.703 191.525C205.037 191.723 205.315 192.023 205.535 192.423C205.756 192.823 205.866 193.36 205.866 194.032V199.609H204.565V198.463H204.499C204.411 198.647 204.264 198.843 204.058 199.053C203.852 199.262 203.579 199.44 203.237 199.587C202.895 199.734 202.478 199.808 201.986 199.808ZM202.184 198.639C202.699 198.639 203.132 198.538 203.485 198.336C203.841 198.134 204.11 197.873 204.29 197.554C204.473 197.234 204.565 196.898 204.565 196.545V195.355C204.51 195.421 204.389 195.482 204.202 195.537C204.018 195.588 203.805 195.634 203.562 195.674C203.323 195.711 203.09 195.744 202.862 195.774C202.638 195.799 202.456 195.821 202.317 195.84C201.979 195.884 201.663 195.956 201.369 196.055C201.079 196.15 200.843 196.295 200.663 196.49C200.487 196.681 200.399 196.942 200.399 197.273C200.399 197.725 200.566 198.066 200.9 198.298C201.238 198.526 201.666 198.639 202.184 198.639ZM208.24 202.784V191.144H209.496V192.489H209.651C209.746 192.342 209.878 192.155 210.047 191.927C210.22 191.696 210.466 191.49 210.786 191.31C211.109 191.126 211.546 191.034 212.097 191.034C212.81 191.034 213.438 191.212 213.982 191.569C214.526 191.925 214.95 192.43 215.255 193.084C215.56 193.738 215.713 194.51 215.713 195.399C215.713 196.295 215.56 197.072 215.255 197.73C214.95 198.384 214.528 198.891 213.988 199.251C213.448 199.608 212.825 199.786 212.119 199.786C211.576 199.786 211.14 199.696 210.813 199.516C210.486 199.332 210.235 199.124 210.058 198.893C209.882 198.658 209.746 198.463 209.651 198.309H209.54V202.784H208.24ZM209.518 195.377C209.518 196.016 209.612 196.58 209.799 197.069C209.987 197.554 210.26 197.934 210.62 198.21C210.981 198.481 211.421 198.617 211.943 198.617C212.487 198.617 212.941 198.474 213.304 198.188C213.672 197.897 213.947 197.508 214.131 197.019C214.318 196.527 214.412 195.979 214.412 195.377C214.412 194.782 214.32 194.245 214.137 193.768C213.956 193.286 213.683 192.906 213.315 192.627C212.952 192.344 212.494 192.203 211.943 192.203C211.414 192.203 210.97 192.337 210.609 192.605C210.249 192.869 209.978 193.24 209.794 193.718C209.61 194.192 209.518 194.745 209.518 195.377ZM220.188 199.808C219.651 199.808 219.164 199.707 218.727 199.505C218.29 199.299 217.943 199.003 217.686 198.617C217.428 198.228 217.3 197.758 217.3 197.207C217.3 196.722 217.395 196.328 217.586 196.027C217.777 195.722 218.033 195.483 218.352 195.311C218.672 195.138 219.025 195.01 219.411 194.925C219.8 194.837 220.191 194.767 220.584 194.716C221.099 194.649 221.516 194.6 221.835 194.567C222.159 194.53 222.394 194.469 222.541 194.385C222.691 194.3 222.767 194.153 222.767 193.944V193.9C222.767 193.356 222.618 192.934 222.32 192.632C222.026 192.331 221.58 192.181 220.981 192.181C220.36 192.181 219.873 192.316 219.521 192.588C219.168 192.86 218.92 193.15 218.777 193.459L217.542 193.018C217.763 192.504 218.057 192.103 218.424 191.817C218.795 191.527 219.199 191.324 219.637 191.211C220.077 191.093 220.511 191.034 220.937 191.034C221.209 191.034 221.521 191.067 221.874 191.133C222.23 191.196 222.574 191.326 222.905 191.525C223.239 191.723 223.516 192.023 223.737 192.423C223.957 192.823 224.067 193.36 224.067 194.032V199.609H222.767V198.463H222.701C222.612 198.647 222.466 198.843 222.26 199.053C222.054 199.262 221.78 199.44 221.439 199.587C221.097 199.734 220.68 199.808 220.188 199.808ZM220.386 198.639C220.9 198.639 221.334 198.538 221.687 198.336C222.043 198.134 222.311 197.873 222.491 197.554C222.675 197.234 222.767 196.898 222.767 196.545V195.355C222.712 195.421 222.59 195.482 222.403 195.537C222.219 195.588 222.006 195.634 221.764 195.674C221.525 195.711 221.292 195.744 221.064 195.774C220.84 195.799 220.658 195.821 220.518 195.84C220.18 195.884 219.864 195.956 219.57 196.055C219.28 196.15 219.045 196.295 218.865 196.49C218.689 196.681 218.6 196.942 218.6 197.273C218.6 197.725 218.768 198.066 219.102 198.298C219.44 198.526 219.868 198.639 220.386 198.639ZM226.618 199.609V188.323H227.918V192.489H228.028C228.124 192.342 228.256 192.155 228.425 191.927C228.598 191.696 228.844 191.49 229.164 191.31C229.487 191.126 229.924 191.034 230.475 191.034C231.188 191.034 231.816 191.212 232.36 191.569C232.904 191.925 233.328 192.43 233.633 193.084C233.938 193.738 234.091 194.51 234.091 195.399C234.091 196.295 233.938 197.072 233.633 197.73C233.328 198.384 232.906 198.891 232.366 199.251C231.826 199.608 231.203 199.786 230.497 199.786C229.954 199.786 229.518 199.696 229.191 199.516C228.864 199.332 228.613 199.124 228.436 198.893C228.26 198.658 228.124 198.463 228.028 198.309H227.874V199.609H226.618ZM227.896 195.377C227.896 196.016 227.99 196.58 228.177 197.069C228.365 197.554 228.638 197.934 228.998 198.21C229.358 198.481 229.799 198.617 230.321 198.617C230.865 198.617 231.319 198.474 231.682 198.188C232.05 197.897 232.325 197.508 232.509 197.019C232.696 196.527 232.79 195.979 232.79 195.377C232.79 194.782 232.698 194.245 232.514 193.768C232.334 193.286 232.061 192.906 231.693 192.627C231.33 192.344 230.872 192.203 230.321 192.203C229.792 192.203 229.347 192.337 228.987 192.605C228.627 192.869 228.355 193.24 228.172 193.718C227.988 194.192 227.896 194.745 227.896 195.377ZM236.08 199.609V191.144H237.381V199.609H236.08ZM236.741 189.734C236.488 189.734 236.269 189.647 236.086 189.475C235.906 189.302 235.816 189.094 235.816 188.852C235.816 188.609 235.906 188.402 236.086 188.229C236.269 188.056 236.488 187.97 236.741 187.97C236.995 187.97 237.212 188.056 237.392 188.229C237.575 188.402 237.667 188.609 237.667 188.852C237.667 189.094 237.575 189.302 237.392 189.475C237.212 189.647 236.995 189.734 236.741 189.734ZM241.063 188.323V199.609H239.763V188.323H241.063ZM243.446 199.609V191.144H244.746V199.609H243.446ZM244.107 189.734C243.853 189.734 243.635 189.647 243.451 189.475C243.271 189.302 243.181 189.094 243.181 188.852C243.181 188.609 243.271 188.402 243.451 188.229C243.635 188.056 243.853 187.97 244.107 187.97C244.36 187.97 244.577 188.056 244.757 188.229C244.941 188.402 245.033 188.609 245.033 188.852C245.033 189.094 244.941 189.302 244.757 189.475C244.577 189.647 244.36 189.734 244.107 189.734ZM250.81 191.144V192.247H246.423V191.144H250.81ZM247.701 189.116H249.002V197.185C249.002 197.552 249.055 197.827 249.162 198.011C249.272 198.191 249.412 198.312 249.581 198.375C249.753 198.434 249.935 198.463 250.126 198.463C250.27 198.463 250.387 198.456 250.479 198.441C250.571 198.423 250.644 198.408 250.699 198.397L250.964 199.565C250.876 199.598 250.753 199.631 250.595 199.664C250.437 199.701 250.237 199.72 249.994 199.72C249.627 199.72 249.267 199.641 248.914 199.483C248.565 199.325 248.275 199.084 248.043 198.761C247.815 198.437 247.701 198.03 247.701 197.537V189.116ZM253.604 202.784C253.383 202.784 253.187 202.765 253.014 202.729C252.841 202.696 252.722 202.662 252.656 202.629L252.987 201.483C253.302 201.564 253.582 201.593 253.824 201.571C254.067 201.549 254.282 201.441 254.469 201.246C254.66 201.055 254.835 200.745 254.993 200.315L255.235 199.653L252.105 191.144H253.516L255.852 197.89H255.94L258.277 191.144H259.688L256.095 200.844C255.933 201.281 255.733 201.643 255.494 201.93C255.255 202.22 254.978 202.435 254.662 202.574C254.35 202.714 253.997 202.784 253.604 202.784Z" fill="#2B2D2D"/>
</svg>
