<svg width="403" height="223" viewBox="0 0 403 223" fill="none" xmlns="http://www.w3.org/2000/svg">
<rect x="0.916016" y="0.285156" width="401.963" height="222.546" rx="26.6041" fill="#E7E6E4" fill-opacity="0.5"/>
<rect x="27.5195" y="29.8613" width="348.755" height="46.7347" rx="23.3673" fill="white"/>
<path d="M48.2791 48.4976C48.2791 48.7177 48.2143 48.9329 48.093 49.1159C47.9716 49.2989 47.7991 49.4415 47.5973 49.5257C47.3955 49.61 47.1735 49.632 46.9593 49.5891C46.745 49.5461 46.5482 49.4401 46.3938 49.2845C46.2393 49.1289 46.1341 48.9306 46.0915 48.7147C46.0489 48.4988 46.0708 48.2751 46.1544 48.0717C46.238 47.8684 46.3795 47.6946 46.5611 47.5723C46.7428 47.45 46.9563 47.3848 47.1747 47.3848C47.4676 47.3848 47.7485 47.502 47.9556 47.7107C48.1628 47.9194 48.2791 48.2025 48.2791 48.4976ZM52.1445 49.6104C52.3629 49.6104 52.5765 49.5452 52.7581 49.4229C52.9397 49.3006 53.0813 49.1268 53.1648 48.9235C53.2484 48.7201 53.2703 48.4964 53.2277 48.2805C53.1851 48.0646 53.0799 47.8663 52.9254 47.7107C52.771 47.5551 52.5742 47.4491 52.36 47.4061C52.1457 47.3632 51.9237 47.3852 51.7219 47.4695C51.5201 47.5537 51.3476 47.6963 51.2262 47.8793C51.1049 48.0623 51.0401 48.2775 51.0401 48.4976C51.0401 48.7927 51.1565 49.0758 51.3636 49.2845C51.5707 49.4932 51.8516 49.6104 52.1445 49.6104ZM47.1747 52.1143C46.9563 52.1143 46.7428 52.1796 46.5611 52.3019C46.3795 52.4241 46.238 52.5979 46.1544 52.8013C46.0708 53.0046 46.0489 53.2284 46.0915 53.4443C46.1341 53.6601 46.2393 53.8584 46.3938 54.014C46.5482 54.1697 46.745 54.2757 46.9593 54.3186C47.1735 54.3615 47.3955 54.3395 47.5973 54.2553C47.7991 54.1711 47.9716 54.0284 48.093 53.8454C48.2143 53.6624 48.2791 53.4473 48.2791 53.2272C48.2791 52.932 48.1628 52.649 47.9556 52.4403C47.7485 52.2316 47.4676 52.1143 47.1747 52.1143ZM52.1445 52.1143C51.9261 52.1143 51.7126 52.1796 51.5309 52.3019C51.3493 52.4241 51.2078 52.5979 51.1242 52.8013C51.0406 53.0046 51.0187 53.2284 51.0613 53.4443C51.1039 53.6601 51.2091 53.8584 51.3636 54.014C51.518 54.1697 51.7148 54.2757 51.9291 54.3186C52.1433 54.3615 52.3653 54.3395 52.5671 54.2553C52.7689 54.1711 52.9414 54.0284 53.0628 53.8454C53.1841 53.6624 53.2489 53.4473 53.2489 53.2272C53.2489 52.932 53.1326 52.649 52.9254 52.4403C52.7183 52.2316 52.4374 52.1143 52.1445 52.1143ZM47.1747 56.8439C46.9563 56.8439 46.7428 56.9091 46.5611 57.0314C46.3795 57.1537 46.238 57.3275 46.1544 57.5308C46.0708 57.7342 46.0489 57.9579 46.0915 58.1738C46.1341 58.3897 46.2393 58.588 46.3938 58.7436C46.5482 58.8992 46.745 59.0052 46.9593 59.0482C47.1735 59.0911 47.3955 59.0691 47.5973 58.9848C47.7991 58.9006 47.9716 58.758 48.093 58.575C48.2143 58.392 48.2791 58.1768 48.2791 57.9567C48.2791 57.6616 48.1628 57.3785 47.9556 57.1698C47.7485 56.9611 47.4676 56.8439 47.1747 56.8439ZM52.1445 56.8439C51.9261 56.8439 51.7126 56.9091 51.5309 57.0314C51.3493 57.1537 51.2078 57.3275 51.1242 57.5308C51.0406 57.7342 51.0187 57.9579 51.0613 58.1738C51.1039 58.3897 51.2091 58.588 51.3636 58.7436C51.518 58.8992 51.7148 59.0052 51.9291 59.0482C52.1433 59.0911 52.3653 59.0691 52.5671 58.9848C52.7689 58.9006 52.9414 58.758 53.0628 58.575C53.1841 58.392 53.2489 58.1768 53.2489 57.9567C53.2489 57.6616 53.1326 57.3785 52.9254 57.1698C52.7183 56.9611 52.4374 56.8439 52.1445 56.8439Z" fill="#2B2D2D"/>
<path d="M82.0835 47.6642C82.0403 46.2242 81.8811 45.3646 81.2903 44.7702C80.4804 43.9551 79.1773 43.9551 76.5712 43.9551H72.8874C70.2812 43.9551 68.9781 43.9551 68.1692 44.7702C67.3594 45.5843 67.3594 46.8964 67.3594 49.5188V56.9371C67.3594 59.5595 67.3594 60.8716 68.1692 61.6858C68.979 62.4999 70.2812 62.5009 72.8874 62.5009H76.5721C79.1773 62.5009 80.4804 62.5009 81.2903 61.6858C81.8811 61.0914 82.0403 60.2327 82.0835 58.7917" stroke="#2B2D2D" stroke-width="1.66276" stroke-linecap="round" stroke-linejoin="round"/>
<path d="M84.1496 52.9905L85.2328 51.8991C85.4813 51.6487 85.6064 51.5226 85.6727 51.3872C85.7344 51.2602 85.7665 51.1207 85.7665 50.9792C85.7665 50.8378 85.7344 50.6982 85.6727 50.5712C85.6064 50.4358 85.4813 50.3097 85.2328 50.0593C84.9843 49.809 84.8592 49.6829 84.7248 49.6161C84.5988 49.5539 84.4602 49.5215 84.3199 49.5215C84.1795 49.5215 84.041 49.5539 83.915 49.6161C83.7806 49.6829 83.6564 49.809 83.407 50.0593L82.3238 51.1508M84.1496 52.9905L79.3036 57.8736L76.5649 58.7935L77.4778 56.0339L82.3238 51.1508M84.1496 52.9905L82.3238 51.1508M70.123 59.7208H71.0433L72.1936 57.4025L73.344 59.7208H74.2642M71.0433 47.666H78.4054M71.0433 51.3752H76.5649" stroke="#2B2D2D" stroke-width="1.66276" stroke-linecap="round" stroke-linejoin="round"/>
<g clip-path="url(#clip0_3528_5195)">
<path d="M213.474 58.2285H212.041L216.186 46.9419H217.596L221.741 58.2285H220.308L216.935 48.7275H216.847L213.474 58.2285ZM214.003 53.8197H219.779V55.0321H214.003V53.8197ZM224.623 53.1363V58.2285H223.322V49.7636H224.579V51.0862H224.689C224.888 50.6564 225.189 50.311 225.593 50.0501C225.997 49.7856 226.519 49.6534 227.158 49.6534C227.731 49.6534 228.233 49.7709 228.663 50.0061C229.092 50.2375 229.427 50.5902 229.666 51.0642C229.904 51.5344 230.024 52.1296 230.024 52.8497V58.2285H228.723V52.9379C228.723 52.2729 228.551 51.7549 228.205 51.3838C227.86 51.0091 227.386 50.8217 226.783 50.8217C226.368 50.8217 225.997 50.9117 225.67 51.0917C225.347 51.2718 225.091 51.5344 224.904 51.8798C224.717 52.2252 224.623 52.644 224.623 53.1363ZM234.891 58.4269C234.355 58.4269 233.868 58.3259 233.431 58.1238C232.994 57.9181 232.647 57.6223 232.389 57.2365C232.132 56.8471 232.004 56.3768 232.004 55.8257C232.004 55.3407 232.099 54.9476 232.29 54.6463C232.481 54.3414 232.737 54.1026 233.056 53.9299C233.376 53.7572 233.729 53.6286 234.114 53.5441C234.504 53.456 234.895 53.3862 235.288 53.3347C235.803 53.2686 236.22 53.219 236.539 53.1859C236.863 53.1492 237.098 53.0886 237.245 53.0041C237.395 52.9196 237.471 52.7726 237.471 52.5632V52.5191C237.471 51.9753 237.322 51.5528 237.024 51.2515C236.73 50.9503 236.284 50.7996 235.685 50.7996C235.064 50.7996 234.577 50.9356 234.225 51.2075C233.872 51.4793 233.624 51.7696 233.481 52.0782L232.246 51.6373C232.467 51.123 232.761 50.7225 233.128 50.4359C233.499 50.1457 233.903 49.9436 234.34 49.8297C234.781 49.7121 235.215 49.6534 235.641 49.6534C235.913 49.6534 236.225 49.6864 236.578 49.7525C236.934 49.815 237.278 49.9454 237.608 50.1438C237.943 50.3422 238.22 50.6417 238.441 51.0421C238.661 51.4426 238.771 51.979 238.771 52.6514V58.2285H237.471V57.0822H237.404C237.316 57.2659 237.169 57.4625 236.964 57.6719C236.758 57.8813 236.484 58.0595 236.142 58.2065C235.801 58.3534 235.384 58.4269 234.891 58.4269ZM235.09 57.2586C235.604 57.2586 236.038 57.1575 236.39 56.9555C236.747 56.7534 237.015 56.4925 237.195 56.1729C237.379 55.8533 237.471 55.5171 237.471 55.1644V53.974C237.415 54.0401 237.294 54.1008 237.107 54.1559C236.923 54.2073 236.71 54.2532 236.468 54.2936C236.229 54.3304 235.995 54.3634 235.768 54.3928C235.544 54.4186 235.362 54.4406 235.222 54.459C234.884 54.5031 234.568 54.5747 234.274 54.6739C233.984 54.7694 233.749 54.9145 233.569 55.1093C233.392 55.3003 233.304 55.5612 233.304 55.8918C233.304 56.3437 233.471 56.6854 233.806 56.9169C234.144 57.1447 234.572 57.2586 235.09 57.2586ZM242.446 46.9419V58.2285H241.145V46.9419H242.446ZM245.666 61.4029C245.445 61.4029 245.249 61.3845 245.076 61.3478C244.903 61.3147 244.784 61.2816 244.718 61.2486L245.048 60.1023C245.364 60.1831 245.643 60.2125 245.886 60.1904C246.128 60.1684 246.343 60.06 246.531 59.8653C246.722 59.6742 246.896 59.3638 247.054 58.9339L247.297 58.2726L244.167 49.7636H245.577L247.914 56.5091H248.002L250.339 49.7636H251.75L248.156 59.463C247.995 59.9002 247.795 60.2621 247.556 60.5487C247.317 60.8389 247.04 61.0538 246.724 61.1935C246.411 61.3331 246.059 61.4029 245.666 61.4029ZM253.224 58.2285V57.2365L258.03 51.0642V50.976H253.378V49.7636H259.705V50.7996L255.032 56.9279V57.0161H259.859V58.2285H253.224ZM265.169 58.4049C264.353 58.4049 263.65 58.2248 263.058 57.8648C262.47 57.5011 262.017 56.994 261.697 56.3437C261.381 55.6898 261.223 54.9292 261.223 54.0622C261.223 53.1951 261.381 52.4309 261.697 51.7696C262.017 51.1046 262.461 50.5866 263.031 50.2155C263.604 49.8407 264.273 49.6534 265.037 49.6534C265.478 49.6534 265.913 49.7268 266.343 49.8738C266.773 50.0208 267.164 50.2596 267.517 50.5902C267.869 50.9172 268.151 51.3507 268.36 51.8908C268.569 52.4309 268.674 53.0959 268.674 53.8858V54.4369H262.149V53.3127H267.351C267.351 52.8351 267.256 52.4089 267.065 52.0341C266.877 51.6594 266.609 51.3636 266.26 51.1468C265.915 50.9301 265.507 50.8217 265.037 50.8217C264.519 50.8217 264.071 50.9503 263.692 51.2075C263.317 51.461 263.029 51.7916 262.827 52.1994C262.625 52.6073 262.524 53.0445 262.524 53.5111V54.2606C262.524 54.8999 262.634 55.4418 262.854 55.8863C263.079 56.3272 263.389 56.6634 263.786 56.8948C264.183 57.1226 264.644 57.2365 265.169 57.2365C265.511 57.2365 265.819 57.1888 266.095 57.0932C266.374 56.994 266.615 56.8471 266.817 56.6524C267.019 56.454 267.175 56.2078 267.285 55.9139L268.542 56.2666C268.41 56.6928 268.187 57.0675 267.875 57.3908C267.563 57.7105 267.177 57.9603 266.718 58.1403C266.258 58.3167 265.742 58.4049 265.169 58.4049ZM284.276 50.469H282.909C282.828 50.0759 282.687 49.7305 282.485 49.4329C282.286 49.1353 282.044 48.8855 281.757 48.6834C281.474 48.4777 281.16 48.3234 280.815 48.2205C280.47 48.1176 280.109 48.0662 279.735 48.0662C279.051 48.0662 278.432 48.2389 277.877 48.5842C277.326 48.9296 276.887 49.4384 276.56 50.1108C276.237 50.7831 276.075 51.6079 276.075 52.5852C276.075 53.5625 276.237 54.3873 276.56 55.0597C276.887 55.732 277.326 56.2409 277.877 56.5862C278.432 56.9316 279.051 57.1043 279.735 57.1043C280.109 57.1043 280.47 57.0528 280.815 56.95C281.16 56.8471 281.474 56.6946 281.757 56.4925C282.044 56.2868 282.286 56.0351 282.485 55.7375C282.687 55.4363 282.828 55.0909 282.909 54.7015H284.276C284.173 55.2783 283.986 55.7945 283.714 56.2501C283.442 56.7056 283.104 57.0932 282.7 57.4129C282.295 57.7288 281.842 57.9695 281.338 58.1348C280.839 58.3002 280.304 58.3828 279.735 58.3828C278.772 58.3828 277.916 58.1477 277.167 57.6774C276.417 57.2071 275.827 56.5385 275.398 55.6714C274.968 54.8043 274.753 53.7756 274.753 52.5852C274.753 51.3948 274.968 50.3661 275.398 49.499C275.827 48.632 276.417 47.9633 277.167 47.493C277.916 47.0228 278.772 46.7876 279.735 46.7876C280.304 46.7876 280.839 46.8703 281.338 47.0356C281.842 47.2009 282.295 47.4434 282.7 47.7631C283.104 48.079 283.442 48.4648 283.714 48.9204C283.986 49.3723 284.173 49.8885 284.276 50.469ZM289.747 58.4049C288.983 58.4049 288.312 58.223 287.735 57.8593C287.162 57.4955 286.714 56.9867 286.391 56.3327C286.071 55.6787 285.911 54.9145 285.911 54.0401C285.911 53.1584 286.071 52.3887 286.391 51.731C286.714 51.0734 287.162 50.5627 287.735 50.1989C288.312 49.8352 288.983 49.6534 289.747 49.6534C290.511 49.6534 291.18 49.8352 291.753 50.1989C292.33 50.5627 292.778 51.0734 293.098 51.731C293.421 52.3887 293.583 53.1584 293.583 54.0401C293.583 54.9145 293.421 55.6787 293.098 56.3327C292.778 56.9867 292.33 57.4955 291.753 57.8593C291.18 58.223 290.511 58.4049 289.747 58.4049ZM289.747 57.2365C290.327 57.2365 290.805 57.0877 291.18 56.7901C291.554 56.4925 291.832 56.1013 292.012 55.6163C292.192 55.1313 292.282 54.6059 292.282 54.0401C292.282 53.4743 292.192 52.9471 292.012 52.4585C291.832 51.9698 291.554 51.5749 291.18 51.2736C290.805 50.9723 290.327 50.8217 289.747 50.8217C289.166 50.8217 288.689 50.9723 288.314 51.2736C287.939 51.5749 287.662 51.9698 287.482 52.4585C287.302 52.9471 287.212 53.4743 287.212 54.0401C287.212 54.6059 287.302 55.1313 287.482 55.6163C287.662 56.1013 287.939 56.4925 288.314 56.7901C288.689 57.0877 289.166 57.2365 289.747 57.2365ZM296.868 53.1363V58.2285H295.568V49.7636H296.824V51.0862H296.935C297.133 50.6564 297.434 50.311 297.838 50.0501C298.243 49.7856 298.764 49.6534 299.404 49.6534C299.977 49.6534 300.478 49.7709 300.908 50.0061C301.338 50.2375 301.672 50.5902 301.911 51.0642C302.15 51.5344 302.269 52.1296 302.269 52.8497V58.2285H300.969V52.9379C300.969 52.2729 300.796 51.7549 300.451 51.3838C300.105 51.0091 299.631 50.8217 299.029 50.8217C298.614 50.8217 298.243 50.9117 297.916 51.0917C297.592 51.2718 297.337 51.5344 297.15 51.8798C296.962 52.2252 296.868 52.644 296.868 53.1363ZM308.327 49.7636V50.8658H303.941V49.7636H308.327ZM305.219 47.7355H306.52V55.8037C306.52 56.1711 306.573 56.4466 306.68 56.6303C306.79 56.8103 306.929 56.9316 307.098 56.994C307.271 57.0528 307.453 57.0822 307.644 57.0822C307.787 57.0822 307.905 57.0749 307.997 57.0602C308.088 57.0418 308.162 57.0271 308.217 57.0161L308.482 58.1844C308.393 58.2175 308.27 58.2506 308.112 58.2836C307.954 58.3204 307.754 58.3387 307.512 58.3387C307.144 58.3387 306.784 58.2597 306.432 58.1018C306.082 57.9438 305.792 57.7031 305.561 57.3798C305.333 57.0565 305.219 56.6487 305.219 56.1564V47.7355ZM310.284 58.2285V49.7636H311.54V51.0421H311.628C311.783 50.6233 312.062 50.2834 312.466 50.0226C312.87 49.7617 313.326 49.6313 313.833 49.6313C313.928 49.6313 314.048 49.6331 314.191 49.6368C314.334 49.6405 314.443 49.646 314.516 49.6534V50.976C314.472 50.965 314.371 50.9484 314.213 50.9264C314.059 50.9007 313.895 50.8878 313.723 50.8878C313.311 50.8878 312.944 50.9742 312.62 51.1468C312.301 51.3158 312.047 51.551 311.86 51.8523C311.676 52.1498 311.584 52.4897 311.584 52.8718V58.2285H310.284ZM318.549 58.4269C318.012 58.4269 317.526 58.3259 317.088 58.1238C316.651 57.9181 316.304 57.6223 316.047 57.2365C315.79 56.8471 315.661 56.3768 315.661 55.8257C315.661 55.3407 315.757 54.9476 315.948 54.6463C316.139 54.3414 316.394 54.1026 316.714 53.9299C317.033 53.7572 317.386 53.6286 317.772 53.5441C318.161 53.456 318.553 53.3862 318.946 53.3347C319.46 53.2686 319.877 53.219 320.197 53.1859C320.52 53.1492 320.755 53.0886 320.902 53.0041C321.053 52.9196 321.128 52.7726 321.128 52.5632V52.5191C321.128 51.9753 320.979 51.5528 320.682 51.2515C320.388 50.9503 319.941 50.7996 319.342 50.7996C318.722 50.7996 318.235 50.9356 317.882 51.2075C317.529 51.4793 317.281 51.7696 317.138 52.0782L315.904 51.6373C316.124 51.123 316.418 50.7225 316.785 50.4359C317.156 50.1457 317.561 49.9436 317.998 49.8297C318.439 49.7121 318.872 49.6534 319.298 49.6534C319.57 49.6534 319.883 49.6864 320.235 49.7525C320.592 49.815 320.935 49.9454 321.266 50.1438C321.6 50.3422 321.878 50.6417 322.098 51.0421C322.318 51.4426 322.429 51.979 322.429 52.6514V58.2285H321.128V57.0822H321.062C320.974 57.2659 320.827 57.4625 320.621 57.6719C320.415 57.8813 320.142 58.0595 319.8 58.2065C319.458 58.3534 319.041 58.4269 318.549 58.4269ZM318.747 57.2586C319.262 57.2586 319.695 57.1575 320.048 56.9555C320.404 56.7534 320.672 56.4925 320.853 56.1729C321.036 55.8533 321.128 55.5171 321.128 55.1644V53.974C321.073 54.0401 320.952 54.1008 320.764 54.1559C320.581 54.2073 320.368 54.2532 320.125 54.2936C319.886 54.3304 319.653 54.3634 319.425 54.3928C319.201 54.4186 319.019 54.4406 318.88 54.459C318.542 54.5031 318.226 54.5747 317.932 54.6739C317.641 54.7694 317.406 54.9145 317.226 55.1093C317.05 55.3003 316.962 55.5612 316.962 55.8918C316.962 56.3437 317.129 56.6854 317.463 56.9169C317.801 57.1447 318.229 57.2586 318.747 57.2586ZM328.241 58.4049C327.448 58.4049 326.764 58.2175 326.191 57.8427C325.618 57.468 325.177 56.9518 324.869 56.2941C324.56 55.6365 324.406 54.8852 324.406 54.0401C324.406 53.1804 324.564 52.4217 324.88 51.7641C325.199 51.1028 325.644 50.5866 326.213 50.2155C326.787 49.8407 327.455 49.6534 328.219 49.6534C328.815 49.6534 329.351 49.7636 329.829 49.984C330.306 50.2045 330.698 50.5131 331.002 50.9099C331.307 51.3067 331.497 51.7696 331.57 52.2986H330.269C330.17 51.9129 329.95 51.5712 329.608 51.2736C329.27 50.9723 328.815 50.8217 328.241 50.8217C327.734 50.8217 327.29 50.954 326.908 51.2185C326.529 51.4793 326.234 51.8486 326.02 52.3262C325.811 52.8001 325.706 53.3568 325.706 53.996C325.706 54.65 325.809 55.2195 326.015 55.7045C326.224 56.1894 326.518 56.566 326.897 56.8342C327.279 57.1024 327.727 57.2365 328.241 57.2365C328.579 57.2365 328.886 57.1777 329.162 57.0602C329.437 56.9426 329.671 56.7736 329.862 56.5532C330.053 56.3327 330.189 56.0682 330.269 55.7596H331.57C331.497 56.2592 331.315 56.7093 331.024 57.1098C330.738 57.5066 330.358 57.8225 329.884 58.0577C329.413 58.2891 328.866 58.4049 328.241 58.4049ZM337.153 49.7636V50.8658H332.766V49.7636H337.153ZM334.045 47.7355H335.345V55.8037C335.345 56.1711 335.398 56.4466 335.505 56.6303C335.615 56.8103 335.755 56.9316 335.924 56.994C336.096 57.0528 336.278 57.0822 336.469 57.0822C336.613 57.0822 336.73 57.0749 336.822 57.0602C336.914 57.0418 336.987 57.0271 337.043 57.0161L337.307 58.1844C337.219 58.2175 337.096 58.2506 336.938 58.2836C336.78 58.3204 336.58 58.3387 336.337 58.3387C335.97 58.3387 335.61 58.2597 335.257 58.1018C334.908 57.9438 334.618 57.7031 334.386 57.3798C334.158 57.0565 334.045 56.6487 334.045 56.1564V47.7355Z" fill="#2B2D2D"/>
<path d="M358.659 53.748L353.826 58.6178C353.689 58.7551 353.505 58.8322 353.312 58.8322C353.12 58.8322 352.935 58.7551 352.799 58.6178C352.662 58.4806 352.586 58.2945 352.586 58.1004C352.586 57.9063 352.662 57.7202 352.799 57.583L357.119 53.2311L352.8 48.8781C352.732 48.8101 352.679 48.7295 352.642 48.6407C352.606 48.5519 352.587 48.4567 352.587 48.3607C352.587 48.2646 352.606 48.1694 352.642 48.0806C352.679 47.9918 352.732 47.9112 352.8 47.8432C352.867 47.7753 352.947 47.7214 353.035 47.6846C353.124 47.6478 353.218 47.6289 353.313 47.6289C353.409 47.6289 353.503 47.6478 353.591 47.6846C353.679 47.7214 353.759 47.7753 353.827 47.8432L358.66 52.7131C358.727 52.7811 358.781 52.8618 358.817 52.9506C358.854 53.0394 358.873 53.1346 358.872 53.2308C358.872 53.3269 358.853 53.4221 358.817 53.5108C358.78 53.5996 358.726 53.6802 358.659 53.748Z" fill="#2B2D2D"/>
</g>
<rect x="27.5195" y="87.6816" width="348.755" height="46.7347" rx="23.3673" fill="white"/>
<path d="M48.2791 106.32C48.2791 106.54 48.2143 106.755 48.093 106.938C47.9716 107.121 47.7991 107.264 47.5973 107.348C47.3955 107.432 47.1735 107.454 46.9593 107.411C46.745 107.368 46.5482 107.262 46.3938 107.107C46.2393 106.951 46.1341 106.753 46.0915 106.537C46.0489 106.321 46.0708 106.097 46.1544 105.894C46.238 105.691 46.3795 105.517 46.5611 105.395C46.7428 105.272 46.9563 105.207 47.1747 105.207C47.4676 105.207 47.7485 105.324 47.9556 105.533C48.1628 105.742 48.2791 106.025 48.2791 106.32ZM52.1445 107.433C52.3629 107.433 52.5765 107.367 52.7581 107.245C52.9397 107.123 53.0813 106.949 53.1648 106.746C53.2484 106.542 53.2703 106.319 53.2277 106.103C53.1851 105.887 53.0799 105.689 52.9254 105.533C52.771 105.377 52.5742 105.271 52.36 105.228C52.1457 105.185 51.9237 105.208 51.7219 105.292C51.5201 105.376 51.3476 105.519 51.2262 105.702C51.1049 105.885 51.0401 106.1 51.0401 106.32C51.0401 106.615 51.1565 106.898 51.3636 107.107C51.5707 107.315 51.8516 107.433 52.1445 107.433ZM47.1747 109.937C46.9563 109.937 46.7428 110.002 46.5611 110.124C46.3795 110.246 46.238 110.42 46.1544 110.624C46.0708 110.827 46.0489 111.051 46.0915 111.267C46.1341 111.482 46.2393 111.681 46.3938 111.836C46.5482 111.992 46.745 112.098 46.9593 112.141C47.1735 112.184 47.3955 112.162 47.5973 112.078C47.7991 111.993 47.9716 111.851 48.093 111.668C48.2143 111.485 48.2791 111.27 48.2791 111.049C48.2791 110.754 48.1628 110.471 47.9556 110.263C47.7485 110.054 47.4676 109.937 47.1747 109.937ZM52.1445 109.937C51.9261 109.937 51.7126 110.002 51.5309 110.124C51.3493 110.246 51.2078 110.42 51.1242 110.624C51.0406 110.827 51.0187 111.051 51.0613 111.267C51.1039 111.482 51.2091 111.681 51.3636 111.836C51.518 111.992 51.7148 112.098 51.9291 112.141C52.1433 112.184 52.3653 112.162 52.5671 112.078C52.7689 111.993 52.9414 111.851 53.0628 111.668C53.1841 111.485 53.2489 111.27 53.2489 111.049C53.2489 110.754 53.1326 110.471 52.9254 110.263C52.7183 110.054 52.4374 109.937 52.1445 109.937ZM47.1747 114.666C46.9563 114.666 46.7428 114.731 46.5611 114.854C46.3795 114.976 46.238 115.15 46.1544 115.353C46.0708 115.556 46.0489 115.78 46.0915 115.996C46.1341 116.212 46.2393 116.41 46.3938 116.566C46.5482 116.721 46.745 116.827 46.9593 116.87C47.1735 116.913 47.3955 116.891 47.5973 116.807C47.7991 116.723 47.9716 116.58 48.093 116.397C48.2143 116.214 48.2791 115.999 48.2791 115.779C48.2791 115.484 48.1628 115.201 47.9556 114.992C47.7485 114.783 47.4676 114.666 47.1747 114.666ZM52.1445 114.666C51.9261 114.666 51.7126 114.731 51.5309 114.854C51.3493 114.976 51.2078 115.15 51.1242 115.353C51.0406 115.556 51.0187 115.78 51.0613 115.996C51.1039 116.212 51.2091 116.41 51.3636 116.566C51.518 116.721 51.7148 116.827 51.9291 116.87C52.1433 116.913 52.3653 116.891 52.5671 116.807C52.7689 116.723 52.9414 116.58 53.0628 116.397C53.1841 116.214 53.2489 115.999 53.2489 115.779C53.2489 115.484 53.1326 115.201 52.9254 114.992C52.7183 114.783 52.4374 114.666 52.1445 114.666Z" fill="#2B2D2D"/>
<path d="M88.0447 109.61L83.7075 101.566C83.6646 101.488 83.6018 101.423 83.5256 101.378C83.4493 101.332 83.3625 101.309 83.274 101.309C83.1856 101.309 83.0987 101.332 83.0225 101.378C82.9463 101.423 82.8835 101.488 82.8406 101.566L78.5041 109.608C78.4626 109.684 78.4416 109.77 78.443 109.857C78.4445 109.944 78.4683 110.029 78.5123 110.104C78.5562 110.179 78.6187 110.241 78.6936 110.284C78.7686 110.327 78.8533 110.35 78.9396 110.35H87.6084C87.6946 110.35 87.7793 110.327 87.8541 110.284C87.929 110.241 87.9914 110.179 88.0353 110.104C88.0792 110.029 88.1031 109.945 88.1046 109.858C88.1062 109.771 88.0852 109.685 88.044 109.609M82.7564 104.09H83.7917V106.872H82.7564V104.09ZM83.274 108.959C83.1375 108.959 83.0041 108.918 82.8906 108.841C82.7771 108.765 82.6886 108.656 82.6364 108.529C82.5841 108.402 82.5705 108.262 82.5971 108.128C82.6237 107.993 82.6895 107.869 82.786 107.771C82.8825 107.674 83.0055 107.608 83.1394 107.581C83.2733 107.554 83.412 107.568 83.5382 107.621C83.6643 107.673 83.7721 107.762 83.8479 107.877C83.9237 107.991 83.9642 108.126 83.9642 108.263C83.9642 108.448 83.8915 108.625 83.7621 108.755C83.6326 108.885 83.4571 108.959 83.274 108.959ZM85.3446 113.131V111.741H79.1329V119.391C79.1334 119.759 79.279 120.113 79.5378 120.374C79.7965 120.634 80.1473 120.781 80.5133 120.782H82.5838V119.391H80.5133V113.131H85.3446ZM75.6819 120.782H73.6113V119.391H75.6819V110.743L73.2559 109.277L73.9668 108.084L76.3921 109.551C76.596 109.675 76.7648 109.85 76.8822 110.058C76.9996 110.267 77.0616 110.503 77.0623 110.743V119.391C77.0623 119.76 76.9168 120.113 76.658 120.374C76.3991 120.635 76.048 120.782 75.6819 120.782Z" fill="#2B2D2D"/>
<path d="M80.2797 103.4L80.9423 102.171C79.9761 101.596 78.8725 101.298 77.7506 101.309C76.7825 101.312 75.832 101.57 74.9939 102.059C74.1557 102.547 73.4591 103.248 72.9734 104.092L72.9188 104.091C71.8204 104.091 70.767 104.531 69.9904 105.313C69.2137 106.096 68.7773 107.157 68.7773 108.264C68.7773 109.371 69.2137 110.432 69.9904 111.215C70.767 111.998 71.8204 112.437 72.9188 112.437V111.046C72.1866 111.046 71.4843 110.753 70.9665 110.231C70.4487 109.71 70.1578 109.002 70.1578 108.264C70.1578 107.526 70.4487 106.819 70.9665 106.297C71.4843 105.775 72.1866 105.482 72.9188 105.482C73.0084 105.485 73.0976 105.495 73.186 105.51L73.7817 105.588L73.9949 105.125C74.3275 104.402 74.8574 103.791 75.5225 103.361C76.1877 102.932 76.9606 102.703 77.7506 102.7C78.642 102.69 79.5182 102.932 80.2797 103.4Z" fill="#2B2D2D"/>
<g clip-path="url(#clip1_3528_5195)">
<path d="M204.184 107.584C204.117 107.025 203.849 106.592 203.379 106.283C202.909 105.975 202.332 105.82 201.649 105.82C201.149 105.82 200.712 105.901 200.337 106.063C199.966 106.224 199.676 106.447 199.466 106.73C199.26 107.013 199.158 107.334 199.158 107.694C199.158 107.995 199.229 108.254 199.372 108.471C199.519 108.684 199.707 108.862 199.935 109.006C200.162 109.145 200.401 109.261 200.651 109.353C200.901 109.441 201.131 109.513 201.34 109.568L202.486 109.876C202.78 109.954 203.107 110.06 203.467 110.196C203.831 110.332 204.178 110.518 204.509 110.753C204.843 110.984 205.119 111.282 205.335 111.646C205.552 112.009 205.661 112.456 205.661 112.985C205.661 113.595 205.501 114.146 205.181 114.638C204.865 115.13 204.402 115.522 203.792 115.812C203.186 116.102 202.449 116.247 201.582 116.247C200.774 116.247 200.074 116.117 199.483 115.856C198.895 115.595 198.432 115.231 198.094 114.765C197.76 114.298 197.57 113.756 197.526 113.139H198.937C198.974 113.565 199.117 113.918 199.367 114.197C199.62 114.473 199.94 114.678 200.326 114.814C200.715 114.947 201.134 115.013 201.582 115.013C202.104 115.013 202.573 114.928 202.988 114.759C203.403 114.587 203.732 114.348 203.974 114.043C204.217 113.734 204.338 113.374 204.338 112.963C204.338 112.588 204.233 112.283 204.024 112.048C203.814 111.813 203.539 111.622 203.197 111.475C202.855 111.328 202.486 111.199 202.089 111.089L200.701 110.692C199.819 110.439 199.121 110.077 198.606 109.606C198.092 109.136 197.835 108.521 197.835 107.76C197.835 107.128 198.006 106.577 198.347 106.107C198.693 105.633 199.156 105.266 199.736 105.005C200.32 104.74 200.973 104.608 201.693 104.608C202.42 104.608 203.067 104.738 203.633 104.999C204.198 105.256 204.647 105.609 204.977 106.057C205.312 106.506 205.488 107.014 205.506 107.584H204.184ZM211.28 116.225C210.465 116.225 209.761 116.045 209.17 115.685C208.582 115.321 208.128 114.814 207.809 114.164C207.493 113.51 207.335 112.75 207.335 111.882C207.335 111.015 207.493 110.251 207.809 109.59C208.128 108.925 208.573 108.407 209.142 108.036C209.715 107.661 210.384 107.474 211.148 107.474C211.589 107.474 212.024 107.547 212.454 107.694C212.884 107.841 213.275 108.08 213.628 108.411C213.981 108.738 214.262 109.171 214.471 109.711C214.681 110.251 214.785 110.916 214.785 111.706V112.257H208.26V111.133H213.463C213.463 110.655 213.367 110.229 213.176 109.854C212.989 109.48 212.721 109.184 212.372 108.967C212.026 108.75 211.618 108.642 211.148 108.642C210.63 108.642 210.182 108.771 209.803 109.028C209.429 109.281 209.14 109.612 208.938 110.02C208.736 110.428 208.635 110.865 208.635 111.331V112.081C208.635 112.72 208.745 113.262 208.966 113.707C209.19 114.148 209.5 114.484 209.897 114.715C210.294 114.943 210.755 115.057 211.28 115.057C211.622 115.057 211.931 115.009 212.206 114.914C212.486 114.814 212.726 114.667 212.928 114.473C213.13 114.274 213.286 114.028 213.397 113.734L214.653 114.087C214.521 114.513 214.299 114.888 213.986 115.211C213.674 115.531 213.288 115.781 212.829 115.961C212.37 116.137 211.854 116.225 211.28 116.225ZM220.445 107.584V108.686H216.059V107.584H220.445ZM217.337 105.556H218.638V113.624C218.638 113.991 218.691 114.267 218.798 114.451C218.908 114.631 219.047 114.752 219.216 114.814C219.389 114.873 219.571 114.903 219.762 114.903C219.905 114.903 220.023 114.895 220.115 114.88C220.206 114.862 220.28 114.847 220.335 114.836L220.6 116.005C220.511 116.038 220.388 116.071 220.23 116.104C220.072 116.141 219.872 116.159 219.63 116.159C219.262 116.159 218.902 116.08 218.55 115.922C218.2 115.764 217.91 115.523 217.679 115.2C217.451 114.877 217.337 114.469 217.337 113.977V105.556ZM226.083 107.584V108.686H221.696V107.584H226.083ZM222.975 105.556H224.275V113.624C224.275 113.991 224.329 114.267 224.435 114.451C224.546 114.631 224.685 114.752 224.854 114.814C225.027 114.873 225.209 114.903 225.4 114.903C225.543 114.903 225.661 114.895 225.752 114.88C225.844 114.862 225.918 114.847 225.973 114.836L226.237 116.005C226.149 116.038 226.026 116.071 225.868 116.104C225.71 116.141 225.51 116.159 225.267 116.159C224.9 116.159 224.54 116.08 224.187 115.922C223.838 115.764 223.548 115.523 223.317 115.2C223.089 114.877 222.975 114.469 222.975 113.977V105.556ZM229.522 104.762V116.049H228.221V104.762H229.522ZM235.453 116.225C234.638 116.225 233.934 116.045 233.342 115.685C232.755 115.321 232.301 114.814 231.981 114.164C231.665 113.51 231.507 112.75 231.507 111.882C231.507 111.015 231.665 110.251 231.981 109.59C232.301 108.925 232.745 108.407 233.315 108.036C233.888 107.661 234.557 107.474 235.321 107.474C235.762 107.474 236.197 107.547 236.627 107.694C237.057 107.841 237.448 108.08 237.801 108.411C238.154 108.738 238.435 109.171 238.644 109.711C238.854 110.251 238.958 110.916 238.958 111.706V112.257H232.433V111.133H237.636C237.636 110.655 237.54 110.229 237.349 109.854C237.162 109.48 236.893 109.184 236.544 108.967C236.199 108.75 235.791 108.642 235.321 108.642C234.803 108.642 234.355 108.771 233.976 109.028C233.602 109.281 233.313 109.612 233.111 110.02C232.909 110.428 232.808 110.865 232.808 111.331V112.081C232.808 112.72 232.918 113.262 233.139 113.707C233.363 114.148 233.673 114.484 234.07 114.715C234.467 114.943 234.928 115.057 235.453 115.057C235.795 115.057 236.104 115.009 236.379 114.914C236.658 114.814 236.899 114.667 237.101 114.473C237.303 114.274 237.459 114.028 237.569 113.734L238.826 114.087C238.694 114.513 238.471 114.888 238.159 115.211C237.847 115.531 237.461 115.781 237.002 115.961C236.543 116.137 236.026 116.225 235.453 116.225ZM240.937 116.049V107.584H242.193V108.907H242.303C242.48 108.455 242.765 108.104 243.158 107.854C243.551 107.6 244.023 107.474 244.574 107.474C245.132 107.474 245.597 107.6 245.968 107.854C246.343 108.104 246.635 108.455 246.845 108.907H246.933C247.149 108.469 247.475 108.122 247.908 107.865C248.342 107.604 248.862 107.474 249.468 107.474C250.225 107.474 250.844 107.711 251.325 108.185C251.806 108.655 252.047 109.388 252.047 110.383V116.049H250.746V110.383C250.746 109.759 250.575 109.313 250.234 109.044C249.892 108.776 249.49 108.642 249.027 108.642C248.432 108.642 247.971 108.822 247.644 109.182C247.317 109.538 247.153 109.99 247.153 110.538V116.049H245.83V110.251C245.83 109.77 245.674 109.382 245.362 109.088C245.05 108.791 244.647 108.642 244.155 108.642C243.817 108.642 243.501 108.732 243.207 108.912C242.917 109.092 242.682 109.342 242.502 109.662C242.325 109.978 242.237 110.343 242.237 110.758V116.049H240.937ZM257.974 116.225C257.158 116.225 256.455 116.045 255.863 115.685C255.275 115.321 254.822 114.814 254.502 114.164C254.186 113.51 254.028 112.75 254.028 111.882C254.028 111.015 254.186 110.251 254.502 109.59C254.822 108.925 255.266 108.407 255.836 108.036C256.409 107.661 257.078 107.474 257.842 107.474C258.283 107.474 258.718 107.547 259.148 107.694C259.578 107.841 259.969 108.08 260.322 108.411C260.674 108.738 260.956 109.171 261.165 109.711C261.374 110.251 261.479 110.916 261.479 111.706V112.257H254.954V111.133H260.156C260.156 110.655 260.061 110.229 259.87 109.854C259.682 109.48 259.414 109.184 259.065 108.967C258.72 108.75 258.312 108.642 257.842 108.642C257.324 108.642 256.876 108.771 256.497 109.028C256.122 109.281 255.834 109.612 255.632 110.02C255.43 110.428 255.329 110.865 255.329 111.331V112.081C255.329 112.72 255.439 113.262 255.659 113.707C255.884 114.148 256.194 114.484 256.591 114.715C256.988 114.943 257.449 115.057 257.974 115.057C258.316 115.057 258.624 115.009 258.9 114.914C259.179 114.814 259.42 114.667 259.622 114.473C259.824 114.274 259.98 114.028 260.09 113.734L261.347 114.087C261.215 114.513 260.992 114.888 260.68 115.211C260.368 115.531 259.982 115.781 259.523 115.961C259.063 116.137 258.547 116.225 257.974 116.225ZM264.758 110.957V116.049H263.458V107.584H264.714V108.907H264.824C265.023 108.477 265.324 108.131 265.728 107.87C266.132 107.606 266.654 107.474 267.293 107.474C267.866 107.474 268.368 107.591 268.798 107.826C269.228 108.058 269.562 108.411 269.801 108.884C270.04 109.355 270.159 109.95 270.159 110.67V116.049H268.858V110.758C268.858 110.093 268.686 109.575 268.34 109.204C267.995 108.829 267.521 108.642 266.918 108.642C266.503 108.642 266.132 108.732 265.805 108.912C265.482 109.092 265.227 109.355 265.039 109.7C264.852 110.045 264.758 110.464 264.758 110.957ZM276.217 107.584V108.686H271.83V107.584H276.217ZM273.109 105.556H274.409V113.624C274.409 113.991 274.463 114.267 274.569 114.451C274.679 114.631 274.819 114.752 274.988 114.814C275.161 114.873 275.343 114.903 275.534 114.903C275.677 114.903 275.794 114.895 275.886 114.88C275.978 114.862 276.052 114.847 276.107 114.836L276.371 116.005C276.283 116.038 276.16 116.071 276.002 116.104C275.844 116.141 275.644 116.159 275.401 116.159C275.034 116.159 274.674 116.08 274.321 115.922C273.972 115.764 273.682 115.523 273.45 115.2C273.223 114.877 273.109 114.469 273.109 113.977V105.556ZM292.237 110.406C292.237 111.596 292.023 112.625 291.593 113.492C291.163 114.359 290.573 115.027 289.824 115.498C289.074 115.968 288.218 116.203 287.256 116.203C286.293 116.203 285.437 115.968 284.687 115.498C283.938 115.027 283.348 114.359 282.918 113.492C282.488 112.625 282.274 111.596 282.274 110.406C282.274 109.215 282.488 108.186 282.918 107.319C283.348 106.452 283.938 105.784 284.687 105.313C285.437 104.843 286.293 104.608 287.256 104.608C288.218 104.608 289.074 104.843 289.824 105.313C290.573 105.784 291.163 106.452 291.593 107.319C292.023 108.186 292.237 109.215 292.237 110.406ZM290.915 110.406C290.915 109.428 290.751 108.603 290.424 107.931C290.101 107.259 289.662 106.75 289.107 106.405C288.556 106.059 287.939 105.886 287.256 105.886C286.572 105.886 285.953 106.059 285.398 106.405C284.847 106.75 284.408 107.259 284.081 107.931C283.758 108.603 283.596 109.428 283.596 110.406C283.596 111.383 283.758 112.208 284.081 112.88C284.408 113.552 284.847 114.061 285.398 114.407C285.953 114.752 286.572 114.925 287.256 114.925C287.939 114.925 288.556 114.752 289.107 114.407C289.662 114.061 290.101 113.552 290.424 112.88C290.751 112.208 290.915 111.383 290.915 110.406ZM294.359 119.223V107.584H295.616V108.929H295.77C295.866 108.782 295.998 108.594 296.167 108.366C296.34 108.135 296.586 107.929 296.905 107.749C297.229 107.566 297.666 107.474 298.217 107.474C298.93 107.474 299.558 107.652 300.102 108.008C300.646 108.365 301.07 108.87 301.375 109.524C301.68 110.178 301.832 110.949 301.832 111.838C301.832 112.735 301.68 113.512 301.375 114.17C301.07 114.824 300.647 115.331 300.107 115.691C299.567 116.047 298.944 116.225 298.239 116.225C297.695 116.225 297.26 116.135 296.933 115.955C296.606 115.771 296.354 115.564 296.178 115.332C296.002 115.097 295.866 114.903 295.77 114.748H295.66V119.223H294.359ZM295.638 111.816C295.638 112.456 295.731 113.02 295.919 113.508C296.106 113.993 296.38 114.373 296.74 114.649C297.1 114.921 297.541 115.057 298.063 115.057C298.606 115.057 299.06 114.914 299.424 114.627C299.791 114.337 300.067 113.947 300.251 113.459C300.438 112.966 300.532 112.419 300.532 111.816C300.532 111.221 300.44 110.685 300.256 110.207C300.076 109.726 299.802 109.346 299.435 109.066C299.071 108.783 298.614 108.642 298.063 108.642C297.534 108.642 297.089 108.776 296.729 109.044C296.369 109.309 296.097 109.68 295.913 110.158C295.73 110.631 295.638 111.184 295.638 111.816ZM307.498 107.584V108.686H303.111V107.584H307.498ZM304.389 105.556H305.69V113.624C305.69 113.991 305.743 114.267 305.85 114.451C305.96 114.631 306.1 114.752 306.269 114.814C306.441 114.873 306.623 114.903 306.814 114.903C306.957 114.903 307.075 114.895 307.167 114.88C307.259 114.862 307.332 114.847 307.387 114.836L307.652 116.005C307.564 116.038 307.441 116.071 307.283 116.104C307.125 116.141 306.924 116.159 306.682 116.159C306.315 116.159 305.954 116.08 305.602 115.922C305.253 115.764 304.962 115.523 304.731 115.2C304.503 114.877 304.389 114.469 304.389 113.977V105.556ZM309.454 116.049V107.584H310.755V116.049H309.454ZM310.115 106.173C309.862 106.173 309.643 106.087 309.459 105.914C309.279 105.741 309.189 105.534 309.189 105.291C309.189 105.049 309.279 104.841 309.459 104.669C309.643 104.496 309.862 104.41 310.115 104.41C310.369 104.41 310.586 104.496 310.766 104.669C310.949 104.841 311.041 105.049 311.041 105.291C311.041 105.534 310.949 105.741 310.766 105.914C310.586 106.087 310.369 106.173 310.115 106.173ZM316.576 116.225C315.811 116.225 315.141 116.043 314.564 115.68C313.991 115.316 313.543 114.807 313.219 114.153C312.9 113.499 312.74 112.735 312.74 111.86C312.74 110.979 312.9 110.209 313.219 109.551C313.543 108.894 313.991 108.383 314.564 108.019C315.141 107.656 315.811 107.474 316.576 107.474C317.34 107.474 318.008 107.656 318.582 108.019C319.158 108.383 319.607 108.894 319.926 109.551C320.25 110.209 320.411 110.979 320.411 111.86C320.411 112.735 320.25 113.499 319.926 114.153C319.607 114.807 319.158 115.316 318.582 115.68C318.008 116.043 317.34 116.225 316.576 116.225ZM316.576 115.057C317.156 115.057 317.634 114.908 318.008 114.61C318.383 114.313 318.661 113.922 318.841 113.437C319.021 112.952 319.111 112.426 319.111 111.86C319.111 111.295 319.021 110.767 318.841 110.279C318.661 109.79 318.383 109.395 318.008 109.094C317.634 108.793 317.156 108.642 316.576 108.642C315.995 108.642 315.517 108.793 315.143 109.094C314.768 109.395 314.491 109.79 314.311 110.279C314.131 110.767 314.041 111.295 314.041 111.86C314.041 112.426 314.131 112.952 314.311 113.437C314.491 113.922 314.768 114.313 315.143 114.61C315.517 114.908 315.995 115.057 316.576 115.057ZM323.697 110.957V116.049H322.397V107.584H323.653V108.907H323.763C323.962 108.477 324.263 108.131 324.667 107.87C325.071 107.606 325.593 107.474 326.232 107.474C326.805 107.474 327.307 107.591 327.737 107.826C328.167 108.058 328.501 108.411 328.74 108.884C328.979 109.355 329.098 109.95 329.098 110.67V116.049H327.797V110.758C327.797 110.093 327.625 109.575 327.279 109.204C326.934 108.829 326.46 108.642 325.858 108.642C325.442 108.642 325.071 108.732 324.744 108.912C324.421 109.092 324.166 109.355 323.978 109.7C323.791 110.045 323.697 110.464 323.697 110.957ZM337.471 109.48L336.302 109.81C336.229 109.616 336.12 109.426 335.977 109.243C335.838 109.055 335.647 108.901 335.404 108.78C335.162 108.659 334.851 108.598 334.473 108.598C333.955 108.598 333.523 108.717 333.178 108.956C332.836 109.191 332.665 109.491 332.665 109.854C332.665 110.178 332.783 110.433 333.018 110.62C333.253 110.808 333.62 110.964 334.12 111.089L335.376 111.398C336.133 111.581 336.697 111.862 337.068 112.241C337.439 112.615 337.625 113.099 337.625 113.69C337.625 114.175 337.485 114.609 337.206 114.991C336.931 115.373 336.545 115.674 336.049 115.895C335.553 116.115 334.976 116.225 334.318 116.225C333.455 116.225 332.74 116.038 332.175 115.663C331.609 115.288 331.251 114.741 331.1 114.021L332.334 113.712C332.452 114.168 332.674 114.509 333.001 114.737C333.332 114.965 333.764 115.079 334.296 115.079C334.903 115.079 335.384 114.95 335.74 114.693C336.1 114.432 336.28 114.12 336.28 113.756C336.28 113.462 336.177 113.216 335.972 113.018C335.766 112.816 335.45 112.665 335.024 112.566L333.613 112.235C332.838 112.051 332.268 111.767 331.905 111.381C331.544 110.992 331.364 110.505 331.364 109.921C331.364 109.443 331.499 109.02 331.767 108.653C332.039 108.286 332.408 107.997 332.874 107.788C333.345 107.578 333.877 107.474 334.473 107.474C335.31 107.474 335.968 107.657 336.446 108.025C336.927 108.392 337.269 108.877 337.471 109.48Z" fill="#2B2D2D"/>
<path d="M358.659 111.566L353.826 116.436C353.689 116.573 353.505 116.651 353.312 116.651C353.12 116.651 352.935 116.573 352.799 116.436C352.662 116.299 352.586 116.113 352.586 115.919C352.586 115.725 352.662 115.539 352.799 115.401L357.119 111.05L352.8 106.696C352.732 106.628 352.679 106.548 352.642 106.459C352.606 106.37 352.587 106.275 352.587 106.179C352.587 106.083 352.606 105.988 352.642 105.899C352.679 105.81 352.732 105.73 352.8 105.662C352.867 105.594 352.947 105.54 353.035 105.503C353.124 105.466 353.218 105.447 353.313 105.447C353.409 105.447 353.503 105.466 353.591 105.503C353.679 105.54 353.759 105.594 353.827 105.662L358.66 110.531C358.727 110.599 358.781 110.68 358.817 110.769C358.854 110.858 358.873 110.953 358.872 111.049C358.872 111.145 358.853 111.24 358.817 111.329C358.78 111.418 358.726 111.499 358.659 111.566Z" fill="#2B2D2D"/>
</g>
<rect x="27.5195" y="145.5" width="348.755" height="47.7544" rx="23.8772" fill="white"/>
<path d="M48.2791 164.644C48.2791 164.864 48.2143 165.079 48.093 165.262C47.9716 165.445 47.7991 165.588 47.5973 165.672C47.3955 165.756 47.1735 165.778 46.9593 165.736C46.745 165.693 46.5482 165.587 46.3938 165.431C46.2393 165.275 46.1341 165.077 46.0915 164.861C46.0489 164.645 46.0708 164.422 46.1544 164.218C46.238 164.015 46.3795 163.841 46.5611 163.719C46.7428 163.597 46.9563 163.531 47.1747 163.531C47.4676 163.531 47.7485 163.648 47.9556 163.857C48.1628 164.066 48.2791 164.349 48.2791 164.644ZM52.1445 165.757C52.3629 165.757 52.5765 165.692 52.7581 165.569C52.9397 165.447 53.0813 165.273 53.1648 165.07C53.2484 164.867 53.2703 164.643 53.2277 164.427C53.1851 164.211 53.0799 164.013 52.9254 163.857C52.771 163.702 52.5742 163.596 52.36 163.553C52.1457 163.51 51.9237 163.532 51.7219 163.616C51.5201 163.7 51.3476 163.843 51.2262 164.026C51.1049 164.209 51.0401 164.424 51.0401 164.644C51.0401 164.939 51.1565 165.222 51.3636 165.431C51.5707 165.64 51.8516 165.757 52.1445 165.757ZM47.1747 168.261C46.9563 168.261 46.7428 168.326 46.5611 168.448C46.3795 168.571 46.238 168.744 46.1544 168.948C46.0708 169.151 46.0489 169.375 46.0915 169.591C46.1341 169.807 46.2393 170.005 46.3938 170.161C46.5482 170.316 46.745 170.422 46.9593 170.465C47.1735 170.508 47.3955 170.486 47.5973 170.402C47.7991 170.318 47.9716 170.175 48.093 169.992C48.2143 169.809 48.2791 169.594 48.2791 169.374C48.2791 169.078 48.1628 168.795 47.9556 168.587C47.7485 168.378 47.4676 168.261 47.1747 168.261ZM52.1445 168.261C51.9261 168.261 51.7126 168.326 51.5309 168.448C51.3493 168.571 51.2078 168.744 51.1242 168.948C51.0406 169.151 51.0187 169.375 51.0613 169.591C51.1039 169.807 51.2091 170.005 51.3636 170.161C51.518 170.316 51.7148 170.422 51.9291 170.465C52.1433 170.508 52.3653 170.486 52.5671 170.402C52.7689 170.318 52.9414 170.175 53.0628 169.992C53.1841 169.809 53.2489 169.594 53.2489 169.374C53.2489 169.078 53.1326 168.795 52.9254 168.587C52.7183 168.378 52.4374 168.261 52.1445 168.261ZM47.1747 172.99C46.9563 172.99 46.7428 173.056 46.5611 173.178C46.3795 173.3 46.238 173.474 46.1544 173.677C46.0708 173.881 46.0489 174.104 46.0915 174.32C46.1341 174.536 46.2393 174.734 46.3938 174.89C46.5482 175.046 46.745 175.152 46.9593 175.195C47.1735 175.238 47.3955 175.216 47.5973 175.131C47.7991 175.047 47.9716 174.904 48.093 174.721C48.2143 174.538 48.2791 174.323 48.2791 174.103C48.2791 173.808 48.1628 173.525 47.9556 173.316C47.7485 173.108 47.4676 172.99 47.1747 172.99ZM52.1445 172.99C51.9261 172.99 51.7126 173.056 51.5309 173.178C51.3493 173.3 51.2078 173.474 51.1242 173.677C51.0406 173.881 51.0187 174.104 51.0613 174.32C51.1039 174.536 51.2091 174.734 51.3636 174.89C51.518 175.046 51.7148 175.152 51.9291 175.195C52.1433 175.238 52.3653 175.216 52.5671 175.131C52.7689 175.047 52.9414 174.904 53.0628 174.721C53.1841 174.538 53.2489 174.323 53.2489 174.103C53.2489 173.808 53.1326 173.525 52.9254 173.316C52.7183 173.108 52.4374 172.99 52.1445 172.99Z" fill="#2B2D2D"/>
<path d="M78.4428 178.647C77.1851 178.647 75.9965 178.404 74.8768 177.917C73.7572 177.43 72.7796 176.765 71.944 175.923C71.1084 175.081 70.4488 174.096 69.9654 172.968C69.482 171.839 69.2402 170.642 69.2402 169.374C69.2402 168.092 69.482 166.89 69.9654 165.77C70.4488 164.65 71.1084 163.669 71.944 162.826C72.7796 161.983 73.7572 161.319 74.8768 160.832C75.9965 160.346 77.1851 160.102 78.4428 160.102C79.7159 160.102 80.9085 160.345 82.0208 160.832C83.1331 161.319 84.1067 161.984 84.9417 162.826C85.7767 163.668 86.4362 164.649 86.9203 165.77C87.4043 166.891 87.646 168.092 87.6454 169.374C87.6454 170.642 87.4037 171.839 86.9203 172.968C86.4368 174.096 85.7773 175.081 84.9417 175.924C84.1061 176.766 83.1322 177.431 82.0199 177.918C80.9076 178.404 79.7152 178.647 78.4428 178.647ZM78.4428 176.746C78.8416 176.19 79.1867 175.61 79.4781 175.008C79.7695 174.405 80.0073 173.764 80.1913 173.084H76.6943C76.8784 173.764 77.1161 174.405 77.4075 175.008C77.6989 175.61 78.044 176.19 78.4428 176.746ZM76.0502 176.375C75.7741 175.865 75.5327 175.336 75.3259 174.787C75.1192 174.238 74.9465 173.67 74.8078 173.084H72.093C72.5378 173.856 73.094 174.529 73.7615 175.1C74.429 175.672 75.1919 176.097 76.0502 176.375ZM80.8355 176.375C81.6944 176.097 82.4576 175.672 83.1251 175.1C83.7926 174.529 84.3484 173.856 84.7926 173.084H82.0778C81.9398 173.671 81.7674 174.239 81.5607 174.788C81.3539 175.337 81.1122 175.866 80.8355 176.375ZM71.3108 171.229H74.4397C74.3937 170.92 74.3593 170.615 74.3366 170.314C74.3139 170.013 74.3023 169.7 74.3017 169.374C74.301 169.049 74.3127 168.736 74.3366 168.436C74.3606 168.136 74.3949 167.83 74.4397 167.52H71.3108C71.2341 167.829 71.1768 168.134 71.1387 168.436C71.1007 168.738 71.0814 169.051 71.0808 169.374C71.0801 169.698 71.0995 170.011 71.1387 170.314C71.178 170.616 71.2354 170.921 71.3108 171.229ZM76.2802 171.229H80.6054C80.6514 170.92 80.6861 170.615 80.7094 170.314C80.7327 170.013 80.7441 169.7 80.7435 169.374C80.7429 169.049 80.7312 168.736 80.7085 168.436C80.6858 168.136 80.6514 167.83 80.6054 167.52H76.2802C76.2342 167.829 76.1998 168.134 76.1771 168.436C76.1544 168.738 76.1428 169.051 76.1422 169.374C76.1416 169.698 76.1532 170.011 76.1771 170.314C76.2011 170.616 76.2354 170.921 76.2802 171.229ZM82.446 171.229H85.5748C85.6515 170.92 85.7092 170.615 85.7478 170.314C85.7865 170.013 85.8055 169.7 85.8049 169.374C85.8043 169.049 85.7853 168.736 85.7478 168.436C85.7104 168.136 85.6527 167.83 85.5748 167.52H82.446C82.492 167.829 82.5266 168.134 82.5499 168.436C82.5733 168.738 82.5846 169.051 82.584 169.374C82.5834 169.698 82.5717 170.011 82.549 170.314C82.5263 170.616 82.492 170.921 82.446 171.229ZM82.0778 165.665H84.7926C84.3478 164.893 83.792 164.22 83.1251 163.648C82.4582 163.077 81.695 162.652 80.8355 162.373C81.1116 162.883 81.3533 163.413 81.5607 163.962C81.768 164.511 81.9404 165.079 82.0778 165.665ZM76.6943 165.665H80.1913C80.0073 164.985 79.7695 164.344 79.4781 163.741C79.1867 163.138 78.8416 162.559 78.4428 162.003C78.044 162.559 77.6989 163.138 77.4075 163.741C77.1161 164.344 76.8784 164.985 76.6943 165.665ZM72.093 165.665H74.8078C74.9458 165.078 75.1185 164.51 75.3259 163.961C75.5333 163.412 75.7747 162.883 76.0502 162.373C75.1912 162.652 74.428 163.077 73.7605 163.648C73.0931 164.22 72.5372 164.893 72.093 165.665Z" fill="#2B2D2D"/>
<g clip-path="url(#clip2_3528_5195)">
<path d="M109.264 166.228C109.198 165.67 108.929 165.236 108.459 164.928C107.989 164.619 107.412 164.465 106.729 164.465C106.229 164.465 105.792 164.546 105.417 164.707C105.046 164.869 104.756 165.091 104.546 165.374C104.341 165.657 104.238 165.979 104.238 166.339C104.238 166.64 104.309 166.899 104.453 167.116C104.6 167.329 104.787 167.507 105.015 167.65C105.242 167.79 105.481 167.906 105.731 167.997C105.981 168.086 106.211 168.157 106.42 168.212L107.566 168.521C107.86 168.598 108.187 168.705 108.547 168.841C108.911 168.977 109.258 169.162 109.589 169.397C109.923 169.629 110.199 169.926 110.416 170.29C110.632 170.654 110.741 171.1 110.741 171.629C110.741 172.239 110.581 172.79 110.261 173.283C109.945 173.775 109.482 174.166 108.872 174.456C108.266 174.747 107.53 174.892 106.662 174.892C105.854 174.892 105.154 174.761 104.563 174.5C103.975 174.24 103.512 173.876 103.174 173.409C102.84 172.943 102.65 172.401 102.606 171.784H104.017C104.054 172.21 104.197 172.562 104.447 172.842C104.701 173.117 105.02 173.323 105.406 173.459C105.795 173.591 106.214 173.657 106.662 173.657C107.184 173.657 107.653 173.573 108.068 173.404C108.483 173.231 108.812 172.992 109.054 172.687C109.297 172.379 109.418 172.019 109.418 171.607C109.418 171.232 109.313 170.927 109.104 170.692C108.894 170.457 108.619 170.266 108.277 170.119C107.936 169.972 107.566 169.844 107.17 169.733L105.781 169.337C104.899 169.083 104.201 168.721 103.687 168.251C103.172 167.781 102.915 167.165 102.915 166.405C102.915 165.773 103.086 165.222 103.428 164.751C103.773 164.278 104.236 163.91 104.816 163.649C105.4 163.385 106.053 163.252 106.773 163.252C107.5 163.252 108.147 163.383 108.713 163.644C109.278 163.901 109.727 164.254 110.057 164.702C110.392 165.15 110.568 165.659 110.586 166.228H109.264ZM118.146 171.232V166.228H119.447V174.693H118.146V173.26H118.058C117.86 173.69 117.551 174.056 117.132 174.357C116.713 174.655 116.184 174.804 115.545 174.804C115.016 174.804 114.546 174.688 114.134 174.456C113.723 174.221 113.399 173.869 113.164 173.398C112.929 172.924 112.811 172.327 112.811 171.607V166.228H114.112V171.519C114.112 172.136 114.285 172.629 114.63 172.996C114.979 173.363 115.424 173.547 115.964 173.547C116.287 173.547 116.616 173.464 116.95 173.299C117.288 173.134 117.571 172.88 117.799 172.539C118.03 172.197 118.146 171.761 118.146 171.232ZM125.246 178.044C124.617 178.044 124.077 177.963 123.625 177.802C123.174 177.644 122.797 177.434 122.496 177.173C122.198 176.916 121.961 176.641 121.785 176.347L122.821 175.619C122.938 175.774 123.087 175.95 123.267 176.148C123.447 176.35 123.693 176.525 124.006 176.672C124.322 176.822 124.735 176.898 125.246 176.898C125.929 176.898 126.493 176.732 126.938 176.402C127.382 176.071 127.604 175.553 127.604 174.848V173.128H127.494C127.399 173.283 127.263 173.474 127.086 173.701C126.914 173.925 126.664 174.126 126.337 174.302C126.014 174.475 125.576 174.561 125.025 174.561C124.342 174.561 123.728 174.399 123.185 174.076C122.644 173.753 122.216 173.283 121.9 172.665C121.588 172.048 121.432 171.299 121.432 170.417C121.432 169.55 121.585 168.795 121.889 168.152C122.194 167.505 122.619 167.005 123.163 166.653C123.706 166.296 124.335 166.118 125.047 166.118C125.598 166.118 126.036 166.21 126.359 166.394C126.686 166.574 126.936 166.78 127.108 167.011C127.285 167.239 127.421 167.426 127.516 167.573H127.649V166.228H128.905V174.936C128.905 175.663 128.74 176.255 128.409 176.71C128.082 177.17 127.641 177.506 127.086 177.719C126.535 177.936 125.922 178.044 125.246 178.044ZM125.202 173.393C125.723 173.393 126.164 173.273 126.524 173.035C126.884 172.796 127.158 172.452 127.345 172.004C127.533 171.556 127.626 171.019 127.626 170.395C127.626 169.785 127.535 169.247 127.351 168.78C127.167 168.313 126.895 167.948 126.535 167.683C126.175 167.419 125.731 167.287 125.202 167.287C124.651 167.287 124.191 167.426 123.824 167.705C123.46 167.985 123.186 168.359 123.003 168.83C122.823 169.3 122.733 169.822 122.733 170.395C122.733 170.983 122.825 171.502 123.008 171.954C123.196 172.403 123.471 172.755 123.835 173.012C124.202 173.266 124.658 173.393 125.202 173.393ZM134.703 178.044C134.074 178.044 133.534 177.963 133.082 177.802C132.63 177.644 132.254 177.434 131.953 177.173C131.655 176.916 131.418 176.641 131.242 176.347L132.278 175.619C132.395 175.774 132.544 175.95 132.724 176.148C132.904 176.35 133.15 176.525 133.463 176.672C133.779 176.822 134.192 176.898 134.703 176.898C135.386 176.898 135.95 176.732 136.395 176.402C136.839 176.071 137.061 175.553 137.061 174.848V173.128H136.951C136.856 173.283 136.72 173.474 136.543 173.701C136.371 173.925 136.121 174.126 135.794 174.302C135.47 174.475 135.033 174.561 134.482 174.561C133.799 174.561 133.185 174.399 132.641 174.076C132.101 173.753 131.673 173.283 131.357 172.665C131.045 172.048 130.889 171.299 130.889 170.417C130.889 169.55 131.041 168.795 131.346 168.152C131.651 167.505 132.076 167.005 132.619 166.653C133.163 166.296 133.791 166.118 134.504 166.118C135.055 166.118 135.493 166.21 135.816 166.394C136.143 166.574 136.393 166.78 136.565 167.011C136.742 167.239 136.878 167.426 136.973 167.573H137.105V166.228H138.362V174.936C138.362 175.663 138.197 176.255 137.866 176.71C137.539 177.17 137.098 177.506 136.543 177.719C135.992 177.936 135.379 178.044 134.703 178.044ZM134.659 173.393C135.18 173.393 135.621 173.273 135.981 173.035C136.341 172.796 136.615 172.452 136.802 172.004C136.99 171.556 137.083 171.019 137.083 170.395C137.083 169.785 136.992 169.247 136.808 168.78C136.624 168.313 136.352 167.948 135.992 167.683C135.632 167.419 135.188 167.287 134.659 167.287C134.107 167.287 133.648 167.426 133.281 167.705C132.917 167.985 132.643 168.359 132.46 168.83C132.28 169.3 132.19 169.822 132.19 170.395C132.19 170.983 132.281 171.502 132.465 171.954C132.653 172.403 132.928 172.755 133.292 173.012C133.659 173.266 134.115 173.393 134.659 173.393ZM144.292 174.87C143.476 174.87 142.773 174.69 142.181 174.33C141.593 173.966 141.14 173.459 140.82 172.809C140.504 172.155 140.346 171.394 140.346 170.527C140.346 169.66 140.504 168.896 140.82 168.234C141.14 167.569 141.584 167.051 142.154 166.68C142.727 166.306 143.395 166.118 144.16 166.118C144.6 166.118 145.036 166.192 145.466 166.339C145.896 166.486 146.287 166.724 146.64 167.055C146.992 167.382 147.273 167.816 147.483 168.356C147.692 168.896 147.797 169.561 147.797 170.351V170.902H141.272V169.778H146.474C146.474 169.3 146.379 168.874 146.188 168.499C146 168.124 145.732 167.828 145.383 167.612C145.038 167.395 144.63 167.287 144.16 167.287C143.642 167.287 143.193 167.415 142.815 167.672C142.44 167.926 142.152 168.256 141.95 168.664C141.748 169.072 141.647 169.509 141.647 169.976V170.725C141.647 171.365 141.757 171.907 141.977 172.351C142.201 172.792 142.512 173.128 142.909 173.36C143.305 173.587 143.766 173.701 144.292 173.701C144.633 173.701 144.942 173.654 145.218 173.558C145.497 173.459 145.738 173.312 145.94 173.117C146.142 172.919 146.298 172.673 146.408 172.379L147.665 172.731C147.532 173.158 147.31 173.532 146.998 173.856C146.685 174.175 146.3 174.425 145.84 174.605C145.381 174.782 144.865 174.87 144.292 174.87ZM155.771 168.124L154.603 168.455C154.529 168.26 154.421 168.071 154.278 167.887C154.138 167.7 153.947 167.546 153.705 167.424C153.462 167.303 153.152 167.242 152.773 167.242C152.255 167.242 151.824 167.362 151.478 167.601C151.137 167.836 150.966 168.135 150.966 168.499C150.966 168.822 151.083 169.078 151.318 169.265C151.554 169.452 151.921 169.609 152.421 169.733L153.677 170.042C154.434 170.226 154.998 170.507 155.369 170.885C155.74 171.26 155.926 171.743 155.926 172.335C155.926 172.82 155.786 173.253 155.507 173.635C155.231 174.017 154.845 174.319 154.349 174.539C153.853 174.759 153.277 174.87 152.619 174.87C151.756 174.87 151.041 174.682 150.475 174.308C149.909 173.933 149.551 173.385 149.401 172.665L150.635 172.357C150.753 172.812 150.975 173.154 151.302 173.382C151.633 173.61 152.064 173.723 152.597 173.723C153.203 173.723 153.684 173.595 154.041 173.338C154.401 173.077 154.581 172.764 154.581 172.401C154.581 172.107 154.478 171.861 154.272 171.662C154.067 171.46 153.751 171.31 153.324 171.21L151.914 170.88C151.138 170.696 150.569 170.411 150.205 170.026C149.845 169.636 149.665 169.149 149.665 168.565C149.665 168.087 149.799 167.665 150.067 167.298C150.339 166.93 150.708 166.642 151.175 166.432C151.645 166.223 152.178 166.118 152.773 166.118C153.611 166.118 154.269 166.302 154.746 166.669C155.228 167.037 155.569 167.522 155.771 168.124ZM161.565 166.228V167.331H157.178V166.228H161.565ZM158.457 164.2H159.757V172.269C159.757 172.636 159.81 172.911 159.917 173.095C160.027 173.275 160.167 173.396 160.336 173.459C160.508 173.518 160.69 173.547 160.881 173.547C161.025 173.547 161.142 173.54 161.234 173.525C161.326 173.507 161.399 173.492 161.455 173.481L161.719 174.649C161.631 174.682 161.508 174.715 161.35 174.748C161.192 174.785 160.992 174.804 160.749 174.804C160.382 174.804 160.022 174.725 159.669 174.567C159.32 174.409 159.03 174.168 158.798 173.845C158.57 173.521 158.457 173.114 158.457 172.621V164.2ZM166.979 174.87C166.164 174.87 165.46 174.69 164.869 174.33C164.281 173.966 163.827 173.459 163.507 172.809C163.191 172.155 163.033 171.394 163.033 170.527C163.033 169.66 163.191 168.896 163.507 168.234C163.827 167.569 164.272 167.051 164.841 166.68C165.414 166.306 166.083 166.118 166.847 166.118C167.288 166.118 167.723 166.192 168.153 166.339C168.583 166.486 168.974 166.724 169.327 167.055C169.68 167.382 169.961 167.816 170.17 168.356C170.38 168.896 170.484 169.561 170.484 170.351V170.902H163.959V169.778H169.162C169.162 169.3 169.066 168.874 168.875 168.499C168.688 168.124 168.42 167.828 168.071 167.612C167.725 167.395 167.317 167.287 166.847 167.287C166.329 167.287 165.881 167.415 165.502 167.672C165.128 167.926 164.839 168.256 164.637 168.664C164.435 169.072 164.334 169.509 164.334 169.976V170.725C164.334 171.365 164.444 171.907 164.665 172.351C164.889 172.792 165.199 173.128 165.596 173.36C165.993 173.587 166.454 173.701 166.979 173.701C167.321 173.701 167.63 173.654 167.905 173.558C168.184 173.459 168.425 173.312 168.627 173.117C168.829 172.919 168.985 172.673 169.096 172.379L170.352 172.731C170.22 173.158 169.998 173.532 169.685 173.856C169.373 174.175 168.987 174.425 168.528 174.605C168.069 174.782 167.552 174.87 166.979 174.87ZM175.659 174.87C174.954 174.87 174.331 174.692 173.791 174.335C173.251 173.975 172.828 173.468 172.523 172.814C172.219 172.156 172.066 171.379 172.066 170.483C172.066 169.594 172.219 168.822 172.523 168.168C172.828 167.514 173.253 167.009 173.796 166.653C174.34 166.296 174.969 166.118 175.681 166.118C176.232 166.118 176.668 166.21 176.987 166.394C177.311 166.574 177.557 166.78 177.726 167.011C177.899 167.239 178.033 167.426 178.128 167.573H178.238V163.407H179.539V174.693H178.282V173.393H178.128C178.033 173.547 177.897 173.742 177.72 173.977C177.544 174.208 177.292 174.416 176.965 174.6C176.638 174.78 176.203 174.87 175.659 174.87ZM175.836 173.701C176.357 173.701 176.798 173.565 177.158 173.294C177.518 173.018 177.792 172.638 177.979 172.153C178.167 171.664 178.26 171.1 178.26 170.461C178.26 169.829 178.169 169.276 177.985 168.802C177.801 168.324 177.529 167.953 177.169 167.689C176.809 167.421 176.365 167.287 175.836 167.287C175.284 167.287 174.825 167.428 174.458 167.711C174.094 167.99 173.82 168.37 173.637 168.852C173.457 169.329 173.367 169.866 173.367 170.461C173.367 171.063 173.458 171.611 173.642 172.103C173.83 172.592 174.105 172.981 174.469 173.272C174.836 173.558 175.292 173.701 175.836 173.701ZM196.166 169.05C196.166 170.24 195.951 171.269 195.521 172.136C195.091 173.003 194.501 173.672 193.752 174.142C193.002 174.613 192.146 174.848 191.184 174.848C190.221 174.848 189.365 174.613 188.616 174.142C187.866 173.672 187.276 173.003 186.847 172.136C186.417 171.269 186.202 170.24 186.202 169.05C186.202 167.86 186.417 166.831 186.847 165.964C187.276 165.097 187.866 164.428 188.616 163.958C189.365 163.488 190.221 163.252 191.184 163.252C192.146 163.252 193.002 163.488 193.752 163.958C194.501 164.428 195.091 165.097 195.521 165.964C195.951 166.831 196.166 167.86 196.166 169.05ZM194.843 169.05C194.843 168.073 194.68 167.248 194.353 166.576C194.029 165.903 193.59 165.394 193.036 165.049C192.484 164.704 191.867 164.531 191.184 164.531C190.5 164.531 189.881 164.704 189.327 165.049C188.775 165.394 188.336 165.903 188.009 166.576C187.686 167.248 187.524 168.073 187.524 169.05C187.524 170.027 187.686 170.852 188.009 171.525C188.336 172.197 188.775 172.706 189.327 173.051C189.881 173.396 190.5 173.569 191.184 173.569C191.867 173.569 192.484 173.396 193.036 173.051C193.59 172.706 194.029 172.197 194.353 171.525C194.68 170.852 194.843 170.027 194.843 169.05ZM198.288 177.868V166.228H199.544V167.573H199.698C199.794 167.426 199.926 167.239 200.095 167.011C200.268 166.78 200.514 166.574 200.834 166.394C201.157 166.21 201.594 166.118 202.145 166.118C202.858 166.118 203.486 166.296 204.03 166.653C204.574 167.009 204.998 167.514 205.303 168.168C205.608 168.822 205.76 169.594 205.76 170.483C205.76 171.379 205.608 172.156 205.303 172.814C204.998 173.468 204.576 173.975 204.036 174.335C203.495 174.692 202.873 174.87 202.167 174.87C201.624 174.87 201.188 174.78 200.861 174.6C200.534 174.416 200.283 174.208 200.106 173.977C199.93 173.742 199.794 173.547 199.698 173.393H199.588V177.868H198.288ZM199.566 170.461C199.566 171.1 199.66 171.664 199.847 172.153C200.035 172.638 200.308 173.018 200.668 173.294C201.028 173.565 201.469 173.701 201.991 173.701C202.535 173.701 202.988 173.558 203.352 173.272C203.72 172.981 203.995 172.592 204.179 172.103C204.366 171.611 204.46 171.063 204.46 170.461C204.46 169.866 204.368 169.329 204.184 168.852C204.004 168.37 203.731 167.99 203.363 167.711C202.999 167.428 202.542 167.287 201.991 167.287C201.462 167.287 201.017 167.421 200.657 167.689C200.297 167.953 200.025 168.324 199.842 168.802C199.658 169.276 199.566 169.829 199.566 170.461ZM211.426 166.228V167.331H207.039V166.228H211.426ZM208.318 164.2H209.618V172.269C209.618 172.636 209.671 172.911 209.778 173.095C209.888 173.275 210.028 173.396 210.197 173.459C210.37 173.518 210.551 173.547 210.742 173.547C210.886 173.547 211.003 173.54 211.095 173.525C211.187 173.507 211.26 173.492 211.316 173.481L211.58 174.649C211.492 174.682 211.369 174.715 211.211 174.748C211.053 174.785 210.853 174.804 210.61 174.804C210.243 174.804 209.883 174.725 209.53 174.567C209.181 174.409 208.891 174.168 208.659 173.845C208.431 173.521 208.318 173.114 208.318 172.621V164.2ZM213.382 174.693V166.228H214.683V174.693H213.382ZM214.044 164.818C213.79 164.818 213.571 164.731 213.388 164.559C213.208 164.386 213.118 164.178 213.118 163.936C213.118 163.693 213.208 163.486 213.388 163.313C213.571 163.14 213.79 163.054 214.044 163.054C214.297 163.054 214.514 163.14 214.694 163.313C214.878 163.486 214.969 163.693 214.969 163.936C214.969 164.178 214.878 164.386 214.694 164.559C214.514 164.731 214.297 164.818 214.044 164.818ZM217.065 174.693V166.228H218.321V167.551H218.432C218.608 167.099 218.893 166.748 219.286 166.498C219.679 166.245 220.151 166.118 220.702 166.118C221.261 166.118 221.725 166.245 222.097 166.498C222.471 166.748 222.763 167.099 222.973 167.551H223.061C223.278 167.114 223.603 166.767 224.036 166.509C224.47 166.249 224.99 166.118 225.596 166.118C226.353 166.118 226.972 166.355 227.453 166.829C227.935 167.299 228.175 168.032 228.175 169.028V174.693H226.875V169.028C226.875 168.403 226.704 167.957 226.362 167.689C226.02 167.421 225.618 167.287 225.155 167.287C224.56 167.287 224.099 167.467 223.772 167.827C223.445 168.183 223.281 168.635 223.281 169.182V174.693H221.959V168.896C221.959 168.414 221.803 168.027 221.49 167.733C221.178 167.435 220.776 167.287 220.283 167.287C219.945 167.287 219.629 167.377 219.336 167.557C219.045 167.737 218.81 167.986 218.63 168.306C218.454 168.622 218.366 168.988 218.366 169.403V174.693H217.065ZM230.553 174.693V166.228H231.854V174.693H230.553ZM231.215 164.818C230.961 164.818 230.742 164.731 230.559 164.559C230.379 164.386 230.289 164.178 230.289 163.936C230.289 163.693 230.379 163.486 230.559 163.313C230.742 163.14 230.961 163.054 231.215 163.054C231.468 163.054 231.685 163.14 231.865 163.313C232.049 163.486 232.14 163.693 232.14 163.936C232.14 164.178 232.049 164.386 231.865 164.559C231.685 164.731 231.468 164.818 231.215 164.818ZM233.993 174.693V173.701L238.799 167.529V167.441H234.148V166.228H240.474V167.264L235.801 173.393V173.481H240.629V174.693H233.993ZM245.939 174.87C245.123 174.87 244.419 174.69 243.828 174.33C243.24 173.966 242.786 173.459 242.467 172.809C242.151 172.155 241.993 171.394 241.993 170.527C241.993 169.66 242.151 168.896 242.467 168.234C242.786 167.569 243.231 167.051 243.8 166.68C244.374 166.306 245.042 166.118 245.806 166.118C246.247 166.118 246.683 166.192 247.113 166.339C247.542 166.486 247.934 166.724 248.286 167.055C248.639 167.382 248.92 167.816 249.13 168.356C249.339 168.896 249.444 169.561 249.444 170.351V170.902H242.919V169.778H248.121C248.121 169.3 248.026 168.874 247.834 168.499C247.647 168.124 247.379 167.828 247.03 167.612C246.684 167.395 246.277 167.287 245.806 167.287C245.288 167.287 244.84 167.415 244.462 167.672C244.087 167.926 243.799 168.256 243.596 168.664C243.394 169.072 243.293 169.509 243.293 169.976V170.725C243.293 171.365 243.404 171.907 243.624 172.351C243.848 172.792 244.159 173.128 244.555 173.36C244.952 173.587 245.413 173.701 245.939 173.701C246.28 173.701 246.589 173.654 246.865 173.558C247.144 173.459 247.384 173.312 247.586 173.117C247.789 172.919 247.945 172.673 248.055 172.379L249.311 172.731C249.179 173.158 248.957 173.532 248.645 173.856C248.332 174.175 247.947 174.425 247.487 174.605C247.028 174.782 246.512 174.87 245.939 174.87ZM254.619 174.87C253.913 174.87 253.29 174.692 252.75 174.335C252.21 173.975 251.788 173.468 251.483 172.814C251.178 172.156 251.025 171.379 251.025 170.483C251.025 169.594 251.178 168.822 251.483 168.168C251.788 167.514 252.212 167.009 252.756 166.653C253.3 166.296 253.928 166.118 254.641 166.118C255.192 166.118 255.627 166.21 255.947 166.394C256.27 166.574 256.516 166.78 256.685 167.011C256.858 167.239 256.992 167.426 257.087 167.573H257.198V163.407H258.498V174.693H257.242V173.393H257.087C256.992 173.547 256.856 173.742 256.68 173.977C256.503 174.208 256.252 174.416 255.925 174.6C255.598 174.78 255.162 174.87 254.619 174.87ZM254.795 173.701C255.317 173.701 255.757 173.565 256.118 173.294C256.478 173.018 256.751 172.638 256.939 172.153C257.126 171.664 257.22 171.1 257.22 170.461C257.22 169.829 257.128 169.276 256.944 168.802C256.76 168.324 256.489 167.953 256.129 167.689C255.769 167.421 255.324 167.287 254.795 167.287C254.244 167.287 253.785 167.428 253.417 167.711C253.053 167.99 252.78 168.37 252.596 168.852C252.416 169.329 252.326 169.866 252.326 170.461C252.326 171.063 252.418 171.611 252.601 172.103C252.789 172.592 253.064 172.981 253.428 173.272C253.796 173.558 254.251 173.701 254.795 173.701ZM265.602 174.693V163.407H266.969V173.481H272.215V174.693H265.602ZM276.646 174.892C276.11 174.892 275.623 174.791 275.186 174.589C274.748 174.383 274.401 174.087 274.144 173.701C273.887 173.312 273.758 172.842 273.758 172.291C273.758 171.806 273.854 171.412 274.045 171.111C274.236 170.806 274.491 170.567 274.811 170.395C275.131 170.222 275.483 170.093 275.869 170.009C276.259 169.921 276.65 169.851 277.043 169.8C277.557 169.733 277.974 169.684 278.294 169.651C278.617 169.614 278.852 169.553 278.999 169.469C279.15 169.384 279.225 169.237 279.225 169.028V168.984C279.225 168.44 279.076 168.018 278.779 167.716C278.485 167.415 278.039 167.264 277.44 167.264C276.819 167.264 276.332 167.4 275.979 167.672C275.627 167.944 275.379 168.234 275.235 168.543L274.001 168.102C274.221 167.588 274.515 167.187 274.883 166.901C275.254 166.611 275.658 166.408 276.095 166.295C276.536 166.177 276.969 166.118 277.396 166.118C277.667 166.118 277.98 166.151 278.332 166.217C278.689 166.28 279.032 166.41 279.363 166.609C279.697 166.807 279.975 167.107 280.195 167.507C280.416 167.907 280.526 168.444 280.526 169.116V174.693H279.225V173.547H279.159C279.071 173.731 278.924 173.927 278.718 174.137C278.513 174.346 278.239 174.524 277.897 174.671C277.555 174.818 277.138 174.892 276.646 174.892ZM276.845 173.723C277.359 173.723 277.792 173.622 278.145 173.42C278.502 173.218 278.77 172.957 278.95 172.638C279.133 172.318 279.225 171.982 279.225 171.629V170.439C279.17 170.505 279.049 170.566 278.862 170.621C278.678 170.672 278.465 170.718 278.222 170.758C277.983 170.795 277.75 170.828 277.522 170.858C277.298 170.883 277.116 170.905 276.977 170.924C276.639 170.968 276.323 171.04 276.029 171.139C275.739 171.234 275.504 171.379 275.323 171.574C275.147 171.765 275.059 172.026 275.059 172.357C275.059 172.809 275.226 173.15 275.56 173.382C275.898 173.61 276.326 173.723 276.845 173.723ZM284.2 169.601V174.693H282.9V166.228H284.156V167.551H284.266C284.465 167.121 284.766 166.776 285.17 166.515C285.574 166.25 286.096 166.118 286.735 166.118C287.309 166.118 287.81 166.236 288.24 166.471C288.67 166.702 289.004 167.055 289.243 167.529C289.482 167.999 289.601 168.594 289.601 169.315V174.693H288.301V169.403C288.301 168.738 288.128 168.22 287.783 167.849C287.437 167.474 286.963 167.287 286.361 167.287C285.946 167.287 285.574 167.377 285.247 167.557C284.924 167.737 284.669 167.999 284.481 168.345C284.294 168.69 284.2 169.109 284.2 169.601ZM295.395 178.044C294.766 178.044 294.226 177.963 293.774 177.802C293.323 177.644 292.946 177.434 292.645 177.173C292.347 176.916 292.11 176.641 291.934 176.347L292.97 175.619C293.087 175.774 293.236 175.95 293.416 176.148C293.596 176.35 293.842 176.525 294.155 176.672C294.471 176.822 294.884 176.898 295.395 176.898C296.078 176.898 296.642 176.732 297.087 176.402C297.531 176.071 297.753 175.553 297.753 174.848V173.128H297.643C297.548 173.283 297.412 173.474 297.235 173.701C297.063 173.925 296.813 174.126 296.486 174.302C296.163 174.475 295.725 174.561 295.174 174.561C294.491 174.561 293.877 174.399 293.334 174.076C292.793 173.753 292.365 173.283 292.049 172.665C291.737 172.048 291.581 171.299 291.581 170.417C291.581 169.55 291.733 168.795 292.038 168.152C292.343 167.505 292.768 167.005 293.311 166.653C293.855 166.296 294.483 166.118 295.196 166.118C295.747 166.118 296.185 166.21 296.508 166.394C296.835 166.574 297.085 166.78 297.257 167.011C297.434 167.239 297.57 167.426 297.665 167.573H297.797V166.228H299.054V174.936C299.054 175.663 298.889 176.255 298.558 176.71C298.231 177.17 297.79 177.506 297.235 177.719C296.684 177.936 296.071 178.044 295.395 178.044ZM295.351 173.393C295.872 173.393 296.313 173.273 296.673 173.035C297.033 172.796 297.307 172.452 297.494 172.004C297.682 171.556 297.775 171.019 297.775 170.395C297.775 169.785 297.684 169.247 297.5 168.78C297.316 168.313 297.044 167.948 296.684 167.683C296.324 167.419 295.88 167.287 295.351 167.287C294.799 167.287 294.34 167.426 293.973 167.705C293.609 167.985 293.335 168.359 293.152 168.83C292.972 169.3 292.882 169.822 292.882 170.395C292.882 170.983 292.973 171.502 293.157 171.954C293.345 172.403 293.62 172.755 293.984 173.012C294.351 173.266 294.807 173.393 295.351 173.393ZM306.769 171.232V166.228H308.07V174.693H306.769V173.26H306.681C306.483 173.69 306.174 174.056 305.755 174.357C305.337 174.655 304.807 174.804 304.168 174.804C303.639 174.804 303.169 174.688 302.757 174.456C302.346 174.221 302.023 173.869 301.787 173.398C301.552 172.924 301.435 172.327 301.435 171.607V166.228H302.735V171.519C302.735 172.136 302.908 172.629 303.253 172.996C303.602 173.363 304.047 173.547 304.587 173.547C304.91 173.547 305.239 173.464 305.574 173.299C305.912 173.134 306.194 172.88 306.422 172.539C306.654 172.197 306.769 171.761 306.769 171.232ZM312.943 174.892C312.407 174.892 311.92 174.791 311.483 174.589C311.046 174.383 310.698 174.087 310.441 173.701C310.184 173.312 310.055 172.842 310.055 172.291C310.055 171.806 310.151 171.412 310.342 171.111C310.533 170.806 310.788 170.567 311.108 170.395C311.428 170.222 311.78 170.093 312.166 170.009C312.556 169.921 312.947 169.851 313.34 169.8C313.854 169.733 314.271 169.684 314.591 169.651C314.914 169.614 315.149 169.553 315.296 169.469C315.447 169.384 315.522 169.237 315.522 169.028V168.984C315.522 168.44 315.374 168.018 315.076 167.716C314.782 167.415 314.336 167.264 313.737 167.264C313.116 167.264 312.629 167.4 312.276 167.672C311.924 167.944 311.676 168.234 311.532 168.543L310.298 168.102C310.518 167.588 310.812 167.187 311.18 166.901C311.551 166.611 311.955 166.408 312.392 166.295C312.833 166.177 313.266 166.118 313.693 166.118C313.965 166.118 314.277 166.151 314.63 166.217C314.986 166.28 315.329 166.41 315.66 166.609C315.994 166.807 316.272 167.107 316.492 167.507C316.713 167.907 316.823 168.444 316.823 169.116V174.693H315.522V173.547H315.456C315.368 173.731 315.221 173.927 315.015 174.137C314.81 174.346 314.536 174.524 314.194 174.671C313.852 174.818 313.435 174.892 312.943 174.892ZM313.142 173.723C313.656 173.723 314.089 173.622 314.442 173.42C314.799 173.218 315.067 172.957 315.247 172.638C315.43 172.318 315.522 171.982 315.522 171.629V170.439C315.467 170.505 315.346 170.566 315.159 170.621C314.975 170.672 314.762 170.718 314.519 170.758C314.28 170.795 314.047 170.828 313.819 170.858C313.595 170.883 313.413 170.905 313.274 170.924C312.936 170.968 312.62 171.04 312.326 171.139C312.036 171.234 311.801 171.379 311.621 171.574C311.444 171.765 311.356 172.026 311.356 172.357C311.356 172.809 311.523 173.15 311.857 173.382C312.195 173.61 312.624 173.723 313.142 173.723ZM322.614 178.044C321.985 178.044 321.445 177.963 320.993 177.802C320.541 177.644 320.165 177.434 319.864 177.173C319.566 176.916 319.329 176.641 319.153 176.347L320.189 175.619C320.306 175.774 320.455 175.95 320.635 176.148C320.815 176.35 321.061 176.525 321.374 176.672C321.69 176.822 322.103 176.898 322.614 176.898C323.297 176.898 323.861 176.732 324.306 176.402C324.75 176.071 324.972 175.553 324.972 174.848V173.128H324.862C324.767 173.283 324.631 173.474 324.454 173.701C324.282 173.925 324.032 174.126 323.705 174.302C323.382 174.475 322.944 174.561 322.393 174.561C321.71 174.561 321.096 174.399 320.553 174.076C320.012 173.753 319.584 173.283 319.268 172.665C318.956 172.048 318.8 171.299 318.8 170.417C318.8 169.55 318.952 168.795 319.257 168.152C319.562 167.505 319.987 167.005 320.53 166.653C321.074 166.296 321.702 166.118 322.415 166.118C322.966 166.118 323.404 166.21 323.727 166.394C324.054 166.574 324.304 166.78 324.476 167.011C324.653 167.239 324.789 167.426 324.884 167.573H325.016V166.228H326.273V174.936C326.273 175.663 326.108 176.255 325.777 176.71C325.45 177.17 325.009 177.506 324.454 177.719C323.903 177.936 323.29 178.044 322.614 178.044ZM322.57 173.393C323.091 173.393 323.532 173.273 323.892 173.035C324.252 172.796 324.526 172.452 324.713 172.004C324.901 171.556 324.994 171.019 324.994 170.395C324.994 169.785 324.903 169.247 324.719 168.78C324.535 168.313 324.263 167.948 323.903 167.683C323.543 167.419 323.099 167.287 322.57 167.287C322.018 167.287 321.559 167.426 321.192 167.705C320.828 167.985 320.554 168.359 320.371 168.83C320.191 169.3 320.101 169.822 320.101 170.395C320.101 170.983 320.192 171.502 320.376 171.954C320.564 172.403 320.839 172.755 321.203 173.012C321.57 173.266 322.026 173.393 322.57 173.393ZM332.203 174.87C331.387 174.87 330.684 174.69 330.092 174.33C329.504 173.966 329.051 173.459 328.731 172.809C328.415 172.155 328.257 171.394 328.257 170.527C328.257 169.66 328.415 168.896 328.731 168.234C329.051 167.569 329.495 167.051 330.065 166.68C330.638 166.306 331.306 166.118 332.071 166.118C332.511 166.118 332.947 166.192 333.377 166.339C333.807 166.486 334.198 166.724 334.551 167.055C334.903 167.382 335.184 167.816 335.394 168.356C335.603 168.896 335.708 169.561 335.708 170.351V170.902H329.183V169.778H334.385C334.385 169.3 334.29 168.874 334.099 168.499C333.911 168.124 333.643 167.828 333.294 167.612C332.949 167.395 332.541 167.287 332.071 167.287C331.553 167.287 331.104 167.415 330.726 167.672C330.351 167.926 330.063 168.256 329.861 168.664C329.659 169.072 329.558 169.509 329.558 169.976V170.725C329.558 171.365 329.668 171.907 329.888 172.351C330.112 172.792 330.423 173.128 330.82 173.36C331.216 173.587 331.677 173.701 332.203 173.701C332.545 173.701 332.853 173.654 333.129 173.558C333.408 173.459 333.649 173.312 333.851 173.117C334.053 172.919 334.209 172.673 334.319 172.379L335.576 172.731C335.443 173.158 335.221 173.532 334.909 173.856C334.596 174.175 334.211 174.425 333.751 174.605C333.292 174.782 332.776 174.87 332.203 174.87Z" fill="#2B2D2D"/>
</g>
<path d="M359.174 169.896L354.341 174.766C354.205 174.904 354.02 174.981 353.828 174.981C353.635 174.981 353.45 174.904 353.314 174.766C353.178 174.629 353.102 174.443 353.102 174.249C353.102 174.055 353.178 173.869 353.314 173.731L357.634 169.38L353.315 165.027C353.248 164.959 353.195 164.878 353.158 164.789C353.122 164.7 353.103 164.605 353.103 164.509C353.103 164.413 353.122 164.318 353.158 164.229C353.195 164.14 353.248 164.06 353.315 163.992C353.383 163.924 353.463 163.87 353.551 163.833C353.639 163.796 353.734 163.777 353.829 163.777C353.924 163.777 354.019 163.796 354.107 163.833C354.195 163.87 354.275 163.924 354.342 163.992L359.175 168.862C359.243 168.929 359.296 169.01 359.333 169.099C359.369 169.188 359.388 169.283 359.388 169.379C359.388 169.475 359.369 169.571 359.332 169.659C359.296 169.748 359.242 169.829 359.174 169.896Z" fill="#2B2D2D"/>
<defs>
<clipPath id="clip0_3528_5195">
<rect width="151.328" height="24" fill="white" transform="translate(211.645 41.2285)"/>
</clipPath>
<clipPath id="clip1_3528_5195">
<rect width="166.328" height="24" fill="white" transform="translate(196.645 99.0488)"/>
</clipPath>
<clipPath id="clip2_3528_5195">
<rect width="234.11" height="23.3673" fill="white" transform="translate(101.723 157.693)"/>
</clipPath>
</defs>
</svg>
